<svg width="193" height="52" viewBox="0 0 193 52" fill="none" xmlns="http://www.w3.org/2000/svg">
<path fill-rule="evenodd" clip-rule="evenodd" d="M10.0882 0.322918C10.0882 0.392496 9.81015 0.449424 9.4703 0.449424C9.13046 0.449424 8.8524 0.506352 8.8524 0.57593C8.8524 0.645509 8.62996 0.702437 8.35809 0.702437C8.08621 0.702437 7.86377 0.759365 7.86377 0.828943C7.86377 0.898522 7.77639 0.95545 7.66962 0.95545C7.56273 0.95545 7.39589 1.03679 7.29888 1.13623C7.09819 1.34155 7.05827 1.9675 7.24587 1.9675C7.31384 1.9675 7.36945 2.19521 7.36945 2.47353C7.36945 2.75184 7.42506 2.97955 7.49303 2.97955C7.561 2.97955 7.61661 3.20726 7.61661 3.48558C7.61661 3.76389 7.67222 3.9916 7.74019 3.9916C7.80815 3.9916 7.86377 4.16239 7.86377 4.37112C7.86377 4.57986 7.91938 4.75064 7.98735 4.75064C8.05531 4.75064 8.11093 4.97835 8.11093 5.25667C8.11093 5.53498 8.16654 5.76269 8.23451 5.76269C8.30247 5.76269 8.35809 5.93348 8.35809 6.14221C8.35809 6.35095 8.4137 6.52173 8.48166 6.52173C8.54963 6.52173 8.60524 6.74944 8.60524 7.02776C8.60524 7.30607 8.66086 7.53378 8.72882 7.53378C8.79679 7.53378 8.8524 7.70457 8.8524 7.9133C8.8524 8.12204 8.90802 8.29282 8.97598 8.29282C9.04395 8.29282 9.09956 8.52054 9.09956 8.79885C9.09956 9.07716 9.15518 9.30488 9.22314 9.30488C9.29111 9.30488 9.34672 9.47566 9.34672 9.68439C9.34672 9.89313 9.40234 10.0639 9.4703 10.0639C9.53827 10.0639 9.59388 10.2347 9.59388 10.4434C9.59388 10.6522 9.64949 10.823 9.71746 10.823C9.78543 10.823 9.84104 10.9937 9.84104 11.2025C9.84104 11.4112 9.89665 11.582 9.96462 11.582C10.0326 11.582 10.0882 11.7528 10.0882 11.9615C10.0882 12.1702 10.1438 12.341 10.2118 12.341C10.2798 12.341 10.3354 12.5118 10.3354 12.7205C10.3354 12.9293 10.391 13.1001 10.4589 13.1001C10.5269 13.1001 10.5825 13.2709 10.5825 13.4796C10.5825 13.6883 10.6381 13.8591 10.7061 13.8591C10.7741 13.8591 10.8297 14.0299 10.8297 14.2386C10.8297 14.4474 10.8853 14.6181 10.9533 14.6181C11.0212 14.6181 11.0768 14.7889 11.0768 14.9977C11.0768 15.2064 11.1325 15.3772 11.2004 15.3772C11.2684 15.3772 11.324 15.548 11.324 15.7567C11.324 15.9654 11.3796 16.1362 11.4476 16.1362C11.5156 16.1362 11.5712 16.307 11.5712 16.5157C11.5712 16.7245 11.6268 16.8953 11.6947 16.8953C11.7627 16.8953 11.8183 17.066 11.8183 17.2748C11.8183 17.4835 11.8739 17.6543 11.9419 17.6543C12.0099 17.6543 12.0655 17.8251 12.0655 18.0338C12.0655 18.2426 12.1211 18.4133 12.1891 18.4133C12.257 18.4133 12.3126 18.5272 12.3126 18.6664C12.3126 18.8055 12.3683 18.9194 12.4362 18.9194C12.5042 18.9194 12.5598 19.0901 12.5598 19.2989C12.5598 19.5076 12.6154 19.6784 12.6834 19.6784C12.7513 19.6784 12.807 19.7923 12.807 19.9314C12.807 20.0706 12.8626 20.1844 12.9305 20.1844C12.9985 20.1844 13.0541 20.3552 13.0541 20.5639C13.0541 20.7727 13.1097 20.9435 13.1777 20.9435C13.2457 20.9435 13.3013 21.1143 13.3013 21.323C13.3013 21.5317 13.3569 21.7025 13.4249 21.7025C13.4928 21.7025 13.5484 21.8164 13.5484 21.9555C13.5484 22.0947 13.604 22.2085 13.672 22.2085C13.74 22.2085 13.7956 22.3793 13.7956 22.5881C13.7956 22.7968 13.8512 22.9676 13.9192 22.9676C13.9871 22.9676 14.0428 23.0814 14.0428 23.2206C14.0428 23.3597 14.0984 23.4736 14.1663 23.4736C14.2343 23.4736 14.2899 23.5875 14.2899 23.7266C14.2899 23.8658 14.3455 23.9796 14.4135 23.9796C14.4815 23.9796 14.5371 24.1504 14.5371 24.3591C14.5371 24.5679 14.5927 24.7387 14.6607 24.7387C14.7286 24.7387 14.7842 24.8525 14.7842 24.9917C14.7842 25.1308 14.8398 25.2447 14.9078 25.2447C14.9758 25.2447 15.0314 25.3585 15.0314 25.4977C15.0314 25.6369 15.087 25.7507 15.155 25.7507C15.2229 25.7507 15.2786 25.8646 15.2786 26.0037C15.2786 26.1429 15.3342 26.2567 15.4021 26.2567C15.4701 26.2567 15.5257 26.3658 15.5257 26.4993C15.5257 26.6326 15.5922 26.7644 15.6735 26.7921C15.8361 26.8477 13.2622 29.5459 13.0467 29.5459C12.8486 29.5459 12.5598 29.2136 12.5598 28.9856C12.5598 28.8763 12.5042 28.7869 12.4362 28.7869C12.3683 28.7869 12.3126 28.673 12.3126 28.5339C12.3126 28.3947 12.257 28.2808 12.1891 28.2808C12.1211 28.2808 12.0655 28.167 12.0655 28.0278C12.0655 27.8887 12.0099 27.7748 11.9419 27.7748C11.8739 27.7748 11.8183 27.661 11.8183 27.5218C11.8183 27.3826 11.7627 27.2688 11.6947 27.2688C11.6268 27.2688 11.5712 27.1549 11.5712 27.0158C11.5712 26.8766 11.5156 26.7628 11.4476 26.7628C11.3796 26.7628 11.324 26.592 11.324 26.3832C11.324 26.1745 11.2684 26.0037 11.2004 26.0037C11.1325 26.0037 11.0768 25.8899 11.0768 25.7507C11.0768 25.6116 11.0212 25.4977 10.9533 25.4977C10.8853 25.4977 10.8297 25.3269 10.8297 25.1182C10.8297 24.9094 10.7741 24.7387 10.7061 24.7387C10.6381 24.7387 10.5825 24.6248 10.5825 24.4856C10.5825 24.3465 10.5269 24.2326 10.4589 24.2326C10.391 24.2326 10.3354 24.0619 10.3354 23.8531C10.3354 23.6444 10.2798 23.4736 10.2118 23.4736C10.1438 23.4736 10.0882 23.3597 10.0882 23.2206C10.0882 23.0814 10.0326 22.9676 9.96462 22.9676C9.89665 22.9676 9.84104 22.7968 9.84104 22.5881C9.84104 22.3793 9.78543 22.2085 9.71746 22.2085C9.64949 22.2085 9.59388 22.0947 9.59388 21.9555C9.59388 21.8164 9.53827 21.7025 9.4703 21.7025C9.40234 21.7025 9.34672 21.5317 9.34672 21.323C9.34672 21.1143 9.29111 20.9435 9.22314 20.9435C9.15518 20.9435 9.09956 20.7727 9.09956 20.5639C9.09956 20.3552 9.04395 20.1844 8.97598 20.1844C8.90802 20.1844 8.8524 20.0706 8.8524 19.9314C8.8524 19.7923 8.79679 19.6784 8.72882 19.6784C8.66086 19.6784 8.60524 19.5076 8.60524 19.2989C8.60524 19.0901 8.54963 18.9194 8.48166 18.9194C8.4137 18.9194 8.35809 18.7486 8.35809 18.5398C8.35809 18.3311 8.30247 18.1603 8.23451 18.1603C8.16654 18.1603 8.11093 17.9895 8.11093 17.7808C8.11093 17.5721 8.05531 17.4013 7.98735 17.4013C7.91938 17.4013 7.86377 17.2874 7.86377 17.1483C7.86377 17.0091 7.80815 16.8953 7.74019 16.8953C7.67222 16.8953 7.61661 16.7245 7.61661 16.5157C7.61661 16.307 7.561 16.1362 7.49303 16.1362C7.42506 16.1362 7.36945 15.9654 7.36945 15.7567C7.36945 15.548 7.31384 15.3772 7.24587 15.3772C7.1779 15.3772 7.12229 15.2064 7.12229 14.9977C7.12229 14.7889 7.06668 14.6181 6.99871 14.6181C6.93074 14.6181 6.87513 14.4474 6.87513 14.2386C6.87513 14.0299 6.81952 13.8591 6.75155 13.8591C6.68358 13.8591 6.62797 13.6883 6.62797 13.4796C6.62797 13.2709 6.57236 13.1001 6.50439 13.1001C6.43642 13.1001 6.38081 12.9293 6.38081 12.7205C6.38081 12.5118 6.3252 12.341 6.25723 12.341C6.18926 12.341 6.13365 12.1702 6.13365 11.9615C6.13365 11.7528 6.07804 11.582 6.01007 11.582C5.9421 11.582 5.88649 11.3543 5.88649 11.076C5.88649 10.7977 5.83088 10.5699 5.76291 10.5699C5.69494 10.5699 5.63933 10.3992 5.63933 10.1904C5.63933 9.98168 5.58372 9.8109 5.51575 9.8109C5.44778 9.8109 5.39217 9.64012 5.39217 9.43138C5.39217 9.22265 5.33656 9.05186 5.26859 9.05186C5.20062 9.05186 5.14501 8.88108 5.14501 8.67234C5.14501 8.46361 5.0894 8.29282 5.02143 8.29282C4.95346 8.29282 4.89785 8.06511 4.89785 7.7868C4.89785 7.50848 4.84224 7.28077 4.77427 7.28077C4.7063 7.28077 4.65069 7.10999 4.65069 6.90125C4.65069 6.69252 4.59508 6.52173 4.52711 6.52173C4.45914 6.52173 4.40353 6.29402 4.40353 6.01571C4.40353 5.73739 4.34792 5.50968 4.27995 5.50968C4.21198 5.50968 4.15637 5.3389 4.15637 5.13016C4.15637 4.92143 4.10076 4.75064 4.03279 4.75064C3.96482 4.75064 3.90921 4.52293 3.90921 4.24462C3.90921 3.87421 3.85842 3.73859 3.71976 3.73859C3.48842 3.73859 2.67341 4.55114 2.67341 4.78176C2.67341 4.8731 2.56219 5.02984 2.42625 5.13016C2.29031 5.23048 2.17909 5.40127 2.17909 5.50968C2.17909 5.6181 2.06787 5.78888 1.93193 5.8892C1.79599 5.98952 1.68477 6.17283 1.68477 6.29668C1.68477 6.4204 1.62916 6.52173 1.56119 6.52173C1.49322 6.52173 1.43761 6.69252 1.43761 6.90125C1.43761 7.10999 1.382 7.28077 1.31403 7.28077C1.24606 7.28077 1.19045 7.39463 1.19045 7.53378C1.19045 7.67294 1.13484 7.7868 1.06687 7.7868C0.998905 7.7868 0.943294 8.01451 0.943294 8.29282C0.943294 8.57114 0.887683 8.79885 0.819714 8.79885C0.751745 8.79885 0.696134 9.08349 0.696134 9.43138C0.696134 9.77927 0.640523 10.0639 0.572554 10.0639C0.491362 10.0639 0.448975 13.1844 0.448975 19.1724C0.448975 27.235 0.470478 28.2808 0.636692 28.2808C0.739882 28.2808 1.87892 29.3625 3.16773 30.6845C4.45655 32.0065 5.58322 33.0881 5.67146 33.0881C5.7597 33.0881 5.91207 33.2019 6.01007 33.3411C6.10807 33.4803 6.28713 33.5941 6.40812 33.5941C6.52898 33.5941 6.62797 33.651 6.62797 33.7206C6.62797 33.7902 6.73919 33.8471 6.87513 33.8471C7.01107 33.8471 7.12229 33.9041 7.12229 33.9736C7.12229 34.0474 7.53418 34.1001 8.11093 34.1001C8.68767 34.1001 9.09956 34.0474 9.09956 33.9736C9.09956 33.9041 9.2664 33.8471 9.4703 33.8471C9.67421 33.8471 9.84104 33.7902 9.84104 33.7206C9.84104 33.651 9.9299 33.5941 10.0386 33.5941C10.1473 33.5941 10.3921 33.4233 10.5825 33.2146C10.773 33.0059 10.991 32.8351 11.067 32.8351C11.143 32.8351 12.2596 31.7534 13.5484 30.4315C14.8373 29.1095 15.9528 28.0278 16.0273 28.0278C16.102 28.0278 16.3767 27.8001 16.6379 27.5218C16.8992 27.2435 17.2006 27.0158 17.308 27.0158C17.4153 27.0158 17.503 26.9589 17.503 26.8893C17.503 26.8197 17.6142 26.7628 17.7502 26.7628C17.8861 26.7628 17.9973 26.7058 17.9973 26.6363C17.9973 26.5667 18.1085 26.5098 18.2445 26.5098C18.3804 26.5098 18.4916 26.4528 18.4916 26.3832C18.4916 26.3137 18.6029 26.2567 18.7388 26.2567C18.8747 26.2567 18.986 26.1998 18.986 26.1302C18.986 26.0607 19.1528 26.0037 19.3567 26.0037C19.5606 26.0037 19.7274 25.9468 19.7274 25.8772C19.7274 25.7999 20.3042 25.7507 21.2104 25.7507C22.1166 25.7507 22.6933 25.7999 22.6933 25.8772C22.6933 25.9468 22.8602 26.0037 23.0641 26.0037C23.268 26.0037 23.4348 26.0607 23.4348 26.1302C23.4348 26.1998 23.546 26.2567 23.682 26.2567C23.8179 26.2567 23.9291 26.3137 23.9291 26.3832C23.9291 26.4528 24.0404 26.5098 24.1763 26.5098C24.3122 26.5098 24.4235 26.5667 24.4235 26.6363C24.4235 26.7058 24.5347 26.7628 24.6706 26.7628C24.8066 26.7628 24.9178 26.8197 24.9178 26.8893C24.9178 26.9589 25.0168 27.0158 25.1376 27.0158C25.2586 27.0158 25.4377 27.1296 25.5357 27.2688C25.6337 27.4079 25.7859 27.5218 25.874 27.5218C25.9622 27.5218 27.2002 28.7173 28.6252 30.1784C30.0502 31.6396 31.2782 32.8351 31.3541 32.8351C31.4298 32.8351 31.6478 33.0059 31.8383 33.2146C32.0287 33.4233 32.2735 33.5941 32.3821 33.5941C32.4909 33.5941 32.5797 33.651 32.5797 33.7206C32.5797 33.7902 32.7466 33.8471 32.9505 33.8471C33.1544 33.8471 33.3212 33.9041 33.3212 33.9736C33.3212 34.0474 33.7331 34.1001 34.3099 34.1001C34.8866 34.1001 35.2985 34.0474 35.2985 33.9736C35.2985 33.9041 35.4097 33.8471 35.5457 33.8471C35.6816 33.8471 35.7928 33.7902 35.7928 33.7206C35.7928 33.651 35.8918 33.5941 36.0127 33.5941C36.1336 33.5941 36.3127 33.4803 36.4107 33.3411C36.5087 33.2019 36.6615 33.0881 36.7501 33.0881C36.8388 33.0881 37.687 32.2911 38.6351 31.317C39.5833 30.3429 40.4182 29.5459 40.4905 29.5459C40.5627 29.5459 41.1181 29.0336 41.7246 28.4073C42.3312 27.7811 42.9006 27.2688 42.9902 27.2688C43.0798 27.2688 43.2332 27.1549 43.3312 27.0158C43.4292 26.8766 43.6082 26.7628 43.7292 26.7628C43.8501 26.7628 43.9491 26.7058 43.9491 26.6363C43.9491 26.5667 44.0603 26.5098 44.1962 26.5098C44.3322 26.5098 44.4434 26.4528 44.4434 26.3832C44.4434 26.3137 44.5546 26.2567 44.6906 26.2567C44.8265 26.2567 44.9377 26.1998 44.9377 26.1302C44.9377 26.0607 45.1046 26.0037 45.3085 26.0037C45.5124 26.0037 45.6792 25.9468 45.6792 25.8772C45.6792 25.7994 46.2971 25.7507 47.2857 25.7507C48.2744 25.7507 48.8923 25.7994 48.8923 25.8772C48.8923 25.9468 49.0591 26.0037 49.263 26.0037C49.4669 26.0037 49.6338 26.0607 49.6338 26.1302C49.6338 26.1998 49.745 26.2567 49.8809 26.2567C50.0169 26.2567 50.1281 26.3137 50.1281 26.3832C50.1281 26.4528 50.1837 26.5098 50.2517 26.5098C50.3327 26.5098 50.3752 23.6845 50.3752 18.2868C50.3752 12.8892 50.3327 10.0639 50.2517 10.0639C50.1837 10.0639 50.1281 9.77927 50.1281 9.43138C50.1281 9.08349 50.0725 8.79885 50.0045 8.79885C49.9365 8.79885 49.8809 8.57114 49.8809 8.29282C49.8809 8.01451 49.8253 7.7868 49.7573 7.7868C49.6894 7.7868 49.6338 7.67294 49.6338 7.53378C49.6338 7.39463 49.5781 7.28077 49.5102 7.28077C49.4422 7.28077 49.3866 7.10999 49.3866 6.90125C49.3866 6.69252 49.331 6.52173 49.263 6.52173C49.195 6.52173 49.1394 6.4204 49.1394 6.29668C49.1394 6.17283 49.0282 5.98952 48.8923 5.8892C48.7563 5.78888 48.6451 5.6181 48.6451 5.50968C48.6451 5.40127 48.5339 5.23048 48.398 5.13016C48.262 5.02984 48.1508 4.87411 48.1508 4.78391C48.1508 4.5538 46.3416 2.72654 46.1137 2.72654C45.9775 2.72654 45.9264 2.86469 45.9264 3.23257C45.9264 3.51088 45.8708 3.73859 45.8028 3.73859C45.7348 3.73859 45.6792 3.9663 45.6792 4.24462C45.6792 4.52293 45.6236 4.75064 45.5556 4.75064C45.4877 4.75064 45.432 4.92143 45.432 5.13016C45.432 5.3389 45.3764 5.50968 45.3085 5.50968C45.2405 5.50968 45.1849 5.73739 45.1849 6.01571C45.1849 6.29402 45.1293 6.52173 45.0613 6.52173C44.9933 6.52173 44.9377 6.69252 44.9377 6.90125C44.9377 7.10999 44.8821 7.28077 44.8141 7.28077C44.7462 7.28077 44.6906 7.50848 44.6906 7.7868C44.6906 8.06511 44.635 8.29282 44.567 8.29282C44.499 8.29282 44.4434 8.46361 44.4434 8.67234C44.4434 8.88108 44.3878 9.05186 44.3198 9.05186C44.2519 9.05186 44.1962 9.22265 44.1962 9.43138C44.1962 9.64012 44.1406 9.8109 44.0727 9.8109C44.0047 9.8109 43.9491 10.0386 43.9491 10.3169C43.9491 10.5952 43.8935 10.823 43.8255 10.823C43.7575 10.823 43.7019 10.9937 43.7019 11.2025C43.7019 11.4112 43.6463 11.582 43.5783 11.582C43.5104 11.582 43.4548 11.7528 43.4548 11.9615C43.4548 12.1702 43.3992 12.341 43.3312 12.341C43.2632 12.341 43.2076 12.5118 43.2076 12.7205C43.2076 12.9293 43.152 13.1001 43.084 13.1001C43.0161 13.1001 42.9604 13.2709 42.9604 13.4796C42.9604 13.6883 42.9048 13.8591 42.8369 13.8591C42.7689 13.8591 42.7133 14.0299 42.7133 14.2386C42.7133 14.4474 42.6577 14.6181 42.5897 14.6181C42.5217 14.6181 42.4661 14.7889 42.4661 14.9977C42.4661 15.2064 42.4105 15.3772 42.3425 15.3772C42.2746 15.3772 42.219 15.548 42.219 15.7567C42.219 15.9654 42.1634 16.1362 42.0954 16.1362C42.0274 16.1362 41.9718 16.307 41.9718 16.5157C41.9718 16.7245 41.9162 16.8953 41.8482 16.8953C41.7803 16.8953 41.7246 17.066 41.7246 17.2748C41.7246 17.4835 41.669 17.6543 41.6011 17.6543C41.5331 17.6543 41.4775 17.8251 41.4775 18.0338C41.4775 18.2426 41.4219 18.4133 41.3539 18.4133C41.2859 18.4133 41.2303 18.5841 41.2303 18.7929C41.2303 19.0016 41.1747 19.1724 41.1067 19.1724C41.0388 19.1724 40.9832 19.2862 40.9832 19.4254C40.9832 19.5645 40.9276 19.6784 40.8596 19.6784C40.7916 19.6784 40.736 19.8492 40.736 20.0579C40.736 20.2667 40.6804 20.4374 40.6124 20.4374C40.5445 20.4374 40.4888 20.6082 40.4888 20.817C40.4888 21.0257 40.4332 21.1965 40.3653 21.1965C40.2973 21.1965 40.2417 21.3103 40.2417 21.4495C40.2417 21.5887 40.1861 21.7025 40.1181 21.7025C40.0501 21.7025 39.9945 21.8733 39.9945 22.082C39.9945 22.2908 39.9389 22.4615 39.8709 22.4615C39.803 22.4615 39.7474 22.5754 39.7474 22.7146C39.7474 22.8537 39.6918 22.9676 39.6238 22.9676C39.5558 22.9676 39.5002 23.1384 39.5002 23.3471C39.5002 23.5558 39.4446 23.7266 39.3766 23.7266C39.3087 23.7266 39.253 23.8405 39.253 23.9796C39.253 24.1188 39.1974 24.2326 39.1295 24.2326C39.0615 24.2326 39.0059 24.3465 39.0059 24.4856C39.0059 24.6248 38.9503 24.7387 38.8823 24.7387C38.8143 24.7387 38.7587 24.9094 38.7587 25.1182C38.7587 25.3269 38.7031 25.4977 38.6351 25.4977C38.5672 25.4977 38.5116 25.6116 38.5116 25.7507C38.5116 25.8899 38.456 26.0037 38.388 26.0037C38.32 26.0037 38.2644 26.1176 38.2644 26.2567C38.2644 26.3959 38.2088 26.5098 38.1408 26.5098C38.0729 26.5098 38.0173 26.6805 38.0173 26.8893C38.0173 27.098 37.9616 27.2688 37.8937 27.2688C37.8257 27.2688 37.7701 27.3826 37.7701 27.5218C37.7701 27.661 37.7145 27.7748 37.6465 27.7748C37.5785 27.7748 37.5229 27.8887 37.5229 28.0278C37.5229 28.167 37.4673 28.2808 37.3993 28.2808C37.3314 28.2808 37.2758 28.3947 37.2758 28.5339C37.2758 28.673 37.2202 28.7869 37.1522 28.7869C37.0842 28.7869 37.0286 28.9007 37.0286 29.0399C37.0286 29.179 36.973 29.2929 36.905 29.2929C36.8371 29.2929 36.7815 29.4067 36.7815 29.5459C36.7815 29.6851 36.7258 29.7989 36.6579 29.7989C36.5899 29.7989 36.5343 29.9003 36.5343 30.024C36.5343 30.1478 36.4231 30.3311 36.2871 30.4315C36.1512 30.5318 36.04 30.7151 36.04 30.8389C36.04 30.9627 35.9844 31.064 35.9164 31.064C35.8484 31.064 35.7928 31.1778 35.7928 31.317C35.7928 31.4562 35.7372 31.57 35.6692 31.57C35.6013 31.57 35.5457 31.6713 35.5457 31.7951C35.5457 31.9189 35.4344 32.1022 35.2985 32.2025C35.1626 32.3029 35.0513 32.4604 35.0513 32.5525C35.0513 32.8366 34.462 33.3411 34.13 33.3411C33.957 33.3411 33.8155 33.2842 33.8155 33.2146C33.8155 33.145 33.7043 33.0881 33.5684 33.0881C33.4324 33.0881 33.3212 33.0312 33.3212 32.9616C33.3212 32.892 33.21 32.8351 33.0741 32.8351C32.9381 32.8351 32.8269 32.7781 32.8269 32.7086C32.8269 32.639 32.742 32.5821 32.6383 32.5821C32.5345 32.5821 32.1961 32.3226 31.8863 32.0053L31.3229 31.4286L31.5806 31.1999C31.7223 31.074 31.8383 30.8781 31.8383 30.7645C31.8383 30.6509 31.8939 30.558 31.9618 30.558C32.0298 30.558 32.0854 30.4566 32.0854 30.3329C32.0854 30.2091 32.1966 30.0257 32.3326 29.9254C32.4685 29.8251 32.5797 29.6418 32.5797 29.518C32.5797 29.3942 32.6353 29.2929 32.7033 29.2929C32.7713 29.2929 32.8269 29.179 32.8269 29.0399C32.8269 28.9007 32.8825 28.7869 32.9505 28.7869C33.0184 28.7869 33.0741 28.673 33.0741 28.5339C33.0741 28.3947 33.1297 28.2808 33.1976 28.2808C33.2656 28.2808 33.3212 28.167 33.3212 28.0278C33.3212 27.8887 33.3768 27.7748 33.4448 27.7748C33.5128 27.7748 33.5684 27.661 33.5684 27.5218C33.5684 27.3826 33.624 27.2688 33.692 27.2688C33.7599 27.2688 33.8155 27.1549 33.8155 27.0158C33.8155 26.8766 33.8711 26.7628 33.9391 26.7628C34.0071 26.7628 34.0627 26.6489 34.0627 26.5098C34.0627 26.3706 34.1183 26.2567 34.1863 26.2567C34.2542 26.2567 34.3099 26.1429 34.3099 26.0037C34.3099 25.8646 34.3655 25.7507 34.4334 25.7507C34.5014 25.7507 34.557 25.6369 34.557 25.4977C34.557 25.3585 34.6126 25.2447 34.6806 25.2447C34.7486 25.2447 34.8042 25.0739 34.8042 24.8652C34.8042 24.6564 34.8598 24.4856 34.9278 24.4856C34.9957 24.4856 35.0513 24.3718 35.0513 24.2326C35.0513 24.0935 35.1069 23.9796 35.1749 23.9796C35.2429 23.9796 35.2985 23.8658 35.2985 23.7266C35.2985 23.5875 35.3541 23.4736 35.4221 23.4736C35.49 23.4736 35.5457 23.3028 35.5457 23.0941C35.5457 22.8853 35.6013 22.7146 35.6692 22.7146C35.7372 22.7146 35.7928 22.6007 35.7928 22.4615C35.7928 22.3224 35.8484 22.2085 35.9164 22.2085C35.9844 22.2085 36.04 22.0378 36.04 21.829C36.04 21.6203 36.0956 21.4495 36.1636 21.4495C36.2315 21.4495 36.2871 21.3356 36.2871 21.1965C36.2871 21.0573 36.3427 20.9435 36.4107 20.9435C36.4787 20.9435 36.5343 20.7727 36.5343 20.5639C36.5343 20.3552 36.5899 20.1844 36.6579 20.1844C36.7258 20.1844 36.7815 20.0706 36.7815 19.9314C36.7815 19.7923 36.8371 19.6784 36.905 19.6784C36.973 19.6784 37.0286 19.5076 37.0286 19.2989C37.0286 19.0901 37.0842 18.9194 37.1522 18.9194C37.2202 18.9194 37.2758 18.7486 37.2758 18.5398C37.2758 18.3311 37.3314 18.1603 37.3993 18.1603C37.4673 18.1603 37.5229 18.0465 37.5229 17.9073C37.5229 17.7682 37.5785 17.6543 37.6465 17.6543C37.7145 17.6543 37.7701 17.4835 37.7701 17.2748C37.7701 17.066 37.8257 16.8953 37.8937 16.8953C37.9616 16.8953 38.0173 16.7245 38.0173 16.5157C38.0173 16.307 38.0729 16.1362 38.1408 16.1362C38.2088 16.1362 38.2644 15.9654 38.2644 15.7567C38.2644 15.548 38.32 15.3772 38.388 15.3772C38.456 15.3772 38.5116 15.2064 38.5116 14.9977C38.5116 14.7889 38.5672 14.6181 38.6351 14.6181C38.7031 14.6181 38.7587 14.4474 38.7587 14.2386C38.7587 14.0299 38.8143 13.8591 38.8823 13.8591C38.9503 13.8591 39.0059 13.6883 39.0059 13.4796C39.0059 13.2709 39.0615 13.1001 39.1295 13.1001C39.1974 13.1001 39.253 12.9293 39.253 12.7205C39.253 12.5118 39.3087 12.341 39.3766 12.341C39.4446 12.341 39.5002 12.1702 39.5002 11.9615C39.5002 11.7528 39.5558 11.582 39.6238 11.582C39.6918 11.582 39.7474 11.4112 39.7474 11.2025C39.7474 10.9937 39.803 10.823 39.8709 10.823C39.9389 10.823 39.9945 10.6522 39.9945 10.4434C39.9945 10.2347 40.0501 10.0639 40.1181 10.0639C40.1861 10.0639 40.2417 9.89313 40.2417 9.68439C40.2417 9.47566 40.2973 9.30488 40.3653 9.30488C40.4332 9.30488 40.4888 9.07716 40.4888 8.79885C40.4888 8.52054 40.5445 8.29282 40.6124 8.29282C40.6804 8.29282 40.736 8.12204 40.736 7.9133C40.736 7.70457 40.7916 7.53378 40.8596 7.53378C40.9276 7.53378 40.9832 7.30607 40.9832 7.02776C40.9832 6.74944 41.0388 6.52173 41.1067 6.52173C41.1747 6.52173 41.2303 6.35095 41.2303 6.14221C41.2303 5.93348 41.2859 5.76269 41.3539 5.76269C41.4219 5.76269 41.4775 5.53498 41.4775 5.25667C41.4775 4.97835 41.5331 4.75064 41.6011 4.75064C41.669 4.75064 41.7246 4.57986 41.7246 4.37112C41.7246 4.16239 41.7803 3.9916 41.8482 3.9916C41.9162 3.9916 41.9718 3.76389 41.9718 3.48558C41.9718 3.20726 42.0274 2.97955 42.0954 2.97955C42.1634 2.97955 42.219 2.80877 42.219 2.60003C42.219 2.3913 42.2746 2.22051 42.3425 2.22051C42.4105 2.22051 42.4661 1.9928 42.4661 1.71449C42.4661 1.43617 42.5217 1.20846 42.5897 1.20846C42.6577 1.20846 42.7133 1.09461 42.7133 0.95545C42.7133 0.758606 42.6309 0.702437 42.3425 0.702437C42.1386 0.702437 41.9718 0.645509 41.9718 0.57593C41.9718 0.506352 41.6937 0.449424 41.3539 0.449424C41.0141 0.449424 40.736 0.392496 40.736 0.322918C40.736 0.239297 35.5457 0.196411 25.4121 0.196411C15.2786 0.196411 10.0882 0.239297 10.0882 0.322918ZM82.506 11.7085C82.506 11.7781 82.3645 11.835 82.1915 11.835C81.8446 11.835 81.2702 12.3442 81.2702 12.6516C81.2702 12.7591 81.2146 12.8471 81.1466 12.8471C81.067 12.8471 81.023 14.1542 81.023 16.5157C81.023 18.5335 80.9797 20.1844 80.9268 20.1844C80.8738 20.1844 80.7503 20.0706 80.6523 19.9314C80.5543 19.7923 80.3875 19.6784 80.2816 19.6784C80.1757 19.6784 80.0088 19.5645 79.9108 19.4254C79.8128 19.2862 79.6338 19.1724 79.5128 19.1724C79.3919 19.1724 79.2929 19.1154 79.2929 19.0459C79.2929 18.9763 79.1817 18.9194 79.0458 18.9194C78.9098 18.9194 78.7986 18.8624 78.7986 18.7929C78.7986 18.7233 78.6874 18.6664 78.5514 18.6664C78.4155 18.6664 78.3043 18.6094 78.3043 18.5398C78.3043 18.4703 78.1375 18.4133 77.9335 18.4133C77.7296 18.4133 77.5628 18.3564 77.5628 18.2868C77.5628 18.2173 77.3404 18.1603 77.0685 18.1603C76.7966 18.1603 76.5742 18.1034 76.5742 18.0338C76.5742 17.9545 75.7915 17.9073 74.4733 17.9073C73.1551 17.9073 72.3725 17.9545 72.3725 18.0338C72.3725 18.1034 72.15 18.1603 71.8781 18.1603C71.6063 18.1603 71.3838 18.2173 71.3838 18.2868C71.3838 18.3564 71.217 18.4133 71.0131 18.4133C70.8092 18.4133 70.6423 18.4703 70.6423 18.5398C70.6423 18.6094 70.5311 18.6664 70.3952 18.6664C70.2592 18.6664 70.148 18.7233 70.148 18.7929C70.148 18.8624 70.049 18.9194 69.9282 18.9194C69.8072 18.9194 69.6281 19.0332 69.5301 19.1724C69.4321 19.3115 69.2653 19.4254 69.1594 19.4254C69.0535 19.4254 68.8866 19.5392 68.7886 19.6784C68.6906 19.8176 68.5383 19.9314 68.4501 19.9314C68.2544 19.9314 66.6878 21.5149 66.6878 21.7126C66.6878 21.7904 66.5209 22.0136 66.317 22.2085C66.1131 22.4035 65.9463 22.6541 65.9463 22.7653C65.9463 22.8766 65.8907 22.9676 65.8227 22.9676C65.7547 22.9676 65.6991 23.0814 65.6991 23.2206C65.6991 23.3597 65.6435 23.4736 65.5756 23.4736C65.5076 23.4736 65.452 23.5875 65.452 23.7266C65.452 23.8658 65.3964 23.9796 65.3284 23.9796C65.2604 23.9796 65.2048 24.1504 65.2048 24.3591C65.2048 24.5679 65.1492 24.7387 65.0812 24.7387C65.0133 24.7387 64.9577 24.9094 64.9577 25.1182C64.9577 25.3269 64.902 25.4977 64.8341 25.4977C64.7661 25.4977 64.7105 25.7823 64.7105 26.1302C64.7105 26.4781 64.6549 26.7628 64.5869 26.7628C64.5109 26.7628 64.4633 27.3953 64.4633 28.4073C64.4633 29.4194 64.5109 30.0519 64.5869 30.0519C64.6549 30.0519 64.7105 30.2796 64.7105 30.558C64.7105 30.8363 64.7661 31.064 64.8341 31.064C64.902 31.064 64.9577 31.2917 64.9577 31.57C64.9577 31.8483 65.0133 32.076 65.0812 32.076C65.1492 32.076 65.2048 32.1899 65.2048 32.329C65.2048 32.4682 65.2604 32.5821 65.3284 32.5821C65.3964 32.5821 65.452 32.6959 65.452 32.8351C65.452 32.9742 65.5076 33.0881 65.5756 33.0881C65.6435 33.0881 65.6991 33.2019 65.6991 33.3411C65.6991 33.4803 65.7547 33.5941 65.8227 33.5941C65.8907 33.5941 65.9463 33.6851 65.9463 33.7964C65.9463 33.9076 66.1131 34.1582 66.317 34.3532C66.5209 34.5481 66.6878 34.7713 66.6878 34.8491C66.6878 35.0468 68.2544 36.6303 68.4501 36.6303C68.5383 36.6303 68.6906 36.7441 68.7886 36.8833C68.8866 37.0224 69.0535 37.1363 69.1594 37.1363C69.2653 37.1363 69.4321 37.2501 69.5301 37.3893C69.6281 37.5285 69.8072 37.6423 69.9282 37.6423C70.049 37.6423 70.148 37.6992 70.148 37.7688C70.148 37.8384 70.3148 37.8953 70.5188 37.8953C70.7227 37.8953 70.8895 37.9523 70.8895 38.0218C70.8895 38.0914 71.0563 38.1483 71.2602 38.1483C71.4641 38.1483 71.631 38.2053 71.631 38.2749C71.631 38.3444 71.8534 38.4014 72.1253 38.4014C72.3972 38.4014 72.6196 38.4583 72.6196 38.5279C72.6196 38.6069 73.3611 38.6544 74.5969 38.6544C75.8327 38.6544 76.5742 38.6069 76.5742 38.5279C76.5742 38.4583 76.7966 38.4014 77.0685 38.4014C77.3404 38.4014 77.5628 38.3444 77.5628 38.2749C77.5628 38.2053 77.7296 38.1483 77.9335 38.1483C78.1375 38.1483 78.3043 38.0914 78.3043 38.0218C78.3043 37.9523 78.4155 37.8953 78.5514 37.8953C78.6874 37.8953 78.7986 37.8384 78.7986 37.7688C78.7986 37.6992 78.9098 37.6423 79.0458 37.6423C79.1817 37.6423 79.2929 37.5854 79.2929 37.5158C79.2929 37.4462 79.3919 37.3893 79.5128 37.3893C79.6338 37.3893 79.8128 37.2755 79.9108 37.1363C80.0088 36.9971 80.1757 36.8833 80.2816 36.8833C80.3875 36.8833 80.5543 36.7694 80.6523 36.6303C80.9316 36.2335 81.023 36.3272 81.023 37.0098C81.023 37.3577 81.0787 37.6423 81.1466 37.6423C81.2146 37.6423 81.2702 37.7318 81.2702 37.8411C81.2702 38.0967 81.5678 38.4014 81.8175 38.4014C81.9243 38.4014 82.0117 38.4583 82.0117 38.5279C82.0117 38.5982 82.3413 38.6544 82.7532 38.6544C83.165 38.6544 83.4946 38.5982 83.4946 38.5279C83.4946 38.4583 83.582 38.4014 83.6888 38.4014C83.9385 38.4014 84.2361 38.0967 84.2361 37.8411C84.2361 37.7318 84.2917 37.6423 84.3597 37.6423C84.4413 37.6423 84.4833 33.403 84.4833 25.1773V12.7121L84.0548 12.2736C83.8193 12.0324 83.5412 11.835 83.4369 11.835C83.3327 11.835 83.2475 11.7781 83.2475 11.7085C83.2475 11.6389 83.0806 11.582 82.8767 11.582C82.6728 11.582 82.506 11.6389 82.506 11.7085ZM96.5941 17.7808C96.5941 17.853 96.2234 17.9073 95.729 17.9073C95.2347 17.9073 94.864 17.9616 94.864 18.0338C94.864 18.1034 94.6415 18.1603 94.3697 18.1603C94.0978 18.1603 93.8753 18.2173 93.8753 18.2868C93.8753 18.3564 93.7085 18.4133 93.5046 18.4133C93.3007 18.4133 93.1339 18.4703 93.1339 18.5398C93.1339 18.6094 93.0226 18.6664 92.8867 18.6664C92.7508 18.6664 92.6395 18.7233 92.6395 18.7929C92.6395 18.8624 92.5406 18.9194 92.4197 18.9194C92.2987 18.9194 92.1196 19.0332 92.0216 19.1724C91.9236 19.3115 91.7668 19.4254 91.6731 19.4254C91.5796 19.4254 91.347 19.5962 91.1566 19.8049C90.9661 20.0136 90.7477 20.1844 90.6712 20.1844C90.4902 20.1844 89.4265 21.2734 89.4265 21.4586C89.4265 21.5369 89.2596 21.7606 89.0557 21.9555C88.8518 22.1505 88.685 22.3886 88.685 22.4843C88.685 22.5802 88.5738 22.7407 88.4378 22.8411C88.3019 22.9414 88.1907 23.1247 88.1907 23.2485C88.1907 23.3723 88.1351 23.4736 88.0671 23.4736C87.9991 23.4736 87.9435 23.5875 87.9435 23.7266C87.9435 23.8658 87.8879 23.9796 87.8199 23.9796C87.752 23.9796 87.6964 24.1504 87.6964 24.3591C87.6964 24.5679 87.6407 24.7387 87.5728 24.7387C87.5048 24.7387 87.4492 24.9094 87.4492 25.1182C87.4492 25.3269 87.3936 25.4977 87.3256 25.4977C87.2569 25.4977 87.202 25.8351 87.202 26.2567C87.202 26.6784 87.1472 27.0158 87.0785 27.0158C87.0036 27.0158 86.9549 27.5639 86.9549 28.4073C86.9549 29.2508 87.0036 29.7989 87.0785 29.7989C87.1464 29.7989 87.202 30.0836 87.202 30.4315C87.202 30.7793 87.2576 31.064 87.3256 31.064C87.3936 31.064 87.4492 31.2348 87.4492 31.4435C87.4492 31.6522 87.5048 31.823 87.5728 31.823C87.6407 31.823 87.6964 31.9938 87.6964 32.2025C87.6964 32.4113 87.752 32.5821 87.8199 32.5821C87.8879 32.5821 87.9435 32.6959 87.9435 32.8351C87.9435 32.9742 87.9991 33.0881 88.0671 33.0881C88.1351 33.0881 88.1907 33.2019 88.1907 33.3411C88.1907 33.4803 88.2463 33.5941 88.3142 33.5941C88.3822 33.5941 88.4378 33.6954 88.4378 33.8192C88.4378 33.943 88.549 34.1263 88.685 34.2266C88.8209 34.327 88.9322 34.4827 88.9322 34.5726C88.9322 34.7861 90.9809 36.8833 91.1893 36.8833C91.2772 36.8833 91.4293 36.9971 91.5273 37.1363C91.6253 37.2755 91.8044 37.3893 91.9254 37.3893C92.0462 37.3893 92.1452 37.4462 92.1452 37.5158C92.1452 37.5854 92.2564 37.6423 92.3924 37.6423C92.5283 37.6423 92.6395 37.6992 92.6395 37.7688C92.6395 37.8384 92.7508 37.8953 92.8867 37.8953C93.0226 37.8953 93.1339 37.9523 93.1339 38.0218C93.1339 38.0914 93.2451 38.1483 93.381 38.1483C93.517 38.1483 93.6282 38.2053 93.6282 38.2749C93.6282 38.3444 93.8506 38.4014 94.1225 38.4014C94.3944 38.4014 94.6168 38.4583 94.6168 38.5279C94.6168 38.5974 94.8949 38.6544 95.2347 38.6544C95.5746 38.6544 95.8526 38.7113 95.8526 38.7809C95.8526 38.8568 96.3469 38.9074 97.0884 38.9074C97.8299 38.9074 98.3242 38.8568 98.3242 38.7809C98.3242 38.7105 98.6538 38.6544 99.0657 38.6544C99.4776 38.6544 99.8072 38.5982 99.8072 38.5279C99.8072 38.4583 99.974 38.4014 100.178 38.4014C100.382 38.4014 100.549 38.3444 100.549 38.2749C100.549 38.2053 100.715 38.1483 100.919 38.1483C101.123 38.1483 101.29 38.0914 101.29 38.0218C101.29 37.9523 101.401 37.8953 101.537 37.8953C101.673 37.8953 101.784 37.8384 101.784 37.7688C101.784 37.6992 101.883 37.6423 102.004 37.6423C102.125 37.6423 102.304 37.5285 102.402 37.3893C102.5 37.2501 102.652 37.1363 102.74 37.1363C102.965 37.1363 105.492 34.5237 105.492 34.2914C105.492 34.1862 105.547 34.1001 105.615 34.1001C105.683 34.1001 105.739 33.9863 105.739 33.8471C105.739 33.708 105.795 33.5941 105.863 33.5941C105.931 33.5941 105.986 33.4233 105.986 33.2146C105.986 33.0059 105.931 32.8351 105.863 32.8351C105.795 32.8351 105.739 32.7212 105.739 32.5821C105.739 32.4429 105.683 32.329 105.615 32.329C105.547 32.329 105.492 32.2152 105.492 32.076C105.492 31.9074 105.409 31.823 105.245 31.823C105.109 31.823 104.998 31.7661 104.998 31.6965C104.998 31.6269 104.886 31.57 104.75 31.57C104.614 31.57 104.503 31.5131 104.503 31.4435C104.503 31.3739 104.336 31.317 104.132 31.317C103.929 31.317 103.762 31.3739 103.762 31.4435C103.762 31.5131 103.621 31.57 103.449 31.57C103.135 31.57 102.279 32.3099 102.279 32.5805C102.279 32.7727 100.955 34.1001 100.764 34.1001C100.676 34.1001 100.523 34.214 100.425 34.3532C100.327 34.4923 100.148 34.6062 100.027 34.6062C99.9062 34.6062 99.8072 34.6631 99.8072 34.7327C99.8072 34.8022 99.6403 34.8592 99.4364 34.8592C99.2325 34.8592 99.0657 34.9161 99.0657 34.9857C99.0657 35.0553 98.8433 35.1122 98.5714 35.1122C98.2995 35.1122 98.0771 35.1691 98.0771 35.2387C98.0771 35.3125 97.6652 35.3652 97.0884 35.3652C96.5117 35.3652 96.0998 35.3125 96.0998 35.2387C96.0998 35.1691 95.8773 35.1122 95.6055 35.1122C95.3336 35.1122 95.1111 35.0553 95.1111 34.9857C95.1111 34.9161 94.9443 34.8592 94.7404 34.8592C94.5365 34.8592 94.3697 34.8022 94.3697 34.7327C94.3697 34.6631 94.2707 34.6062 94.1498 34.6062C94.0288 34.6062 93.8498 34.4923 93.7518 34.3532C93.6538 34.214 93.5013 34.1001 93.4129 34.1001C93.2034 34.1001 91.8981 32.7639 91.8981 32.5494C91.8981 32.459 91.7868 32.3029 91.6509 32.2025C91.515 32.1022 91.4037 31.9189 91.4037 31.7951C91.4037 31.6713 91.3481 31.57 91.2802 31.57C91.2122 31.57 91.1566 31.3992 91.1566 31.1905C91.1566 30.9818 91.101 30.811 91.033 30.811C90.965 30.811 90.9094 30.5833 90.9094 30.3049V29.7989H98.5714C103.597 29.7989 106.233 29.7554 106.233 29.6724C106.233 29.6028 106.321 29.5459 106.427 29.5459C106.677 29.5459 106.975 29.2413 106.975 28.9856C106.975 28.8763 107.03 28.7869 107.098 28.7869C107.173 28.7869 107.222 28.2808 107.222 27.5218C107.222 26.7628 107.173 26.2567 107.098 26.2567C107.03 26.2567 106.975 26.029 106.975 25.7507C106.975 25.4724 106.919 25.2447 106.851 25.2447C106.783 25.2447 106.728 25.0739 106.728 24.8652C106.728 24.6564 106.672 24.4856 106.604 24.4856C106.536 24.4856 106.48 24.3718 106.48 24.2326C106.48 24.0935 106.425 23.9796 106.357 23.9796C106.289 23.9796 106.233 23.8658 106.233 23.7266C106.233 23.5875 106.178 23.4736 106.11 23.4736C106.042 23.4736 105.986 23.3597 105.986 23.2206C105.986 23.0814 105.931 22.9676 105.863 22.9676C105.795 22.9676 105.739 22.8662 105.739 22.7425C105.739 22.6187 105.628 22.4354 105.492 22.335C105.356 22.2347 105.245 22.079 105.245 21.989C105.245 21.7756 103.196 19.6784 102.988 19.6784C102.9 19.6784 102.748 19.5645 102.65 19.4254C102.552 19.2862 102.372 19.1724 102.251 19.1724C102.131 19.1724 102.032 19.1154 102.032 19.0459C102.032 18.9763 101.92 18.9194 101.784 18.9194C101.649 18.9194 101.537 18.8624 101.537 18.7929C101.537 18.7233 101.426 18.6664 101.29 18.6664C101.154 18.6664 101.043 18.6094 101.043 18.5398C101.043 18.4703 100.876 18.4133 100.672 18.4133C100.468 18.4133 100.301 18.3564 100.301 18.2868C100.301 18.2173 100.135 18.1603 99.9308 18.1603C99.7269 18.1603 99.56 18.1034 99.56 18.0338C99.56 17.9601 99.1481 17.9073 98.5714 17.9073C97.9946 17.9073 97.5827 17.8546 97.5827 17.7808C97.5827 17.7112 97.3603 17.6543 97.0884 17.6543C96.8165 17.6543 96.5941 17.7112 96.5941 17.7808ZM114.637 17.7808C114.637 17.8504 114.414 17.9073 114.142 17.9073C113.871 17.9073 113.648 17.9642 113.648 18.0338C113.648 18.1034 113.481 18.1603 113.277 18.1603C113.073 18.1603 112.907 18.2173 112.907 18.2868C112.907 18.3564 112.795 18.4133 112.659 18.4133C112.524 18.4133 112.412 18.4703 112.412 18.5398C112.412 18.6094 112.328 18.6664 112.225 18.6664C111.996 18.6664 110.435 20.2402 110.435 20.4705C110.435 20.5607 110.324 20.7166 110.188 20.817C110.043 20.9241 109.941 21.1445 109.941 21.3509C109.941 21.5442 109.885 21.7025 109.817 21.7025C109.749 21.7025 109.694 21.8164 109.694 21.9555C109.694 22.0947 109.638 22.2085 109.57 22.2085C109.494 22.2085 109.446 22.8411 109.446 23.8531C109.446 24.8652 109.494 25.4977 109.57 25.4977C109.638 25.4977 109.694 25.6685 109.694 25.8772C109.694 26.086 109.749 26.2567 109.817 26.2567C109.885 26.2567 109.941 26.3706 109.941 26.5098C109.941 26.6489 109.996 26.7628 110.064 26.7628C110.132 26.7628 110.188 26.8641 110.188 26.9878C110.188 27.1117 110.299 27.295 110.435 27.3953C110.571 27.4956 110.682 27.6524 110.682 27.7437C110.682 27.9595 111.49 28.7869 111.701 28.7869C111.79 28.7869 111.944 28.9007 112.042 29.0399C112.14 29.179 112.319 29.2929 112.44 29.2929C112.56 29.2929 112.659 29.3498 112.659 29.4194C112.659 29.489 112.771 29.5459 112.907 29.5459C113.043 29.5459 113.154 29.6028 113.154 29.6724C113.154 29.742 113.321 29.7989 113.525 29.7989C113.728 29.7989 113.895 29.8558 113.895 29.9254C113.895 30.0061 114.925 30.0519 116.738 30.0519C118.55 30.0519 119.58 30.0977 119.58 30.1784C119.58 30.248 119.679 30.3049 119.8 30.3049C119.921 30.3049 120.1 30.4188 120.198 30.558C120.296 30.6971 120.475 30.811 120.596 30.811C120.724 30.811 120.816 30.9046 120.816 31.036C120.816 31.1599 120.927 31.3432 121.063 31.4435C121.277 31.6014 121.31 31.771 121.31 32.7086C121.31 33.6461 121.277 33.8158 121.063 33.9736C120.927 34.074 120.816 34.2573 120.816 34.3811C120.816 34.5126 120.724 34.6062 120.596 34.6062C120.475 34.6062 120.296 34.72 120.198 34.8592C120.1 34.9983 119.921 35.1122 119.8 35.1122C119.679 35.1122 119.58 35.1691 119.58 35.2387C119.58 35.3205 118.075 35.3652 115.312 35.3652H111.045L110.616 35.8038C110.381 36.0449 110.188 36.3296 110.188 36.4363C110.188 36.543 110.132 36.6303 110.064 36.6303C109.996 36.6303 109.941 36.8011 109.941 37.0098C109.941 37.2185 109.996 37.3893 110.064 37.3893C110.132 37.3893 110.188 37.5342 110.188 37.7113C110.188 38.0664 110.685 38.6544 110.986 38.6544C111.091 38.6544 111.177 38.7113 111.177 38.7809C111.177 38.8629 112.701 38.9074 115.502 38.9074C118.303 38.9074 119.827 38.8629 119.827 38.7809C119.827 38.7113 120.05 38.6544 120.321 38.6544C120.593 38.6544 120.816 38.5974 120.816 38.5279C120.816 38.4583 120.983 38.4014 121.186 38.4014C121.39 38.4014 121.557 38.3444 121.557 38.2749C121.557 38.2053 121.646 38.1483 121.755 38.1483C121.863 38.1483 122.108 37.9776 122.299 37.7688C122.489 37.5601 122.71 37.3893 122.79 37.3893C122.976 37.3893 123.287 37.0709 123.287 36.8799C123.287 36.7984 123.454 36.5722 123.658 36.3773C123.862 36.1823 124.029 35.9317 124.029 35.8205C124.029 35.7092 124.084 35.6182 124.152 35.6182C124.22 35.6182 124.276 35.5044 124.276 35.3652C124.276 35.226 124.332 35.1122 124.4 35.1122C124.468 35.1122 124.523 34.9414 124.523 34.7327C124.523 34.5239 124.579 34.3532 124.647 34.3532C124.723 34.3532 124.77 33.7206 124.77 32.7086C124.77 31.6965 124.723 31.064 124.647 31.064C124.579 31.064 124.523 30.8932 124.523 30.6845C124.523 30.4757 124.468 30.3049 124.4 30.3049C124.332 30.3049 124.276 30.1911 124.276 30.0519C124.276 29.9128 124.22 29.7989 124.152 29.7989C124.084 29.7989 124.029 29.708 124.029 29.5966C124.029 29.4854 123.862 29.2348 123.658 29.0399C123.454 28.8449 123.287 28.6187 123.287 28.5373C123.287 28.3462 122.976 28.0278 122.79 28.0278C122.71 28.0278 122.489 27.857 122.299 27.6483C122.108 27.4396 121.863 27.2688 121.755 27.2688C121.646 27.2688 121.557 27.2119 121.557 27.1423C121.557 27.0727 121.39 27.0158 121.186 27.0158C120.983 27.0158 120.816 26.9589 120.816 26.8893C120.816 26.8197 120.649 26.7628 120.445 26.7628C120.241 26.7628 120.074 26.7058 120.074 26.6363C120.074 26.5558 119.086 26.5098 117.356 26.5098C115.625 26.5098 114.637 26.4637 114.637 26.3832C114.637 26.3137 114.526 26.2567 114.39 26.2567C114.254 26.2567 114.142 26.1998 114.142 26.1302C114.142 26.0607 114.055 26.0037 113.948 26.0037C113.71 26.0037 113.401 25.703 113.401 25.4714C113.401 25.3774 113.29 25.2185 113.154 25.1182C112.943 24.9627 112.907 24.7907 112.907 23.9517C112.907 23.38 112.958 22.9676 113.03 22.9676C113.098 22.9676 113.154 22.8803 113.154 22.7736C113.154 22.5218 113.954 21.7025 114.2 21.7025C114.304 21.7025 114.39 21.6456 114.39 21.576C114.39 21.5064 114.556 21.4495 114.76 21.4495C114.964 21.4495 115.131 21.3926 115.131 21.323C115.131 21.2413 116.573 21.1965 119.209 21.1965C121.846 21.1965 123.287 21.1517 123.287 21.07C123.287 21.0004 123.375 20.9435 123.481 20.9435C123.731 20.9435 124.029 20.6388 124.029 20.3832C124.029 20.2739 124.084 20.1844 124.152 20.1844C124.22 20.1844 124.276 19.8998 124.276 19.5519C124.276 19.204 124.22 18.9194 124.152 18.9194C124.084 18.9194 124.029 18.8314 124.029 18.7239C124.029 18.4165 123.454 17.9073 123.108 17.9073C122.935 17.9073 122.793 17.8504 122.793 17.7808C122.793 17.6991 121.351 17.6543 118.715 17.6543C116.079 17.6543 114.637 17.6991 114.637 17.7808ZM127.891 18.1021C127.67 18.339 127.489 18.6197 127.489 18.7261C127.489 18.8323 127.433 18.9194 127.365 18.9194C127.284 18.9194 127.242 22.082 127.242 28.1543C127.242 34.2266 127.284 37.3893 127.365 37.3893C127.433 37.3893 127.489 37.4766 127.489 37.5832C127.489 37.69 127.682 37.9747 127.918 38.2158C128.312 38.6198 128.405 38.6544 129.096 38.6544C129.786 38.6544 129.879 38.6198 130.274 38.2158C130.509 37.9747 130.702 37.69 130.702 37.5832C130.702 37.4766 130.758 37.3893 130.826 37.3893C130.907 37.3893 130.949 35.0278 130.949 30.558C130.949 26.0881 130.992 23.7266 131.073 23.7266C131.141 23.7266 131.196 23.6253 131.196 23.5016C131.196 23.3777 131.308 23.1944 131.444 23.0941C131.58 22.9938 131.691 22.8363 131.691 22.7442C131.691 22.5269 132.249 21.9555 132.461 21.9555C132.551 21.9555 132.705 21.8417 132.803 21.7025C132.908 21.554 133.123 21.4495 133.325 21.4495C133.513 21.4495 133.668 21.3926 133.668 21.323C133.668 21.2508 134.039 21.1965 134.533 21.1965C135.027 21.1965 135.398 21.2508 135.398 21.323C135.398 21.3926 135.553 21.4495 135.742 21.4495C135.943 21.4495 136.159 21.554 136.263 21.7025C136.361 21.8417 136.515 21.9555 136.605 21.9555C136.831 21.9555 137.375 22.533 137.375 22.7721C137.375 22.8797 137.431 22.9676 137.499 22.9676C137.567 22.9676 137.623 23.0814 137.623 23.2206C137.623 23.3597 137.678 23.4736 137.746 23.4736C137.814 23.4736 137.87 23.5875 137.87 23.7266C137.87 23.8658 137.925 23.9796 137.993 23.9796C138.074 23.9796 138.117 26.2989 138.117 30.6845C138.117 35.0701 138.16 37.3893 138.241 37.3893C138.308 37.3893 138.364 37.4766 138.364 37.5832C138.364 37.69 138.557 37.9747 138.793 38.2158C139.187 38.6198 139.28 38.6544 139.971 38.6544C140.661 38.6544 140.754 38.6198 141.149 38.2158C141.384 37.9747 141.577 37.69 141.577 37.5832C141.577 37.4766 141.633 37.3893 141.701 37.3893C141.782 37.3893 141.824 35.0701 141.824 30.6845C141.824 26.2989 141.867 23.9796 141.948 23.9796C142.016 23.9796 142.071 23.8214 142.071 23.6281C142.071 23.4216 142.174 23.2012 142.319 23.0941C142.455 22.9938 142.566 22.8363 142.566 22.7442C142.566 22.5269 143.124 21.9555 143.336 21.9555C143.426 21.9555 143.58 21.8417 143.678 21.7025C143.783 21.554 143.998 21.4495 144.2 21.4495C144.388 21.4495 144.543 21.3926 144.543 21.323C144.543 21.2508 144.914 21.1965 145.408 21.1965C145.902 21.1965 146.273 21.2508 146.273 21.323C146.273 21.3926 146.428 21.4495 146.617 21.4495C146.818 21.4495 147.034 21.554 147.138 21.7025C147.236 21.8417 147.39 21.9555 147.48 21.9555C147.692 21.9555 148.25 22.5269 148.25 22.7442C148.25 22.8363 148.362 22.9938 148.498 23.0941C148.634 23.1944 148.745 23.3777 148.745 23.5016C148.745 23.6253 148.8 23.7266 148.868 23.7266C148.949 23.7266 148.992 26.0459 148.992 30.4315C148.992 34.8171 149.035 37.1363 149.116 37.1363C149.184 37.1363 149.239 37.2805 149.239 37.4567C149.239 37.6538 149.404 37.9462 149.668 38.2158C150.062 38.6198 150.155 38.6544 150.846 38.6544C151.536 38.6544 151.629 38.6198 152.024 38.2158C152.259 37.9747 152.452 37.69 152.452 37.5832C152.452 37.4766 152.508 37.3893 152.576 37.3893C152.657 37.3893 152.699 35.0701 152.699 30.6845C152.699 26.2989 152.657 23.9796 152.576 23.9796C152.508 23.9796 152.452 23.7519 152.452 23.4736C152.452 23.1953 152.397 22.9676 152.329 22.9676C152.261 22.9676 152.205 22.7968 152.205 22.5881C152.205 22.3793 152.149 22.2085 152.081 22.2085C152.013 22.2085 151.958 22.0947 151.958 21.9555C151.958 21.8164 151.902 21.7025 151.834 21.7025C151.766 21.7025 151.711 21.5887 151.711 21.4495C151.711 21.3103 151.655 21.1965 151.587 21.1965C151.519 21.1965 151.464 21.1102 151.464 21.0047C151.464 20.7714 149.679 18.9194 149.454 18.9194C149.366 18.9194 149.214 18.8055 149.116 18.6664C149.018 18.5272 148.838 18.4133 148.717 18.4133C148.597 18.4133 148.498 18.3564 148.498 18.2868C148.498 18.2173 148.331 18.1603 148.127 18.1603C147.923 18.1603 147.756 18.1034 147.756 18.0338C147.756 17.9642 147.589 17.9073 147.385 17.9073C147.182 17.9073 147.015 17.8504 147.015 17.7808C147.015 17.703 146.397 17.6543 145.408 17.6543C144.42 17.6543 143.802 17.703 143.802 17.7808C143.802 17.8504 143.635 17.9073 143.431 17.9073C143.227 17.9073 143.06 17.9642 143.06 18.0338C143.06 18.1034 142.893 18.1603 142.689 18.1603C142.485 18.1603 142.319 18.2173 142.319 18.2868C142.319 18.3564 142.22 18.4133 142.099 18.4133C141.978 18.4133 141.799 18.5272 141.701 18.6664C141.603 18.8055 141.448 18.9194 141.356 18.9194C141.265 18.9194 140.916 19.2078 140.581 19.5604L139.971 20.2013L139.361 19.5604C139.025 19.2078 138.676 18.9194 138.585 18.9194C138.493 18.9194 138.339 18.8055 138.241 18.6664C138.143 18.5272 137.963 18.4133 137.842 18.4133C137.722 18.4133 137.623 18.3564 137.623 18.2868C137.623 18.2173 137.456 18.1603 137.252 18.1603C137.048 18.1603 136.881 18.1034 136.881 18.0338C136.881 17.9642 136.714 17.9073 136.51 17.9073C136.306 17.9073 136.14 17.8504 136.14 17.7808C136.14 17.703 135.522 17.6543 134.533 17.6543C133.544 17.6543 132.927 17.703 132.927 17.7808C132.927 17.8504 132.76 17.9073 132.556 17.9073C132.352 17.9073 132.185 17.9642 132.185 18.0338C132.185 18.1034 132.018 18.1603 131.814 18.1603C131.61 18.1603 131.444 18.2173 131.444 18.2868C131.444 18.3564 131.337 18.4133 131.207 18.4133C131.076 18.4133 130.946 18.4846 130.917 18.5715C130.883 18.6714 130.725 18.5783 130.486 18.3185C130.279 18.0924 130.02 17.9073 129.911 17.9073C129.802 17.9073 129.714 17.8504 129.714 17.7808C129.714 17.7101 129.4 17.6581 129.003 17.663C128.361 17.6709 128.254 17.7133 127.891 18.1021ZM164.81 17.7808C164.81 17.8546 164.398 17.9073 163.822 17.9073C163.245 17.9073 162.833 17.9601 162.833 18.0338C162.833 18.1034 162.666 18.1603 162.462 18.1603C162.258 18.1603 162.091 18.2173 162.091 18.2868C162.091 18.3564 161.925 18.4133 161.721 18.4133C161.517 18.4133 161.35 18.4703 161.35 18.5398C161.35 18.6094 161.239 18.6664 161.103 18.6664C160.967 18.6664 160.856 18.7233 160.856 18.7929C160.856 18.8624 160.744 18.9194 160.608 18.9194C160.473 18.9194 160.361 18.9763 160.361 19.0459C160.361 19.1154 160.262 19.1724 160.141 19.1724C160.02 19.1724 159.841 19.2862 159.743 19.4254C159.645 19.5645 159.493 19.6784 159.406 19.6784C159.197 19.6784 156.901 22.029 156.901 22.2422C156.901 22.3321 156.79 22.4877 156.654 22.5881C156.518 22.6884 156.407 22.8717 156.407 22.9955C156.407 23.1193 156.351 23.2206 156.283 23.2206C156.215 23.2206 156.16 23.3344 156.16 23.4736C156.16 23.6128 156.104 23.7266 156.036 23.7266C155.968 23.7266 155.912 23.8974 155.912 24.1061C155.912 24.3149 155.857 24.4856 155.789 24.4856C155.721 24.4856 155.665 24.5995 155.665 24.7387C155.665 24.8778 155.61 24.9917 155.542 24.9917C155.474 24.9917 155.418 25.2194 155.418 25.4977C155.418 25.776 155.363 26.0037 155.295 26.0037C155.217 26.0037 155.171 26.8471 155.171 28.2808C155.171 29.7145 155.217 30.558 155.295 30.558C155.363 30.558 155.418 30.7857 155.418 31.064C155.418 31.3423 155.474 31.57 155.542 31.57C155.61 31.57 155.665 31.7408 155.665 31.9495C155.665 32.1583 155.721 32.329 155.789 32.329C155.857 32.329 155.912 32.4429 155.912 32.5821C155.912 32.7212 155.968 32.8351 156.036 32.8351C156.104 32.8351 156.16 32.9489 156.16 33.0881C156.16 33.2272 156.215 33.3411 156.283 33.3411C156.351 33.3411 156.407 33.455 156.407 33.5941C156.407 33.7333 156.462 33.8471 156.53 33.8471C156.598 33.8471 156.654 33.9369 156.654 34.0468C156.654 34.1567 156.876 34.4652 157.148 34.7327C157.42 35.0001 157.643 35.2821 157.643 35.3595C157.643 35.5438 158.459 36.3773 158.639 36.3773C158.716 36.3773 158.935 36.548 159.126 36.7568C159.316 36.9655 159.549 37.1363 159.642 37.1363C159.736 37.1363 159.893 37.2501 159.991 37.3893C160.089 37.5285 160.268 37.6423 160.389 37.6423C160.509 37.6423 160.608 37.6992 160.608 37.7688C160.608 37.8384 160.72 37.8953 160.856 37.8953C160.992 37.8953 161.103 37.9523 161.103 38.0218C161.103 38.0914 161.27 38.1483 161.474 38.1483C161.677 38.1483 161.844 38.2053 161.844 38.2749C161.844 38.3444 162.011 38.4014 162.215 38.4014C162.419 38.4014 162.586 38.4583 162.586 38.5279C162.586 38.5982 162.915 38.6544 163.327 38.6544C163.739 38.6544 164.069 38.7105 164.069 38.7809C164.069 38.8568 164.563 38.9074 165.305 38.9074C166.046 38.9074 166.54 38.8568 166.54 38.7809C166.54 38.7113 166.818 38.6544 167.158 38.6544C167.498 38.6544 167.776 38.5974 167.776 38.5279C167.776 38.4583 167.999 38.4014 168.27 38.4014C168.542 38.4014 168.765 38.3444 168.765 38.2749C168.765 38.2053 168.876 38.1483 169.012 38.1483C169.148 38.1483 169.259 38.0914 169.259 38.0218C169.259 37.9523 169.37 37.8953 169.506 37.8953C169.642 37.8953 169.753 37.8384 169.753 37.7688C169.753 37.6992 169.865 37.6423 170.001 37.6423C170.136 37.6423 170.248 37.5854 170.248 37.5158C170.248 37.4462 170.347 37.3893 170.468 37.3893C170.589 37.3893 170.768 37.2755 170.866 37.1363C170.964 36.9971 171.116 36.8833 171.204 36.8833C171.413 36.8833 173.214 35.0396 173.214 34.8259C173.214 34.7357 173.325 34.58 173.461 34.4797C173.597 34.3793 173.708 34.2086 173.708 34.1001C173.708 33.9917 173.819 33.8209 173.955 33.7206C174.091 33.6203 174.202 33.437 174.202 33.3131C174.202 33.1894 174.258 33.0881 174.326 33.0881C174.394 33.0881 174.449 32.9742 174.449 32.8351C174.449 32.6959 174.505 32.5821 174.573 32.5821C174.641 32.5821 174.697 32.4113 174.697 32.2025C174.697 31.9938 174.752 31.823 174.82 31.823C174.888 31.823 174.944 31.5953 174.944 31.317C174.944 31.0387 174.999 30.811 175.067 30.811C175.136 30.811 175.191 30.4736 175.191 30.0519C175.191 29.6303 175.246 29.2929 175.314 29.2929C175.387 29.2929 175.438 28.8712 175.438 28.2808C175.438 27.6904 175.387 27.2688 175.314 27.2688C175.246 27.2688 175.191 26.9314 175.191 26.5098C175.191 26.0881 175.136 25.7507 175.067 25.7507C174.999 25.7507 174.944 25.5799 174.944 25.3712C174.944 25.1625 174.888 24.9917 174.82 24.9917C174.752 24.9917 174.697 24.8209 174.697 24.6122C174.697 24.4034 174.641 24.2326 174.573 24.2326C174.505 24.2326 174.449 24.1188 174.449 23.9796C174.449 23.8405 174.394 23.7266 174.326 23.7266C174.258 23.7266 174.202 23.6128 174.202 23.4736C174.202 23.3344 174.147 23.2206 174.079 23.2206C174.011 23.2206 173.955 23.1067 173.955 22.9676C173.955 22.8284 173.899 22.7146 173.832 22.7146C173.764 22.7146 173.708 22.6285 173.708 22.5234C173.708 22.2741 170.925 19.4254 170.682 19.4254C170.579 19.4254 170.495 19.3685 170.495 19.2989C170.495 19.2293 170.396 19.1724 170.275 19.1724C170.154 19.1724 169.975 19.0585 169.877 18.9194C169.772 18.7708 169.557 18.6664 169.355 18.6664C169.167 18.6664 169.012 18.6094 169.012 18.5398C169.012 18.4703 168.901 18.4133 168.765 18.4133C168.629 18.4133 168.518 18.3564 168.518 18.2868C168.518 18.2173 168.295 18.1603 168.023 18.1603C167.751 18.1603 167.529 18.1034 167.529 18.0338C167.529 17.9601 167.117 17.9073 166.54 17.9073C165.964 17.9073 165.552 17.8546 165.552 17.7808C165.552 17.7112 165.385 17.6543 165.181 17.6543C164.977 17.6543 164.81 17.7112 164.81 17.7808ZM182.853 17.7808C182.853 17.8504 182.575 17.9073 182.235 17.9073C181.895 17.9073 181.617 17.9642 181.617 18.0338C181.617 18.1034 181.506 18.1603 181.37 18.1603C181.234 18.1603 181.123 18.2173 181.123 18.2868C181.123 18.3564 181.011 18.4133 180.876 18.4133C180.74 18.4133 180.628 18.4703 180.628 18.5398C180.628 18.6094 180.529 18.6664 180.409 18.6664C180.288 18.6664 180.109 18.7802 180.01 18.9194C179.913 19.0585 179.759 19.1724 179.669 19.1724C179.468 19.1724 178.898 19.7387 178.898 19.9381C178.898 20.0178 178.731 20.2425 178.528 20.4374C178.324 20.6324 178.157 20.883 178.157 20.9942C178.157 21.1055 178.101 21.1965 178.033 21.1965C177.965 21.1965 177.91 21.3673 177.91 21.576C177.91 21.7847 177.854 21.9555 177.786 21.9555C177.718 21.9555 177.662 22.1832 177.662 22.4615C177.662 22.7399 177.607 22.9676 177.539 22.9676C177.467 22.9676 177.415 23.3892 177.415 23.9796C177.415 24.57 177.467 24.9917 177.539 24.9917C177.607 24.9917 177.662 25.2194 177.662 25.4977C177.662 25.776 177.718 26.0037 177.786 26.0037C177.854 26.0037 177.91 26.1176 177.91 26.2567C177.91 26.3959 177.965 26.5098 178.033 26.5098C178.101 26.5098 178.157 26.6236 178.157 26.7628C178.157 26.9019 178.212 27.0158 178.28 27.0158C178.348 27.0158 178.404 27.1022 178.404 27.2079C178.404 27.4416 179.941 29.0399 180.166 29.0399C180.254 29.0399 180.407 29.1537 180.505 29.2929C180.609 29.4414 180.825 29.5459 181.026 29.5459C181.215 29.5459 181.37 29.6028 181.37 29.6724C181.37 29.742 181.537 29.7989 181.741 29.7989C181.945 29.7989 182.111 29.8558 182.111 29.9254C182.111 30.0059 183.1 30.0519 184.83 30.0519C186.56 30.0519 187.549 30.098 187.549 30.1784C187.549 30.248 187.66 30.3049 187.796 30.3049C187.932 30.3049 188.043 30.3619 188.043 30.4315C188.043 30.501 188.129 30.558 188.234 30.558C188.481 30.558 189.032 31.1214 189.032 31.3746C189.032 31.4821 189.087 31.57 189.155 31.57C189.223 31.57 189.279 31.6839 189.279 31.823C189.279 31.9622 189.335 32.076 189.403 32.076C189.471 32.076 189.526 32.3607 189.526 32.7086C189.526 33.0565 189.471 33.3411 189.403 33.3411C189.335 33.3411 189.279 33.455 189.279 33.5941C189.279 33.7333 189.223 33.8471 189.155 33.8471C189.087 33.8471 189.032 33.9351 189.032 34.0426C189.032 34.2957 188.481 34.8592 188.234 34.8592C188.129 34.8592 188.043 34.9161 188.043 34.9857C188.043 35.0553 187.932 35.1122 187.796 35.1122C187.66 35.1122 187.549 35.1691 187.549 35.2387C187.549 35.3205 186.066 35.3652 183.347 35.3652C180.628 35.3652 179.145 35.4099 179.145 35.4917C179.145 35.5613 179.058 35.6182 178.951 35.6182C178.702 35.6182 178.404 35.9228 178.404 36.1785C178.404 36.2878 178.348 36.3773 178.28 36.3773C178.212 36.3773 178.157 36.6919 178.157 37.0763C178.157 37.7357 178.188 37.8077 178.71 38.3414L179.262 38.9074H183.653C186.497 38.9074 188.043 38.8629 188.043 38.7809C188.043 38.7113 188.266 38.6544 188.538 38.6544C188.809 38.6544 189.032 38.5974 189.032 38.5279C189.032 38.4583 189.143 38.4014 189.279 38.4014C189.415 38.4014 189.526 38.3444 189.526 38.2749C189.526 38.2053 189.637 38.1483 189.773 38.1483C189.909 38.1483 190.02 38.0914 190.02 38.0218C190.02 37.9523 190.105 37.8953 190.208 37.8953C190.453 37.8953 191.998 36.3135 191.998 36.0634C191.998 35.9576 192.053 35.8712 192.121 35.8712C192.189 35.8712 192.245 35.7574 192.245 35.6182C192.245 35.4791 192.301 35.3652 192.368 35.3652C192.436 35.3652 192.492 35.2513 192.492 35.1122C192.492 34.973 192.548 34.8592 192.616 34.8592C192.684 34.8592 192.739 34.6315 192.739 34.3532C192.739 34.0748 192.795 33.8471 192.863 33.8471C192.936 33.8471 192.986 33.3832 192.986 32.7086C192.986 32.0339 192.936 31.57 192.863 31.57C192.795 31.57 192.739 31.3423 192.739 31.064C192.739 30.7857 192.684 30.558 192.616 30.558C192.548 30.558 192.492 30.4441 192.492 30.3049C192.492 30.1658 192.436 30.0519 192.368 30.0519C192.301 30.0519 192.245 29.9381 192.245 29.7989C192.245 29.6598 192.189 29.5459 192.121 29.5459C192.053 29.5459 191.998 29.4595 191.998 29.3537C191.998 29.1036 190.453 27.5218 190.208 27.5218C190.105 27.5218 190.02 27.4649 190.02 27.3953C190.02 27.3257 189.909 27.2688 189.773 27.2688C189.637 27.2688 189.526 27.2119 189.526 27.1423C189.526 27.0727 189.415 27.0158 189.279 27.0158C189.143 27.0158 189.032 26.9589 189.032 26.8893C189.032 26.8197 188.809 26.7628 188.538 26.7628C188.266 26.7628 188.043 26.7058 188.043 26.6363C188.043 26.5558 187.055 26.5098 185.324 26.5098C183.594 26.5098 182.606 26.4637 182.606 26.3832C182.606 26.3137 182.521 26.2567 182.417 26.2567C182.098 26.2567 181.123 25.1626 181.123 24.8052C181.123 24.6295 181.067 24.4856 180.999 24.4856C180.931 24.4856 180.876 24.2579 180.876 23.9796C180.876 23.7013 180.931 23.4736 180.999 23.4736C181.067 23.4736 181.123 23.3153 181.123 23.122C181.123 22.9156 181.225 22.6952 181.37 22.5881C181.506 22.4877 181.617 22.3044 181.617 22.1806C181.617 22.0491 181.708 21.9555 181.837 21.9555C181.958 21.9555 182.137 21.8417 182.235 21.7025C182.359 21.5263 182.555 21.4495 182.88 21.4495C183.137 21.4495 183.347 21.3926 183.347 21.323C183.347 21.2413 184.77 21.1965 187.368 21.1965H191.388L191.816 20.7579C192.211 20.3539 192.245 20.2589 192.245 19.5519C192.245 18.8449 192.211 18.7498 191.816 18.3459C191.581 18.1047 191.303 17.9073 191.199 17.9073C191.094 17.9073 191.009 17.8504 191.009 17.7808C191.009 17.6991 189.567 17.6543 186.931 17.6543C184.295 17.6543 182.853 17.6991 182.853 17.7808ZM75.8327 21.576C75.8327 21.6456 76.0551 21.7025 76.327 21.7025C76.5989 21.7025 76.8213 21.7594 76.8213 21.829C76.8213 21.8986 76.9203 21.9555 77.0412 21.9555C77.1622 21.9555 77.3412 22.0694 77.4392 22.2085C77.5372 22.3477 77.6893 22.4615 77.7775 22.4615C77.9862 22.4615 79.7872 24.3053 79.7872 24.5189C79.7872 24.6091 79.8985 24.7648 80.0344 24.8652C80.1703 24.9655 80.2816 25.1488 80.2816 25.2726C80.2816 25.3964 80.3372 25.4977 80.4051 25.4977C80.4731 25.4977 80.5287 25.6685 80.5287 25.8772C80.5287 26.086 80.5843 26.2567 80.6523 26.2567C80.7203 26.2567 80.7759 26.4845 80.7759 26.7628C80.7759 27.0411 80.8315 27.2688 80.8995 27.2688C80.9727 27.2688 81.023 27.7327 81.023 28.4073C81.023 29.082 80.9727 29.5459 80.8995 29.5459C80.8315 29.5459 80.7759 29.7736 80.7759 30.0519C80.7759 30.3302 80.7203 30.558 80.6523 30.558C80.5843 30.558 80.5287 30.7287 80.5287 30.9375C80.5287 31.1462 80.4731 31.317 80.4051 31.317C80.3372 31.317 80.2816 31.4183 80.2816 31.5421C80.2816 31.6659 80.1703 31.8492 80.0344 31.9495C79.8985 32.0498 79.7872 32.2058 79.7872 32.296C79.7872 32.5263 78.2259 34.1001 77.9977 34.1001C77.8944 34.1001 77.81 34.1571 77.81 34.2266C77.81 34.2962 77.6987 34.3532 77.5628 34.3532C77.4269 34.3532 77.3156 34.4101 77.3156 34.4797C77.3156 34.5492 77.2044 34.6062 77.0685 34.6062C76.9325 34.6062 76.8213 34.6631 76.8213 34.7327C76.8213 34.8022 76.6545 34.8592 76.4506 34.8592C76.2467 34.8592 76.0798 34.9161 76.0798 34.9857C76.0798 35.0635 75.4619 35.1122 74.4733 35.1122C73.4847 35.1122 72.8668 35.0635 72.8668 34.9857C72.8668 34.9161 72.6999 34.8592 72.496 34.8592C72.2921 34.8592 72.1253 34.8022 72.1253 34.7327C72.1253 34.6631 72.0141 34.6062 71.8781 34.6062C71.7422 34.6062 71.631 34.5492 71.631 34.4797C71.631 34.4101 71.532 34.3532 71.4111 34.3532C71.2901 34.3532 71.1111 34.2393 71.0131 34.1001C70.9151 33.961 70.7623 33.8471 70.6736 33.8471C70.4636 33.8471 69.4065 32.765 69.4065 32.5501C69.4065 32.4592 69.2953 32.3029 69.1594 32.2025C69.0234 32.1022 68.9122 31.9189 68.9122 31.7951C68.9122 31.6713 68.8566 31.57 68.7886 31.57C68.7207 31.57 68.6651 31.4562 68.6651 31.317C68.6651 31.1778 68.6094 31.064 68.5415 31.064C68.4735 31.064 68.4179 30.8363 68.4179 30.558C68.4179 30.2796 68.3623 30.0519 68.2943 30.0519C68.2178 30.0519 68.1707 29.3773 68.1707 28.2808C68.1707 27.1844 68.2178 26.5098 68.2943 26.5098C68.3623 26.5098 68.4179 26.339 68.4179 26.1302C68.4179 25.9215 68.4735 25.7507 68.5415 25.7507C68.6094 25.7507 68.6651 25.6369 68.6651 25.4977C68.6651 25.3585 68.7207 25.2447 68.7886 25.2447C68.8566 25.2447 68.9122 25.1434 68.9122 25.0196C68.9122 24.8958 69.0234 24.7125 69.1594 24.6122C69.2953 24.5118 69.4065 24.3559 69.4065 24.2657C69.4065 24.0354 70.9678 22.4615 71.1961 22.4615C71.2994 22.4615 71.3838 22.4046 71.3838 22.335C71.3838 22.2655 71.495 22.2085 71.631 22.2085C71.7669 22.2085 71.8781 22.1516 71.8781 22.082C71.8781 22.0124 71.9893 21.9555 72.1253 21.9555C72.2612 21.9555 72.3725 21.8986 72.3725 21.829C72.3725 21.7594 72.5393 21.7025 72.7432 21.7025C72.9471 21.7025 73.1139 21.6456 73.1139 21.576C73.1139 21.4993 73.6494 21.4495 74.4733 21.4495C75.2972 21.4495 75.8327 21.4993 75.8327 21.576ZM98.5714 21.576C98.5714 21.6456 98.7382 21.7025 98.9421 21.7025C99.146 21.7025 99.3129 21.7594 99.3129 21.829C99.3129 21.8986 99.4241 21.9555 99.56 21.9555C99.696 21.9555 99.8072 22.0124 99.8072 22.082C99.8072 22.1516 99.9184 22.2085 100.054 22.2085C100.19 22.2085 100.301 22.2655 100.301 22.335C100.301 22.4046 100.386 22.4615 100.489 22.4615C100.717 22.4615 102.279 24.0354 102.279 24.2657C102.279 24.3559 102.39 24.5118 102.526 24.6122C102.662 24.7125 102.773 24.8958 102.773 25.0196C102.773 25.1434 102.829 25.2447 102.897 25.2447C102.965 25.2447 103.02 25.3585 103.02 25.4977C103.02 25.6369 103.076 25.7507 103.144 25.7507C103.212 25.7507 103.267 25.9215 103.267 26.1302V26.5098H97.0884C90.9919 26.5098 90.9094 26.5063 90.9094 26.2567C90.9094 26.1176 90.965 26.0037 91.033 26.0037C91.101 26.0037 91.1566 25.8899 91.1566 25.7507C91.1566 25.6116 91.2122 25.4977 91.2802 25.4977C91.3481 25.4977 91.4037 25.3838 91.4037 25.2447C91.4037 25.1055 91.4594 24.9917 91.5273 24.9917C91.5953 24.9917 91.6509 24.8903 91.6509 24.7666C91.6509 24.6428 91.7621 24.4595 91.8981 24.3591C92.034 24.2588 92.1452 24.1025 92.1452 24.0116C92.1452 23.7967 93.2023 22.7146 93.4123 22.7146C93.501 22.7146 93.6538 22.6007 93.7518 22.4615C93.8498 22.3224 94.0288 22.2085 94.1498 22.2085C94.2707 22.2085 94.3697 22.1516 94.3697 22.082C94.3697 22.0124 94.4809 21.9555 94.6168 21.9555C94.7528 21.9555 94.864 21.8986 94.864 21.829C94.864 21.7594 95.0308 21.7025 95.2347 21.7025C95.4386 21.7025 95.6055 21.6456 95.6055 21.576C95.6055 21.4987 96.1822 21.4495 97.0884 21.4495C97.9946 21.4495 98.5714 21.4987 98.5714 21.576ZM166.787 21.576C166.787 21.6456 166.954 21.7025 167.158 21.7025C167.362 21.7025 167.529 21.7594 167.529 21.829C167.529 21.8986 167.64 21.9555 167.776 21.9555C167.912 21.9555 168.023 22.0124 168.023 22.082C168.023 22.1516 168.112 22.2085 168.221 22.2085C168.329 22.2085 168.574 22.3793 168.765 22.5881C168.955 22.7968 169.174 22.9676 169.251 22.9676C169.445 22.9676 170.248 23.8076 170.248 24.0107C170.248 24.1021 170.359 24.2588 170.495 24.3591C170.631 24.4595 170.742 24.6428 170.742 24.7666C170.742 24.8903 170.798 24.9917 170.866 24.9917C170.934 24.9917 170.989 25.1055 170.989 25.2447C170.989 25.3838 171.045 25.4977 171.113 25.4977C171.181 25.4977 171.236 25.6116 171.236 25.7507C171.236 25.8899 171.292 26.0037 171.36 26.0037C171.428 26.0037 171.483 26.2314 171.483 26.5098C171.483 26.7881 171.539 27.0158 171.607 27.0158C171.682 27.0158 171.731 27.5639 171.731 28.4073C171.731 29.2508 171.682 29.7989 171.607 29.7989C171.539 29.7989 171.483 30.0266 171.483 30.3049C171.483 30.5833 171.428 30.811 171.36 30.811C171.292 30.811 171.236 30.9248 171.236 31.064C171.236 31.2031 171.181 31.317 171.113 31.317C171.045 31.317 170.989 31.4309 170.989 31.57C170.989 31.7092 170.934 31.823 170.866 31.823C170.798 31.823 170.742 31.914 170.742 32.0253C170.742 32.1365 170.575 32.3871 170.371 32.5821C170.167 32.777 170.001 33.0032 170.001 33.0847C170.001 33.2757 169.689 33.5941 169.503 33.5941C169.423 33.5941 169.202 33.7649 169.012 33.9736C168.821 34.1824 168.577 34.3532 168.468 34.3532C168.359 34.3532 168.27 34.4101 168.27 34.4797C168.27 34.5492 168.159 34.6062 168.023 34.6062C167.887 34.6062 167.776 34.6631 167.776 34.7327C167.776 34.8022 167.665 34.8592 167.529 34.8592C167.393 34.8592 167.282 34.9161 167.282 34.9857C167.282 35.0553 167.004 35.1122 166.664 35.1122C166.324 35.1122 166.046 35.1691 166.046 35.2387C166.046 35.3109 165.675 35.3652 165.181 35.3652C164.687 35.3652 164.316 35.3109 164.316 35.2387C164.316 35.1691 164.038 35.1122 163.698 35.1122C163.358 35.1122 163.08 35.0553 163.08 34.9857C163.08 34.9161 162.969 34.8592 162.833 34.8592C162.697 34.8592 162.586 34.8022 162.586 34.7327C162.586 34.6631 162.475 34.6062 162.339 34.6062C162.203 34.6062 162.091 34.5492 162.091 34.4797C162.091 34.4101 162.007 34.3532 161.904 34.3532C161.676 34.3532 159.867 32.5259 159.867 32.2958C159.867 32.2056 159.756 32.0498 159.62 31.9495C159.484 31.8492 159.373 31.6659 159.373 31.5421C159.373 31.4183 159.317 31.317 159.249 31.317C159.181 31.317 159.126 31.1462 159.126 30.9375C159.126 30.7287 159.07 30.558 159.002 30.558C158.934 30.558 158.878 30.2733 158.878 29.9254C158.878 29.5775 158.823 29.2929 158.755 29.2929C158.686 29.2929 158.631 28.9555 158.631 28.5339C158.631 28.1122 158.686 27.7748 158.755 27.7748C158.823 27.7748 158.878 27.4374 158.878 27.0158C158.878 26.5941 158.933 26.2567 159.002 26.2567C159.07 26.2567 159.126 26.1429 159.126 26.0037C159.126 25.8646 159.181 25.7507 159.249 25.7507C159.317 25.7507 159.373 25.5925 159.373 25.3992C159.373 25.1927 159.475 24.9723 159.62 24.8652C159.756 24.7648 159.867 24.6091 159.867 24.5189C159.867 24.3053 161.668 22.4615 161.877 22.4615C161.965 22.4615 162.117 22.3477 162.215 22.2085C162.313 22.0694 162.492 21.9555 162.613 21.9555C162.734 21.9555 162.833 21.8986 162.833 21.829C162.833 21.7594 163 21.7025 163.204 21.7025C163.408 21.7025 163.574 21.6456 163.574 21.576C163.574 21.4982 164.192 21.4495 165.181 21.4495C166.17 21.4495 166.787 21.4982 166.787 21.576ZM20.2218 29.6724C20.2218 29.742 20.1105 29.7989 19.9746 29.7989C19.8387 29.7989 19.7274 29.8558 19.7274 29.9254C19.7274 29.995 19.6162 30.0519 19.4803 30.0519C19.3443 30.0519 19.2331 30.1089 19.2331 30.1784C19.2331 30.248 19.1487 30.3049 19.0456 30.3049C18.9425 30.3049 17.6922 31.5004 16.2672 32.9616C14.8422 34.4227 13.6153 35.6182 13.5409 35.6182C13.4664 35.6182 13.1918 35.8459 12.9305 36.1242C12.6693 36.4026 12.3679 36.6303 12.2605 36.6303C12.1532 36.6303 12.0655 36.6872 12.0655 36.7568C12.0655 36.8264 11.9665 36.8833 11.8456 36.8833C11.7246 36.8833 11.5456 36.9971 11.4476 37.1363C11.3429 37.2848 11.1276 37.3893 10.926 37.3893C10.7371 37.3893 10.5825 37.4462 10.5825 37.5158C10.5825 37.5854 10.4713 37.6423 10.3354 37.6423C10.1994 37.6423 10.0882 37.6992 10.0882 37.7688C10.0882 37.8392 9.75862 37.8953 9.34672 37.8953C8.93483 37.8953 8.60524 37.9515 8.60524 38.0218C8.60524 38.0914 8.3828 38.1483 8.11093 38.1483C7.83905 38.1483 7.61661 38.0914 7.61661 38.0218C7.61661 37.9523 7.33855 37.8953 6.99871 37.8953C6.65886 37.8953 6.38081 37.8384 6.38081 37.7688C6.38081 37.6992 6.21397 37.6423 6.01007 37.6423C5.80616 37.6423 5.63933 37.5854 5.63933 37.5158C5.63933 37.4462 5.52811 37.3893 5.39217 37.3893C5.25623 37.3893 5.14501 37.3324 5.14501 37.2628C5.14501 37.1932 5.04602 37.1363 4.92516 37.1363C4.80418 37.1363 4.62511 37.0224 4.52711 36.8833C4.42911 36.7441 4.26228 36.6303 4.15637 36.6303C4.05046 36.6303 3.88363 36.5164 3.78563 36.3773C3.68763 36.2381 3.53452 36.1242 3.44542 36.1242C3.35631 36.1242 2.67527 35.498 1.93193 34.7327C1.1886 33.9673 0.550804 33.3411 0.514719 33.3411C0.47851 33.3411 0.448975 35.2197 0.448975 37.5158C0.448975 40.2146 0.492722 41.6905 0.572554 41.6905C0.640523 41.6905 0.696134 41.9752 0.696134 42.3231C0.696134 42.671 0.751745 42.9556 0.819714 42.9556C0.887683 42.9556 0.943294 43.1264 0.943294 43.3351C0.943294 43.5438 0.998905 43.7146 1.06687 43.7146C1.13484 43.7146 1.19045 43.8854 1.19045 44.0941C1.19045 44.3029 1.24606 44.4737 1.31403 44.4737C1.382 44.4737 1.43761 44.5875 1.43761 44.7267C1.43761 44.8658 1.49322 44.9797 1.56119 44.9797C1.62916 44.9797 1.68477 45.0935 1.68477 45.2327C1.68477 45.3719 1.74038 45.4857 1.80835 45.4857C1.87632 45.4857 1.93193 45.5871 1.93193 45.7108C1.93193 45.8346 2.04315 46.0179 2.17909 46.1183C2.31503 46.2186 2.42625 46.374 2.42625 46.4639C2.42625 46.677 4.9699 49.2809 5.17813 49.2809C5.26587 49.2809 5.41775 49.3948 5.51575 49.5339C5.61375 49.6731 5.79281 49.7869 5.9138 49.7869C6.03466 49.7869 6.13365 49.8439 6.13365 49.9134C6.13365 49.983 6.24487 50.04 6.38081 50.04C6.51675 50.04 6.62797 50.0969 6.62797 50.1665C6.62797 50.236 6.73919 50.293 6.87513 50.293C7.01107 50.293 7.12229 50.3499 7.12229 50.4195C7.12229 50.489 7.28912 50.546 7.49303 50.546C7.69693 50.546 7.86377 50.6029 7.86377 50.6725C7.86377 50.7421 8.0306 50.799 8.23451 50.799C8.43841 50.799 8.60524 50.8559 8.60524 50.9255C8.60524 50.9951 8.82769 51.052 9.09956 51.052C9.37144 51.052 9.59388 51.1089 9.59388 51.1785C9.59388 51.2621 14.949 51.305 25.4121 51.305C35.8752 51.305 41.2303 51.2621 41.2303 51.1785C41.2303 51.1089 41.4528 51.052 41.7246 51.052C41.9965 51.052 42.219 50.9951 42.219 50.9255C42.219 50.8559 42.3858 50.799 42.5897 50.799C42.7936 50.799 42.9604 50.7421 42.9604 50.6725C42.9604 50.6029 43.1273 50.546 43.3312 50.546C43.5351 50.546 43.7019 50.489 43.7019 50.4195C43.7019 50.3499 43.8131 50.293 43.9491 50.293C44.085 50.293 44.1962 50.236 44.1962 50.1665C44.1962 50.0969 44.3075 50.04 44.4434 50.04C44.5793 50.04 44.6906 49.983 44.6906 49.9134C44.6906 49.8439 44.7895 49.7869 44.9104 49.7869C45.0314 49.7869 45.2105 49.6731 45.3085 49.5339C45.4065 49.3948 45.5583 49.2809 45.6461 49.2809C45.8543 49.2809 48.398 46.677 48.398 46.4639C48.398 46.374 48.5092 46.2186 48.6451 46.1183C48.7811 46.0179 48.8923 45.8346 48.8923 45.7108C48.8923 45.5871 48.9479 45.4857 49.0159 45.4857C49.0838 45.4857 49.1394 45.3719 49.1394 45.2327C49.1394 45.0935 49.195 44.9797 49.263 44.9797C49.331 44.9797 49.3866 44.8658 49.3866 44.7267C49.3866 44.5875 49.4422 44.4737 49.5102 44.4737C49.5781 44.4737 49.6338 44.3029 49.6338 44.0941C49.6338 43.8854 49.6894 43.7146 49.7573 43.7146C49.8253 43.7146 49.8809 43.5438 49.8809 43.3351C49.8809 43.1264 49.9365 42.9556 50.0045 42.9556C50.0725 42.9556 50.1281 42.671 50.1281 42.3231C50.1281 41.9752 50.1837 41.6905 50.2517 41.6905C50.3321 41.6905 50.3752 39.811 50.3752 36.305C50.3752 30.68 50.3642 30.558 49.8552 30.558C49.7634 30.558 49.6082 30.4441 49.5102 30.3049C49.4122 30.1658 49.2331 30.0519 49.1121 30.0519C48.9913 30.0519 48.8923 29.995 48.8923 29.9254C48.8923 29.8558 48.7811 29.7989 48.6451 29.7989C48.5092 29.7989 48.398 29.742 48.398 29.6724C48.398 29.5974 47.9448 29.5459 47.2857 29.5459C46.6267 29.5459 46.1735 29.5974 46.1735 29.6724C46.1735 29.742 46.0623 29.7989 45.9264 29.7989C45.7904 29.7989 45.6792 29.8558 45.6792 29.9254C45.6792 29.995 45.5915 30.0519 45.4842 30.0519C45.3768 30.0519 45.0754 30.2796 44.8141 30.558C44.5529 30.8363 44.2783 31.064 44.2039 31.064C44.0314 31.064 42.219 32.9134 42.219 33.0894C42.219 33.2636 41.1511 34.3532 40.9804 34.3532C40.9074 34.3532 40.4638 34.7516 39.9945 35.2387C39.5253 35.7257 39.0776 36.1242 38.9996 36.1242C38.9217 36.1242 38.702 36.295 38.5116 36.5038C38.3211 36.7125 38.0763 36.8833 37.9677 36.8833C37.8589 36.8833 37.7701 36.9402 37.7701 37.0098C37.7701 37.0794 37.6589 37.1363 37.5229 37.1363C37.387 37.1363 37.2758 37.1932 37.2758 37.2628C37.2758 37.3324 37.1645 37.3893 37.0286 37.3893C36.8927 37.3893 36.7815 37.4462 36.7815 37.5158C36.7815 37.5854 36.6146 37.6423 36.4107 37.6423C36.2068 37.6423 36.04 37.6992 36.04 37.7688C36.04 37.8384 35.7619 37.8953 35.4221 37.8953C35.0822 37.8953 34.8042 37.9523 34.8042 38.0218C34.8042 38.0914 34.5817 38.1483 34.3099 38.1483C34.038 38.1483 33.8155 38.0914 33.8155 38.0218C33.8155 37.9523 33.5375 37.8953 33.1976 37.8953C32.8578 37.8953 32.5797 37.8384 32.5797 37.7688C32.5797 37.6992 32.4129 37.6423 32.209 37.6423C32.0051 37.6423 31.8383 37.5854 31.8383 37.5158C31.8383 37.4462 31.727 37.3893 31.5911 37.3893C31.4552 37.3893 31.3439 37.3324 31.3439 37.2628C31.3439 37.1932 31.2327 37.1363 31.0968 37.1363C30.9608 37.1363 30.8496 37.0794 30.8496 37.0098C30.8496 36.9402 30.7506 36.8833 30.6298 36.8833C30.5088 36.8833 30.3297 36.7694 30.2317 36.6303C30.1337 36.4911 29.9769 36.3773 29.8832 36.3773C29.7897 36.3773 29.5571 36.2065 29.3667 35.9977C29.1762 35.789 28.9582 35.6182 28.8825 35.6182C28.8066 35.6182 27.5786 34.4227 26.1536 32.9616C24.7286 31.5004 23.4906 30.3049 23.4025 30.3049C23.3143 30.3049 23.1621 30.1911 23.0641 30.0519C22.9661 29.9128 22.787 29.7989 22.666 29.7989C22.5452 29.7989 22.4462 29.742 22.4462 29.6724C22.4462 29.5974 21.993 29.5459 21.334 29.5459C20.6749 29.5459 20.2218 29.5974 20.2218 29.6724ZM18.7388 32.2783C18.7388 32.3895 18.9056 32.6401 19.1095 32.8351C19.3134 33.03 19.4803 33.2529 19.4803 33.3302C19.4803 33.5277 21.7902 35.8712 21.9847 35.8712C22.0726 35.8712 22.2246 35.9851 22.3226 36.1242C22.4206 36.2634 22.5997 36.3773 22.7207 36.3773C22.8415 36.3773 22.9405 36.4342 22.9405 36.5038C22.9405 36.5733 23.0517 36.6303 23.1877 36.6303C23.3236 36.6303 23.4348 36.6872 23.4348 36.7568C23.4348 36.8334 23.9703 36.8833 24.7942 36.8833C25.6181 36.8833 26.1536 36.8334 26.1536 36.7568C26.1536 36.6872 26.2648 36.6303 26.4007 36.6303C26.5367 36.6303 26.6479 36.5733 26.6479 36.5038C26.6479 36.4342 26.7469 36.3773 26.8678 36.3773C26.9887 36.3773 27.1678 36.2634 27.2658 36.1242C27.5114 35.7755 27.7258 35.8067 28.1309 36.2507C28.3213 36.4595 28.5437 36.6303 28.6252 36.6303C28.7066 36.6303 28.9291 36.8011 29.1195 37.0098C29.3099 37.2185 29.5547 37.3893 29.6634 37.3893C29.7721 37.3893 29.861 37.4462 29.861 37.5158C29.861 37.5854 29.9469 37.6423 30.0519 37.6423C30.157 37.6423 30.3827 37.7854 30.5535 37.9602C30.8284 38.2416 30.8429 38.2998 30.6803 38.4663C30.5792 38.5697 30.4314 38.6544 30.352 38.6544C30.2724 38.6544 30.0514 38.8252 29.861 39.0339C29.6705 39.2426 29.4257 39.4134 29.3171 39.4134C29.2084 39.4134 29.1195 39.4703 29.1195 39.5399C29.1195 39.6095 29.0205 39.6664 28.8997 39.6664C28.7787 39.6664 28.5996 39.7803 28.5016 39.9194C28.3969 40.068 28.1817 40.1724 27.98 40.1724C27.7911 40.1724 27.6365 40.2294 27.6365 40.299C27.6365 40.3685 27.4697 40.4255 27.2658 40.4255C27.0619 40.4255 26.8951 40.4824 26.8951 40.552C26.8951 40.6215 26.617 40.6785 26.2772 40.6785C25.9373 40.6785 25.6593 40.7354 25.6593 40.805C25.6593 40.8772 25.2885 40.9315 24.7942 40.9315C24.2999 40.9315 23.9291 40.8772 23.9291 40.805C23.9291 40.7354 23.6511 40.6785 23.3112 40.6785C22.9714 40.6785 22.6933 40.6215 22.6933 40.552C22.6933 40.4824 22.5265 40.4255 22.3226 40.4255C22.1187 40.4255 21.9519 40.3685 21.9519 40.299C21.9519 40.2294 21.8406 40.1724 21.7047 40.1724C21.5688 40.1724 21.4576 40.1155 21.4576 40.0459C21.4576 39.9764 21.3463 39.9194 21.2104 39.9194C21.0745 39.9194 20.9632 39.8625 20.9632 39.7929C20.9632 39.7234 20.8642 39.6664 20.7434 39.6664C20.6224 39.6664 20.4433 39.5526 20.3453 39.4134C20.2473 39.2743 20.0956 39.1604 20.008 39.1604C19.8001 39.1604 16.5144 35.7968 16.5144 35.5841C16.5144 35.4944 16.4031 35.339 16.2672 35.2387C15.7985 34.8928 15.9616 34.5375 17.1631 33.2862C18.2563 32.1479 18.7388 31.8392 18.7388 32.2783Z" fill="white"/>
</svg>
