<svg width="147" height="24" viewBox="0 0 147 24" fill="none" xmlns="http://www.w3.org/2000/svg">
<path fill-rule="evenodd" clip-rule="evenodd" d="M0.733643 12.3697V23.8428H4.16386H7.59408V19.4508V15.0587H15.4468C22.1382 15.0587 23.3177 15.0776 23.4221 15.1868C23.5248 15.2942 23.5446 16.0028 23.5446 19.5789V23.8428H26.8891H30.2335V12.3697V0.896614H26.8891H23.5446V4.93013V8.96364H15.5693H7.59408V4.93013V0.896614H4.16386H0.733643V12.3697ZM33.3207 0.986248C33.3207 1.03555 33.3593 1.07588 33.4065 1.07588C33.4536 1.07588 33.4922 1.15655 33.4922 1.25515C33.4922 1.35375 33.5308 1.43442 33.578 1.43442C33.6251 1.43442 33.6637 1.51509 33.6637 1.61368C33.6637 1.71228 33.7023 1.79295 33.7495 1.79295C33.7967 1.79295 33.8352 1.86475 33.8352 1.95241C33.8352 2.04016 33.9124 2.17004 34.0068 2.24112C34.1011 2.3122 34.1783 2.44208 34.1783 2.52983C34.1783 2.61749 34.2169 2.68929 34.264 2.68929C34.3112 2.68929 34.3498 2.76996 34.3498 2.86856C34.3498 2.96715 34.3884 3.04782 34.4355 3.04782C34.4827 3.04782 34.5213 3.12849 34.5213 3.22709C34.5213 3.32569 34.5599 3.40636 34.607 3.40636C34.6542 3.40636 34.6928 3.48703 34.6928 3.58562C34.6928 3.68422 34.7314 3.76489 34.7786 3.76489C34.8257 3.76489 34.8643 3.84556 34.8643 3.94416C34.8643 4.04276 34.9029 4.12343 34.9501 4.12343C34.9972 4.12343 35.0358 4.2041 35.0358 4.30269C35.0358 4.40129 35.0744 4.48196 35.1216 4.48196C35.1687 4.48196 35.2073 4.55376 35.2073 4.64142C35.2073 4.72917 35.2845 4.85905 35.3788 4.93013C35.4732 5.00121 35.5504 5.13109 35.5504 5.21884C35.5504 5.3065 35.5889 5.3783 35.6361 5.3783C35.6833 5.3783 35.7219 5.45897 35.7219 5.55757C35.7219 5.65616 35.7605 5.73683 35.8076 5.73683C35.8548 5.73683 35.8934 5.8175 35.8934 5.9161C35.8934 6.0147 35.932 6.09537 35.9791 6.09537C36.0263 6.09537 36.0649 6.17604 36.0649 6.27463C36.0649 6.37323 36.1035 6.4539 36.1506 6.4539C36.1978 6.4539 36.2364 6.53457 36.2364 6.63317C36.2364 6.73177 36.275 6.81244 36.3222 6.81244C36.3693 6.81244 36.4079 6.89311 36.4079 6.9917C36.4079 7.0903 36.4465 7.17097 36.4937 7.17097C36.5408 7.17097 36.5794 7.24277 36.5794 7.33043C36.5794 7.41818 36.6566 7.54806 36.7509 7.61914C36.8453 7.69022 36.9224 7.8201 36.9224 7.90785C36.9224 7.99551 36.961 8.06731 37.0082 8.06731C37.0554 8.06731 37.094 8.14798 37.094 8.24658C37.094 8.34517 37.1325 8.42584 37.1797 8.42584C37.2269 8.42584 37.2655 8.50651 37.2655 8.60511C37.2655 8.70371 37.3041 8.78438 37.3512 8.78438C37.3984 8.78438 37.437 8.86505 37.437 8.96364C37.437 9.06224 37.4756 9.14291 37.5227 9.14291C37.5699 9.14291 37.6085 9.22358 37.6085 9.32218C37.6085 9.42078 37.6471 9.50145 37.6942 9.50145C37.7414 9.50145 37.78 9.57324 37.78 9.6609C37.78 9.74866 37.8572 9.87854 37.9515 9.94961C38.0458 10.0207 38.123 10.1506 38.123 10.2383C38.123 10.326 38.1616 10.3978 38.2088 10.3978C38.2559 10.3978 38.2945 10.4785 38.2945 10.5771C38.2945 10.6756 38.3331 10.7563 38.3803 10.7563C38.4275 10.7563 38.466 10.837 38.466 10.9356C38.466 11.0342 38.5046 11.1149 38.5518 11.1149C38.599 11.1149 38.6376 11.1955 38.6376 11.2941C38.6376 11.3927 38.6761 11.4734 38.7233 11.4734C38.7705 11.4734 38.8091 11.5541 38.8091 11.6527C38.8091 11.7513 38.8477 11.8319 38.8948 11.8319C38.942 11.8319 38.9806 11.9126 38.9806 12.0112C38.9806 12.1098 39.0192 12.1905 39.0663 12.1905C39.1135 12.1905 39.1521 12.2623 39.1521 12.3499C39.1521 12.4377 39.2293 12.5675 39.3236 12.6386C39.4179 12.7097 39.4951 12.8396 39.4951 12.9273C39.4951 13.015 39.5337 13.0868 39.5809 13.0868C39.628 13.0868 39.6666 13.1675 39.6666 13.2661C39.6666 13.3647 39.7052 13.4453 39.7524 13.4453C39.7995 13.4453 39.8381 13.526 39.8381 13.6246C39.8381 13.7232 39.8767 13.8039 39.9239 13.8039C39.9711 13.8039 40.0096 13.8845 40.0096 13.9831C40.0096 14.0817 40.0482 14.1624 40.0954 14.1624C40.1426 14.1624 40.1812 14.2431 40.1812 14.3417C40.1812 14.4403 40.2197 14.5209 40.2669 14.5209C40.3141 14.5209 40.3527 14.6016 40.3527 14.7002C40.3527 14.7988 40.3913 14.8795 40.4384 14.8795C40.4856 14.8795 40.5242 14.9513 40.5242 15.0389C40.5242 15.1267 40.6014 15.2566 40.6957 15.3276C40.79 15.3987 40.8672 15.5286 40.8672 15.6163C40.8672 15.704 40.9058 15.7758 40.9529 15.7758C41.0001 15.7758 41.0387 15.8565 41.0387 15.9551C41.0387 16.0537 41.0773 16.1343 41.1245 16.1343C41.1716 16.1343 41.2102 16.215 41.2102 16.3136C41.2102 16.4122 41.2488 16.4929 41.296 16.4929C41.3431 16.4929 41.3817 16.5735 41.3817 16.6721C41.3817 16.7707 41.4203 16.8514 41.4675 16.8514C41.5146 16.8514 41.5532 16.9321 41.5532 17.0307C41.5532 17.1293 41.5918 17.2099 41.639 17.2099C41.6862 17.2099 41.7248 17.2906 41.7248 17.3892C41.7248 17.4878 41.7633 17.5685 41.8105 17.5685C41.8577 17.5685 41.8963 17.6403 41.8963 17.7279C41.8963 17.8157 41.9734 17.9456 42.0678 18.0166C42.1621 18.0877 42.2393 18.2176 42.2393 18.3054C42.2393 18.393 42.2779 18.4648 42.325 18.4648C42.3722 18.4648 42.4108 18.5455 42.4108 18.6441C42.4108 18.7427 42.4494 18.8233 42.4965 18.8233C42.5437 18.8233 42.5823 18.904 42.5823 19.0026C42.5823 19.1012 42.6209 19.1819 42.6681 19.1819C42.7152 19.1819 42.7538 19.2626 42.7538 19.3612C42.7538 19.4597 42.7924 19.5404 42.8396 19.5404C42.8867 19.5404 42.9253 19.6211 42.9253 19.7197C42.9253 19.8183 42.9639 19.899 43.0111 19.899C43.0582 19.899 43.0968 19.9796 43.0968 20.0782C43.0968 20.1768 43.1354 20.2575 43.1826 20.2575C43.2298 20.2575 43.2683 20.3293 43.2683 20.4169C43.2683 20.5047 43.3455 20.6346 43.4399 20.7057C43.5342 20.7767 43.6114 20.9066 43.6114 20.9944C43.6114 21.082 43.65 21.1538 43.6971 21.1538C43.7443 21.1538 43.7829 21.2345 43.7829 21.3331C43.7829 21.4317 43.8215 21.5124 43.8686 21.5124C43.9158 21.5124 43.9544 21.593 43.9544 21.6916C43.9544 21.7902 43.993 21.8709 44.0401 21.8709C44.0873 21.8709 44.1259 21.9516 44.1259 22.0502C44.1259 22.1488 44.1645 22.2294 44.2117 22.2294C44.2588 22.2294 44.2974 22.3101 44.2974 22.4087C44.2974 22.5073 44.336 22.588 44.3832 22.588C44.4303 22.588 44.4689 22.6686 44.4689 22.7672C44.4689 22.8658 44.5075 22.9465 44.5547 22.9465C44.6018 22.9465 44.6404 23.0183 44.6404 23.106C44.6404 23.1937 44.7176 23.3236 44.8119 23.3947C44.9063 23.4657 44.9835 23.5956 44.9835 23.6834C44.9835 23.8344 45.2518 23.8428 50.0898 23.8428H55.1962L55.4066 23.6228C55.5224 23.5018 55.6171 23.3404 55.6171 23.2642C55.6171 23.1881 55.6557 23.1258 55.7029 23.1258C55.7501 23.1258 55.7886 23.0451 55.7886 22.9465C55.7886 22.8479 55.8272 22.7672 55.8744 22.7672C55.9216 22.7672 55.9602 22.6866 55.9602 22.588C55.9602 22.4894 55.9987 22.4087 56.0459 22.4087C56.0931 22.4087 56.1317 22.3369 56.1317 22.2492C56.1317 22.1615 56.2088 22.0316 56.3032 21.9605C56.3975 21.8894 56.4747 21.7596 56.4747 21.6718C56.4747 21.5842 56.5133 21.5124 56.5604 21.5124C56.6076 21.5124 56.6462 21.4317 56.6462 21.3331C56.6462 21.2345 56.6848 21.1538 56.732 21.1538C56.7791 21.1538 56.8177 21.0732 56.8177 20.9746C56.8177 20.876 56.8563 20.7953 56.9035 20.7953C56.9506 20.7953 56.9892 20.7235 56.9892 20.6358C56.9892 20.5481 57.0664 20.4182 57.1607 20.3471C57.2551 20.276 57.3322 20.1462 57.3322 20.0584C57.3322 19.9708 57.3708 19.899 57.418 19.899C57.4652 19.899 57.5038 19.8183 57.5038 19.7197C57.5038 19.6211 57.5423 19.5404 57.5895 19.5404C57.6367 19.5404 57.6753 19.4597 57.6753 19.3612C57.6753 19.2626 57.7139 19.1819 57.761 19.1819C57.8082 19.1819 57.8468 19.1101 57.8468 19.0224C57.8468 18.9347 57.924 18.8048 58.0183 18.7337C58.1126 18.6626 58.1898 18.5328 58.1898 18.445C58.1898 18.3573 58.2284 18.2855 58.2756 18.2855C58.3227 18.2855 58.3613 18.2049 58.3613 18.1063C58.3613 18.0077 58.3999 17.927 58.4471 17.927C58.4942 17.927 58.5328 17.8463 58.5328 17.7477C58.5328 17.6491 58.5714 17.5685 58.6186 17.5685C58.6657 17.5685 58.7043 17.4967 58.7043 17.409C58.7043 17.3213 58.7815 17.1914 58.8758 17.1203C58.9702 17.0492 59.0474 16.9194 59.0474 16.8316C59.0474 16.7439 59.0859 16.6721 59.1331 16.6721C59.1803 16.6721 59.2189 16.5915 59.2189 16.4929C59.2189 16.3943 59.2575 16.3136 59.3046 16.3136C59.3518 16.3136 59.3904 16.2329 59.3904 16.1343C59.3904 16.0357 59.429 15.9551 59.4761 15.9551C59.5233 15.9551 59.5619 15.8744 59.5619 15.7758C59.5619 15.6772 59.6005 15.5965 59.6476 15.5965C59.6948 15.5965 59.7334 15.5247 59.7334 15.4371C59.7334 15.3493 59.8106 15.2194 59.9049 15.1484C59.9992 15.0773 60.0764 14.9474 60.0764 14.8597C60.0764 14.772 60.115 14.7002 60.1622 14.7002C60.2093 14.7002 60.2479 14.6195 60.2479 14.5209C60.2479 14.4223 60.2865 14.3417 60.3337 14.3417C60.3808 14.3417 60.4194 14.261 60.4194 14.1624C60.4194 14.0638 60.458 13.9831 60.5052 13.9831C60.5524 13.9831 60.591 13.9113 60.591 13.8237C60.591 13.7359 60.6681 13.606 60.7625 13.535C60.8568 13.4639 60.934 13.334 60.934 13.2463C60.934 13.1586 60.9726 13.0868 61.0197 13.0868C61.0669 13.0868 61.1055 13.0061 61.1055 12.9075C61.1055 12.8089 61.1441 12.7283 61.1912 12.7283C61.2384 12.7283 61.277 12.6476 61.277 12.549C61.277 12.4504 61.3156 12.3697 61.3627 12.3697C61.4099 12.3697 61.4485 12.2979 61.4485 12.2103C61.4485 12.1225 61.5257 11.9926 61.62 11.9216C61.7143 11.8505 61.7915 11.7206 61.7915 11.6328C61.7915 11.5452 61.8301 11.4734 61.8773 11.4734C61.9244 11.4734 61.963 11.3927 61.963 11.2941C61.963 11.1955 62.0016 11.1149 62.0488 11.1149C62.096 11.1149 62.1345 11.0342 62.1345 10.9356C62.1345 10.837 62.1731 10.7563 62.2203 10.7563C62.2675 10.7563 62.3061 10.6845 62.3061 10.5969C62.3061 10.5091 62.3832 10.3792 62.4776 10.3081C62.5719 10.2371 62.6491 10.1072 62.6491 10.0194C62.6491 9.93178 62.6877 9.85998 62.7348 9.85998C62.782 9.85998 62.8206 9.77931 62.8206 9.68071C62.8206 9.58212 62.8592 9.50145 62.9063 9.50145C62.9535 9.50145 62.9921 9.42078 62.9921 9.32218C62.9921 9.22358 63.0307 9.14291 63.0779 9.14291C63.125 9.14291 63.1636 9.07112 63.1636 8.98345C63.1636 8.8957 63.2408 8.76582 63.3351 8.69474C63.4295 8.62366 63.5066 8.49378 63.5066 8.40603C63.5066 8.31837 63.5452 8.24658 63.5924 8.24658C63.6396 8.24658 63.6781 8.1659 63.6781 8.06731C63.6781 7.96871 63.7167 7.88804 63.7639 7.88804C63.8111 7.88804 63.8497 7.80737 63.8497 7.70877C63.8497 7.61018 63.8882 7.52951 63.9354 7.52951C63.9826 7.52951 64.0212 7.44884 64.0212 7.35024C64.0212 7.25164 64.0598 7.17097 64.1069 7.17097C64.1541 7.17097 64.1927 7.09917 64.1927 7.01151C64.1927 6.92376 64.2699 6.79388 64.3642 6.7228C64.4585 6.65172 64.5357 6.52184 64.5357 6.43409C64.5357 6.34643 64.5743 6.27463 64.6215 6.27463C64.6686 6.27463 64.7072 6.19396 64.7072 6.09537C64.7072 5.99677 64.7458 5.9161 64.793 5.9161C64.8401 5.9161 64.8787 5.83543 64.8787 5.73683C64.8787 5.63824 64.9173 5.55757 64.9645 5.55757C65.0116 5.55757 65.0502 5.48577 65.0502 5.39811C65.0502 5.31036 65.1274 5.18048 65.2217 5.1094C65.3161 5.03832 65.3933 4.90844 65.3933 4.82069C65.3933 4.73303 65.4318 4.66123 65.479 4.66123C65.5262 4.66123 65.5648 4.58056 65.5648 4.48196C65.5648 4.38336 65.6034 4.30269 65.6505 4.30269C65.6977 4.30269 65.7363 4.22202 65.7363 4.12343C65.7363 4.02483 65.7749 3.94416 65.822 3.94416C65.8692 3.94416 65.9078 3.87236 65.9078 3.7847C65.9078 3.69695 65.985 3.56707 66.0793 3.49599C66.1736 3.42491 66.2508 3.29503 66.2508 3.20728C66.2508 3.11962 66.2894 3.04782 66.3366 3.04782C66.3837 3.04782 66.4223 2.96715 66.4223 2.86856C66.4223 2.76996 66.4609 2.68929 66.5081 2.68929C66.5552 2.68929 66.5938 2.60862 66.5938 2.51002C66.5938 2.41142 66.6324 2.33075 66.6796 2.33075C66.7268 2.33075 66.7653 2.25896 66.7653 2.17129C66.7653 2.08354 66.8425 1.95366 66.9369 1.88258C67.0312 1.81151 67.1084 1.68163 67.1084 1.59387C67.1084 1.50621 67.1469 1.43442 67.1941 1.43442C67.2413 1.43442 67.2799 1.35375 67.2799 1.25515C67.2799 1.15655 67.3185 1.07588 67.3656 1.07588C67.4128 1.07588 67.4514 1.03555 67.4514 0.986248C67.4514 0.927896 66.1488 0.896614 63.7149 0.896614C59.7789 0.896614 59.7334 0.901186 59.7334 1.2936C59.7334 1.37105 59.6948 1.43442 59.6476 1.43442C59.6005 1.43442 59.5619 1.51509 59.5619 1.61368C59.5619 1.71228 59.5233 1.79295 59.4761 1.79295C59.429 1.79295 59.3904 1.87362 59.3904 1.97222C59.3904 2.07082 59.3518 2.15149 59.3046 2.15149C59.2575 2.15149 59.2189 2.23216 59.2189 2.33075C59.2189 2.42935 59.1803 2.51002 59.1331 2.51002C59.0859 2.51002 59.0474 2.59069 59.0474 2.68929C59.0474 2.78788 59.0088 2.86856 58.9616 2.86856C58.9144 2.86856 58.8758 2.94923 58.8758 3.04782C58.8758 3.14642 58.8372 3.22709 58.7901 3.22709C58.7429 3.22709 58.7043 3.29889 58.7043 3.38655C58.7043 3.4743 58.6271 3.60418 58.5328 3.67526C58.4385 3.74634 58.3613 3.87622 58.3613 3.96397C58.3613 4.05163 58.3227 4.12343 58.2756 4.12343C58.2284 4.12343 58.1898 4.2041 58.1898 4.30269C58.1898 4.40129 58.1512 4.48196 58.104 4.48196C58.0569 4.48196 58.0183 4.56263 58.0183 4.66123C58.0183 4.75983 57.9797 4.8405 57.9325 4.8405C57.8854 4.8405 57.8468 4.92117 57.8468 5.01976C57.8468 5.11836 57.8082 5.19903 57.761 5.19903C57.7139 5.19903 57.6753 5.2797 57.6753 5.3783C57.6753 5.47689 57.6367 5.55757 57.5895 5.55757C57.5423 5.55757 57.5038 5.63824 57.5038 5.73683C57.5038 5.83543 57.4652 5.9161 57.418 5.9161C57.3708 5.9161 57.3322 5.9879 57.3322 6.07556C57.3322 6.16331 57.2551 6.29319 57.1607 6.36427C57.0664 6.43535 56.9892 6.56523 56.9892 6.65298C56.9892 6.74064 56.9506 6.81244 56.9035 6.81244C56.8563 6.81244 56.8177 6.89311 56.8177 6.9917C56.8177 7.0903 56.7791 7.17097 56.732 7.17097C56.6848 7.17097 56.6462 7.25164 56.6462 7.35024C56.6462 7.44884 56.6076 7.52951 56.5604 7.52951C56.5133 7.52951 56.4747 7.61018 56.4747 7.70877C56.4747 7.80737 56.4361 7.88804 56.3889 7.88804C56.3418 7.88804 56.3032 7.96871 56.3032 8.06731C56.3032 8.1659 56.2646 8.24658 56.2174 8.24658C56.1703 8.24658 56.1317 8.32725 56.1317 8.42584C56.1317 8.52444 56.0931 8.60511 56.0459 8.60511C55.9987 8.60511 55.9602 8.67691 55.9602 8.76457C55.9602 8.85232 55.883 8.9822 55.7886 9.05328C55.6943 9.12436 55.6171 9.25424 55.6171 9.34199C55.6171 9.42965 55.5785 9.50145 55.5314 9.50145C55.4842 9.50145 55.4456 9.58212 55.4456 9.68071C55.4456 9.77931 55.407 9.85998 55.3599 9.85998C55.3127 9.85998 55.2741 9.94065 55.2741 10.0392C55.2741 10.1378 55.2355 10.2185 55.1884 10.2185C55.1412 10.2185 55.1026 10.2992 55.1026 10.3978C55.1026 10.4964 55.064 10.5771 55.0168 10.5771C54.9697 10.5771 54.9311 10.6577 54.9311 10.7563C54.9311 10.8549 54.8925 10.9356 54.8453 10.9356C54.7982 10.9356 54.7596 11.0163 54.7596 11.1149C54.7596 11.2134 54.721 11.2941 54.6738 11.2941C54.6267 11.2941 54.5881 11.3659 54.5881 11.4536C54.5881 11.5413 54.5109 11.6712 54.4166 11.7423C54.3222 11.8134 54.245 11.9432 54.245 12.031C54.245 12.1187 54.2065 12.1905 54.1593 12.1905C54.1121 12.1905 54.0735 12.2711 54.0735 12.3697C54.0735 12.4683 54.0349 12.549 53.9878 12.549C53.9406 12.549 53.902 12.6297 53.902 12.7283C53.902 12.8269 53.8634 12.9075 53.8163 12.9075C53.7691 12.9075 53.7305 12.9882 53.7305 13.0868C53.7305 13.1854 53.6919 13.2661 53.6448 13.2661C53.5976 13.2661 53.559 13.3467 53.559 13.4453C53.559 13.5439 53.5204 13.6246 53.4732 13.6246C53.4261 13.6246 53.3875 13.7053 53.3875 13.8039C53.3875 13.9025 53.3489 13.9831 53.3017 13.9831C53.2546 13.9831 53.216 14.0549 53.216 14.1426C53.216 14.2303 53.1388 14.3602 53.0445 14.4313C52.9501 14.5024 52.873 14.6323 52.873 14.72C52.873 14.8077 52.8344 14.8795 52.7872 14.8795C52.74 14.8795 52.7014 14.9601 52.7014 15.0587C52.7014 15.1573 52.6629 15.238 52.6157 15.238C52.5685 15.238 52.5299 15.3187 52.5299 15.4173C52.5299 15.5159 52.4913 15.5965 52.4442 15.5965C52.397 15.5965 52.3584 15.6772 52.3584 15.7758C52.3584 15.8744 52.3198 15.9551 52.2727 15.9551C52.2255 15.9551 52.1869 16.0357 52.1869 16.1343C52.1869 16.2329 52.1483 16.3136 52.1012 16.3136C52.054 16.3136 52.0154 16.3854 52.0154 16.4731C52.0154 16.5608 51.9382 16.6907 51.8439 16.7618C51.7496 16.8329 51.6724 16.9627 51.6724 17.0505C51.6724 17.1381 51.6338 17.2099 51.5866 17.2099C51.5395 17.2099 51.5009 17.2906 51.5009 17.3892C51.5009 17.4878 51.4623 17.5685 51.4151 17.5685C51.368 17.5685 51.3294 17.6491 51.3294 17.7477C51.3294 17.8463 51.2908 17.927 51.2436 17.927C51.1964 17.927 51.1578 18.0077 51.1578 18.1063C51.1578 18.2731 51.1007 18.2855 50.3371 18.2855C49.4916 18.2855 49.2712 18.2034 49.2712 17.8886C49.2712 17.8111 49.2326 17.7477 49.1855 17.7477C49.1383 17.7477 49.0997 17.6671 49.0997 17.5685C49.0997 17.4699 49.0611 17.3892 49.014 17.3892C48.9668 17.3892 48.9282 17.3085 48.9282 17.2099C48.9282 17.1113 48.8896 17.0307 48.8425 17.0307C48.7953 17.0307 48.7567 16.95 48.7567 16.8514C48.7567 16.7528 48.7181 16.6721 48.6709 16.6721C48.6238 16.6721 48.5852 16.6003 48.5852 16.5127C48.5852 16.4249 48.508 16.2951 48.4137 16.224C48.3193 16.1529 48.2422 16.023 48.2422 15.9353C48.2422 15.8476 48.2036 15.7758 48.1564 15.7758C48.1092 15.7758 48.0707 15.6951 48.0707 15.5965C48.0707 15.4979 48.0321 15.4173 47.9849 15.4173C47.9377 15.4173 47.8991 15.3366 47.8991 15.238C47.8991 15.1394 47.8605 15.0587 47.8134 15.0587C47.7662 15.0587 47.7276 14.9781 47.7276 14.8795C47.7276 14.7809 47.689 14.7002 47.6419 14.7002C47.5947 14.7002 47.5561 14.6195 47.5561 14.5209C47.5561 14.4223 47.5175 14.3417 47.4704 14.3417C47.4232 14.3417 47.3846 14.261 47.3846 14.1624C47.3846 14.0638 47.346 13.9831 47.2989 13.9831C47.2517 13.9831 47.2131 13.9025 47.2131 13.8039C47.2131 13.7053 47.1745 13.6246 47.1273 13.6246C47.0802 13.6246 47.0416 13.5439 47.0416 13.4453C47.0416 13.3467 47.003 13.2661 46.9558 13.2661C46.9087 13.2661 46.8701 13.1854 46.8701 13.0868C46.8701 12.9882 46.8315 12.9075 46.7843 12.9075C46.7372 12.9075 46.6986 12.8269 46.6986 12.7283C46.6986 12.6297 46.66 12.549 46.6128 12.549C46.5656 12.549 46.5271 12.4772 46.5271 12.3895C46.5271 12.3018 46.4499 12.1719 46.3555 12.1008C46.2612 12.0297 46.184 11.8999 46.184 11.8121C46.184 11.7245 46.1454 11.6527 46.0983 11.6527C46.0511 11.6527 46.0125 11.572 46.0125 11.4734C46.0125 11.3748 45.9739 11.2941 45.9268 11.2941C45.8796 11.2941 45.841 11.2134 45.841 11.1149C45.841 11.0163 45.8024 10.9356 45.7553 10.9356C45.7081 10.9356 45.6695 10.8549 45.6695 10.7563C45.6695 10.6577 45.6309 10.5771 45.5837 10.5771C45.5366 10.5771 45.498 10.4964 45.498 10.3978C45.498 10.2992 45.4594 10.2185 45.4122 10.2185C45.3651 10.2185 45.3265 10.1378 45.3265 10.0392C45.3265 9.94065 45.2879 9.85998 45.2407 9.85998C45.1936 9.85998 45.155 9.77931 45.155 9.68071C45.155 9.58212 45.1164 9.50145 45.0692 9.50145C45.022 9.50145 44.9835 9.42078 44.9835 9.32218C44.9835 9.22358 44.9449 9.14291 44.8977 9.14291C44.8505 9.14291 44.8119 9.06224 44.8119 8.96364C44.8119 8.86505 44.7734 8.78438 44.7262 8.78438C44.679 8.78438 44.6404 8.70371 44.6404 8.60511C44.6404 8.50651 44.6018 8.42584 44.5547 8.42584C44.5075 8.42584 44.4689 8.35405 44.4689 8.26638C44.4689 8.17863 44.3917 8.04875 44.2974 7.97767C44.2031 7.90659 44.1259 7.77672 44.1259 7.68896C44.1259 7.6013 44.0873 7.52951 44.0401 7.52951C43.993 7.52951 43.9544 7.44884 43.9544 7.35024C43.9544 7.25164 43.9158 7.17097 43.8686 7.17097C43.8215 7.17097 43.7829 7.0903 43.7829 6.9917C43.7829 6.89311 43.7443 6.81244 43.6971 6.81244C43.65 6.81244 43.6114 6.73177 43.6114 6.63317C43.6114 6.53457 43.5728 6.4539 43.5256 6.4539C43.4784 6.4539 43.4399 6.37323 43.4399 6.27463C43.4399 6.17604 43.4013 6.09537 43.3541 6.09537C43.3069 6.09537 43.2683 6.0147 43.2683 5.9161C43.2683 5.8175 43.2298 5.73683 43.1826 5.73683C43.1354 5.73683 43.0968 5.65616 43.0968 5.55757C43.0968 5.45897 43.0582 5.3783 43.0111 5.3783C42.9639 5.3783 42.9253 5.29763 42.9253 5.19903C42.9253 5.10043 42.8867 5.01976 42.8396 5.01976C42.7924 5.01976 42.7538 4.93909 42.7538 4.8405C42.7538 4.7419 42.7152 4.66123 42.6681 4.66123C42.6209 4.66123 42.5823 4.58056 42.5823 4.48196C42.5823 4.38336 42.5437 4.30269 42.4965 4.30269C42.4494 4.30269 42.4108 4.2309 42.4108 4.14324C42.4108 4.05548 42.3336 3.92561 42.2393 3.85453C42.145 3.78345 42.0678 3.65357 42.0678 3.56582C42.0678 3.47815 42.0292 3.40636 41.982 3.40636C41.9348 3.40636 41.8963 3.32569 41.8963 3.22709C41.8963 3.12849 41.8577 3.04782 41.8105 3.04782C41.7633 3.04782 41.7248 2.96715 41.7248 2.86856C41.7248 2.76996 41.6862 2.68929 41.639 2.68929C41.5918 2.68929 41.5532 2.60862 41.5532 2.51002C41.5532 2.41142 41.5146 2.33075 41.4675 2.33075C41.4203 2.33075 41.3817 2.25008 41.3817 2.15149C41.3817 2.05289 41.3431 1.97222 41.296 1.97222C41.2488 1.97222 41.2102 1.89155 41.2102 1.79295C41.2102 1.69435 41.1716 1.61368 41.1245 1.61368C41.0773 1.61368 41.0387 1.53301 41.0387 1.43442C41.0387 1.33582 41.0001 1.25515 40.9529 1.25515C40.9058 1.25515 40.8672 1.17448 40.8672 1.07588C40.8672 0.899303 40.81 0.896614 37.094 0.896614C34.6356 0.896614 33.3207 0.927807 33.3207 0.986248ZM70.5386 12.3697V23.8428H73.7973H77.056V15.5965V7.35024H77.9625C78.8973 7.35024 79.1141 7.42499 79.1141 7.74723C79.1141 7.82467 79.1527 7.88804 79.1999 7.88804C79.247 7.88804 79.2856 7.95984 79.2856 8.0475C79.2856 8.13525 79.3628 8.26513 79.4571 8.33621C79.5515 8.40729 79.6287 8.53717 79.6287 8.62492C79.6287 8.71258 79.6673 8.78438 79.7144 8.78438C79.7616 8.78438 79.8002 8.86505 79.8002 8.96364C79.8002 9.06224 79.8388 9.14291 79.8859 9.14291C79.9331 9.14291 79.9717 9.22358 79.9717 9.32218C79.9717 9.42078 80.0103 9.50145 80.0574 9.50145C80.1046 9.50145 80.1432 9.57324 80.1432 9.6609C80.1432 9.74866 80.2204 9.87854 80.3147 9.94961C80.409 10.0207 80.4862 10.1506 80.4862 10.2383C80.4862 10.326 80.5248 10.3978 80.572 10.3978C80.6191 10.3978 80.6577 10.4785 80.6577 10.5771C80.6577 10.6756 80.6963 10.7563 80.7435 10.7563C80.7906 10.7563 80.8292 10.837 80.8292 10.9356C80.8292 11.0342 80.8678 11.1149 80.915 11.1149C80.9622 11.1149 81.0007 11.1866 81.0007 11.2743C81.0007 11.3621 81.0779 11.4919 81.1723 11.563C81.2666 11.6341 81.3438 11.764 81.3438 11.8517C81.3438 11.9394 81.3824 12.0112 81.4295 12.0112C81.4767 12.0112 81.5153 12.0919 81.5153 12.1905C81.5153 12.2891 81.5539 12.3697 81.601 12.3697C81.6482 12.3697 81.6868 12.4415 81.6868 12.5292C81.6868 12.6169 81.764 12.7468 81.8583 12.8179C81.9526 12.889 82.0298 13.0189 82.0298 13.1066C82.0298 13.1943 82.0684 13.2661 82.1156 13.2661C82.1627 13.2661 82.2013 13.3467 82.2013 13.4453C82.2013 13.5439 82.2399 13.6246 82.2871 13.6246C82.3342 13.6246 82.3728 13.7053 82.3728 13.8039C82.3728 13.9025 82.4114 13.9831 82.4586 13.9831C82.5058 13.9831 82.5443 14.0549 82.5443 14.1426C82.5443 14.2303 82.6215 14.3602 82.7159 14.4313C82.8102 14.5024 82.8874 14.6323 82.8874 14.72C82.8874 14.8077 82.926 14.8795 82.9731 14.8795C83.0203 14.8795 83.0589 14.9601 83.0589 15.0587C83.0589 15.1573 83.0975 15.238 83.1446 15.238C83.1918 15.238 83.2304 15.3187 83.2304 15.4173C83.2304 15.5159 83.269 15.5965 83.3161 15.5965C83.3633 15.5965 83.4019 15.6683 83.4019 15.756C83.4019 15.8437 83.4791 15.9736 83.5734 16.0447C83.6677 16.1158 83.7449 16.2457 83.7449 16.3334C83.7449 16.4211 83.7835 16.4929 83.8307 16.4929C83.8778 16.4929 83.9164 16.5735 83.9164 16.6721C83.9164 16.7707 83.955 16.8514 84.0022 16.8514C84.0494 16.8514 84.0879 16.9321 84.0879 17.0307C84.0879 17.1293 84.1265 17.2099 84.1737 17.2099C84.2209 17.2099 84.2595 17.2817 84.2595 17.3694C84.2595 17.4572 84.3366 17.587 84.431 17.6581C84.5253 17.7292 84.6025 17.8591 84.6025 17.9468C84.6025 18.0345 84.6411 18.1063 84.6882 18.1063C84.7354 18.1063 84.774 18.187 84.774 18.2855C84.774 18.3841 84.8126 18.4648 84.8597 18.4648C84.9069 18.4648 84.9455 18.5366 84.9455 18.6243C84.9455 18.712 85.0227 18.8419 85.117 18.913C85.2113 18.9841 85.2885 19.1139 85.2885 19.2017C85.2885 19.2894 85.3271 19.3612 85.3743 19.3612C85.4214 19.3612 85.46 19.4418 85.46 19.5404C85.46 19.639 85.4986 19.7197 85.5458 19.7197C85.5929 19.7197 85.6315 19.8004 85.6315 19.899C85.6315 19.9976 85.6701 20.0782 85.7173 20.0782C85.7645 20.0782 85.8031 20.15 85.8031 20.2377C85.8031 20.3254 85.8802 20.4553 85.9746 20.5264C86.0689 20.5975 86.1461 20.7273 86.1461 20.8151C86.1461 20.9028 86.1847 20.9746 86.2318 20.9746C86.279 20.9746 86.3176 21.0552 86.3176 21.1538C86.3176 21.2524 86.3562 21.3331 86.4033 21.3331C86.4505 21.3331 86.4891 21.4138 86.4891 21.5124C86.4891 21.611 86.5277 21.6916 86.5749 21.6916C86.622 21.6916 86.6606 21.7634 86.6606 21.8511C86.6606 21.9388 86.7378 22.0687 86.8321 22.1398C86.9264 22.2109 87.0036 22.3408 87.0036 22.4285C87.0036 22.5162 87.0422 22.588 87.0894 22.588C87.1366 22.588 87.1751 22.6686 87.1751 22.7672C87.1751 22.8658 87.2137 22.9465 87.2609 22.9465C87.3081 22.9465 87.3466 23.0183 87.3466 23.106C87.3466 23.1937 87.4238 23.3236 87.5182 23.3947C87.6125 23.4657 87.6897 23.5956 87.6897 23.6834C87.6897 23.8326 87.8517 23.8428 90.2233 23.8428H92.757L92.9675 23.6228C93.0833 23.5018 93.178 23.3404 93.178 23.2642C93.178 23.1881 93.2166 23.1258 93.2638 23.1258C93.3109 23.1258 93.3495 23.0451 93.3495 22.9465C93.3495 22.8479 93.3881 22.7672 93.4353 22.7672C93.4825 22.7672 93.521 22.6866 93.521 22.588C93.521 22.4894 93.5596 22.4087 93.6068 22.4087C93.654 22.4087 93.6926 22.3369 93.6926 22.2492C93.6926 22.1615 93.7697 22.0316 93.8641 21.9605C93.9584 21.8894 94.0356 21.7596 94.0356 21.6718C94.0356 21.5842 94.0742 21.5124 94.1213 21.5124C94.1685 21.5124 94.2071 21.4317 94.2071 21.3331C94.2071 21.2345 94.2457 21.1538 94.2928 21.1538C94.34 21.1538 94.3786 21.0732 94.3786 20.9746C94.3786 20.876 94.4172 20.7953 94.4644 20.7953C94.5115 20.7953 94.5501 20.7235 94.5501 20.6358C94.5501 20.5481 94.6273 20.4182 94.7216 20.3471C94.8159 20.276 94.8931 20.1462 94.8931 20.0584C94.8931 19.9708 94.9317 19.899 94.9789 19.899C95.026 19.899 95.0646 19.8183 95.0646 19.7197C95.0646 19.6211 95.1032 19.5404 95.1504 19.5404C95.1976 19.5404 95.2362 19.4686 95.2362 19.381C95.2362 19.2932 95.3133 19.1633 95.4077 19.0923C95.502 19.0212 95.5792 18.8913 95.5792 18.8035C95.5792 18.7159 95.6178 18.6441 95.6649 18.6441C95.7121 18.6441 95.7507 18.5634 95.7507 18.4648C95.7507 18.3662 95.7893 18.2855 95.8364 18.2855C95.8836 18.2855 95.9222 18.2049 95.9222 18.1063C95.9222 18.0077 95.9608 17.927 96.0079 17.927C96.0551 17.927 96.0937 17.8552 96.0937 17.7676C96.0937 17.6798 96.1709 17.5499 96.2652 17.4788C96.3596 17.4078 96.4367 17.2779 96.4367 17.1901C96.4367 17.1025 96.4753 17.0307 96.5225 17.0307C96.5696 17.0307 96.6082 16.95 96.6082 16.8514C96.6082 16.7528 96.6468 16.6721 96.694 16.6721C96.7412 16.6721 96.7797 16.5915 96.7797 16.4929C96.7797 16.3943 96.8183 16.3136 96.8655 16.3136C96.9127 16.3136 96.9513 16.2418 96.9513 16.1541C96.9513 16.0664 97.0284 15.9365 97.1228 15.8654C97.2171 15.7944 97.2943 15.6645 97.2943 15.5767C97.2943 15.4891 97.3329 15.4173 97.38 15.4173C97.4272 15.4173 97.4658 15.3366 97.4658 15.238C97.4658 15.1394 97.5044 15.0587 97.5516 15.0587C97.5987 15.0587 97.6373 14.9869 97.6373 14.8993C97.6373 14.8115 97.7145 14.6816 97.8088 14.6106C97.9031 14.5395 97.9803 14.4096 97.9803 14.3219C97.9803 14.2342 98.0189 14.1624 98.0661 14.1624C98.1132 14.1624 98.1518 14.0817 98.1518 13.9831C98.1518 13.8845 98.1904 13.8039 98.2376 13.8039C98.2848 13.8039 98.3233 13.7232 98.3233 13.6246C98.3233 13.526 98.3619 13.4453 98.4091 13.4453C98.4563 13.4453 98.4949 13.3735 98.4949 13.2859C98.4949 13.1981 98.572 13.0682 98.6664 12.9972C98.7607 12.9261 98.8379 12.7962 98.8379 12.7085C98.8379 12.6208 98.8765 12.549 98.9236 12.549C98.9708 12.549 99.0094 12.4683 99.0094 12.3697C99.0094 12.2711 99.048 12.1905 99.0951 12.1905C99.1423 12.1905 99.1809 12.1098 99.1809 12.0112C99.1809 11.9126 99.2195 11.8319 99.2667 11.8319C99.3138 11.8319 99.3524 11.7601 99.3524 11.6725C99.3524 11.5847 99.4296 11.4548 99.5239 11.3838C99.6183 11.3127 99.6954 11.1828 99.6954 11.095C99.6954 11.0074 99.734 10.9356 99.7812 10.9356C99.8284 10.9356 99.8669 10.8549 99.8669 10.7563C99.8669 10.6577 99.9055 10.5771 99.9527 10.5771C99.9999 10.5771 100.038 10.4964 100.038 10.3978C100.038 10.2992 100.077 10.2185 100.124 10.2185C100.171 10.2185 100.21 10.1467 100.21 10.0591C100.21 9.97131 100.287 9.84143 100.381 9.77035C100.476 9.69927 100.553 9.56939 100.553 9.48164C100.553 9.39398 100.592 9.32218 100.639 9.32218C100.686 9.32218 100.725 9.24151 100.725 9.14291C100.725 9.04432 100.763 8.96364 100.81 8.96364C100.857 8.96364 100.896 8.89185 100.896 8.80419C100.896 8.71643 100.973 8.58656 101.068 8.51548C101.162 8.4444 101.239 8.31452 101.239 8.22677C101.239 8.1391 101.278 8.06731 101.325 8.06731C101.372 8.06731 101.411 7.98664 101.411 7.88804C101.411 7.78944 101.449 7.70877 101.496 7.70877C101.543 7.70877 101.582 7.6281 101.582 7.52951C101.582 7.36108 101.639 7.35024 102.525 7.35024H103.469V15.5965V23.8428H106.727H109.986V12.3697V0.896614H103.897C97.866 0.896614 97.8088 0.898317 97.8088 1.07588C97.8088 1.17448 97.7702 1.25515 97.7231 1.25515C97.6759 1.25515 97.6373 1.33582 97.6373 1.43442C97.6373 1.53301 97.5987 1.61368 97.5516 1.61368C97.5044 1.61368 97.4658 1.68548 97.4658 1.77314C97.4658 1.86089 97.3886 1.99077 97.2943 2.06185C97.2 2.13293 97.1228 2.26281 97.1228 2.35056C97.1228 2.43822 97.0842 2.51002 97.037 2.51002C96.9899 2.51002 96.9513 2.59069 96.9513 2.68929C96.9513 2.78788 96.9127 2.86856 96.8655 2.86856C96.8183 2.86856 96.7797 2.94923 96.7797 3.04782C96.7797 3.14642 96.7412 3.22709 96.694 3.22709C96.6468 3.22709 96.6082 3.30776 96.6082 3.40636C96.6082 3.50495 96.5696 3.58562 96.5225 3.58562C96.4753 3.58562 96.4367 3.65742 96.4367 3.74508C96.4367 3.83283 96.3596 3.96271 96.2652 4.03379C96.1709 4.10487 96.0937 4.23475 96.0937 4.3225C96.0937 4.41016 96.0551 4.48196 96.0079 4.48196C95.9608 4.48196 95.9222 4.56263 95.9222 4.66123C95.9222 4.75983 95.8836 4.8405 95.8364 4.8405C95.7893 4.8405 95.7507 4.92117 95.7507 5.01976C95.7507 5.11836 95.7121 5.19903 95.6649 5.19903C95.6178 5.19903 95.5792 5.2797 95.5792 5.3783C95.5792 5.47689 95.5406 5.55757 95.4934 5.55757C95.4463 5.55757 95.4077 5.63824 95.4077 5.73683C95.4077 5.83543 95.3691 5.9161 95.3219 5.9161C95.2747 5.9161 95.2362 5.9879 95.2362 6.07556C95.2362 6.16331 95.159 6.29319 95.0646 6.36427C94.9703 6.43535 94.8931 6.56523 94.8931 6.65298C94.8931 6.74064 94.8545 6.81244 94.8074 6.81244C94.7602 6.81244 94.7216 6.89311 94.7216 6.9917C94.7216 7.0903 94.683 7.17097 94.6359 7.17097C94.5887 7.17097 94.5501 7.25164 94.5501 7.35024C94.5501 7.44884 94.5115 7.52951 94.4644 7.52951C94.4172 7.52951 94.3786 7.61018 94.3786 7.70877C94.3786 7.80737 94.34 7.88804 94.2928 7.88804C94.2457 7.88804 94.2071 7.96871 94.2071 8.06731C94.2071 8.1659 94.1685 8.24658 94.1213 8.24658C94.0742 8.24658 94.0356 8.31837 94.0356 8.40603C94.0356 8.49378 93.9584 8.62366 93.8641 8.69474C93.7697 8.76582 93.6926 8.8957 93.6926 8.98345C93.6926 9.07112 93.654 9.14291 93.6068 9.14291C93.5596 9.14291 93.521 9.22358 93.521 9.32218C93.521 9.42078 93.4825 9.50145 93.4353 9.50145C93.3881 9.50145 93.3495 9.58212 93.3495 9.68071C93.3495 9.77931 93.3109 9.85998 93.2638 9.85998C93.2166 9.85998 93.178 9.94065 93.178 10.0392C93.178 10.1378 93.1394 10.2185 93.0923 10.2185C93.0451 10.2185 93.0065 10.2992 93.0065 10.3978C93.0065 10.4964 92.9679 10.5771 92.9208 10.5771C92.8736 10.5771 92.835 10.6488 92.835 10.7365C92.835 10.8243 92.7578 10.9541 92.6635 11.0252C92.5692 11.0963 92.492 11.2262 92.492 11.3139C92.492 11.4016 92.4534 11.4734 92.4062 11.4734C92.3591 11.4734 92.3205 11.5541 92.3205 11.6527C92.3205 11.7513 92.2819 11.8319 92.2347 11.8319C92.1875 11.8319 92.149 11.9126 92.149 12.0112C92.149 12.1098 92.1104 12.1905 92.0632 12.1905C92.016 12.1905 91.9774 12.2711 91.9774 12.3697C91.9774 12.4683 91.9389 12.549 91.8917 12.549C91.8445 12.549 91.8059 12.6297 91.8059 12.7283C91.8059 12.8269 91.7673 12.9075 91.7202 12.9075C91.673 12.9075 91.6344 12.9793 91.6344 13.067C91.6344 13.1547 91.5572 13.2846 91.4629 13.3557C91.3686 13.4268 91.2914 13.5567 91.2914 13.6444C91.2914 13.7321 91.2528 13.8039 91.2056 13.8039C91.1585 13.8039 91.1199 13.8845 91.1199 13.9831C91.1199 14.0817 91.0813 14.1624 91.0341 14.1624C90.987 14.1624 90.9484 14.2431 90.9484 14.3417C90.9484 14.4403 90.9098 14.5209 90.8626 14.5209C90.8155 14.5209 90.7769 14.6016 90.7769 14.7002C90.7769 14.7988 90.7383 14.8795 90.6911 14.8795C90.6439 14.8795 90.6054 14.9601 90.6054 15.0587C90.6054 15.1573 90.5668 15.238 90.5196 15.238C90.4724 15.238 90.4338 15.3187 90.4338 15.4173C90.4338 15.5159 90.4118 15.5965 90.3849 15.5965C90.2842 15.5965 90.0908 15.3354 90.0908 15.1995C90.0908 15.1221 90.0522 15.0587 90.0051 15.0587C89.9579 15.0587 89.9193 14.9781 89.9193 14.8795C89.9193 14.7809 89.8807 14.7002 89.8336 14.7002C89.7864 14.7002 89.7478 14.6195 89.7478 14.5209C89.7478 14.4223 89.7092 14.3417 89.662 14.3417C89.6149 14.3417 89.5763 14.261 89.5763 14.1624C89.5763 14.0638 89.5377 13.9831 89.4905 13.9831C89.4434 13.9831 89.4048 13.9113 89.4048 13.8237C89.4048 13.7359 89.3276 13.606 89.2333 13.535C89.1389 13.4639 89.0618 13.334 89.0618 13.2463C89.0618 13.1586 89.0232 13.0868 88.976 13.0868C88.9288 13.0868 88.8903 13.0061 88.8903 12.9075C88.8903 12.8089 88.8517 12.7283 88.8045 12.7283C88.7573 12.7283 88.7187 12.6476 88.7187 12.549C88.7187 12.4504 88.6801 12.3697 88.633 12.3697C88.5858 12.3697 88.5472 12.2891 88.5472 12.1905C88.5472 12.0919 88.5086 12.0112 88.4615 12.0112C88.4143 12.0112 88.3757 11.9305 88.3757 11.8319C88.3757 11.7333 88.3371 11.6527 88.29 11.6527C88.2428 11.6527 88.2042 11.5809 88.2042 11.4932C88.2042 11.4054 88.127 11.2756 88.0327 11.2045C87.9384 11.1334 87.8612 11.0035 87.8612 10.9158C87.8612 10.8281 87.8226 10.7563 87.7754 10.7563C87.7283 10.7563 87.6897 10.6756 87.6897 10.5771C87.6897 10.4785 87.6511 10.3978 87.6039 10.3978C87.5567 10.3978 87.5182 10.3171 87.5182 10.2185C87.5182 10.1199 87.4796 10.0392 87.4324 10.0392C87.3852 10.0392 87.3466 9.95858 87.3466 9.85998C87.3466 9.76138 87.3081 9.68071 87.2609 9.68071C87.2137 9.68071 87.1751 9.60004 87.1751 9.50145C87.1751 9.40285 87.1366 9.32218 87.0894 9.32218C87.0422 9.32218 87.0036 9.25038 87.0036 9.16272C87.0036 9.07497 86.9264 8.94509 86.8321 8.87401C86.7378 8.80293 86.6606 8.67305 86.6606 8.5853C86.6606 8.49764 86.622 8.42584 86.5749 8.42584C86.5277 8.42584 86.4891 8.34517 86.4891 8.24658C86.4891 8.14798 86.4505 8.06731 86.4033 8.06731C86.3562 8.06731 86.3176 7.98664 86.3176 7.88804C86.3176 7.78944 86.279 7.70877 86.2318 7.70877C86.1847 7.70877 86.1461 7.6281 86.1461 7.52951C86.1461 7.43091 86.1075 7.35024 86.0603 7.35024C86.0132 7.35024 85.9746 7.26957 85.9746 7.17097C85.9746 7.07237 85.936 6.9917 85.8888 6.9917C85.8416 6.9917 85.8031 6.91991 85.8031 6.83225C85.8031 6.74449 85.7259 6.61462 85.6315 6.54354C85.5372 6.47246 85.46 6.34258 85.46 6.25483C85.46 6.16716 85.4214 6.09537 85.3743 6.09537C85.3271 6.09537 85.2885 6.0147 85.2885 5.9161C85.2885 5.8175 85.2499 5.73683 85.2028 5.73683C85.1556 5.73683 85.117 5.65616 85.117 5.55757C85.117 5.45897 85.0784 5.3783 85.0312 5.3783C84.9841 5.3783 84.9455 5.29763 84.9455 5.19903C84.9455 5.10043 84.9069 5.01976 84.8597 5.01976C84.8126 5.01976 84.774 4.93909 84.774 4.8405C84.774 4.7419 84.7354 4.66123 84.6882 4.66123C84.6411 4.66123 84.6025 4.58943 84.6025 4.50177C84.6025 4.41402 84.5253 4.28414 84.431 4.21306C84.3366 4.14198 84.2595 4.0121 84.2595 3.92435C84.2595 3.83669 84.2209 3.76489 84.1737 3.76489C84.1265 3.76489 84.0879 3.68422 84.0879 3.58562C84.0879 3.48703 84.0494 3.40636 84.0022 3.40636C83.955 3.40636 83.9164 3.32569 83.9164 3.22709C83.9164 3.12849 83.8778 3.04782 83.8307 3.04782C83.7835 3.04782 83.7449 2.96715 83.7449 2.86856C83.7449 2.76996 83.7063 2.68929 83.6592 2.68929C83.612 2.68929 83.5734 2.60862 83.5734 2.51002C83.5734 2.41142 83.5348 2.33075 83.4877 2.33075C83.4405 2.33075 83.4019 2.25896 83.4019 2.17129C83.4019 2.08354 83.3247 1.95366 83.2304 1.88258C83.1361 1.81151 83.0589 1.68163 83.0589 1.59387C83.0589 1.50621 83.0203 1.43442 82.9731 1.43442C82.926 1.43442 82.8874 1.37105 82.8874 1.2936C82.8874 0.889623 82.998 0.896614 76.5904 0.896614H70.5386V12.3697ZM113.759 12.3697V23.8428H117.104H120.448V15.4173V6.9917H121.179H121.911L122.294 7.39272C122.505 7.61322 122.678 7.8391 122.678 7.89449C122.678 7.94998 122.794 8.10845 122.935 8.24658C123.077 8.3847 123.192 8.54523 123.192 8.60332C123.192 8.66131 123.347 8.86379 123.535 9.05328C123.724 9.24276 123.878 9.44444 123.878 9.50145C123.878 9.55845 124.033 9.76013 124.221 9.94961C124.41 10.1391 124.565 10.3408 124.565 10.3978C124.565 10.4548 124.719 10.6565 124.908 10.846C125.096 11.0354 125.251 11.2371 125.251 11.2941C125.251 11.3511 125.405 11.5528 125.594 11.7423C125.782 11.9318 125.937 12.1334 125.937 12.1905C125.937 12.2475 126.091 12.4491 126.28 12.6386C126.468 12.8281 126.623 13.0306 126.623 13.0886C126.623 13.1467 126.738 13.3072 126.88 13.4453C127.021 13.5835 127.137 13.744 127.137 13.8021C127.137 13.8601 127.292 14.0625 127.48 14.252C127.669 14.4415 127.823 14.6432 127.823 14.7002C127.823 14.7572 127.978 14.9589 128.166 15.1484C128.355 15.3379 128.509 15.5395 128.509 15.5965C128.509 15.6535 128.664 15.8552 128.852 16.0447C129.041 16.2342 129.195 16.4359 129.195 16.4929C129.195 16.5499 129.35 16.7516 129.538 16.941C129.727 17.1305 129.881 17.3322 129.881 17.3892C129.881 17.4462 130.036 17.6479 130.224 17.8374C130.413 18.0269 130.567 18.2293 130.567 18.2873C130.567 18.3454 130.683 18.506 130.825 18.6441C130.966 18.7822 131.082 18.9427 131.082 19.0008C131.082 19.0588 131.236 19.2613 131.425 19.4508C131.614 19.6403 131.768 19.8419 131.768 19.899C131.768 19.956 131.922 20.1576 132.111 20.3471C132.3 20.5366 132.454 20.7383 132.454 20.7953C132.454 20.8523 132.608 21.054 132.797 21.2435C132.986 21.4329 133.14 21.6346 133.14 21.6916C133.14 21.7486 133.294 21.9503 133.483 22.1398C133.672 22.3293 133.826 22.5318 133.826 22.5898C133.826 22.6478 133.942 22.8084 134.083 22.9465C134.225 23.0846 134.341 23.2438 134.341 23.3003C134.341 23.3567 134.435 23.5018 134.551 23.6228L134.762 23.8428H140.726H146.689V12.3697V0.896614H143.431H140.172V9.05328V17.2099H139.322C138.728 17.2099 138.461 17.243 138.436 17.3195C138.396 17.4448 137.942 17.0119 137.942 16.8485C137.942 16.7931 137.788 16.5927 137.599 16.4032C137.411 16.2138 137.256 16.0121 137.256 15.9551C137.256 15.8981 137.102 15.6964 136.913 15.5069C136.725 15.3174 136.57 15.1157 136.57 15.0587C136.57 15.0017 136.416 14.8001 136.227 14.6106C136.039 14.4211 135.884 14.2186 135.884 14.1606C135.884 14.1025 135.768 13.942 135.627 13.8039C135.485 13.6657 135.37 13.5052 135.37 13.4471C135.37 13.3891 135.215 13.1866 135.027 12.9972C134.838 12.8077 134.684 12.606 134.684 12.549C134.684 12.492 134.529 12.2903 134.341 12.1008C134.152 11.9113 133.998 11.7097 133.998 11.6527C133.998 11.5956 133.843 11.394 133.655 11.2045C133.466 11.015 133.312 10.8133 133.312 10.7563C133.312 10.6993 133.157 10.4976 132.969 10.3081C132.78 10.1187 132.626 9.91618 132.626 9.85819C132.626 9.80011 132.51 9.63957 132.368 9.50145C132.227 9.36332 132.111 9.20279 132.111 9.1447C132.111 9.08671 131.957 8.88423 131.768 8.69474C131.579 8.50526 131.425 8.30358 131.425 8.24658C131.425 8.18957 131.271 7.98789 131.082 7.79841C130.893 7.60892 130.739 7.40725 130.739 7.35024C130.739 7.29323 130.585 7.09156 130.396 6.90207C130.207 6.71258 130.053 6.51091 130.053 6.4539C130.053 6.39689 129.898 6.19522 129.71 6.00573C129.521 5.81625 129.367 5.61457 129.367 5.55757C129.367 5.50056 129.212 5.29888 129.024 5.1094C128.835 4.91991 128.681 4.71743 128.681 4.65944C128.681 4.60135 128.565 4.44082 128.424 4.30269C128.282 4.16457 128.166 4.00403 128.166 3.94595C128.166 3.88796 128.012 3.68548 127.823 3.49599C127.635 3.30651 127.48 3.10483 127.48 3.04782C127.48 2.99082 127.326 2.78914 127.137 2.59965C126.949 2.41017 126.794 2.20849 126.794 2.15149C126.794 2.09448 126.64 1.8928 126.451 1.70332C126.262 1.51383 126.108 1.31242 126.108 1.25578C126.108 0.895449 126.128 0.896614 119.811 0.896614H113.759V12.3697Z" fill="white"/>
</svg>
