<svg width="155" height="33" viewBox="0 0 155 33" fill="none" xmlns="http://www.w3.org/2000/svg">
<path fill-rule="evenodd" clip-rule="evenodd" d="M9.25305 1.20218C9.25305 1.59381 8.69127 1.71147 6.82048 1.71147C5.50038 1.71147 5.3931 1.73592 5.3931 2.03742C5.3931 2.30502 5.28535 2.36369 4.78999 2.36516C3.61463 2.36858 2.98064 2.54688 2.98064 2.87364C2.98064 3.12592 2.85648 3.17823 2.2569 3.17823H1.53316V4.80796V6.4377H1.13108H0.729004V8.30048C0.729004 10.1083 0.73978 10.1649 1.09087 10.2154C1.42251 10.2632 1.4566 10.3652 1.49987 11.4387C1.54265 12.5052 1.57851 12.6144 1.90194 12.661C2.12759 12.6936 2.27556 12.8456 2.30836 13.0789C2.34053 13.3091 2.47113 13.4455 2.65898 13.4455C2.84683 13.4455 2.97742 13.582 3.00959 13.8122C3.04272 14.0479 3.19036 14.1975 3.42292 14.2311C3.76115 14.2796 3.78479 14.3623 3.78479 15.4941C3.78479 16.5963 3.75601 16.705 3.46313 16.705C3.17524 16.705 3.14147 16.8137 3.14147 17.7397C3.14147 18.3088 3.09467 19.3356 3.03741 20.0214C2.94847 21.0888 2.89057 21.2683 2.63533 21.2683C2.36948 21.2683 2.33715 21.413 2.33555 22.6128C2.33297 24.5124 2.20382 25.1796 1.83874 25.1796C1.57031 25.1796 1.53895 25.3633 1.49794 27.176C1.45419 29.1065 1.44084 29.1743 1.09087 29.2246C0.75538 29.2729 0.729004 29.3589 0.729004 30.4062V31.5356H11.183H21.637V31.0467C21.637 30.6772 21.5634 30.5577 21.3355 30.5577C21.0112 30.5577 20.8329 30.001 20.8329 28.9891C20.8329 28.5567 20.7673 28.4391 20.5263 28.4391C20.2804 28.4391 20.1979 28.2779 20.1091 27.6242C20.0228 26.9873 19.9348 26.8093 19.7071 26.8093C19.4793 26.8093 19.3914 26.6314 19.305 25.9945C19.2162 25.3408 19.1337 25.1796 18.8878 25.1796C18.6271 25.1796 18.5813 25.0576 18.5813 24.3647C18.5813 23.6042 18.5544 23.5499 18.1792 23.5499C17.8099 23.5499 17.7771 23.4901 17.7771 22.8165V22.0831H18.9029C19.9966 22.0831 20.0287 22.0716 20.0287 21.6757C20.0287 21.3522 20.1098 21.2683 20.422 21.2683C20.7771 21.2683 20.82 21.1931 20.8642 20.4941C20.9061 19.8336 20.9664 19.7124 21.2752 19.6679C21.6017 19.6209 21.6372 19.5254 21.6388 18.69C21.6417 17.1934 21.7938 16.542 22.1406 16.542C22.4203 16.542 22.4412 16.3782 22.4412 14.1789C22.4412 11.9245 22.456 11.8158 22.7629 11.8158C23.054 11.8158 23.0845 11.7071 23.0845 10.675C23.0845 9.64289 23.054 9.53419 22.7629 9.53419C22.4721 9.53419 22.4412 9.42549 22.4412 8.40478C22.4412 7.35752 22.4676 7.27147 22.8031 7.22323C23.1554 7.17238 23.1649 7.11941 23.1649 5.2154C23.1649 3.31138 23.1554 3.25841 22.8031 3.20757C22.5411 3.16992 22.4412 3.04622 22.4412 2.75939C22.4412 2.47207 22.3529 2.36337 22.1195 2.36337C21.9051 2.36337 21.7979 2.25466 21.7979 2.03742C21.7979 1.74309 21.6906 1.71147 20.6922 1.71147C19.1409 1.71147 18.5813 1.57637 18.5813 1.20218C18.5813 0.910459 18.3704 0.896606 13.9171 0.896606C9.4639 0.896606 9.25305 0.910459 9.25305 1.20218ZM54.9291 1.21114C54.9291 1.41339 54.7998 1.54442 54.5672 1.57783C54.3346 1.61141 54.187 1.76102 54.1539 1.99668C54.1209 2.23233 53.9916 2.36337 53.792 2.36337C53.5129 2.36337 53.4816 2.48674 53.4816 3.58566C53.4816 4.78075 53.4906 4.80796 53.8837 4.80796C54.2053 4.80796 54.2857 4.88945 54.2857 5.2154C54.2857 5.51413 54.3715 5.62283 54.6074 5.62283C54.8218 5.62283 54.9291 5.73153 54.9291 5.94878C54.9291 6.24571 55.0363 6.27472 56.1353 6.27472C57.2101 6.27472 57.3415 6.24115 57.3415 5.96736C57.3415 5.72909 57.5003 5.63571 58.0466 5.55275C58.6732 5.45741 58.7626 5.38961 58.8508 4.94339C58.9764 4.30682 58.9751 3.11043 58.848 2.33142C58.7744 1.88047 58.6636 1.71652 58.4075 1.67953C58.1944 1.64873 58.0458 1.49162 58.0138 1.2633C57.9648 0.912578 57.8962 0.896606 56.4457 0.896606C55.0545 0.896606 54.9291 0.922681 54.9291 1.21114ZM11.6655 2.03742C11.6655 2.25466 11.7728 2.36337 11.9872 2.36337C12.2659 2.36337 12.3088 2.47207 12.3088 3.17823C12.3088 3.93883 12.282 3.9931 11.9068 3.9931C11.5375 3.9931 11.5047 3.93329 11.5047 3.25972C11.5047 2.63504 11.4571 2.52634 11.183 2.52634C10.9471 2.52634 10.8614 2.41764 10.8614 2.11891C10.8614 1.79296 10.9418 1.71147 11.2634 1.71147C11.5582 1.71147 11.6655 1.79834 11.6655 2.03742ZM117.01 2.7708C117.01 3.09675 116.929 3.17823 116.608 3.17823C116.286 3.17823 116.206 3.25972 116.206 3.58566C116.206 3.91161 116.125 3.9931 115.804 3.9931C115.482 3.9931 115.402 4.07458 115.402 4.40053C115.402 4.72648 115.321 4.80796 114.999 4.80796C114.678 4.80796 114.597 4.88945 114.597 5.2154C114.597 5.54134 114.517 5.62283 114.195 5.62283C113.905 5.62283 113.793 5.71035 113.793 5.93883C113.793 6.18835 113.641 6.27782 113.069 6.36468C112.506 6.45041 112.346 6.54265 112.346 6.78222C112.346 7.00142 112.23 7.08959 111.944 7.08959C111.622 7.08959 111.542 7.17108 111.542 7.49702C111.542 7.87121 111.483 7.90446 110.818 7.90446C110.153 7.90446 110.094 7.9377 110.094 8.31189C110.094 8.70775 110.126 8.71932 111.22 8.71932H112.346V14.9938C112.346 21.1229 112.353 21.2683 112.662 21.2683C112.92 21.2683 112.998 21.4184 113.085 22.0831C113.168 22.7194 113.255 22.898 113.481 22.898C113.659 22.898 113.791 23.0393 113.822 23.2647C113.855 23.5003 114.003 23.65 114.236 23.6835C114.457 23.7153 114.597 23.8488 114.597 24.0281C114.597 24.2523 114.771 24.3445 115.344 24.4241C116.301 24.5571 118.075 24.5562 119.639 24.4223C120.795 24.3234 120.87 24.2935 120.87 23.9334C120.87 23.633 120.957 23.5499 121.272 23.5499C121.567 23.5499 121.674 23.463 121.674 23.2239C121.674 22.9849 121.567 22.898 121.272 22.898C120.977 22.898 120.87 22.9849 120.87 23.2239C120.87 23.463 120.763 23.5499 120.468 23.5499C120.173 23.5499 120.066 23.463 120.066 23.2239C120.066 22.9474 119.958 22.898 119.357 22.898H118.648L118.538 22.0831C118.449 21.4294 118.366 21.2683 118.121 21.2683C117.824 21.2683 117.814 21.0567 117.814 14.9938V8.71932H119.342H120.87V7.98594V7.25256L119.945 7.25077C119.436 7.24979 118.749 7.20351 118.417 7.14793L117.814 7.04689V4.70513V2.36337H117.412C117.09 2.36337 117.01 2.44485 117.01 2.7708ZM20.089 6.13212C20.1444 6.41227 20.1896 7.10898 20.1896 7.68037C20.1896 8.61062 20.2232 8.71932 20.5112 8.71932C20.7899 8.71932 20.8329 8.82802 20.8329 9.53419C20.8329 10.409 20.8018 10.4323 19.888 10.2472L19.3854 10.1453V7.88408C19.3854 5.78173 19.4066 5.62283 19.687 5.62283C19.896 5.62283 20.0194 5.77896 20.089 6.13212ZM152.714 5.94878C152.714 6.22648 152.822 6.27472 153.438 6.27472C154.055 6.27472 154.162 6.22648 154.162 5.94878C154.162 5.67107 154.055 5.62283 153.438 5.62283C152.822 5.62283 152.714 5.67107 152.714 5.94878ZM8.44889 6.84513C8.44889 7.14386 8.36317 7.25256 8.12723 7.25256C7.91284 7.25256 7.80557 7.36127 7.80557 7.57851C7.80557 7.87545 7.6983 7.90446 6.59934 7.90446C5.50729 7.90446 5.3931 7.87414 5.3931 7.58405C5.3931 7.3228 5.54123 7.24393 6.19726 7.15576C6.83769 7.06954 7.00141 6.98545 7.00141 6.74262C7.00141 6.48985 7.12525 6.4377 7.72515 6.4377C8.38987 6.4377 8.44889 6.47094 8.44889 6.84513ZM151.91 6.76364C151.91 6.98089 152.017 7.08959 152.232 7.08959C152.446 7.08959 152.554 6.98089 152.554 6.76364C152.554 6.5464 152.446 6.4377 152.232 6.4377C152.017 6.4377 151.91 6.5464 151.91 6.76364ZM42.1832 7.20498C41.8831 7.25191 41.7409 7.37202 41.7409 7.57851C41.7409 7.7894 41.8768 7.89859 42.1832 7.93444C42.4999 7.97127 42.6401 8.09008 42.677 8.35263C42.7099 8.58829 42.8392 8.71932 43.0388 8.71932C43.3237 8.71932 43.3492 8.8466 43.3492 10.2676C43.3492 11.8104 43.3478 11.8158 42.9472 11.8158C42.6076 11.8158 42.5451 11.8919 42.5451 12.3047C42.5451 12.6849 42.4737 12.7937 42.2234 12.7937C41.9553 12.7937 41.9018 12.9024 41.9018 13.4455C41.9018 13.9887 41.9553 14.0974 42.2234 14.0974C42.4378 14.0974 42.5451 13.9887 42.5451 13.7715C42.5451 13.5324 42.6524 13.4455 42.9472 13.4455C43.2688 13.4455 43.3492 13.3641 43.3492 13.0381C43.3492 12.7122 43.4296 12.6307 43.7513 12.6307C44.073 12.6307 44.1534 12.5492 44.1534 12.2232C44.1534 11.8973 44.2338 11.8158 44.5555 11.8158C44.8771 11.8158 44.9575 11.7343 44.9575 11.4084C44.9575 11.0824 45.038 11.0009 45.3596 11.0009C45.6496 11.0009 45.7617 10.9133 45.7617 10.6864C45.7617 10.4842 45.891 10.3531 46.1236 10.3197C46.3561 10.2861 46.5038 10.1365 46.5369 9.90088C46.5813 9.58357 46.6842 9.53419 47.3009 9.53419C47.9537 9.53419 48.0133 9.49996 48.0133 9.12675C48.0133 8.80081 48.0937 8.71932 48.4154 8.71932C48.708 8.71932 48.8175 8.63197 48.8175 8.39892C48.8175 8.13718 48.9659 8.05863 49.63 7.96948C50.3383 7.8743 50.4363 7.81613 50.394 7.5156C50.3462 7.17646 50.286 7.17075 46.4854 7.15331C44.3625 7.14353 42.4264 7.16684 42.1832 7.20498ZM71.2803 7.19829C71.2213 7.25794 71.173 7.44128 71.173 7.60572C71.173 7.85556 71.3046 7.90446 71.9772 7.90446C72.7278 7.90446 72.7813 7.93167 72.7813 8.31189C72.7813 8.63783 72.8617 8.71932 73.1834 8.71932H73.5855V16.2161V23.7129H73.1721C72.8357 23.7129 72.7684 23.781 72.8103 24.0795C72.8616 24.4454 72.8694 24.4464 76.3598 24.4902C80.2587 24.5391 79.9972 24.6224 79.7574 23.4073C79.6877 23.0541 79.5644 22.898 79.3553 22.898C79.0658 22.898 79.0537 22.6522 79.0537 16.7254C79.0537 13.3305 79.0085 10.3236 78.9532 10.0435C78.8836 9.69032 78.7602 9.53419 78.5511 9.53419C78.3367 9.53419 78.2496 9.41652 78.2496 9.12675C78.2496 8.83291 78.163 8.71932 77.9392 8.71932C77.7396 8.71932 77.6103 8.58829 77.5773 8.35263C77.5405 8.09008 77.4002 7.97127 77.0835 7.93444C76.7828 7.89924 76.6413 7.78842 76.6413 7.58812C76.6413 7.38832 76.4793 7.26055 76.1387 7.19145C75.4657 7.05504 71.4159 7.06074 71.2803 7.19829ZM85.6076 7.20628C85.3007 7.25338 85.1653 7.37072 85.1653 7.58927C85.1653 7.8541 85.0498 7.90446 84.4416 7.90446C83.7768 7.90446 83.7178 7.9377 83.7178 8.31189C83.7178 8.63783 83.6374 8.71932 83.3158 8.71932C82.9941 8.71932 82.9137 8.80081 82.9137 9.12675C82.9137 9.4527 82.8333 9.53419 82.5116 9.53419C82.1423 9.53419 82.1095 9.594 82.1095 10.2676C82.1095 10.9411 82.0767 11.0009 81.7074 11.0009C81.3322 11.0009 81.3054 11.0552 81.3054 11.8158C81.3054 12.5065 81.259 12.6307 81.0011 12.6307C80.7304 12.6307 80.6839 12.8117 80.5811 14.2664C80.5176 15.1661 80.5179 16.9262 80.5819 18.1778C80.6883 20.258 80.7243 20.4534 81.0017 20.4534C81.2589 20.4534 81.3054 20.5782 81.3054 21.2683C81.3054 22.0289 81.3322 22.0831 81.7074 22.0831C82.0767 22.0831 82.1095 22.1429 82.1095 22.8165C82.1095 23.4901 82.1423 23.5499 82.5116 23.5499C82.8308 23.5499 82.9137 23.632 82.9137 23.9484C82.9137 24.3082 82.9878 24.3517 83.6776 24.3965C84.3295 24.4389 84.4491 24.5 84.493 24.8129C84.5421 25.1636 84.6106 25.1796 86.0611 25.1796C87.5717 25.1796 87.5778 25.178 87.5778 24.7722C87.5778 24.398 87.6368 24.3647 88.3015 24.3647C88.918 24.3647 89.0253 24.3165 89.0253 24.0388C89.0253 23.7438 88.918 23.7129 87.8994 23.7129H86.7736V23.2239C86.7736 22.8488 86.7011 22.735 86.4618 22.735C85.9925 22.735 85.9497 22.0528 86.0026 15.4012L86.0499 9.4527L86.4117 9.40055C86.7249 9.35557 86.7736 9.25126 86.7736 8.62643V7.90446H87.5778C88.256 7.90446 88.3819 7.85671 88.3819 7.59986C88.3819 7.1626 87.0882 6.97909 85.6076 7.20628ZM101.208 7.20074C100.903 7.25142 100.766 7.37202 100.766 7.58927C100.766 7.81678 100.654 7.90446 100.364 7.90446C100.042 7.90446 99.9618 7.98594 99.9618 8.31189C99.9618 8.63783 99.8813 8.71932 99.5597 8.71932C99.2697 8.71932 99.1576 8.807 99.1576 9.03386C99.1576 9.23611 99.0283 9.36714 98.7957 9.40055C98.5366 9.43787 98.4194 9.57998 98.383 9.90088C98.347 10.2175 98.2409 10.3491 98.0212 10.3491C97.7285 10.3491 97.7101 10.4838 97.7101 12.6307C97.7101 14.7775 97.7285 14.9123 98.0212 14.9123C98.2409 14.9123 98.347 15.0438 98.383 15.3605C98.4194 15.6814 98.5366 15.8235 98.7957 15.8608C99.0283 15.8942 99.1576 16.0252 99.1576 16.2275C99.1576 16.4544 99.2697 16.542 99.5597 16.542C99.8813 16.542 99.9618 16.6235 99.9618 16.9495C99.9618 17.3227 100.021 17.3569 100.674 17.3569C101.291 17.3569 101.394 17.4063 101.438 17.7236C101.483 18.043 101.598 18.0966 102.334 18.1395C103.026 18.1799 103.178 18.2423 103.178 18.4858C103.178 18.8039 103.739 18.9866 104.715 18.9866C105.144 18.9866 105.257 19.0575 105.298 19.3533C105.331 19.589 105.479 19.7386 105.711 19.7722C105.944 19.8056 106.073 19.9366 106.073 20.1389C106.073 20.3657 106.185 20.4534 106.475 20.4534C106.868 20.4534 106.877 20.4806 106.877 21.6757C106.877 22.7746 106.846 22.898 106.567 22.898C106.368 22.898 106.238 23.029 106.205 23.2647C106.172 23.5003 106.024 23.65 105.792 23.6835C105.53 23.7212 105.43 23.8449 105.43 24.1317C105.43 24.4982 105.37 24.5277 104.626 24.5277C103.929 24.5277 103.822 24.5712 103.822 24.8537C103.822 25.1487 103.929 25.1796 104.948 25.1796C105.952 25.1796 106.073 25.1457 106.073 24.8654C106.073 24.6068 106.23 24.5313 106.958 24.4392C107.666 24.3494 107.842 24.2679 107.842 24.03C107.842 23.8027 108.013 23.707 108.566 23.6229C109.119 23.539 109.29 23.4428 109.29 23.2168C109.29 23.0337 109.428 22.9008 109.652 22.8687C109.911 22.8313 110.028 22.6892 110.065 22.3683C110.099 22.0657 110.209 21.9202 110.403 21.9202C110.641 21.9202 110.709 21.7295 110.793 20.8201C110.923 19.4302 110.924 17.9415 110.795 17.1532C110.721 16.7009 110.617 16.542 110.395 16.542C110.181 16.542 110.094 16.4239 110.094 16.1346C110.094 15.8087 110.014 15.7272 109.692 15.7272C109.37 15.7272 109.29 15.6457 109.29 15.3197C109.29 14.9938 109.21 14.9123 108.888 14.9123C108.597 14.9123 108.486 14.8248 108.486 14.5953C108.486 14.3328 108.355 14.2697 107.722 14.2286C107.07 14.1863 106.95 14.1251 106.906 13.8122C106.859 13.4723 106.774 13.4455 105.74 13.4455C104.659 13.4455 104.626 13.4335 104.626 13.0381C104.626 12.6579 104.572 12.6307 103.822 12.6307C103.071 12.6307 103.018 12.6035 103.018 12.2232C103.018 11.8509 102.957 11.8158 102.315 11.8158C101.628 11.8158 101.61 11.8023 101.512 11.2047C101.458 10.8686 101.413 10.2635 101.413 9.86013C101.413 9.45677 101.458 8.85182 101.512 8.5156C101.61 7.91798 101.628 7.90446 102.315 7.90446C102.91 7.90446 103.018 7.85475 103.018 7.57851C103.018 7.39924 102.918 7.25256 102.796 7.25256C102.675 7.25256 102.367 7.22437 102.113 7.18998C101.859 7.15559 101.452 7.16032 101.208 7.20074ZM126.78 7.20351C126.474 7.2524 126.338 7.37137 126.338 7.58927C126.338 7.85882 126.222 7.90446 125.534 7.90446C124.783 7.90446 124.73 7.93167 124.73 8.31189C124.73 8.63783 124.649 8.71932 124.328 8.71932C124.038 8.71932 123.926 8.807 123.926 9.03386C123.926 9.23611 123.796 9.36714 123.564 9.40055C123.331 9.43412 123.184 9.58373 123.15 9.81939C123.117 10.055 122.988 10.1861 122.789 10.1861C122.565 10.1861 122.478 10.2997 122.478 10.5935C122.478 10.9195 122.398 11.0009 122.076 11.0009C121.701 11.0009 121.674 11.0552 121.674 11.8158C121.674 12.5764 121.647 12.6307 121.272 12.6307C120.881 12.6307 120.87 12.6633 120.87 13.7715C120.87 14.7816 120.835 14.9123 120.566 14.9123C120.199 14.9123 120.071 15.6504 120.192 17.0717C120.258 17.8479 120.322 18.0088 120.57 18.0088C120.817 18.0088 120.87 18.1351 120.87 18.7218C120.87 19.8924 121.033 20.4534 121.372 20.4534C121.585 20.4534 121.674 20.5709 121.674 20.8494C121.674 21.1362 121.774 21.2599 122.036 21.2976C122.268 21.3312 122.416 21.4808 122.449 21.7164C122.482 21.9521 122.611 22.0831 122.811 22.0831C123.035 22.0831 123.121 22.1967 123.121 22.4906C123.121 22.8134 123.203 22.898 123.512 22.898C123.795 22.898 123.917 22.9992 123.955 23.2647C123.988 23.5003 124.135 23.65 124.368 23.6835C124.6 23.7169 124.73 23.848 124.73 24.0502C124.73 24.3048 124.845 24.3651 125.333 24.3665C126.508 24.37 127.142 24.5483 127.142 24.875C127.142 25.1273 127.266 25.1796 127.866 25.1796C128.482 25.1796 128.59 25.1314 128.59 24.8537C128.59 24.5774 128.482 24.5277 127.887 24.5277H127.184L127.077 23.7129C126.99 23.0481 126.912 22.898 126.654 22.898C126.345 22.898 126.338 22.7479 126.338 15.8087C126.338 8.9131 126.347 8.71932 126.648 8.71932C126.848 8.71932 126.977 8.58829 127.01 8.35263C127.047 8.0878 127.187 7.97128 127.514 7.93347C127.874 7.89158 127.956 7.80895 127.916 7.52603C127.864 7.15494 127.583 7.07525 126.78 7.20351ZM129.836 7.20074C129.536 7.25061 129.394 7.37284 129.394 7.58046C129.394 7.83014 129.535 7.89582 130.158 7.93624L130.922 7.98594L130.971 8.76006C131.01 9.37822 131.078 9.53419 131.309 9.53419C131.706 9.53419 131.807 10.8965 131.805 16.2814C131.804 21.5813 131.714 22.735 131.3 22.735C131.076 22.735 131.002 22.8564 131.002 23.2239C131.002 23.6367 130.94 23.7129 130.6 23.7129C130.305 23.7129 130.198 23.7997 130.198 24.0388C130.198 24.3338 130.305 24.3647 131.324 24.3647C132.342 24.3647 132.45 24.3338 132.45 24.0388C132.45 23.7997 132.557 23.7129 132.852 23.7129C133.173 23.7129 133.254 23.6314 133.254 23.3054C133.254 22.9795 133.334 22.898 133.656 22.898C133.978 22.898 134.058 22.8165 134.058 22.4906C134.058 22.1646 134.138 22.0831 134.46 22.0831C134.782 22.0831 134.862 22.0016 134.862 21.6757C134.862 21.3497 134.943 21.2683 135.264 21.2683C135.586 21.2683 135.666 21.1868 135.666 20.8608C135.666 20.5715 135.753 20.4534 135.967 20.4534C136.282 20.4534 136.465 19.8142 136.469 18.7014C136.47 18.281 136.537 18.1718 136.792 18.1718C137.099 18.1718 137.114 18.0631 137.114 15.8087C137.114 13.593 137.095 13.4455 136.807 13.4455C136.561 13.4455 136.479 13.2844 136.39 12.6307C136.304 11.9975 136.215 11.8158 135.991 11.8158C135.773 11.8158 135.676 11.638 135.594 11.0824C135.508 10.5032 135.42 10.3491 135.174 10.3491C134.948 10.3491 134.862 10.2361 134.862 9.94162C134.862 9.61567 134.782 9.53419 134.46 9.53419C134.138 9.53419 134.058 9.4527 134.058 9.12675C134.058 8.80081 133.978 8.71932 133.656 8.71932C133.363 8.71932 133.254 8.63197 133.254 8.39892C133.254 8.13767 133.106 8.05879 132.45 7.97062C131.809 7.88441 131.645 7.80032 131.645 7.55749C131.645 7.38979 131.546 7.25256 131.424 7.25256C131.303 7.25256 130.995 7.22437 130.741 7.18998C130.487 7.15559 130.079 7.16032 129.836 7.20074ZM145.745 7.19829C145.686 7.25794 145.638 7.44128 145.638 7.60572C145.638 7.85556 145.769 7.90446 146.442 7.90446C147.193 7.90446 147.246 7.93167 147.246 8.31189C147.246 8.60638 147.332 8.71932 147.558 8.71932C148.032 8.71932 148.069 9.37871 148.017 16.868L147.97 23.6314L147.608 23.6835C147.346 23.7212 147.246 23.8449 147.246 24.1317V24.5277H150.694C152.671 24.5277 154.183 24.4624 154.236 24.3747C154.288 24.2904 154.283 23.9237 154.225 23.5598C154.146 23.0593 154.047 22.898 153.82 22.898C153.531 22.898 153.518 22.6618 153.517 17.3162C153.516 10.6799 153.442 9.53419 153.013 9.53419C152.802 9.53419 152.714 9.41489 152.714 9.12675C152.714 8.80081 152.634 8.71932 152.312 8.71932C151.991 8.71932 151.91 8.63783 151.91 8.31189C151.91 7.98594 151.83 7.90446 151.508 7.90446C151.222 7.90446 151.106 7.81612 151.106 7.59888C151.106 7.38702 150.952 7.26201 150.603 7.19145C149.931 7.05504 145.881 7.06074 145.745 7.19829ZM28.7136 7.57851C28.7136 7.85622 28.8209 7.90446 29.4373 7.90446C30.1021 7.90446 30.1611 7.9377 30.1611 8.31189C30.1611 8.63783 30.2415 8.71932 30.5632 8.71932C30.9638 8.71932 30.9652 8.7247 30.9652 10.2676C30.9652 11.7071 30.9878 11.8158 31.2869 11.8158C31.6042 11.8158 31.6086 11.9245 31.6086 19.72C31.6086 27.5155 31.6042 27.6242 31.2869 27.6242C30.9939 27.6242 30.9652 27.7329 30.9652 28.8465C30.9652 29.935 30.9321 30.0688 30.6624 30.0688C30.4946 30.0688 30.3219 30.2143 30.2753 30.3948C30.2177 30.6177 30.0559 30.7207 29.7629 30.7207C29.4106 30.7207 29.3437 30.7859 29.3859 31.0874L29.4373 31.4541L33.3777 31.5025C37.9587 31.5587 38.6851 31.495 38.6851 31.0367C38.6851 30.7719 38.5705 30.7207 37.9765 30.7207H37.2679L37.1572 29.9058C37.0685 29.2522 36.986 29.091 36.74 29.091C36.4456 29.091 36.4335 28.9047 36.4335 24.3647C36.4335 19.7472 36.4409 19.6385 36.7552 19.6385C36.9695 19.6385 37.0768 19.5298 37.0768 19.3126C37.0768 19.0735 37.1841 18.9866 37.4789 18.9866C37.7671 18.9866 37.881 19.0746 37.881 19.2973C37.881 19.5464 38.04 19.6301 38.6851 19.72L39.4893 19.8321V20.5502C39.4893 21.2075 39.5234 21.2683 39.8914 21.2683C40.2606 21.2683 40.2934 21.3281 40.2934 22.0016C40.2934 22.6092 40.3451 22.735 40.594 22.735C40.9236 22.735 41.0926 23.3802 41.0958 24.65C41.0973 25.222 41.151 25.3426 41.4043 25.3426C41.6859 25.3426 41.7205 25.5295 41.827 27.6242C41.9326 29.7033 41.9698 29.9058 42.244 29.9058C42.4983 29.9058 42.5451 30.0331 42.5451 30.7236V31.5414L46.4452 31.4978L50.3454 31.4541L50.3969 31.0874C50.4443 30.7486 50.3864 30.7207 49.6329 30.7207H48.8175V29.9058C48.8175 29.1452 48.7906 29.091 48.4154 29.091C48.0247 29.091 48.0133 29.0584 48.0133 27.9502C48.0133 26.9446 47.9776 26.8093 47.7127 26.8093C47.366 26.8093 47.2138 26.1579 47.2109 24.6614C47.2093 23.826 47.1738 23.7305 46.8473 23.6835C46.5393 23.6392 46.4782 23.5176 46.4369 22.8675C46.3959 22.2231 46.333 22.0955 46.0348 22.0526C45.8106 22.0202 45.6625 21.8675 45.6298 21.6349C45.5968 21.3993 45.4675 21.2683 45.2679 21.2683C45.0441 21.2683 44.9575 21.1547 44.9575 20.8608C44.9575 20.5349 44.8771 20.4534 44.5555 20.4534C44.27 20.4534 44.1534 20.3651 44.1534 20.1488C44.1534 19.8295 43.5226 19.6441 42.4245 19.6403C42.0095 19.6389 41.9018 19.5712 41.9018 19.3126C41.9018 19.0178 41.7829 18.9832 40.6553 18.9514C39.9698 18.932 39.1014 18.9316 38.7253 18.9503C38.095 18.9816 38.0418 18.9526 38.0418 18.5779C38.0418 18.1991 37.9876 18.1718 37.2377 18.1718H36.4335V14.1789C36.4335 10.2948 36.4422 10.1861 36.7552 10.1861C37.0292 10.1861 37.0768 10.0774 37.0768 9.4527C37.0768 8.77913 37.1096 8.71932 37.4789 8.71932C37.8006 8.71932 37.881 8.63783 37.881 8.31189C37.881 7.96785 37.9561 7.90446 38.3635 7.90446C38.7387 7.90446 38.846 7.8321 38.846 7.57851C38.846 7.25941 38.7387 7.25256 33.7798 7.25256C28.8209 7.25256 28.7136 7.25941 28.7136 7.57851ZM51.8733 7.57851C51.8733 7.81759 51.9806 7.90446 52.2754 7.90446C52.597 7.90446 52.6774 7.98594 52.6774 8.31189C52.6774 8.63832 52.7577 8.71932 53.0811 8.71932H53.4848L53.443 16.1753L53.4012 23.6314L53.0393 23.6835C52.7773 23.7212 52.6774 23.8449 52.6774 24.1317V24.5277H56.1258C58.1027 24.5277 59.6141 24.4624 59.6676 24.3747C59.7189 24.2904 59.714 23.9237 59.6565 23.5598C59.5776 23.0593 59.4787 22.898 59.2509 22.898C58.9611 22.898 58.9498 22.6229 58.9498 15.5846C58.9498 11.5622 58.9047 8.042 58.8493 7.76185L58.7488 7.25256H55.311C51.9806 7.25256 51.8733 7.26267 51.8733 7.57851ZM62.0056 7.55993C62.0056 7.79868 62.1649 7.89158 62.718 7.97568L63.4303 8.08389L63.5429 9.5425C63.6413 10.8181 63.6931 11.0009 63.9564 11.0009C64.2439 11.0009 64.2573 11.2276 64.2573 16.1346C64.2573 21.1596 64.2505 21.2683 63.9356 21.2683C63.6715 21.2683 63.6136 21.3775 63.6122 21.8794C63.6088 23.0704 63.4328 23.7129 63.1104 23.7129C62.9237 23.7129 62.8098 23.8286 62.8098 24.0184C62.8098 24.4567 63.3626 24.5277 66.7703 24.5277H69.7255V23.3054C69.7255 22.2203 69.6917 22.0831 69.4249 22.0831C68.9781 22.0831 68.9251 21.4523 68.9231 16.1142C68.9212 10.8844 68.9677 10.3491 69.424 10.3491C69.6786 10.3491 69.7255 10.2223 69.7255 9.53419C69.7255 8.77359 69.6987 8.71932 69.3234 8.71932C68.9542 8.71932 68.9214 8.65951 68.9214 7.98594V7.25256H65.4635C62.1822 7.25256 62.0056 7.26821 62.0056 7.55993ZM90.6336 7.98594C90.6336 8.65951 90.6008 8.71932 90.2315 8.71932C89.8043 8.71932 89.7654 8.84285 89.9299 9.67679C89.9996 10.03 90.1229 10.1861 90.332 10.1861C90.6205 10.1861 90.6336 10.4089 90.6336 15.3197C90.6336 20.2249 90.6202 20.4534 90.333 20.4534C90.0105 20.4534 89.8345 21.0958 89.8312 22.2868C89.8297 22.7888 89.7718 22.898 89.5077 22.898C89.2934 22.898 89.1861 23.0067 89.1861 23.2239C89.1861 23.4412 89.2934 23.5499 89.5077 23.5499C89.7221 23.5499 89.8294 23.4412 89.8294 23.2239C89.8294 22.9849 89.9367 22.898 90.2315 22.898H90.6336V25.6685C90.6336 28.3012 90.6181 28.4391 90.3217 28.4391C90.0755 28.4391 89.9872 28.5933 89.9015 29.1725C89.8169 29.7437 89.7258 29.9058 89.4894 29.9058C89.2731 29.9058 89.1861 30.0227 89.1861 30.3133C89.1861 30.6392 89.1057 30.7207 88.784 30.7207C88.4623 30.7207 88.3819 30.8022 88.3819 31.1281C88.3819 31.4541 88.3015 31.5356 87.9799 31.5356C87.685 31.5356 87.5778 31.6224 87.5778 31.8615C87.5778 32.1392 87.685 32.1875 88.3015 32.1875C88.918 32.1875 89.0253 32.1392 89.0253 31.8615C89.0253 31.5916 89.1325 31.5356 89.6485 31.5356C90.7252 31.5356 91.2769 31.363 91.2769 31.0263C91.2769 30.7953 91.3948 30.7207 91.7594 30.7207C92.1296 30.7207 92.2419 30.6472 92.2419 30.4047C92.2419 30.1558 92.3935 30.0657 92.9566 29.9802C93.5234 29.8941 93.6816 29.7993 93.7205 29.522C93.7513 29.3033 93.9053 29.1529 94.1316 29.1203C94.3936 29.0827 94.4935 28.959 94.4935 28.6721C94.4935 28.3584 94.577 28.2761 94.8956 28.2761C95.2862 28.2761 95.2977 28.2435 95.2977 27.1353C95.2977 26.0271 95.3091 25.9945 95.6997 25.9945H96.1018V28.7764V31.5582L96.4637 31.5062C96.8125 31.456 96.8272 31.385 96.8709 29.5392C96.9121 27.7994 96.9435 27.6242 97.2144 27.6242C97.4448 27.6242 97.5376 27.7916 97.6213 28.3576C97.7071 28.9368 97.7954 29.091 98.0416 29.091C98.2671 29.091 98.3534 29.2039 98.3534 29.4984C98.3534 29.8219 98.4345 29.9058 98.7467 29.9058C99.1018 29.9058 99.1447 29.981 99.189 30.68L99.238 31.4541H99.9618H100.686L100.73 28.7243L100.774 25.9945H100.368H99.9618V27.9502V29.9058H99.5597C99.238 29.9058 99.1576 29.8244 99.1576 29.4984C99.1576 29.2039 99.0712 29.091 98.8457 29.091C98.5995 29.091 98.5112 28.9368 98.4255 28.3576C98.3433 27.802 98.247 27.6242 98.0286 27.6242C97.8047 27.6242 97.7156 27.4425 97.6297 26.8093L97.5191 25.9945H96.8104H96.1018V17.3569V8.71932H96.5039C96.8256 8.71932 96.906 8.63783 96.906 8.31189C96.906 7.9377 96.965 7.90446 97.6297 7.90446C98.2462 7.90446 98.3534 7.85622 98.3534 7.57851C98.3534 7.26169 98.2462 7.25256 94.4935 7.25256H90.6336V7.98594ZM105.43 7.57851C105.43 7.85507 105.537 7.90446 106.139 7.90446H106.847L106.958 8.71932C107.047 9.37301 107.129 9.53419 107.375 9.53419C107.647 9.53419 107.682 9.66163 107.682 10.675V11.8158H108.807H109.933V11.0824C109.933 10.4578 109.886 10.3491 109.612 10.3491C109.333 10.3491 109.29 10.2404 109.29 9.53419C109.29 8.77359 109.263 8.71932 108.888 8.71932C108.566 8.71932 108.486 8.63783 108.486 8.31189C108.486 7.93167 108.432 7.90446 107.682 7.90446C106.985 7.90446 106.877 7.86094 106.877 7.57851C106.877 7.3008 106.77 7.25256 106.154 7.25256C105.537 7.25256 105.43 7.3008 105.43 7.57851ZM136.31 7.55749C136.31 7.80032 136.473 7.88441 137.114 7.97062L137.918 8.07867L137.92 8.92858C137.923 10.3513 138.08 11.0009 138.421 11.0009C138.709 11.0009 138.722 11.2294 138.722 16.1346C138.722 21.0398 138.709 21.2683 138.421 21.2683C138.099 21.2683 137.923 21.9107 137.92 23.1017C137.918 23.6037 137.86 23.7129 137.596 23.7129C137.389 23.7129 137.275 23.8216 137.275 24.0184C137.275 24.4567 137.827 24.5277 141.235 24.5277H144.19L144.189 23.9166C144.185 22.7256 144.009 22.0831 143.687 22.0831C143.399 22.0831 143.386 21.8375 143.386 16.2161V10.3491H143.788C144.163 10.3491 144.19 10.2948 144.19 9.53419C144.19 8.77359 144.163 8.71932 143.788 8.71932C143.419 8.71932 143.386 8.65951 143.386 7.98594V7.25256H139.848C136.498 7.25256 136.31 7.26886 136.31 7.55749ZM41.0976 14.5864C41.0976 14.8036 41.2049 14.9123 41.4193 14.9123C41.6336 14.9123 41.7409 14.8036 41.7409 14.5864C41.7409 14.3691 41.6336 14.2604 41.4193 14.2604C41.2049 14.2604 41.0976 14.3691 41.0976 14.5864ZM40.2934 15.4012C40.2934 15.6185 40.4007 15.7272 40.6151 15.7272C40.8295 15.7272 40.9368 15.6185 40.9368 15.4012C40.9368 15.184 40.8295 15.0753 40.6151 15.0753C40.4007 15.0753 40.2934 15.184 40.2934 15.4012ZM96.906 19.8015C96.906 20.4997 96.9507 20.6164 97.2185 20.6164C97.471 20.6164 97.5403 20.749 97.5803 21.309C97.6213 21.8848 97.6908 22.0104 97.9916 22.0538C98.2536 22.0914 98.3534 22.2151 98.3534 22.502C98.3534 22.8157 98.4369 22.898 98.7555 22.898C99.0772 22.898 99.1576 22.9795 99.1576 23.3054C99.1576 23.6314 99.238 23.7129 99.5597 23.7129C99.8545 23.7129 99.9618 23.7997 99.9618 24.0388C99.9618 24.3212 100.069 24.3647 100.766 24.3647C101.454 24.3647 101.57 24.3191 101.57 24.0496C101.57 23.8269 101.44 23.7194 101.128 23.6829C100.811 23.646 100.671 23.5272 100.634 23.2647C100.601 23.029 100.472 22.898 100.272 22.898C100.007 22.898 99.9618 22.7795 99.9618 22.0831C99.9618 21.3225 99.9349 21.2683 99.5597 21.2683C99.169 21.2683 99.1576 21.2357 99.1576 20.1274V18.9866H98.0318H96.906V19.8015ZM129.394 24.8537C129.394 25.0928 129.501 25.1796 129.796 25.1796C130.091 25.1796 130.198 25.0928 130.198 24.8537C130.198 24.6146 130.091 24.5277 129.796 24.5277C129.501 24.5277 129.394 24.6146 129.394 24.8537ZM52.0341 26.3014C52.0341 26.6628 52.4492 26.804 53.5218 26.8071L54.2857 26.8093V29.1725C54.2857 31.4269 54.3005 31.5356 54.6074 31.5356C54.9143 31.5356 54.9291 31.4269 54.9291 29.1725V26.8093H55.7332C56.4838 26.8093 56.5374 26.7821 56.5374 26.4019V25.9945H54.2857C52.1879 25.9945 52.0341 26.0155 52.0341 26.3014ZM62.0056 28.6632V31.3319L62.5082 31.4337C62.7847 31.4898 63.5716 31.5356 64.2573 31.5356C65.9481 31.5356 66.5089 31.4088 66.5089 31.0263C66.5089 30.7452 66.3606 30.7207 64.6593 30.7207H62.8098V30.0077C62.8098 29.3395 62.8413 29.2883 63.3124 29.1928C63.5889 29.1368 64.2764 29.091 64.8403 29.091C65.7583 29.091 65.8656 29.0569 65.8656 28.765C65.8656 28.4771 65.7578 28.4389 64.9408 28.4373C64.4321 28.4363 63.7447 28.39 63.4129 28.3344C62.8231 28.2357 62.8098 28.2176 62.8098 27.5214V26.8093H64.1567C65.9474 26.8093 66.5089 26.6878 66.5089 26.3001C66.5089 26.0158 66.3516 25.9945 64.2573 25.9945H62.0056V28.6632ZM72.7813 26.4019C72.7813 26.6917 72.6941 26.8093 72.4798 26.8093C72.1293 26.8093 71.9762 27.3762 71.9789 28.6632C71.982 30.0714 72.1402 30.7207 72.4807 30.7207C72.6953 30.7207 72.7813 30.839 72.7813 31.134V31.5473L74.3494 31.5007C75.8369 31.4565 75.9201 31.4352 75.969 31.0874C76.002 30.8517 76.1313 30.7207 76.3309 30.7207C76.5916 30.7207 76.6413 30.6032 76.6413 29.9873C76.6413 29.3703 76.5917 29.2539 76.3294 29.2539C76.082 29.2539 75.9947 29.4093 75.9063 30.0067L75.7948 30.7593L74.4511 30.6878C73.712 30.6485 73.0562 30.5646 72.9936 30.5012C72.931 30.438 72.8489 29.728 72.8109 28.9236L72.7419 27.4612H73.1638C73.4782 27.4612 73.5855 27.3785 73.5855 27.1353C73.5855 26.8406 73.6927 26.8093 74.7 26.8093C75.7335 26.8093 75.8184 26.8361 75.8661 27.176C75.8992 27.4117 76.0468 27.5613 76.2794 27.5949C76.574 27.6373 76.6413 27.5691 76.6413 27.2282C76.6413 26.9181 76.5578 26.8093 76.3196 26.8093C76.0837 26.8093 75.9979 26.7006 75.9979 26.4019V25.9945H74.3896H72.7813V26.4019ZM82.9137 28.6835C82.9137 31.243 82.9288 31.3726 83.2279 31.3726C83.5041 31.3726 83.5481 31.239 83.5898 30.2725L83.6374 29.1725L84.7962 29.1247L85.9551 29.077L86.0024 30.2655C86.046 31.3569 86.0795 31.4583 86.4117 31.5062L86.7736 31.5582V28.7764C86.7736 26.165 86.7551 25.9945 86.4721 25.9945C86.1322 25.9945 85.9695 26.5554 85.9695 27.7261V28.4391H84.8647H83.76L83.6603 27.8279C83.6054 27.4919 83.5597 26.9418 83.5588 26.6056C83.5573 26.1037 83.4994 25.9945 83.2353 25.9945C82.9267 25.9945 82.9137 26.1032 82.9137 28.6835ZM107.682 26.4019C107.682 26.6912 107.594 26.8093 107.381 26.8093C107.048 26.8093 106.881 27.4612 106.881 28.765C106.881 30.0688 107.048 30.7207 107.381 30.7207C107.594 30.7207 107.682 30.8389 107.682 31.1281C107.682 31.5322 107.694 31.5356 109.109 31.5356C111.324 31.5356 111.49 31.4751 111.616 30.6221C111.7 30.059 111.789 29.9058 112.034 29.9058C112.315 29.9058 112.346 29.7843 112.346 28.6835C112.346 27.5828 112.315 27.4612 112.034 27.4612C111.788 27.4612 111.699 27.3071 111.614 26.7279L111.505 25.9945H109.593H107.682V26.4019ZM118.618 28.765V31.5356H119.965C121.756 31.5356 122.317 31.414 122.317 31.0263C122.317 30.7502 122.178 30.7207 120.87 30.7207H119.422L119.421 28.9687C119.418 26.6544 119.307 25.9945 118.919 25.9945C118.637 25.9945 118.618 26.1677 118.618 28.765ZM129.394 26.309C129.394 26.5113 129.265 26.6423 129.032 26.6757C128.799 26.7093 128.652 26.8589 128.619 27.0946C128.586 27.3302 128.456 27.4612 128.257 27.4612C127.972 27.4612 127.946 27.5885 127.946 29.0095C127.946 30.4314 127.972 30.5577 128.257 30.5577C128.477 30.5577 128.583 30.6893 128.619 31.0059L128.67 31.4541L130.549 31.4999L132.427 31.5457L132.479 31.0924C132.516 30.7665 132.632 30.6246 132.892 30.5871C133.243 30.5365 133.254 30.48 133.254 28.6721V26.8093H132.852C132.53 26.8093 132.45 26.7279 132.45 26.4019C132.45 25.996 132.444 25.9945 130.922 25.9945C129.519 25.9945 129.394 26.0204 129.394 26.309ZM140.33 26.4019C140.33 26.7279 140.25 26.8093 139.928 26.8093H139.526V28.765V30.7207H139.928C140.25 30.7207 140.33 30.8022 140.33 31.1281C140.33 31.53 140.349 31.5356 141.657 31.5338C142.387 31.5328 143.256 31.4865 143.587 31.4309L144.19 31.3299V29.8845V28.4391H143.064C142.046 28.4391 141.939 28.47 141.939 28.765C141.939 29.0427 142.046 29.091 142.662 29.091H143.386V29.9058V30.7207H142.361C141.797 30.7207 141.109 30.6749 140.833 30.6188L140.33 30.517V28.9891C140.33 27.5699 140.353 27.4612 140.652 27.4612C140.866 27.4612 140.974 27.3525 140.974 27.1353C140.974 26.8384 141.081 26.8093 142.18 26.8093C143.359 26.8093 143.386 26.8185 143.386 27.2168C143.386 27.5427 143.467 27.6242 143.788 27.6242C144.11 27.6242 144.19 27.5427 144.19 27.2168C144.19 26.8908 144.11 26.8093 143.788 26.8093C143.467 26.8093 143.386 26.7279 143.386 26.4019C143.386 25.996 143.381 25.9945 141.858 25.9945C140.336 25.9945 140.33 25.996 140.33 26.4019ZM151.106 26.8093C151.106 27.5699 151.133 27.6242 151.508 27.6242C151.877 27.6242 151.91 27.684 151.91 28.3576C151.91 29.0312 151.943 29.091 152.312 29.091C152.705 29.091 152.714 29.1182 152.714 30.3133C152.714 31.4269 152.743 31.5356 153.036 31.5356C153.32 31.5356 153.358 31.4264 153.359 30.5985C153.362 29.11 153.515 28.4391 153.85 28.4391C154.047 28.4391 154.157 28.295 154.191 27.9909C154.228 27.67 154.345 27.5279 154.604 27.4906C154.917 27.4456 154.966 27.3413 154.966 26.7165C154.966 26.0549 154.932 25.9945 154.564 25.9945C154.242 25.9945 154.162 26.076 154.162 26.4019C154.162 26.6925 154.075 26.8093 153.859 26.8093C153.622 26.8093 153.531 26.9715 153.446 27.5427C153.361 28.1219 153.272 28.2761 153.026 28.2761C152.822 28.2761 152.714 28.164 152.714 27.9502C152.714 27.7158 152.607 27.6242 152.333 27.6242C151.997 27.6242 151.939 27.5277 151.845 26.8093C151.758 26.1446 151.68 25.9945 151.422 25.9945C151.15 25.9945 151.106 26.1079 151.106 26.8093ZM110.766 27.176C110.8 27.4117 110.947 27.5613 111.18 27.5949C111.515 27.6431 111.542 27.7292 111.542 28.7764C111.542 29.7836 111.508 29.9058 111.231 29.9058C111.032 29.9058 110.902 30.0369 110.869 30.2725C110.822 30.6091 110.722 30.6431 109.652 30.6871C108.498 30.7346 108.486 30.7308 108.486 30.3204C108.486 29.9868 108.407 29.9058 108.084 29.9058C107.693 29.9058 107.682 29.8732 107.682 28.765C107.682 27.6568 107.693 27.6242 108.084 27.6242C108.405 27.6242 108.486 27.5427 108.486 27.2168C108.486 26.8214 108.519 26.8093 109.6 26.8093C110.634 26.8093 110.719 26.8361 110.766 27.176ZM131.806 27.2168C131.806 27.5155 131.892 27.6242 132.128 27.6242C132.419 27.6242 132.45 27.7329 132.45 28.765C132.45 29.7971 132.419 29.9058 132.128 29.9058C131.892 29.9058 131.806 30.0145 131.806 30.3133C131.806 30.7116 131.779 30.7207 130.6 30.7207C129.421 30.7207 129.394 30.7116 129.394 30.3133C129.394 29.9873 129.313 29.9058 128.992 29.9058C128.601 29.9058 128.59 29.8732 128.59 28.765C128.59 27.6568 128.601 27.6242 128.992 27.6242C129.313 27.6242 129.394 27.5427 129.394 27.2168C129.394 26.8185 129.421 26.8093 130.6 26.8093C131.779 26.8093 131.806 26.8185 131.806 27.2168Z" fill="white"/>
</svg>
