<svg width="864" height="389" viewBox="0 0 864 389" fill="none" xmlns="http://www.w3.org/2000/svg">
<ellipse opacity="0.2" cx="468.525" cy="348.83" rx="81.6999" ry="16.1698" fill="url(#paint0_radial_3497_615)"/>
<path d="M433.325 190.281L440.692 167.035C441.336 165.003 439.715 162.966 437.59 163.138L408.675 165.483C407.243 165.599 406.094 166.718 405.933 168.146C403.839 186.684 402.037 199.075 399.623 214.891C399.316 218.748 399.057 222.832 398.848 227.276L398.267 250.713V252.655C398.267 252.886 398.239 253.123 398.186 253.348C392.039 279.259 383.266 282.948 400.592 301.847C403.033 304.51 420.2 315.257 427.765 322.572C429.627 324.374 434.79 325.858 436.987 324.485L440.013 322.594C441.032 321.957 441.594 320.765 441.283 319.604C436.296 300.971 404.352 298.903 413.394 281.897C420.704 268.15 417.521 271.816 419.403 269.654C419.719 269.291 420.113 268.998 420.578 268.877C423.431 268.133 429.527 268.177 432.464 269.37C432.917 269.554 433.268 269.912 433.518 270.332C437.309 276.701 437.693 280.776 441.693 290.613C443.337 295.751 446.684 299.51 450.315 304.958C450.48 305.206 450.607 305.482 450.691 305.769C453.33 314.789 454.84 320.11 456.864 330.987C456.924 331.312 456.931 331.649 456.883 331.976L456.71 333.14C456.435 334.997 457.917 336.67 459.783 336.469C462.69 336.155 465.098 335.533 468.152 334.268C469.523 333.701 470.204 332.167 469.785 330.743C464.216 311.788 460.802 300.396 455.514 280.748C455.443 280.485 455.407 280.207 455.411 279.936C455.498 272.905 456.214 269.09 458.118 267.951C467.07 263.546 472.426 264.176 483.685 267.177C494.046 271.217 499.412 273.813 508.284 281.897C515.298 288.689 519.273 292.544 527.378 301.542C527.558 301.742 527.711 301.965 527.832 302.206C528.714 303.982 532.562 311.767 532.562 312.457V328.034L531.835 335.12C531.664 336.79 532.895 338.275 534.568 338.416L541.923 339.034C543.289 339.149 544.585 338.327 544.872 336.987C545.932 332.05 544.78 327.849 544.764 324.399C544.727 316.525 543.56 311.79 543.713 305.835C543.722 305.503 543.68 305.171 543.583 304.854C541.761 298.939 540.041 295.834 536.659 290.613C532.542 284.775 530.832 281.543 529.666 276.248C529.615 276.013 529.589 275.771 529.608 275.531C529.656 274.932 529.787 274.668 530.176 274.764C530.444 274.83 530.661 275.024 530.859 275.217C542.032 286.091 547.924 292.859 556.642 306.291C556.812 306.553 556.942 306.847 557.023 307.148C560.108 318.613 561.739 325.559 562.67 336.256C562.813 337.899 564.232 339.145 565.878 339.039L574.33 338.497C576.23 338.376 577.535 336.535 577.046 334.696C573.298 320.612 571.773 311.494 569.02 296.451C568.948 296.053 568.792 295.666 568.568 295.328C561.14 284.114 556.27 276.995 554.85 272.294C554.794 272.11 554.762 271.922 554.746 271.731L553.607 257.492C554.047 249.147 554.038 244.569 556.185 235.216C556.272 234.836 556.438 234.47 556.664 234.152C562.738 225.616 566.058 220.592 566.007 210.591C566.006 210.355 565.975 210.114 565.913 209.886C565.272 207.496 564.695 206.829 563.292 207.326C562.011 207.78 555.593 211.718 553.977 212.715C553.731 212.867 553.51 213.053 553.317 213.269L550.686 216.23C549.695 217.345 548.035 217.562 546.79 216.74L538.112 211.006C531.288 207.7 527.232 206.392 519.518 205.196C510.829 203.816 506.197 204.137 498.212 205.97C488.135 208.318 482.352 209.318 471.676 210.232C462.377 211.163 457.088 210.839 447.697 208.545C447.544 208.508 447.39 208.457 447.245 208.395C441.866 206.116 439.017 204.389 435.094 200.018C434.949 199.856 434.821 199.676 434.716 199.486C433.055 196.486 431.72 193.709 433.325 190.281Z" fill="#E2A607" stroke="#BC8A07" stroke-linecap="round"/>
<path d="M407.371 207.328C406.61 203.618 405.849 198.367 405.271 193.982C405.111 192.767 403.283 192.75 403.11 193.963C401.839 200.608 401.288 207.274 399.817 216.238C399.047 228.34 398.461 250.327 398.655 250.715C398.848 251.102 399.623 247.228 405.821 239.48C412.019 231.733 408.92 214.882 407.371 207.328Z" fill="white" stroke="white" stroke-linecap="round"/>
<path d="M406.964 134.344C408.932 138.223 407.502 144.903 406.955 147.074C406.848 147.498 406.47 147.783 406.033 147.777C404.022 147.747 398.354 147.493 395.082 145.619C389.745 142.561 387.086 133.07 386.33 129.898C386.195 129.333 386.585 128.8 387.165 128.755C390.957 128.46 403.729 127.966 406.964 134.344Z" fill="#E2A607" stroke="#CF9807"/>
<path d="M394.717 159.359C393.622 162.534 392.017 166.243 390.363 170.068C390.161 170.535 389.958 171.003 389.756 171.473C387.888 175.802 386.024 180.22 384.784 184.19C383.536 188.184 382.955 191.621 383.55 194.031C383.843 195.215 384.413 196.129 385.318 196.755C386.231 197.388 387.537 197.764 389.36 197.764C393.029 197.764 398.257 196.241 404.077 193.674C409.881 191.113 416.219 187.54 422.088 183.494C427.96 179.447 433.347 174.939 437.259 170.517C441.192 166.072 443.556 161.801 443.556 158.219C443.556 143.391 431.536 131.371 416.708 131.371C413.015 131.371 410.124 132.235 407.782 133.727C405.435 135.221 403.607 137.366 402.075 139.976C400.541 142.588 399.314 145.65 398.162 148.96C397.587 150.613 397.032 152.323 396.467 154.067L396.435 154.167C395.881 155.876 395.317 157.617 394.717 159.359Z" fill="white" stroke="#BC8A07"/>
<path d="M396.685 150.893C389.848 164.567 375.686 194.357 385.453 198.264C393.957 198.264 400.909 184.368 411.336 172.869C419.43 163.944 430.382 156.265 432.335 148.452C432.335 133.348 430.87 132.824 421.103 132.824C405.999 132.824 403.522 137.219 396.685 150.893Z" fill="#E2A607"/>
<path d="M382.191 190.865C381.8 192.767 381.343 195.632 384.858 198.169C386.811 198.803 390.326 198.968 390.326 197.217C390.326 195.467 389.154 193.413 387.592 192.462C386.03 191.511 385.315 190.231 382.191 190.865Z" fill="#131313"/>
<path d="M395.709 152.847C390.825 167.009 420.127 164.568 410.848 166.033C415.913 167.842 424.951 158.222 429.405 159.684C436.977 162.169 444.056 167.729 444.056 158.219C444.056 143.115 431.812 130.871 416.708 130.871C401.604 130.871 400.593 138.685 395.709 152.847Z" fill="#E2A607"/>
<path d="M439.202 154.582C434.881 154.083 430.098 149.205 428.588 147.551C428.294 147.228 428.264 146.755 428.511 146.395C429.645 144.733 432.984 140.146 436.352 138.451C441.847 135.686 451.23 138.704 454.293 139.823C454.839 140.023 455.067 140.642 454.785 141.15C452.94 144.476 446.305 155.401 439.202 154.582Z" fill="#E2A607" stroke="#BC8A07"/>
<path d="M441.287 147.558L438.066 145.576C437.463 145.205 437.426 144.343 437.994 143.921L440.729 141.891" stroke="black" stroke-linecap="round"/>
<ellipse cx="1.95342" cy="3.41849" rx="1.95342" ry="3.41849" transform="matrix(-1 0 0 1 426.476 167.008)" fill="black"/>
<path d="M512.351 280.348C510.142 283.57 506.919 280.429 506.135 279.578C506.015 279.448 505.889 279.32 505.753 279.206C500.891 275.115 497.869 273.098 492.013 270.276L484.072 266.983C480.678 266.005 478.802 265.547 475.549 265.046L470.707 264.465C467.725 264.46 466.126 264.717 463.347 265.433C460.817 266.228 459.515 266.793 457.342 267.951C455.169 269.11 421.545 270.444 423.519 265.433C425.415 260.619 460.632 248.524 465.284 246.258C478.465 239.838 490.8 243.528 502.279 252.65C509.9 258.707 517.854 272.317 512.351 280.348Z" fill="white" stroke="white" stroke-linecap="round"/>
<path d="M544.041 342.967C544.367 340.343 544.843 336.659 544.964 336.546C545.153 336.369 531.917 336.757 531.741 336.744C531.652 336.738 530.439 339.125 529.277 341.456C528.278 343.462 529.766 345.803 532.007 345.765L541.106 345.61C542.606 345.584 543.856 344.456 544.041 342.967Z" fill="black" stroke="black" stroke-linecap="round"/>
<path d="M473.358 341.194C472.137 337.712 470.587 333.207 470.69 333.076C470.858 332.862 456.544 336.114 456.351 336.14C456.219 336.157 457.375 340.353 458.126 343.029C458.488 344.319 459.664 345.205 461.004 345.205L470.519 345.205C472.593 345.205 474.044 343.151 473.358 341.194Z" fill="black" stroke="black" stroke-linecap="round"/>
<path d="M445.512 320.816C443.2 318.714 440.011 315.784 440.016 315.615C440.023 315.35 430.705 325.74 430.569 325.866C430.487 325.941 432.511 329.065 434.146 331.558C435.185 333.141 437.413 333.364 438.754 332.026L445.618 325.176C446.836 323.96 446.786 321.973 445.512 320.816Z" fill="black" stroke="black" stroke-linecap="round"/>
<circle cx="3.29274" cy="3.29274" r="3.29274" transform="matrix(-1 0 0 1 511.576 212.168)" fill="white"/>
<ellipse cx="1.74322" cy="1.54953" rx="1.74322" ry="1.54953" transform="matrix(-1 0 0 1 525.135 223.402)" fill="white"/>
<ellipse cx="1.74322" cy="1.54953" rx="1.74322" ry="1.54953" transform="matrix(-1 0 0 1 523.198 213.719)" fill="white"/>
<ellipse cx="2.71167" cy="2.32429" rx="2.71167" ry="2.32429" transform="matrix(-1 0 0 1 517.775 219.914)" fill="white"/>
<path d="M579.664 341.566C578.767 339.233 577.804 336.642 577.914 336.538C578.113 336.348 563.124 337.677 562.924 337.677C562.797 337.677 563.313 341.417 563.708 344.154C563.936 345.738 565.373 346.853 566.965 346.693L577.154 345.668C579.137 345.469 580.379 343.427 579.664 341.566Z" fill="black" stroke="black" stroke-linecap="round"/>
<path d="M532.435 276.108C532.413 275.678 529.889 273.596 529.74 273.978C529.591 274.36 530.267 267.326 531.871 263.325C534.345 257.152 540.587 248.41 540.78 247.829C540.974 247.248 540.614 258.97 537.681 265.649C535.804 269.923 532.458 276.539 532.435 276.108Z" fill="white" stroke="white" stroke-linecap="round"/>
<ellipse opacity="0.2" cx="746.481" cy="335.319" rx="90.4808" ry="17.3186" fill="url(#paint1_radial_3497_615)"/>
<path d="M655.225 301.559C660.941 298.084 672.099 293.759 675.811 292.359C676.601 292.061 677.471 292.121 678.219 292.512L690.898 299.129C692.386 299.905 692.947 301.751 692.144 303.225L686.984 312.688C686.382 313.792 685.158 314.403 683.915 314.211C679.209 313.482 667.481 311.594 659.431 309.694C657.929 309.34 656.041 308.774 654.52 308.294C652.995 307.812 652.147 306.19 652.829 304.744C653.414 303.501 654.232 302.163 655.225 301.559Z" fill="#E2A607"/>
<path d="M670.209 306.644C674.727 306.842 680.462 304.61 680.462 304.61M655.225 301.559C660.941 298.084 672.099 293.759 675.811 292.359C676.601 292.061 677.471 292.121 678.219 292.512L690.898 299.129C692.386 299.905 692.947 301.751 692.144 303.225L686.984 312.688C686.382 313.792 685.158 314.403 683.915 314.211C679.209 313.482 667.481 311.594 659.431 309.694C657.929 309.34 656.041 308.774 654.52 308.294C652.995 307.812 652.147 306.19 652.829 304.744C653.414 303.501 654.232 302.163 655.225 301.559Z" stroke="#BC8A07"/>
<path d="M716.058 232.911L724.309 207.73C724.976 205.695 723.358 203.638 721.224 203.805L688.49 206.372C687.059 206.484 685.908 207.598 685.742 209.024C683.414 228.978 681.415 242.278 678.733 259.269C678.393 263.397 678.106 267.767 677.876 272.523L677.875 272.538C677.861 272.782 677.046 287.406 677.232 297.636C677.255 298.953 677.643 300.267 678.301 301.557C682.482 309.758 697.587 317.001 699.675 317.972C699.84 318.049 699.975 318.129 700.134 318.218C705.394 321.151 737.832 319.799 750.429 317.863C750.583 317.839 750.739 317.828 750.895 317.828C763.996 317.825 758.878 317.519 771.42 316.811C779.306 316.811 806.74 318.158 826.888 315.795C833.671 314.999 838.362 313.204 841.136 311.851C842.905 310.988 845.672 309.578 846.927 308.061C847.572 307.282 848.345 306.253 849.267 304.897C853.36 298.877 849.881 291.157 852.133 281.009C852.22 280.62 852.394 280.249 852.631 279.928C859.374 270.764 863.059 265.382 862.999 254.65C862.998 254.406 862.965 254.158 862.9 253.923C862.188 251.352 861.549 250.634 859.993 251.167C858.563 251.657 851.359 255.935 849.637 256.962C849.39 257.109 849.168 257.291 848.974 257.502L845.822 260.931C844.837 262.003 843.225 262.213 841.998 261.429L832.107 255.109C824.549 251.567 820.057 250.167 811.514 248.885C801.891 247.408 796.761 247.751 787.918 249.715C776.758 252.23 770.354 253.3 758.53 254.279C748.221 255.278 742.362 254.928 731.943 252.466C731.794 252.43 731.643 252.382 731.501 252.324C725.518 249.874 722.36 248.023 718 243.321C717.85 243.16 717.718 242.98 717.609 242.789C715.765 239.569 714.277 236.59 716.058 232.911Z" fill="#E2A607" stroke="#BC8A07" stroke-linecap="round"/>
<path d="M687.313 251.168C686.47 247.195 685.627 241.571 684.988 236.876C684.805 235.536 682.791 235.516 682.593 236.854C681.186 243.97 680.576 251.11 678.947 260.711C678.128 273.161 677.695 295.763 677.662 297.527C677.66 297.609 677.656 297.677 677.654 297.758C677.649 298.139 677.711 299.38 678.621 301.052C681.513 305.628 685.458 312.363 690.188 306.645C697.053 298.347 689.029 259.258 687.313 251.168Z" fill="white" stroke="white" stroke-linecap="round"/>
<path d="M686.863 173.001C689.057 177.183 687.438 184.405 686.841 186.681C686.73 187.107 686.345 187.395 685.902 187.39C683.739 187.363 677.366 187.106 673.705 185.077C667.756 181.782 664.812 171.509 663.996 168.177C663.857 167.609 664.257 167.068 664.85 167.022C668.938 166.707 683.256 166.123 686.863 173.001Z" fill="#E2A607" stroke="#CF9807"/>
<path d="M673.246 199.782C672.034 203.182 670.257 207.154 668.425 211.25C668.201 211.75 667.977 212.252 667.753 212.755C665.684 217.392 663.62 222.125 662.246 226.378C660.864 230.656 660.218 234.343 660.879 236.93C661.203 238.2 661.839 239.188 662.853 239.867C663.877 240.553 665.337 240.958 667.367 240.958C671.444 240.958 677.245 239.322 683.692 236.572C690.124 233.828 697.146 229.998 703.649 225.664C710.154 221.327 716.123 216.497 720.46 211.757C724.817 206.993 727.441 202.413 727.441 198.568C727.441 182.683 714.121 169.777 697.654 169.777C693.551 169.777 690.337 170.706 687.732 172.31C685.124 173.916 683.095 176.219 681.397 179.017C679.697 181.818 678.338 185.099 677.062 188.644C676.425 190.416 675.81 192.247 675.185 194.115L675.149 194.222C674.535 196.053 673.911 197.917 673.246 199.782Z" fill="white" stroke="#BC8A07"/>
<path d="M675.479 190.72C667.907 205.366 652.223 237.272 663.04 241.456C672.457 241.456 680.156 226.573 691.704 214.257C700.668 204.698 712.797 196.474 714.961 188.105C714.961 171.928 713.338 171.367 702.521 171.367C685.794 171.367 683.051 176.075 675.479 190.72Z" fill="#E2A607"/>
<path d="M659.427 233.533C658.994 235.571 658.488 238.639 662.381 241.356C664.543 242.035 668.436 242.212 668.436 240.337C668.436 238.462 667.138 236.262 665.408 235.244C663.678 234.225 662.887 232.854 659.427 233.533Z" fill="#131313"/>
<path d="M674.398 192.815C668.99 207.983 701.441 205.368 691.165 206.937C696.774 208.874 706.784 198.571 711.717 200.137C720.102 202.799 727.942 208.753 727.942 198.568C727.942 182.391 714.382 169.277 697.655 169.277C680.928 169.277 679.807 177.646 674.398 192.815Z" fill="#E2A607"/>
<path d="M722.566 194.676C717.742 194.137 712.398 188.833 710.772 187.104C710.471 186.783 710.437 186.318 710.686 185.963C711.903 184.234 715.64 179.234 719.409 177.4C725.544 174.414 736.054 177.723 739.359 178.897C739.918 179.096 740.157 179.707 739.871 180.209C737.895 183.67 730.494 195.561 722.566 194.676Z" fill="#E2A607" stroke="#BC8A07"/>
<path d="M724.876 187.155L721.203 184.969C720.587 184.602 720.543 183.751 721.119 183.338L724.258 181.085" stroke="black" stroke-linecap="round"/>
<ellipse cx="2.16337" cy="3.66136" rx="2.16337" ry="3.66136" transform="matrix(-1 0 0 1 708.472 207.984)" fill="black"/>
<ellipse cx="3.64664" cy="3.52668" rx="3.64664" ry="3.52668" transform="matrix(-1 0 0 1 802.719 256.355)" fill="white"/>
<ellipse cx="1.93057" cy="1.65961" rx="1.93057" ry="1.65961" transform="matrix(-1 0 0 1 817.734 268.387)" fill="white"/>
<ellipse cx="1.93057" cy="1.65961" rx="1.93057" ry="1.65961" transform="matrix(-1 0 0 1 815.59 258.016)" fill="white"/>
<ellipse cx="3.00312" cy="2.48942" rx="3.00312" ry="2.48942" transform="matrix(-1 0 0 1 809.583 264.652)" fill="white"/>
<path d="M664.952 316.561C666.809 315.214 685.891 307.917 690.324 306.231C690.926 306.002 691.575 305.978 692.194 306.154L737.771 319.103L738.999 326.398C739.314 328.274 737.826 329.967 735.925 329.894L667.061 327.249C666.882 327.242 666.708 327.22 666.534 327.177C665.055 326.814 657.803 324.847 659.694 321.645C661.797 318.086 662.849 318.086 664.952 316.561Z" fill="#E2A607"/>
<path d="M737.771 319.103L738.999 326.398C739.314 328.274 737.826 329.967 735.925 329.894L667.061 327.249C666.882 327.242 666.708 327.22 666.534 327.177C665.055 326.814 657.803 324.847 659.694 321.645C661.797 318.086 662.849 318.086 664.952 316.561C666.809 315.214 685.891 307.917 690.324 306.231C690.926 306.002 691.575 305.978 692.194 306.154L737.771 319.103ZM737.771 319.103L684.668 321.645" stroke="#BC8A07"/>
<path d="M690.451 307.151L691.24 305.371L741.188 318.591L725.152 319.608H720.946V319.354L708.59 317.066L694.394 311.727L690.451 307.151Z" fill="#E2A607"/>
<path d="M746.273 318.825C742.85 319.08 737.777 319.443 737.708 319.367C737.605 319.251 737.713 329.923 737.708 330.034C737.705 330.102 742.336 331.699 745.942 332.932C747.947 333.617 750.011 332.056 749.905 329.938L749.491 321.663C749.406 319.98 747.954 318.7 746.273 318.825Z" fill="black" stroke="black" stroke-linecap="round"/>
<path d="M786.141 304.612C786.141 292.663 798.143 284.571 806.909 281.73L832.409 302.832C833.986 303.341 837.005 304.111 838.455 304.612C842.135 305.883 844.452 306.968 845.29 310.205C845.777 312.089 844.334 314.782 844.334 314.782C842.117 317.193 839.244 319.58 836.615 320.629C828.832 323.733 822.682 325.205 809.275 325.205C795.868 325.205 758.538 330.544 758.538 330.544L760.379 317.324L808.486 314.527C808.486 314.527 786.141 312.744 786.141 304.612Z" fill="#E2A607"/>
<path d="M808.486 314.527C808.486 314.527 786.141 312.744 786.141 304.612C786.141 292.663 798.143 284.571 806.909 281.73L832.409 302.832C833.986 303.341 837.005 304.111 838.455 304.612C842.135 305.883 844.452 306.968 845.29 310.205C845.777 312.089 844.334 314.782 844.334 314.782C842.117 317.193 839.244 319.58 836.615 320.629C828.832 323.733 822.682 325.205 809.275 325.205C795.868 325.205 758.538 330.544 758.538 330.544L760.379 317.324L808.486 314.527ZM808.486 314.527H813.218" stroke="#BC8A07"/>
<path d="M757.257 330.777C760.232 330.16 763.931 329.419 764.059 329.527C764.275 329.709 762.487 317.258 762.482 317.07C762.478 316.949 758.896 317.403 756.337 317.743C754.877 317.937 753.785 319.169 753.757 320.642L753.618 327.766C753.58 329.702 755.361 331.171 757.257 330.777Z" fill="black" stroke="black" stroke-linecap="round"/>
<path d="M807.692 279.898H810.995L837.416 285.648V301.618L828.829 304.812L813.637 301.618L805.711 286.286L807.692 279.898Z" fill="#E2A607"/>
<path d="M239.402 105.738L226.632 65.441C225.988 63.4089 227.61 61.3722 229.735 61.5445L280.863 65.6901C282.295 65.8062 283.444 66.926 283.605 68.3538C287.07 99.2352 290.021 119.551 293.998 145.603C294.495 151.852 294.915 158.468 295.253 165.667L296.184 203.226C296.19 203.496 296.161 203.766 296.095 204.028L292.429 218.693C280.442 259.159 275.176 281.898 265.497 322.332C265.463 322.475 265.438 322.625 265.425 322.772C264.752 330.393 264.207 335.365 264.832 341.614C265.045 343.747 263.139 345.55 261.051 345.068L247.771 342.003C246.238 341.65 245.239 340.168 245.485 338.613C250.447 307.193 254.092 288.78 254.149 256.345C253.125 246.635 252.532 241.155 248.044 235.836C247.932 235.704 247.829 235.561 247.738 235.413C245.9 232.435 244.282 231.855 240.366 234.011C239.937 234.247 239.58 234.602 239.325 235.019C232.835 245.612 229.089 253.384 222.527 269.523C219.842 277.918 217.577 282.821 211.727 291.735C211.563 291.984 211.434 292.264 211.35 292.551C207.001 307.41 204.543 316.042 201.215 333.976C201.155 334.301 201.148 334.639 201.196 334.966L201.849 339.373C202.124 341.23 200.643 342.889 198.771 342.751C192.518 342.29 187.976 341.181 181.513 338.359C180.153 337.765 179.471 336.237 179.889 334.813C189.203 303.098 194.779 284.549 203.526 252.039C203.596 251.777 203.632 251.497 203.629 251.225C203.501 239.674 202.348 233.415 199.241 231.558C184.739 224.421 176.062 225.442 157.824 230.303C141.039 236.848 132.347 241.053 117.976 254.149C106.616 265.147 100.178 271.393 87.0566 285.958C86.7585 286.289 86.5332 286.688 86.4063 287.115L83.3146 297.515C83.2043 297.885 83.1672 298.279 83.2051 298.664C84.7491 314.358 86.501 322.272 91.3056 334.159L94.7007 340.1C95.5742 341.629 94.9497 343.578 93.3504 344.314L79.5628 350.661C77.9531 351.402 76.0533 350.588 75.4732 348.914C66.1608 322.032 61.2185 306.869 60.5773 292.614C60.5624 292.283 60.6061 291.949 60.703 291.632C63.6889 281.858 66.4744 276.813 72.009 268.268C78.7352 258.731 81.4962 253.486 83.385 244.779C83.436 244.544 83.4594 244.3 83.4461 244.06C83.3764 242.806 83.1434 242.323 82.2679 242.674C82.0122 242.777 81.7891 242.954 81.5916 243.146C63.3025 260.935 53.738 271.914 39.4791 293.912C39.3096 294.173 39.178 294.469 39.097 294.77C33.876 314.164 31.2081 325.565 29.7192 344.047C29.5868 345.69 28.166 346.938 26.5206 346.833L8.70222 345.69C6.80314 345.569 5.49843 343.725 5.99461 341.888C12.5337 317.676 15.01 302.723 19.6555 277.35C19.7284 276.951 19.8852 276.562 20.1087 276.224C32.3522 257.737 40.3467 246.077 42.5935 238.421C42.6477 238.237 42.6797 238.05 42.6951 237.859L44.5546 214.615C43.8368 200.991 43.8568 193.565 40.2972 178.172C40.2093 177.792 40.0424 177.423 39.816 177.105C29.7964 163.031 24.3358 154.882 24.4699 138.416C24.4718 138.18 24.5029 137.939 24.5629 137.711C25.6246 133.665 26.5526 132.529 28.8664 133.349C31.0096 134.109 42.0297 140.889 44.1878 142.222C44.434 142.374 44.6523 142.559 44.8446 142.775L50.3579 148.977C51.3491 150.092 53.0091 150.31 54.2539 149.487L69.6558 139.311C80.7102 133.954 87.2812 131.836 99.7772 129.898C113.853 127.664 121.356 128.183 134.291 131.153C150.615 134.957 159.982 136.575 177.277 138.056C192.389 139.57 200.963 139.036 216.265 135.289C216.418 135.252 216.573 135.2 216.718 135.139C225.582 131.392 230.214 128.588 236.672 121.36C236.818 121.197 236.946 121.016 237.052 120.826C239.787 115.898 242.034 111.358 239.402 105.738Z" fill="#E2A607" stroke="#BC8A07" stroke-linecap="round"/>
<path d="M281.447 133.351C282.679 127.342 283.912 118.835 284.848 111.733C285.107 109.764 288.069 109.736 288.35 111.702C290.409 122.466 291.3 133.264 293.684 147.785C294.93 167.389 295.88 203.007 295.566 203.635C295.252 204.262 293.997 197.987 283.957 185.436C273.916 172.886 278.937 145.588 281.447 133.351Z" fill="white" stroke="white" stroke-linecap="round"/>
<path d="M282.106 15.1216C278.771 21.6956 281.46 33.2349 282.233 36.1836C282.344 36.606 282.716 36.8901 283.152 36.8874C285.9 36.8707 295.776 36.5814 301.353 33.3869C310.402 28.2031 314.698 11.6054 315.683 7.27192C315.812 6.70509 315.427 6.17497 314.848 6.12391C309.727 5.6723 287.557 4.37507 282.106 15.1216Z" fill="#E2A607" stroke="#CF9807"/>
<path d="M302.239 55.5389C304.009 60.6712 306.603 66.6674 309.284 72.8659C309.611 73.6218 309.939 74.3807 310.267 75.1414C313.292 82.1525 316.317 89.3237 318.332 95.7722C320.354 102.245 321.323 107.887 320.336 111.881C319.848 113.857 318.887 115.408 317.348 116.474C315.8 117.546 313.617 118.164 310.623 118.164C304.614 118.164 296.097 115.674 286.659 111.511C277.237 107.355 266.953 101.556 257.43 94.9923C247.905 88.4274 239.158 81.1092 232.798 73.9204C226.419 66.7097 222.52 59.7169 222.52 53.7937C222.52 29.6028 242.131 9.99219 266.322 9.99219C272.356 9.99219 277.098 11.4052 280.949 13.8571C284.803 16.3116 287.796 19.828 290.294 24.084C292.794 28.3429 294.789 33.3247 296.657 38.6923C297.591 41.3749 298.49 44.1479 299.405 46.9717L299.457 47.1324C300.355 49.9027 301.268 52.7205 302.239 55.5389Z" fill="white" stroke="#BC8A07"/>
<path d="M298.756 41.9269C309.832 64.0777 332.774 112.335 316.952 118.664C303.177 118.664 291.915 96.1539 275.023 77.5264C261.912 63.0679 244.17 50.629 241.006 37.9714C241.006 13.5044 243.379 12.6562 259.201 12.6562C283.668 12.6562 287.681 19.7761 298.756 41.9269Z" fill="#E2A607"/>
<path d="M322.237 106.681C322.87 109.762 323.611 114.404 317.917 118.512C314.753 119.54 309.059 119.808 309.059 116.972C309.059 114.135 310.957 110.809 313.488 109.268C316.019 107.727 317.176 105.654 322.237 106.681Z" fill="#131313"/>
<path d="M300.338 45.0956C308.249 68.0374 260.783 64.0819 275.814 66.4552C267.61 69.3854 252.968 53.8026 245.753 56.1709C233.487 60.1968 222.02 69.2023 222.02 53.7976C222.02 29.3306 241.854 9.49609 266.321 9.49609C290.788 9.49609 292.427 22.1537 300.338 45.0956Z" fill="#E2A607"/>
<path d="M229.883 47.905C237.206 47.0598 245.347 38.4511 247.38 36.1796C247.671 35.8543 247.703 35.3877 247.46 35.025C245.931 32.7425 240.241 24.6644 234.5 21.7754C225.184 17.0875 208.971 22.6602 204.813 24.2295C204.269 24.4347 204.039 25.0477 204.316 25.5589C206.764 30.0794 217.913 49.2865 229.883 47.905Z" fill="#E2A607" stroke="#BC8A07"/>
<path d="M226.504 36.528L232.502 32.836C233.105 32.4652 233.142 31.6031 232.574 31.1814L227.408 27.3467" stroke="black" stroke-linecap="round"/>
<ellipse cx="253.663" cy="73.5729" rx="3.1644" ry="5.53769" fill="black"/>
<path d="M111.387 251.637C115.082 257.029 120.531 251.423 121.567 250.268C121.686 250.135 121.811 250.009 121.947 249.894C129.898 243.196 134.796 239.918 144.332 235.321L157.196 229.987C162.694 228.402 165.733 227.661 171.002 226.85L178.846 225.908C183.676 225.901 186.267 226.316 190.769 227.477C194.868 228.764 196.976 229.68 200.496 231.556C204.016 233.433 249.189 236.849 245.992 228.732C242.92 220.933 195.168 200.085 187.632 196.415C166.279 186.015 146.296 191.992 127.702 206.769C115.356 216.58 102.472 238.629 111.387 251.637Z" fill="white" stroke="white" stroke-linecap="round"/>
<path d="M83.3165 360.475C80.953 357.035 76.5568 350.684 76.2628 350.602C75.8593 350.489 95.165 341.139 95.4074 340.99C95.5621 340.895 101.011 344.841 104.93 347.706C106.739 349.028 106.499 351.79 104.494 352.791L87.1376 361.462C85.7953 362.132 84.1662 361.712 83.3165 360.475Z" fill="black" stroke="black" stroke-linecap="round"/>
<path d="M173.677 352.695C175.678 347.021 179.067 337.299 178.874 337.054C178.602 336.707 201.789 341.974 202.102 342.016C202.339 342.048 199.998 350.449 198.847 354.528C198.483 355.817 197.307 356.701 195.968 356.701L176.513 356.701C174.438 356.701 172.987 354.651 173.677 352.695Z" fill="black" stroke="black" stroke-linecap="round"/>
<path d="M243.133 354.188C243.963 349.233 245.354 340.749 245.18 340.516C244.933 340.187 265.188 344.051 265.46 344.074C265.628 344.088 268.573 349.274 270.801 353.241C271.922 355.236 270.477 357.691 268.189 357.691L246.098 357.691C244.239 357.691 242.826 356.021 243.133 354.188Z" fill="black" stroke="black" stroke-linecap="round"/>
<circle cx="117.976" cy="146.525" r="5.334" fill="white"/>
<ellipse cx="93.5019" cy="161.905" rx="2.82388" ry="2.51012" fill="white"/>
<ellipse cx="96.6396" cy="146.217" rx="2.82388" ry="2.51012" fill="white"/>
<ellipse cx="106.994" cy="157.511" rx="4.39271" ry="3.76518" fill="white"/>
<path d="M1.45419 353.109C3.0601 348.986 5.39426 342.866 5.18017 342.663C4.85641 342.355 29.1385 344.508 29.4622 344.508C29.6964 344.508 28.5756 352.39 27.9374 356.753C27.7058 358.336 26.2693 359.45 24.6777 359.29L3.95732 357.206C1.97416 357.007 0.730747 354.966 1.45419 353.109Z" fill="black" stroke="black" stroke-linecap="round"/>
<path d="M78.8518 244.769C78.888 244.072 82.9763 240.699 83.2176 241.318C83.4589 241.936 82.3647 230.543 79.7662 224.061C75.7578 214.062 65.6468 199.901 65.333 198.96C65.0192 198.018 65.6025 217.007 70.3532 227.826C73.3938 234.75 78.8155 245.467 78.8518 244.769Z" fill="white" stroke="white" stroke-linecap="round"/>
<ellipse opacity="0.2" cx="132.348" cy="26.1938" rx="132.348" ry="26.1938" transform="matrix(-1 0 0 1 314.728 336.383)" fill="url(#paint2_radial_3497_615)"/>
<defs>
<radialGradient id="paint0_radial_3497_615" cx="0" cy="0" r="1" gradientUnits="userSpaceOnUse" gradientTransform="translate(468.525 348.83) rotate(90) scale(16.1698 81.6999)">
<stop offset="0.25" stop-color="#494949"/>
<stop offset="1" stop-color="#6C7163" stop-opacity="0"/>
</radialGradient>
<radialGradient id="paint1_radial_3497_615" cx="0" cy="0" r="1" gradientUnits="userSpaceOnUse" gradientTransform="translate(746.481 335.319) rotate(90) scale(17.3186 90.4808)">
<stop offset="0.25" stop-color="#494949"/>
<stop offset="1" stop-color="#6C7163" stop-opacity="0"/>
</radialGradient>
<radialGradient id="paint2_radial_3497_615" cx="0" cy="0" r="1" gradientUnits="userSpaceOnUse" gradientTransform="translate(132.348 26.1938) rotate(90) scale(26.1938 132.348)">
<stop offset="0.25" stop-color="#494949"/>
<stop offset="1" stop-color="#6C7163" stop-opacity="0"/>
</radialGradient>
</defs>
</svg>
