<svg width="62" height="62" viewBox="0 0 62 62" fill="none" xmlns="http://www.w3.org/2000/svg">
<rect width="61.6077" height="61.6077" rx="14.6685" fill="white" fill-opacity="0.75"/>
<g clip-path="url(#clip0_3526_669)">
<path d="M47.4607 15.3501C44.4896 13.9297 41.3037 12.8832 37.9726 12.2838C37.9119 12.2722 37.8513 12.3011 37.82 12.3589C37.4103 13.1183 36.9564 14.1089 36.6386 14.8875C33.0558 14.3286 29.4913 14.3286 25.9819 14.8875C25.6641 14.0916 25.1937 13.1183 24.7821 12.3589C24.7509 12.303 24.6903 12.2741 24.6296 12.2838C21.3003 12.8812 18.1144 13.9278 15.1415 15.3501C15.1158 15.3617 15.0937 15.381 15.0791 15.406C9.03598 24.8133 7.38052 33.9893 8.19263 43.0516C8.19631 43.0959 8.22019 43.1383 8.25327 43.1653C12.2403 46.2162 16.1025 48.0684 19.8929 49.296C19.9536 49.3153 20.0179 49.2922 20.0565 49.2401C20.9531 47.9643 21.7524 46.619 22.4376 45.2043C22.4781 45.1215 22.4395 45.0232 22.3568 44.9904C21.0891 44.4893 19.8819 43.8784 18.7207 43.1845C18.6288 43.1287 18.6215 42.9918 18.706 42.9262C18.9503 42.7354 19.1948 42.5369 19.4281 42.3365C19.4703 42.2999 19.5291 42.2921 19.5788 42.3153C27.2074 45.9445 35.4664 45.9445 43.005 42.3153C43.0547 42.2902 43.1135 42.298 43.1575 42.3346C43.3909 42.535 43.6353 42.7354 43.8815 42.9262C43.966 42.9918 43.9605 43.1287 43.8686 43.1845C42.7074 43.8918 41.5003 44.4893 40.2306 44.9885C40.148 45.0213 40.1112 45.1215 40.1517 45.2043C40.8517 46.6171 41.6509 47.9623 42.531 49.2382C42.5678 49.2922 42.6339 49.3153 42.6946 49.296C46.5034 48.0684 50.3655 46.2162 54.3526 43.1653C54.3875 43.1383 54.4095 43.0978 54.4132 43.0535C55.3852 32.5765 52.7853 23.4757 47.5213 15.4079C47.5084 15.381 47.4864 15.3617 47.4607 15.3501ZM23.5769 37.5336C21.2801 37.5336 19.3877 35.3365 19.3877 32.6382C19.3877 29.9399 21.2434 27.7428 23.5769 27.7428C25.9286 27.7428 27.8028 29.9592 27.766 32.6382C27.766 35.3365 25.9103 37.5336 23.5769 37.5336ZM39.0658 37.5336C36.7691 37.5336 34.8766 35.3365 34.8766 32.6382C34.8766 29.9399 36.7323 27.7428 39.0658 27.7428C41.4176 27.7428 43.2917 29.9592 43.255 32.6382C43.255 35.3365 41.4176 37.5336 39.0658 37.5336Z" fill="#588157"/>
</g>
<defs>
<clipPath id="clip0_3526_669">
<rect x="8" y="12" width="46.6139" height="37.6252" fill="white"/>
</clipPath>
</defs>
</svg>
