<svg width="62" height="62" viewBox="0 0 62 62" fill="none" xmlns="http://www.w3.org/2000/svg">
<path fill-rule="evenodd" clip-rule="evenodd" d="M14.6685 0.0078125C6.56731 0.0078125 0 6.57513 0 14.6763V46.947C0 55.0482 6.56732 61.6155 14.6685 61.6155H46.9392C55.0404 61.6155 61.6077 55.0482 61.6077 46.947V14.6763C61.6077 6.57513 55.0404 0.0078125 46.9392 0.0078125H14.6685ZM37.9726 12.292C41.3037 12.8914 44.4896 13.9379 47.4607 15.3584C47.4864 15.3699 47.5084 15.3892 47.5213 15.4162C52.7853 23.484 55.3852 32.5847 54.4132 43.0617C54.4095 43.106 54.3875 43.1465 54.3526 43.1735C50.3655 46.2244 46.5034 48.0766 42.6946 49.3043C42.6339 49.3236 42.5678 49.3004 42.531 49.2465C41.6509 47.9706 40.8517 46.6253 40.1517 45.2126C40.1112 45.1297 40.148 45.0295 40.2306 44.9967C41.5003 44.4976 42.7074 43.9001 43.8686 43.1928C43.9605 43.1369 43.966 43 43.8815 42.9345C43.6353 42.7437 43.3909 42.5432 43.1575 42.3428C43.1135 42.3062 43.0547 42.2985 43.005 42.3235C35.4664 45.9527 27.2074 45.9527 19.5788 42.3235C19.5291 42.3004 19.4703 42.3081 19.4281 42.3447C19.1948 42.5452 18.9503 42.7437 18.706 42.9345C18.6215 43 18.6288 43.1369 18.7207 43.1928C19.8819 43.8866 21.0891 44.4976 22.3568 44.9987C22.4395 45.0314 22.4781 45.1297 22.4376 45.2126C21.7524 46.6273 20.9531 47.9725 20.0565 49.2484C20.0179 49.3004 19.9536 49.3236 19.8929 49.3043C16.1025 48.0766 12.2403 46.2244 8.25327 43.1735C8.22019 43.1465 8.19631 43.1041 8.19263 43.0598C7.38052 33.9975 9.03598 24.8215 15.0791 15.4143C15.0937 15.3892 15.1158 15.3699 15.1415 15.3584C18.1144 13.936 21.3003 12.8895 24.6296 12.292C24.6903 12.2824 24.7509 12.3113 24.7821 12.3672C25.1937 13.1265 25.6641 14.0998 25.9819 14.8958C29.4913 14.3369 33.0558 14.3369 36.6386 14.8958C36.9564 14.1171 37.4103 13.1265 37.82 12.3672C37.8513 12.3093 37.9119 12.2804 37.9726 12.292ZM19.3877 32.6464C19.3877 35.3447 21.2801 37.5418 23.5769 37.5418C25.9103 37.5418 27.766 35.3447 27.766 32.6464C27.8028 29.9675 25.9286 27.7511 23.5769 27.7511C21.2434 27.7511 19.3877 29.9482 19.3877 32.6464ZM34.8766 32.6464C34.8766 35.3447 36.7691 37.5418 39.0658 37.5418C41.4176 37.5418 43.255 35.3447 43.255 32.6464C43.2917 29.9675 41.4176 27.7511 39.0658 27.7511C36.7323 27.7511 34.8766 29.9482 34.8766 32.6464Z" fill="#375C36"/>
</svg>
