<svg width="29" height="29" viewBox="0 0 29 29" fill="none" xmlns="http://www.w3.org/2000/svg">
<path fill-rule="evenodd" clip-rule="evenodd" d="M6.87496 0C3.07802 0 0 3.07803 0 6.87497V21.9999C0 25.7968 3.07803 28.8748 6.87497 28.8748H21.9999C25.7968 28.8748 28.8748 25.7968 28.8748 21.9999V6.87496C28.8748 3.07802 25.7968 0 21.9999 0H6.87496ZM23.3108 7.41941C22.9527 7.05646 22.5159 6.87499 22.0003 6.87499H7.34799C6.83237 6.87499 6.39553 7.05646 6.03745 7.41941C5.67938 7.78235 5.50035 8.22515 5.50035 8.74779V19.8975C5.50035 20.4201 5.67938 20.8629 6.03745 21.2259C6.39553 21.5888 6.83237 21.7703 7.34799 21.7703H22.0003C22.5159 21.7703 22.9527 21.5888 23.3108 21.2259C23.6689 20.8629 23.8479 20.4201 23.8479 19.8975V8.74779C23.8479 8.22515 23.6689 7.78235 23.3108 7.41941ZM22.0003 8.74779V10.6206L14.6526 15.2373L7.34799 10.6206V8.74779L14.6526 13.408L22.0003 8.74779Z" fill="#EBEBEB"/>
</svg>
