<svg width="63" height="62" viewBox="0 0 63 62" fill="none" xmlns="http://www.w3.org/2000/svg">
<path d="M11.9285 0.0078125C5.65726 0.0078125 0.607666 4.97595 0.607666 11.146V49.8695C0.607666 56.0396 5.65726 61.0077 11.9285 61.0077H33.2604V37.1606H26.8512V28.5748H33.2604V21.2396C33.2604 15.4766 37.0473 10.1853 45.7708 10.1853C49.3028 10.1853 51.9146 10.5189 51.9146 10.5189L51.7092 18.5366C51.7092 18.5366 49.0455 18.5118 46.1389 18.5118C42.9931 18.5118 42.4887 19.9379 42.4887 22.3053V28.5749H51.9592L51.5465 37.1606H42.4887V61.0078H51.2868C57.5581 61.0078 62.6077 56.0397 62.6077 49.8696V11.1461C62.6077 4.97601 57.5581 0.0078735 51.2868 0.0078735L11.9285 0.0078125Z" fill="#375C36"/>
</svg>
