<svg width="526" height="640" viewBox="0 0 526 640" fill="none" xmlns="http://www.w3.org/2000/svg">
<g clip-path="url(#clip0)">
<g filter="url(#filter0_d)">
<path fill-rule="evenodd" clip-rule="evenodd" d="M381.72 411.811C404.573 433.019 358.467 516.679 318.371 559.884C278.275 603.089 223.026 632.831 204.393 599.712C199.193 590.47 210.478 563.788 225.446 528.396C229.064 519.843 232.896 510.78 236.763 501.333L253.989 491.89L241.104 490.585C244.282 482.599 247.438 474.385 250.471 466.009C290.567 422.804 358.867 390.602 381.72 411.811Z" fill="#EBEBEB"/>
<path d="M263.558 591.214L330.097 444.336L342.554 450.643L263.558 591.214Z" fill="#DEDEDE"/>
<path d="M231.223 609.743L298.194 463.083L309.787 468.953L231.223 609.743Z" fill="#DEDEDE"/>
<path d="M308.295 557.768L365.77 426.9L379.752 433.979L308.295 557.768Z" fill="#DEDEDE"/>
<path d="M227.134 569.931L285.353 439.44L297.847 445.765L227.134 569.931Z" fill="#DEDEDE"/>
<path d="M390.636 290.144C413.181 331.98 415.868 374.296 396.637 384.659C377.407 395.022 351.747 385.804 329.202 343.969C321.537 290.194 307.357 241.812 314.995 233.158C332.878 212.896 368.091 248.309 390.636 290.144Z" fill="#EBEBEB"/>
<path d="M331.016 244.774L380.385 342.183L368.422 347.373L331.016 244.774Z" fill="#DEDEDE"/>
<path d="M323.697 269.583L368.116 355.582L356.153 360.773L323.697 269.583Z" fill="#DEDEDE"/>
<path d="M354.346 253.156L398.765 339.156L386.802 344.346L354.346 253.156Z" fill="#DEDEDE"/>
<path d="M196.225 430.532C201.112 449.305 183.389 462.491 147.093 471.939C110.796 481.387 54.7876 476.029 65.9171 465.627C147.811 423.33 107.71 433.769 144.006 424.321C180.302 414.873 191.339 411.76 196.225 430.532Z" fill="#EBEBEB"/>
<path d="M87.7974 461.351L161.082 445.135L162.196 452.149L87.7974 461.351Z" fill="#DEDEDE"/>
<path d="M106.243 467.89L171.104 453.123L172.217 460.137L106.243 467.89Z" fill="#DEDEDE"/>
<path d="M102.118 451.335L166.978 436.569L168.092 443.583L102.118 451.335Z" fill="#DEDEDE"/>
<path d="M87.8976 15.2238C2.95858 96.1139 73.8318 103.352 9.67649 149.452C-20.2776 216.239 16.244 225.828 -5.23184 216.196C-26.7077 206.564 -51.3959 194.939 -21.4418 128.151C8.5123 61.3636 31.6577 41.9956 87.8976 15.2238Z" fill="#EBEBEB"/>
<path d="M59.493 84.3558C47.2861 79.8685 43.787 68.7025 43.5633 63.6804L-20.1253 166.629L9.75079 252.672C11.7778 243.6 23.6204 221.152 54.7752 203.937C85.9299 186.722 91.7259 167.533 90.7296 160.09C76.2434 168.747 70.0199 168.058 68.719 166.631C75.264 161.402 79.9663 159.861 81.4993 159.744C71.0166 151.348 39.4485 152.79 24.9748 154.561C49.949 94.2869 48.303 104.395 59.493 84.3558Z" fill="#EBEBEB"/>
<path d="M53.4027 37.4443L-17.0184 165.144L-25.6108 160.013L53.4027 37.4443Z" fill="#DEDEDE"/>
<path d="M35.6512 93.5089L-22.2626 201.562L-32 195.748L35.6512 93.5089Z" fill="#DEDEDE"/>
<path d="M57.51 160.833L-10.9343 194.888L-15.9859 181.874L57.51 160.833Z" fill="#DEDEDE"/>
<path d="M40.0176 187.001L-15.0351 222.024L-21.2402 209.47L40.0176 187.001Z" fill="#DEDEDE"/>
<path d="M44.8818 198.512L-10.1708 233.535L-16.3759 220.981L44.8818 198.512Z" fill="#DEDEDE"/>
<ellipse cx="203.431" cy="390.544" rx="184.158" ry="75.7737" transform="rotate(12.3611 203.431 390.544)" fill="#FFFFF4"/>
<ellipse cx="367.353" cy="406.255" rx="103.938" ry="52.9908" transform="rotate(-13.5504 367.353 406.255)" fill="#FFFFF4"/>
<ellipse cx="409.341" cy="392.418" rx="103.938" ry="52.9908" transform="rotate(-22.6934 409.341 392.418)" fill="#FFFFF4"/>
<path d="M383.418 309.324C300.434 287.225 134.861 282.785 62.4468 283.327L78.4545 347.584L368.507 397.159L481.469 336.284C450.096 308.078 403.029 306.558 383.418 309.324Z" fill="#FFFFF4"/>
<path d="M134.409 427.912C63.4115 439.314 -17.1157 363.307 -33.14 263.526C-49.1644 163.746 -23.3416 152.702 -14.3379 152.913C10.6024 153.5 -0.945574 201.752 30.821 252.839C59.8903 299.587 238.107 352.261 134.409 427.912Z" fill="#FFFFF4"/>
<path fill-rule="evenodd" clip-rule="evenodd" d="M282.589 474.293C282.368 472.413 282.005 470.512 281.639 468.6C280.559 462.949 279.461 457.202 281.946 451.632C283.942 447.159 288.747 443.893 293.565 440.62C298.251 437.436 302.948 434.244 305.083 429.925C309.34 421.315 308.61 411.879 305.268 404.461C303.432 400.387 299.352 397.917 295.241 395.429C291.96 393.443 288.66 391.446 286.468 388.612C284.337 385.859 283.407 382.406 282.481 378.973C281.335 374.721 280.197 370.5 276.799 367.674C273.404 364.849 268.442 363.982 263.447 363.11C259.318 362.389 255.166 361.664 251.86 359.825C247.606 357.46 244.492 353.016 241.441 348.663C236.486 341.59 231.698 334.757 222.462 337.465C212.93 340.26 209.43 349.257 205.8 358.592C203.361 364.86 200.864 371.28 196.441 376.076C191.26 381.693 184.127 385.523 177.06 389.317C175.429 390.192 173.802 391.066 172.203 391.959C167.862 394.384 162.349 395.956 156.909 397.507C147.331 400.237 137.976 402.904 135.622 410.052C133.229 417.319 139.556 421.607 146.107 426.047C150.786 429.219 155.58 432.468 157.394 436.935C159.059 441.036 157.974 445.856 156.881 450.714C156.448 452.637 156.014 454.567 155.748 456.46C165.88 459.471 176.393 462.187 187.216 464.559C221.267 472.021 253.961 475.107 282.589 474.293Z" fill="url(#paint0_linear)"/>
<ellipse cx="420.153" cy="417.206" rx="10.7714" ry="6.08818" transform="rotate(-15.8305 420.153 417.206)" fill="#8D8D8D"/>
<path d="M165.689 271.022C192.113 296.363 225.408 312.078 238.753 316.767C50.3966 324.214 -9.43645 302.62 -24.6958 297.012C-54.3727 258.741 -42.0035 244.627 -37.2325 220.244C-36.5785 258.196 -16.8398 286.926 8.81598 293.848C32.0882 303.864 67.6355 300.986 82.5001 298.296C92.8985 282.052 112.734 284.308 121.352 287.467C141.341 266.906 159.239 267.937 165.689 271.022Z" fill="#EBEBEB"/>
<path fill-rule="evenodd" clip-rule="evenodd" d="M3.60211 292.111C3.56789 292.163 3.51344 292.201 3.44772 292.212L-24.3904 297.124C-24.4942 297.086 -24.596 297.048 -24.6959 297.011C-24.7664 296.921 -24.8366 296.83 -24.9067 296.739L2.91369 291.831C3.14257 291.926 3.37205 292.019 3.60211 292.111Z" fill="#DEDEDE"/>
<path fill-rule="evenodd" clip-rule="evenodd" d="M89.2207 316.145L86.8393 306.948L91.2881 316.272C90.5952 316.23 89.906 316.188 89.2207 316.145ZM100.701 316.795L96.5588 301.492L103.727 316.945C102.711 316.896 101.702 316.846 100.701 316.795ZM112.058 317.311L106.864 297.25L116.516 317.481C115.015 317.427 113.529 317.37 112.058 317.311ZM138.322 318.072L132.605 295.99L143.179 318.153C141.545 318.129 139.926 318.102 138.322 318.072ZM154.447 318.276L146.331 288.286L160.256 318.305C158.3 318.299 156.364 318.289 154.447 318.276ZM170.202 318.303L160.88 282.298L178.036 318.258C175.392 318.28 172.781 318.295 170.202 318.303Z" fill="#DEDEDE"/>
<path fill-rule="evenodd" clip-rule="evenodd" d="M42.9949 266.535C42.4172 266.887 41.8415 267.244 41.2666 267.6C36.389 270.625 31.5666 273.616 26.0633 272.844C21.0847 272.145 17.7007 268.34 14.2499 264.459C12.124 262.068 9.97268 259.648 7.40754 257.909C4.75012 256.108 1.77905 254.856 -1.1671 253.614C-5.58125 251.754 -9.93944 249.917 -13.1029 246.291C-19.4627 239.002 -25.2071 230.222 -25.1896 220.547C-25.1712 210.401 -21.2432 199.248 -13.0072 193.343C-8.15692 189.866 -2.14572 190.413 3.99071 190.971C5.10315 191.072 6.21971 191.174 7.33422 191.252C11.3322 208.749 16.9436 230.523 30.8196 252.838C33.6213 257.344 37.8084 261.904 42.9949 266.535Z" fill="url(#paint1_linear)"/>
<path fill-rule="evenodd" clip-rule="evenodd" d="M327.106 298.368C348.128 301.417 367.327 305.039 383.419 309.324C394.472 307.766 414.244 307.568 435.013 312.741C434.308 314.593 433.697 316.53 433.085 318.471C431.12 324.708 429.142 330.981 423.984 334.585C419.644 337.617 414.256 337.363 408.787 337.104C405.316 336.941 401.811 336.775 398.521 337.448C395.278 338.11 392.044 339.901 388.854 341.668C383.52 344.621 378.312 347.505 373.408 344.921C368.842 342.516 367.974 337.005 367.089 331.39C366.296 326.359 365.49 321.245 362 318.206C358.372 315.047 353.243 314.822 348.137 314.598C342.827 314.364 337.54 314.132 333.994 310.602C330.813 307.434 328.349 303.024 327.106 298.368Z" fill="url(#paint2_linear)"/>
</g>
</g>
<defs>
<filter id="filter0_d" x="-69.9952" y="-6.69104" width="605.974" height="658.477" filterUnits="userSpaceOnUse" color-interpolation-filters="sRGB">
<feFlood flood-opacity="0" result="BackgroundImageFix"/>
<feColorMatrix in="SourceAlpha" type="matrix" values="0 0 0 0 0 0 0 0 0 0 0 0 0 0 0 0 0 0 127 0" result="hardAlpha"/>
<feOffset dx="0.936644" dy="14.9863"/>
<feGaussianBlur stdDeviation="4.68322"/>
<feComposite in2="hardAlpha" operator="out"/>
<feColorMatrix type="matrix" values="0 0 0 0 0.591146 0 0 0 0 0.693118 0 0 0 0 0.945833 0 0 0 1 0"/>
<feBlend mode="normal" in2="BackgroundImageFix" result="effect1_dropShadow"/>
<feBlend mode="normal" in="SourceGraphic" in2="effect1_dropShadow" result="shape"/>
</filter>
<linearGradient id="paint0_linear" x1="189.683" y1="354.675" x2="260.546" y2="486.172" gradientUnits="userSpaceOnUse">
<stop stop-color="#D0442C" stop-opacity="0.2"/>
<stop offset="1" stop-color="#D0442C"/>
</linearGradient>
<linearGradient id="paint1_linear" x1="8.61894" y1="191.818" x2="-20.8211" y2="287.009" gradientUnits="userSpaceOnUse">
<stop stop-color="#DA6A55"/>
<stop offset="1" stop-color="#DC7763" stop-opacity="0.3"/>
</linearGradient>
<linearGradient id="paint2_linear" x1="375.335" y1="284.962" x2="355.154" y2="399.784" gradientUnits="userSpaceOnUse">
<stop stop-color="#DA6D58"/>
<stop offset="1" stop-color="#E59888" stop-opacity="0.2"/>
</linearGradient>
<clipPath id="clip0">
<rect width="526" height="640" fill="white" transform="translate(0.000488281)"/>
</clipPath>
</defs>
</svg>
