<svg width="63" height="62" viewBox="0 0 63 62" fill="none" xmlns="http://www.w3.org/2000/svg">
<path fill-rule="evenodd" clip-rule="evenodd" d="M15.2762 0.0078125C7.17498 0.0078125 0.607666 6.57513 0.607666 14.6763V46.947C0.607666 55.0482 7.17499 61.6155 15.2762 61.6155H47.5469C55.6481 61.6155 62.2154 55.0482 62.2154 46.947V14.6763C62.2154 6.57513 55.648 0.0078125 47.5469 0.0078125H15.2762ZM49.8963 17.2711C49.1324 16.5695 48.2003 16.2188 47.1002 16.2188H15.8379C14.7378 16.2188 13.8057 16.5695 13.0417 17.2711C12.2777 17.9726 11.8958 18.8285 11.8958 19.8387V41.39C11.8958 42.4002 12.2777 43.2561 13.0417 43.9576C13.8057 44.6592 14.7378 45.0099 15.8379 45.0099H47.1002C48.2003 45.0099 49.1324 44.6592 49.8963 43.9576C50.6603 43.2561 51.0423 42.4002 51.0423 41.39V19.8387C51.0423 18.8285 50.6603 17.9726 49.8963 17.2711ZM47.1002 19.8387V23.4586L31.4232 32.3822L15.8379 23.4586V19.8387L31.4232 28.8465L47.1002 19.8387Z" fill="#375C36"/>
</svg>
