<svg width="248" height="455" viewBox="0 0 248 455" fill="none" xmlns="http://www.w3.org/2000/svg">
<path opacity="0.6" d="M188.628 303.088C234.392 331.852 231.311 365.698 211.424 397.339C191.537 428.979 162.375 446.432 116.611 417.668C70.8469 388.903 41.9131 340.735 54.192 298.513C86.4512 273.799 142.864 274.324 188.628 303.088Z" fill="url(#paint0_linear_1_1140)"/>
<path opacity="0.6" d="M43.0139 26.1952C63.0133 5.80816 80.1385 11.2084 94.2336 25.0356C108.329 38.8627 114.056 55.8807 94.0569 76.2678C74.0574 96.6548 45.9353 106.17 25.5217 95.0791C16.3945 75.6447 23.0144 46.5822 43.0139 26.1952Z" fill="url(#paint1_linear_1_1140)"/>
<path opacity="0.6" d="M229.637 145.715C243.178 180.776 227.385 198.356 203.144 207.718C178.904 217.08 155.395 214.679 141.854 179.617C128.313 144.556 132.22 105.68 156.622 87.2579C184.877 86.901 216.096 110.654 229.637 145.715Z" fill="url(#paint2_linear_1_1140)"/>
<defs>
<linearGradient id="paint0_linear_1_1140" x1="25.4893" y1="306.769" x2="188.606" y2="340.403" gradientUnits="userSpaceOnUse">
<stop stop-color="#E04191"/>
<stop offset="1" stop-color="#F7E3D8"/>
</linearGradient>
<linearGradient id="paint1_linear_1_1140" x1="26.5528" y1="110.825" x2="62.2741" y2="30.4063" gradientUnits="userSpaceOnUse">
<stop stop-color="#E04191"/>
<stop offset="1" stop-color="#F7E3D8"/>
</linearGradient>
<linearGradient id="paint2_linear_1_1140" x1="137.193" y1="79.9218" x2="214.107" y2="166.5" gradientUnits="userSpaceOnUse">
<stop stop-color="#E04191"/>
<stop offset="1" stop-color="#F7E3D8"/>
</linearGradient>
</defs>
</svg>
