<svg width="1402" height="565" viewBox="0 0 1402 565" fill="none" xmlns="http://www.w3.org/2000/svg">
<path fill-rule="evenodd" clip-rule="evenodd" d="M30.1531 5.78345C32.8837 -1.92782 45.6282 -1.92782 48.3589 5.78345L78.096 89.7607C79.9493 94.9944 75.3774 100.275 68.9931 100.275C63.9526 100.275 59.8664 103.776 59.8664 108.094V113.824C90.8679 117.871 121.65 122.23 152.2 126.895V125.301C152.2 120.983 148.114 117.482 143.073 117.482C136.689 117.482 132.117 112.201 133.971 106.968L163.708 22.9905C166.438 15.2792 179.183 15.2792 181.914 22.9905L211.651 106.968C213.504 112.201 208.932 117.482 202.548 117.482C197.507 117.482 193.421 120.983 193.421 125.301V133.398C219.901 137.709 246.2 142.252 272.312 147.02V140.69C272.312 136.372 268.225 132.871 263.185 132.871C256.801 132.871 252.229 127.59 254.082 122.356L283.819 38.3791C286.55 30.6679 299.294 30.6679 302.025 38.3791L331.762 122.356C333.615 127.59 329.043 132.871 322.659 132.871C317.619 132.871 313.532 136.372 313.532 140.69V154.767C341.236 160.12 368.72 165.73 395.975 171.591V170.57C395.975 166.252 391.889 162.752 386.848 162.752C380.464 162.752 375.892 157.471 377.745 152.237L407.482 68.26C410.213 60.5487 422.958 60.5487 425.688 68.26L455.425 152.237C457.279 157.471 452.707 162.752 446.322 162.752C441.282 162.752 437.196 166.252 437.196 170.57V180.685C463.85 186.716 490.276 192.989 516.466 199.499V195.017C516.466 190.699 512.38 187.198 507.34 187.198C500.955 187.198 496.384 181.917 498.237 176.684L527.974 92.7063C530.705 84.995 543.449 84.995 546.18 92.7063L575.917 176.684C577.77 181.917 573.198 187.198 566.814 187.198C561.773 187.198 557.687 190.699 557.687 195.017V209.991C584.369 216.943 610.796 224.143 636.958 231.585V224.897C636.958 220.579 632.872 217.078 627.831 217.078C621.447 217.078 616.875 211.797 618.728 206.563L648.466 122.586C651.196 114.875 663.941 114.875 666.671 122.586L696.409 206.563C698.262 211.797 693.69 217.078 687.306 217.078C682.265 217.078 678.179 220.579 678.179 224.897V243.577C704.894 251.522 731.321 259.723 757.45 268.174V257.492C757.45 253.174 753.363 249.674 748.323 249.674C741.939 249.674 737.367 244.393 739.22 239.159L768.957 155.182C771.688 147.471 784.432 147.471 787.163 155.182L816.9 239.159C818.753 244.393 814.181 249.674 807.797 249.674C802.757 249.674 798.67 253.174 798.67 257.492V281.795C821.099 289.367 843.297 297.124 865.258 305.063V281.94C865.258 277.622 861.172 274.121 856.132 274.121C849.747 274.121 845.176 268.84 847.029 263.606L876.766 179.629C879.497 171.918 892.241 171.918 894.972 179.629L924.709 263.606C926.562 268.84 921.99 274.121 915.606 274.121C910.565 274.121 906.479 277.622 906.479 281.94V320.283C934.365 330.798 961.851 341.61 988.921 352.712V333.551C988.921 329.233 984.835 325.732 979.794 325.732C973.41 325.732 968.838 320.451 970.691 315.218L1000.43 231.24C1003.16 223.529 1015.9 223.529 1018.63 231.24L1048.37 315.218C1050.22 320.451 1045.65 325.732 1039.27 325.732C1034.23 325.732 1030.14 329.233 1030.14 333.551V369.978C1059.19 382.403 1087.73 395.166 1115.75 408.258V387.877C1115.75 383.559 1111.67 380.059 1106.63 380.059C1100.24 380.059 1095.67 374.778 1097.52 369.544L1127.26 285.567C1129.99 277.855 1142.74 277.855 1145.47 285.567L1175.2 369.544C1177.06 374.778 1172.49 380.059 1166.1 380.059C1161.06 380.059 1156.97 383.559 1156.97 387.877V427.937C1179.53 438.941 1201.73 450.161 1223.56 461.593V444.92C1223.56 440.602 1219.48 437.102 1214.44 437.102C1208.05 437.102 1203.48 431.821 1205.33 426.587L1235.07 342.61C1237.8 334.898 1250.55 334.898 1253.28 342.61L1283.01 426.587C1284.87 431.821 1280.29 437.102 1273.91 437.102C1268.87 437.102 1264.78 440.602 1264.78 444.92V483.67C1284.12 494.262 1303.15 505.023 1321.86 515.95V499.248C1321.86 494.93 1317.77 491.43 1312.73 491.43C1306.35 491.43 1301.78 486.149 1303.63 480.915L1333.37 396.938C1336.1 389.226 1348.84 389.226 1351.57 396.938L1381.31 480.915C1383.16 486.149 1378.59 491.43 1372.21 491.43C1367.17 491.43 1363.08 494.93 1363.08 499.248V540.603C1376.22 548.652 1389.19 556.785 1401.99 565.001H0V106.43C6.22363 107.155 12.4389 107.892 18.6456 108.643V108.094C18.6456 103.776 14.5594 100.275 9.51883 100.275C3.13455 100.275 -1.43733 94.9944 0.415966 89.7607L30.1531 5.78345Z" fill="#588157"/>
</svg>
