<svg width="65" height="63" viewBox="0 0 65 63" fill="none" xmlns="http://www.w3.org/2000/svg">
<path d="M64.0317 18.3074C63.9959 15.7042 63.4918 13.1268 62.5421 10.6906C61.7185 8.63568 60.4606 6.76944 58.8488 5.21113C57.237 3.65282 55.3067 2.4367 53.1812 1.64048C50.6937 0.737724 48.0658 0.249589 45.4094 0.196858C41.9893 0.049059 40.905 0.0078125 32.2231 0.0078125C23.5412 0.0078125 22.4284 0.00781273 19.0332 0.196858C16.378 0.249976 13.7513 0.738105 11.265 1.64048C9.13917 2.43615 7.20855 3.65207 5.59665 5.21045C3.98475 6.76883 2.72706 8.63536 1.90407 10.6906C0.96844 13.0936 0.464636 15.6337 0.414425 18.2009C0.26155 21.5109 0.215332 22.5592 0.215332 30.9528C0.215332 39.3464 0.215332 40.4188 0.414425 43.7048C0.467753 46.2758 0.969041 48.8125 1.90407 51.2219C2.72845 53.2765 3.98706 55.1423 5.5995 56.7C7.21194 58.2577 9.14275 59.4732 11.2685 60.2686C13.7481 61.2076 16.3752 61.7307 19.0367 61.8153C22.4604 61.9631 23.5448 62.0078 32.2266 62.0078C40.9085 62.0078 42.0213 62.0078 45.4166 61.8153C48.0729 61.7648 50.7009 61.2778 53.1883 60.3752C55.3132 59.578 57.2431 58.3616 58.8548 56.8034C60.4665 55.2452 61.7247 53.3794 62.5492 51.325C63.4842 48.919 63.9855 46.3824 64.0389 43.8079C64.1917 40.5013 64.2379 39.453 64.2379 31.0559C64.2308 22.6623 64.2308 21.5968 64.0317 18.3074ZM32.2018 46.8258C23.1217 46.8258 15.7659 39.7142 15.7659 30.9356C15.7659 22.1571 23.1217 15.0455 32.2018 15.0455C36.5608 15.0455 40.7413 16.7196 43.8236 19.6996C46.906 22.6796 48.6376 26.7213 48.6376 30.9356C48.6376 35.15 46.906 39.1917 43.8236 42.1716C40.7413 45.1516 36.5608 46.8258 32.2018 46.8258ZM49.2918 18.163C47.1693 18.163 45.4592 16.5063 45.4592 14.4578C45.4592 13.9714 45.5583 13.4898 45.7508 13.0405C45.9433 12.5911 46.2255 12.1828 46.5812 11.8389C46.9369 11.495 47.3592 11.2222 47.824 11.0361C48.2888 10.85 48.7869 10.7542 49.29 10.7542C49.793 10.7542 50.2912 10.85 50.7559 11.0361C51.2207 11.2222 51.643 11.495 51.9987 11.8389C52.3545 12.1828 52.6366 12.5911 52.8291 13.0405C53.0217 13.4898 53.1207 13.9714 53.1207 14.4578C53.1207 16.5063 51.4071 18.163 49.2918 18.163Z" fill="#375C36"/>
<path d="M32.2027 41.2574C38.0991 41.2574 42.8791 36.6361 42.8791 30.9354C42.8791 25.2346 38.0991 20.6133 32.2027 20.6133C26.3063 20.6133 21.5264 25.2346 21.5264 30.9354C21.5264 36.6361 26.3063 41.2574 32.2027 41.2574Z" fill="#375C36"/>
</svg>
