<svg width="63" height="62" viewBox="0 0 63 62" fill="none" xmlns="http://www.w3.org/2000/svg">
<path d="M12.7573 0.0078125C6.07598 0.0078125 0.607666 5.3878 0.607666 11.9615V49.056C0.607666 55.6297 6.07585 61.0078 12.7573 61.0078H50.46C57.1414 61.0078 62.6077 55.6297 62.6077 49.056V11.9615C62.6077 5.38792 57.1414 0.0078125 50.46 0.0078125H12.7573ZM15.8132 10.074C19.0168 10.074 20.99 12.1432 21.0509 14.8631C21.0509 17.523 19.0166 19.6503 15.7512 19.6503H15.6911C12.5485 19.6503 10.5173 17.5231 10.5173 14.8631C10.5173 12.1433 12.61 10.074 15.8131 10.074H15.8132ZM43.4202 22.7865C49.5813 22.7865 54.1999 26.7485 54.1999 35.2626V51.1569H44.8367V36.3282C44.8367 32.6019 43.4816 30.0597 40.0931 30.0597C37.5064 30.0597 35.9645 31.7732 35.2875 33.4285C35.0402 34.0207 34.9794 34.8478 34.9794 35.6762V51.1569H25.6163C25.6163 51.1569 25.7391 26.0375 25.6163 23.4366H34.9814V27.362C36.2256 25.4733 38.4513 22.7864 43.4202 22.7864V22.7865ZM11.0696 23.4386H20.4328V51.157H11.0696V23.4386Z" fill="#375C36"/>
</svg>
