<svg width="26" height="34" viewBox="0 0 26 34" fill="none" xmlns="http://www.w3.org/2000/svg">
<path d="M13 0C9.55344 0.00417771 6.2492 1.41279 3.81211 3.91683C1.37502 6.42088 0.00407984 9.81589 1.38307e-05 13.3571C-0.00411413 16.2511 0.915899 19.0665 2.61892 21.3714C2.61892 21.3714 2.97347 21.8511 3.03137 21.9203L13 34L22.9734 21.9142C23.0254 21.8499 23.3811 21.3714 23.3811 21.3714L23.3823 21.3678C25.0844 19.0638 26.004 16.2497 26 13.3571C25.9959 9.81589 24.625 6.42088 22.1879 3.91683C19.7508 1.41279 16.4466 0.00417771 13 0ZM13 18.2143C12.065 18.2143 11.1511 17.9294 10.3737 17.3957C9.59628 16.862 8.99037 16.1034 8.63257 15.2159C8.27478 14.3284 8.18116 13.3518 8.36357 12.4096C8.54597 11.4674 8.9962 10.6019 9.65732 9.92262C10.3184 9.24334 11.1608 8.78074 12.0778 8.59333C12.9948 8.40591 13.9453 8.5021 14.809 8.86973C15.6728 9.23735 16.4111 9.85991 16.9306 10.6587C17.45 11.4574 17.7273 12.3965 17.7273 13.3571C17.7257 14.6448 17.2272 15.8793 16.341 16.7899C15.4548 17.7004 14.2533 18.2127 13 18.2143Z" fill="#F2A7AD"/>
</svg>
