<svg width="805" height="653" viewBox="0 0 805 653" fill="none" xmlns="http://www.w3.org/2000/svg">
<path fill-rule="evenodd" clip-rule="evenodd" d="M999.087 497.876C1001.67 491.86 1003 485.727 1003 479.5C1003 400.799 790.335 337 528 337C265.665 337 53 400.799 53 479.5C53 481.673 53.1622 483.835 53.483 485.984C53.0291 493.283 53 501.424 53 510.5C53 589.201 265.665 653 528 653C790.335 653 1003 589.201 1003 510.5C1003 506.073 1001.66 501.869 999.087 497.876Z" fill="url(#paint0_radial)"/>
<path d="M1018 462.5C1018 541.201 813.394 605 561 605C308.606 605 104 541.201 104 462.5C104 383.799 106.106 375.5 358.5 375.5C1052.5 338.5 1018 383.799 1018 462.5Z" fill="url(#paint1_radial)"/>
<ellipse cx="561" cy="431.5" rx="457" ry="142.5" fill="url(#paint2_radial)"/>
<path fill-rule="evenodd" clip-rule="evenodd" d="M836.5 576.205V546V543.379L834.682 541.492C782.675 487.474 746.127 459.245 716.656 442.014C696.292 430.108 679.081 423.396 663.179 417.195L663.179 417.195C657.332 414.915 651.662 412.703 646.077 410.329C646.312 409.148 647.177 407.164 649.784 404.047C654.081 398.909 661.527 392.773 671.672 386.02C691.837 372.597 721.093 357.757 752.353 344.483C778.591 333.341 806.019 323.396 830.355 316.37C821.901 314.444 813.227 312.606 804.347 310.861C785.676 317.075 766.139 324.505 747.272 332.517C715.636 345.951 685.569 361.153 664.469 375.198C653.981 382.18 645.309 389.135 639.812 395.707C636.609 399.536 633.678 404.264 633.064 409.235C563.371 416.501 461.204 428.615 370.592 443.562C323.81 451.279 279.978 459.772 245.241 468.773C227.879 473.272 212.661 477.931 200.427 482.73C188.382 487.455 178.531 492.576 172.522 498.289L170.824 499.903L170.546 502.229L166.684 534.576C170.384 536.54 174.23 538.474 178.219 540.376C178.874 539.496 179.315 538.438 179.454 537.271L183.157 506.256C187.558 502.743 194.868 498.876 205.174 494.833C216.735 490.297 231.403 485.789 248.502 481.358C282.688 472.499 326.081 464.08 372.708 456.388C453.587 443.047 543.804 431.958 611.732 424.58C594.373 435.928 574.229 450.989 554.882 468.92C524.854 496.749 496.21 531.984 483.321 571.483L483 572.466V573.5V602C483 602.318 483.023 602.63 483.067 602.936C487.295 603.163 491.544 603.371 495.811 603.561C495.935 603.061 496 602.538 496 602V574.545C508.067 538.422 534.706 505.343 563.718 478.455C591.6 452.614 621.187 432.94 640.807 422.216C647.158 424.929 653.305 427.323 659.477 429.726C674.97 435.758 690.627 441.855 710.094 453.236C737.874 469.478 772.985 496.381 823.5 548.624V579.162C827.891 578.199 832.225 577.214 836.5 576.205Z" fill="white" fill-opacity="0.2"/>
<ellipse cx="399" cy="374.5" rx="399" ry="134.5" fill="url(#paint3_radial)"/>
<path d="M284.257 289.289C332.731 280.684 351.366 305.401 357.315 338.916C363.264 372.43 354.274 402.05 305.8 410.654C257.325 419.259 208.328 404.473 190.772 368.478C197.407 332.064 235.782 297.893 284.257 289.289Z" fill="url(#paint4_linear)"/>
<path d="M560.681 406.264C514.222 389.972 510.115 359.291 521.379 327.17C532.642 295.05 555.011 273.654 601.47 289.945C647.928 306.237 683.364 343.164 680.996 383.143C657.345 411.614 607.139 422.555 560.681 406.264Z" fill="url(#paint5_linear)"/>
<path d="M528.555 363.166C498.536 335.607 474.557 344.557 455.53 365.283C436.502 386.009 429.632 410.663 459.651 438.223C489.671 465.782 530.437 477.262 558.668 459.967C570.198 431.622 558.575 390.725 528.555 363.166Z" fill="url(#paint6_linear)"/>
<path d="M528.555 363.166C498.536 335.607 474.557 344.557 455.53 365.283C436.502 386.009 429.632 410.663 459.651 438.223C489.671 465.782 530.437 477.262 558.668 459.967C570.198 431.622 558.575 390.725 528.555 363.166Z" fill="white" fill-opacity="0.09"/>
<path d="M352.565 363.166C382.585 335.607 406.564 344.557 425.591 365.283C444.618 386.009 451.489 410.663 421.469 438.223C391.45 465.782 350.684 477.262 322.452 459.967C310.923 431.622 322.545 390.725 352.565 363.166Z" fill="url(#paint7_linear)"/>
<path d="M352.565 363.166C382.585 335.607 406.564 344.557 425.591 365.283C444.618 386.009 451.489 410.663 421.469 438.223C391.45 465.782 350.684 477.262 322.452 459.967C310.923 431.622 322.545 390.725 352.565 363.166Z" fill="white" fill-opacity="0.09"/>
<path d="M466.884 159.848C483.166 234.084 446.198 264.362 394.874 275.62C343.549 286.877 297.303 274.851 281.02 200.615C264.737 126.38 284.5 49.8856 338.931 20.5692C395.51 28.5431 450.601 85.6125 466.884 159.848Z" fill="url(#paint8_linear)"/>
<path d="M466.884 159.848C483.166 234.084 446.198 264.362 394.874 275.62C343.549 286.877 297.303 274.851 281.02 200.615C264.737 126.38 284.5 49.8856 338.931 20.5692C395.51 28.5431 450.601 85.6125 466.884 159.848Z" fill="white" fill-opacity="0.09"/>
<path d="M599.635 200.862C583.139 275.05 536.858 286.944 485.565 275.539C434.273 264.134 397.393 233.75 413.889 159.561C430.385 85.3728 480.524 24.3161 542.239 20.65C590.198 51.7102 616.131 126.673 599.635 200.862Z" fill="url(#paint9_linear)"/>
<path d="M599.635 200.862C583.139 275.05 536.858 286.944 485.565 275.539C434.273 264.134 397.393 233.75 413.889 159.561C430.385 85.3728 480.524 24.3161 542.239 20.65C590.198 51.7102 616.131 126.673 599.635 200.862Z" fill="white" fill-opacity="0.09"/>
<ellipse cx="441" cy="197" rx="95" ry="54" fill="url(#paint10_linear)"/>
<path d="M621.296 347.891C543.758 398.111 500.737 380.111 474.922 340.254C449.108 300.398 450.275 253.779 527.813 203.558C605.351 153.338 694.796 133.835 741.319 167.712C747.318 221.492 698.834 297.67 621.296 347.891Z" fill="url(#paint11_linear)"/>
<path d="M260.765 347.891C338.304 398.111 381.324 380.111 407.139 340.254C432.953 300.398 431.786 253.779 354.248 203.558C276.71 153.337 187.265 133.835 140.742 167.712C134.743 221.492 183.227 297.67 260.765 347.891Z" fill="url(#paint12_linear)"/>
<path d="M536.282 305.122C536.282 381.122 493.685 402.777 441.14 402.777C388.595 402.777 346 381.122 346 305.122C346 229.121 381.692 158.637 441.14 141.664C494.697 161.574 536.282 229.121 536.282 305.122Z" fill="url(#paint13_linear)"/>
<path d="M1018 462.5C1018 541.201 813.394 605 561 605C308.606 605 104 541.201 104 462.5C104 383.799 106.106 375.5 358.5 375.5C1052.5 338.5 1018 383.799 1018 462.5Z" fill="url(#paint14_radial)"/>
<ellipse cx="561" cy="431.5" rx="457" ry="142.5" fill="url(#paint15_radial)"/>
<path fill-rule="evenodd" clip-rule="evenodd" d="M836.5 576.205V546V543.379L834.682 541.492C782.675 487.474 746.127 459.245 716.656 442.014C696.292 430.108 679.081 423.396 663.179 417.195L663.179 417.195C657.332 414.915 651.662 412.703 646.077 410.329C646.312 409.148 647.177 407.164 649.784 404.047C654.081 398.909 661.527 392.773 671.672 386.02C691.837 372.597 721.093 357.757 752.353 344.483C778.591 333.341 806.019 323.396 830.355 316.37C821.901 314.444 813.227 312.606 804.347 310.861C785.676 317.075 766.139 324.505 747.272 332.517C715.636 345.951 685.569 361.153 664.469 375.198C653.981 382.18 645.309 389.135 639.812 395.707C636.609 399.536 633.678 404.264 633.064 409.235C563.371 416.501 461.204 428.615 370.592 443.562C323.81 451.279 279.978 459.772 245.241 468.773C227.879 473.272 212.661 477.931 200.427 482.73C188.382 487.455 178.531 492.576 172.522 498.289L170.824 499.903L170.546 502.229L166.684 534.576C170.384 536.54 174.23 538.474 178.219 540.376C178.874 539.496 179.315 538.438 179.454 537.271L183.157 506.256C187.558 502.743 194.868 498.876 205.174 494.833C216.735 490.297 231.403 485.789 248.502 481.358C282.688 472.499 326.081 464.08 372.708 456.388C453.587 443.047 543.804 431.958 611.732 424.58C594.373 435.928 574.229 450.989 554.882 468.92C524.854 496.749 496.21 531.984 483.321 571.483L483 572.466V573.5V602C483 602.318 483.023 602.63 483.067 602.936C487.295 603.163 491.544 603.371 495.811 603.561C495.935 603.061 496 602.538 496 602V574.545C508.067 538.422 534.706 505.343 563.718 478.455C591.6 452.614 621.187 432.94 640.807 422.216C647.158 424.929 653.305 427.323 659.477 429.726C674.97 435.758 690.627 441.855 710.094 453.236C737.874 469.478 772.985 496.381 823.5 548.624V579.162C827.891 578.199 832.225 577.214 836.5 576.205Z" fill="white" fill-opacity="0.2"/>
<path d="M284.257 289.289C332.731 280.684 351.366 305.401 357.315 338.916C363.264 372.43 354.274 402.05 305.8 410.654C257.325 419.259 208.328 404.473 190.772 368.478C197.407 332.064 235.782 297.893 284.257 289.289Z" fill="url(#paint16_linear)"/>
<path d="M560.681 406.264C514.222 389.972 510.115 359.291 521.379 327.17C532.642 295.05 555.011 273.654 601.47 289.945C647.928 306.237 683.364 343.164 680.996 383.143C657.345 411.614 607.139 422.555 560.681 406.264Z" fill="url(#paint17_linear)"/>
<path d="M528.555 363.166C498.536 335.607 474.557 344.557 455.53 365.283C436.502 386.009 429.632 410.663 459.651 438.223C489.671 465.782 530.437 477.262 558.668 459.967C570.198 431.622 558.575 390.725 528.555 363.166Z" fill="url(#paint18_linear)"/>
<path d="M528.555 363.166C498.536 335.607 474.557 344.557 455.53 365.283C436.502 386.009 429.632 410.663 459.651 438.223C489.671 465.782 530.437 477.262 558.668 459.967C570.198 431.622 558.575 390.725 528.555 363.166Z" fill="white" fill-opacity="0.09"/>
<path d="M352.565 363.166C382.585 335.607 406.564 344.557 425.591 365.283C444.618 386.009 451.489 410.663 421.469 438.223C391.45 465.782 350.684 477.262 322.452 459.967C310.923 431.622 322.545 390.725 352.565 363.166Z" fill="url(#paint19_linear)"/>
<path d="M352.565 363.166C382.585 335.607 406.564 344.557 425.591 365.283C444.618 386.009 451.489 410.663 421.469 438.223C391.45 465.782 350.684 477.262 322.452 459.967C310.923 431.622 322.545 390.725 352.565 363.166Z" fill="white" fill-opacity="0.09"/>
<path d="M466.884 159.848C483.166 234.084 446.198 264.362 394.874 275.62C343.549 286.877 297.303 274.851 281.02 200.615C264.737 126.38 284.5 49.8856 338.931 20.5692C395.51 28.5431 450.601 85.6125 466.884 159.848Z" fill="url(#paint20_linear)"/>
<path d="M466.884 159.848C483.166 234.084 446.198 264.362 394.874 275.62C343.549 286.877 297.303 274.851 281.02 200.615C264.737 126.38 284.5 49.8856 338.931 20.5692C395.51 28.5431 450.601 85.6125 466.884 159.848Z" fill="white" fill-opacity="0.09"/>
<path d="M599.635 200.862C583.139 275.05 536.858 286.944 485.565 275.539C434.273 264.134 397.393 233.75 413.889 159.561C430.385 85.3728 480.524 24.3161 542.239 20.65C590.198 51.7102 616.131 126.673 599.635 200.862Z" fill="url(#paint21_linear)"/>
<path d="M599.635 200.862C583.139 275.05 536.858 286.944 485.565 275.539C434.273 264.134 397.393 233.75 413.889 159.561C430.385 85.3728 480.524 24.3161 542.239 20.65C590.198 51.7102 616.131 126.673 599.635 200.862Z" fill="white" fill-opacity="0.09"/>
<ellipse cx="441" cy="197" rx="95" ry="54" fill="url(#paint22_linear)"/>
<path d="M621.296 347.891C543.758 398.111 500.737 380.111 474.922 340.254C449.108 300.398 450.275 253.779 527.813 203.558C605.351 153.338 694.796 133.835 741.319 167.712C747.318 221.492 698.834 297.67 621.296 347.891Z" fill="url(#paint23_linear)"/>
<path d="M260.765 347.891C338.304 398.111 381.324 380.111 407.139 340.254C432.953 300.398 431.786 253.779 354.248 203.558C276.71 153.337 187.265 133.835 140.742 167.712C134.743 221.492 183.227 297.67 260.765 347.891Z" fill="url(#paint24_linear)"/>
<path d="M536.282 305.122C536.282 381.122 493.685 402.777 441.14 402.777C388.595 402.777 346 381.122 346 305.122C346 229.121 381.692 158.637 441.14 141.664C494.697 161.574 536.282 229.121 536.282 305.122Z" fill="url(#paint25_linear)"/>
<defs>
<radialGradient id="paint0_radial" cx="0" cy="0" r="1" gradientUnits="userSpaceOnUse" gradientTransform="translate(528 495) rotate(90) scale(158 475)">
<stop offset="0.848958" stop-color="#A9D2EA"/>
<stop offset="1" stop-color="#A9D2EA" stop-opacity="0"/>
<stop offset="1" stop-color="#A9D2EA" stop-opacity="0"/>
</radialGradient>
<radialGradient id="paint1_radial" cx="0" cy="0" r="1" gradientUnits="userSpaceOnUse" gradientTransform="translate(679 412.5) rotate(87.7245) scale(151.119 341.671)">
<stop offset="0.140625" stop-color="#9FE486"/>
<stop offset="1" stop-color="#89C17B"/>
</radialGradient>
<radialGradient id="paint2_radial" cx="0" cy="0" r="1" gradientUnits="userSpaceOnUse" gradientTransform="translate(679 381.5) rotate(87.7245) scale(151.119 341.671)">
<stop offset="0.140625" stop-color="#AEF097"/>
<stop offset="1" stop-color="#95C888"/>
</radialGradient>
<radialGradient id="paint3_radial" cx="0" cy="0" r="1" gradientUnits="userSpaceOnUse" gradientTransform="translate(399 413.18) rotate(90) scale(95.8203 284.255)">
<stop offset="0.817708" stop-color="#81B075" stop-opacity="0.55"/>
<stop offset="1" stop-color="#96C889" stop-opacity="0"/>
</radialGradient>
<linearGradient id="paint4_linear" x1="297.907" y1="423.321" x2="254.489" y2="282.4" gradientUnits="userSpaceOnUse">
<stop stop-color="#E461A3"/>
<stop offset="1" stop-color="#FFF1E9"/>
</linearGradient>
<linearGradient id="paint5_linear" x1="658.015" y1="422.303" x2="649.753" y2="278.501" gradientUnits="userSpaceOnUse">
<stop stop-color="#E461A3"/>
<stop offset="1" stop-color="#FFF1E9"/>
</linearGradient>
<linearGradient id="paint6_linear" x1="533.662" y1="506.167" x2="451.475" y2="367.868" gradientUnits="userSpaceOnUse">
<stop stop-color="#E461A3"/>
<stop offset="1" stop-color="#FBDBCA"/>
</linearGradient>
<linearGradient id="paint7_linear" x1="347.458" y1="506.167" x2="429.646" y2="367.868" gradientUnits="userSpaceOnUse">
<stop stop-color="#E461A3"/>
<stop offset="1" stop-color="#FBDBCA"/>
</linearGradient>
<linearGradient id="paint8_linear" x1="302.358" y1="-0.0655701" x2="409.406" y2="124.88" gradientUnits="userSpaceOnUse">
<stop stop-color="#E04191"/>
<stop offset="1" stop-color="#F7E3D8"/>
</linearGradient>
<linearGradient id="paint9_linear" x1="551.205" y1="-0.0654923" x2="479.743" y2="203.114" gradientUnits="userSpaceOnUse">
<stop stop-color="#EF7BB5"/>
<stop offset="0.0001" stop-color="#E04191"/>
<stop offset="0.729167" stop-color="#F7E3D8"/>
</linearGradient>
<linearGradient id="paint10_linear" x1="441" y1="143" x2="441" y2="251" gradientUnits="userSpaceOnUse">
<stop stop-color="#FFF1A6"/>
<stop offset="1" stop-color="#F5CB5D"/>
</linearGradient>
<linearGradient id="paint11_linear" x1="756.841" y1="235.928" x2="466.389" y2="280.327" gradientUnits="userSpaceOnUse">
<stop stop-color="#F683BD"/>
<stop offset="1" stop-color="#FFF1E9"/>
</linearGradient>
<linearGradient id="paint12_linear" x1="146.81" y1="253.989" x2="412.978" y2="285.341" gradientUnits="userSpaceOnUse">
<stop stop-color="#F683BD"/>
<stop offset="1" stop-color="#FFF1E9"/>
</linearGradient>
<linearGradient id="paint13_linear" x1="441.56" y1="148.789" x2="434.567" y2="370.284" gradientUnits="userSpaceOnUse">
<stop stop-color="#F285BC"/>
<stop offset="1" stop-color="#FFF1E9"/>
</linearGradient>
<radialGradient id="paint14_radial" cx="0" cy="0" r="1" gradientUnits="userSpaceOnUse" gradientTransform="translate(679 412.5) rotate(87.7245) scale(151.119 341.671)">
<stop offset="0.140625" stop-color="#9FE486"/>
<stop offset="1" stop-color="#89C17B"/>
</radialGradient>
<radialGradient id="paint15_radial" cx="0" cy="0" r="1" gradientUnits="userSpaceOnUse" gradientTransform="translate(679 381.5) rotate(87.7245) scale(151.119 341.671)">
<stop offset="0.140625" stop-color="#AEF097"/>
<stop offset="1" stop-color="#95C888"/>
</radialGradient>
<linearGradient id="paint16_linear" x1="297.907" y1="423.321" x2="254.489" y2="282.4" gradientUnits="userSpaceOnUse">
<stop stop-color="#E461A3"/>
<stop offset="1" stop-color="#FFF1E9"/>
</linearGradient>
<linearGradient id="paint17_linear" x1="658.015" y1="422.303" x2="649.753" y2="278.501" gradientUnits="userSpaceOnUse">
<stop stop-color="#E461A3"/>
<stop offset="1" stop-color="#FFF1E9"/>
</linearGradient>
<linearGradient id="paint18_linear" x1="533.662" y1="506.167" x2="451.475" y2="367.868" gradientUnits="userSpaceOnUse">
<stop stop-color="#E461A3"/>
<stop offset="1" stop-color="#FBDBCA"/>
</linearGradient>
<linearGradient id="paint19_linear" x1="347.458" y1="506.167" x2="429.646" y2="367.868" gradientUnits="userSpaceOnUse">
<stop stop-color="#E461A3"/>
<stop offset="1" stop-color="#FBDBCA"/>
</linearGradient>
<linearGradient id="paint20_linear" x1="302.358" y1="-0.0655701" x2="409.406" y2="124.88" gradientUnits="userSpaceOnUse">
<stop stop-color="#E04191"/>
<stop offset="1" stop-color="#F7E3D8"/>
</linearGradient>
<linearGradient id="paint21_linear" x1="551.205" y1="-0.0654923" x2="479.743" y2="203.114" gradientUnits="userSpaceOnUse">
<stop stop-color="#EF7BB5"/>
<stop offset="0.0001" stop-color="#E04191"/>
<stop offset="0.729167" stop-color="#F7E3D8"/>
</linearGradient>
<linearGradient id="paint22_linear" x1="441" y1="143" x2="441" y2="251" gradientUnits="userSpaceOnUse">
<stop stop-color="#FFF1A6"/>
<stop offset="1" stop-color="#F5CB5D"/>
</linearGradient>
<linearGradient id="paint23_linear" x1="756.841" y1="235.928" x2="466.389" y2="280.327" gradientUnits="userSpaceOnUse">
<stop stop-color="#F683BD"/>
<stop offset="1" stop-color="#FFF1E9"/>
</linearGradient>
<linearGradient id="paint24_linear" x1="146.81" y1="253.989" x2="412.978" y2="285.341" gradientUnits="userSpaceOnUse">
<stop stop-color="#F683BD"/>
<stop offset="1" stop-color="#FFF1E9"/>
</linearGradient>
<linearGradient id="paint25_linear" x1="441.56" y1="148.789" x2="434.567" y2="370.284" gradientUnits="userSpaceOnUse">
<stop stop-color="#F285BC"/>
<stop offset="1" stop-color="#FFF1E9"/>
</linearGradient>
</defs>
</svg>
