<svg width="197" height="239" viewBox="0 0 197 239" fill="none" xmlns="http://www.w3.org/2000/svg">
<ellipse opacity="0.2" cx="111.255" cy="216.821" rx="110.255" ry="21.8213" fill="url(#paint0_radial_3168_669)"/>
<path d="M4.16436 174.583C11.2509 170.127 25.2038 164.564 29.4778 162.901C30.2886 162.586 31.1921 162.648 31.9577 163.061L48.3187 171.89C49.7668 172.672 50.3151 174.474 49.5476 175.93L42.6396 189.031C42.0434 190.162 40.8053 190.791 39.543 190.59C34.1151 189.725 19.3462 187.287 9.28973 184.833C7.23616 184.332 4.59133 183.496 2.64925 182.853C1.15259 182.357 0.327514 180.769 0.932137 179.313C1.65399 177.574 2.7659 175.462 4.16436 174.583Z" fill="#E2A607"/>
<path d="M22.4235 180.989C27.9278 181.239 34.9166 178.427 34.9166 178.427M4.16436 174.583C11.2509 170.127 25.2038 164.564 29.4778 162.901C30.2886 162.586 31.1921 162.648 31.9577 163.061L48.3187 171.89C49.7668 172.672 50.3151 174.474 49.5476 175.93L42.6396 189.031C42.0434 190.162 40.8053 190.791 39.543 190.59C34.1151 189.725 19.3462 187.287 9.28973 184.833C7.23616 184.332 4.59133 183.496 2.64925 182.853C1.15259 182.357 0.327514 180.769 0.932137 179.313C1.65399 177.574 2.7659 175.462 4.16436 174.583Z" stroke="#BC8A07"/>
<path d="M78.2915 88.0878L88.7048 55.2281C89.3488 53.196 87.7273 51.1594 85.6025 51.3316L44.1632 54.6916C42.7312 54.8077 41.5828 55.9231 41.4223 57.3508C38.5553 82.8493 36.1054 99.7096 32.8099 121.298C32.3959 126.501 32.0462 132.009 31.7649 138.002L31.7642 138.015C31.7514 138.252 30.7537 156.726 30.9802 169.641C31.0093 171.3 31.4814 172.956 32.283 174.581C37.4091 184.977 56.008 194.151 58.3734 195.286C58.532 195.362 58.6666 195.442 58.816 195.531L58.8385 195.545C65.0987 199.282 104.857 197.569 120.217 195.12C120.376 195.095 120.536 195.083 120.697 195.083C136.718 195.079 130.456 194.694 145.753 193.802C155.363 193.802 188.792 195.499 213.344 192.52C222.393 191.423 228.387 188.815 231.604 187.084C233.304 186.168 235.833 185.037 237.097 183.577C237.999 182.534 239.153 181.011 240.614 178.79C245.623 171.172 241.325 161.393 244.142 148.526C244.225 148.144 244.392 147.778 244.619 147.46C252.917 135.803 257.444 129.016 257.346 115.371C257.344 115.134 257.314 114.895 257.253 114.666C256.375 111.342 255.6 110.411 253.683 111.09C251.916 111.716 242.909 117.252 240.978 118.445C240.732 118.597 240.516 118.78 240.324 118.996L236.067 123.785C235.076 124.9 233.416 125.117 232.171 124.295L219.703 116.056C210.493 111.594 205.019 109.829 194.609 108.215C182.883 106.354 176.632 106.786 165.857 109.26C152.257 112.429 144.454 113.777 130.046 115.011C117.47 116.271 110.329 115.828 97.6055 112.715C97.4524 112.678 97.2977 112.627 97.1526 112.565C89.8087 109.458 85.9548 107.124 80.6023 101.143C80.4571 100.98 80.3289 100.8 80.2233 100.609C77.957 96.5226 76.1078 92.7512 78.2915 88.0878Z" fill="#E2A607" stroke="#BC8A07" stroke-linecap="round"/>
<path d="M43.2648 111.088C42.2378 106.082 41.2108 98.995 40.4316 93.0786C40.2156 91.4388 37.7481 91.4152 37.5142 93.0525C35.7988 102.02 35.056 111.016 33.0706 123.112C32.0686 138.871 31.5401 167.537 31.5042 169.53C31.5028 169.609 31.4984 169.678 31.4964 169.757C31.4855 170.19 31.536 171.78 32.6741 173.942C36.1978 179.708 41.0051 188.194 46.7689 180.989C55.1334 170.534 45.3559 121.282 43.2648 111.088Z" fill="white" stroke="white" stroke-linecap="round"/>
<path d="M42.7166 12.5985C45.4522 17.9913 43.3217 27.3951 42.6411 30.027C42.5317 30.4498 42.156 30.734 41.7193 30.73C39.2691 30.7079 31.2468 30.4295 26.6825 27.8148C19.2605 23.563 15.6764 10.0943 14.7845 6.23375C14.6537 5.66738 15.0437 5.13599 15.6229 5.08697C20.2091 4.69887 38.2375 3.76847 42.7166 12.5985Z" fill="#E2A607" stroke="#CF9807"/>
<path d="M26.0229 46.2956C24.5475 50.5742 22.3855 55.5726 20.1524 60.7355C19.8799 61.3655 19.6064 61.9979 19.3329 62.6317C16.8126 68.4729 14.2942 74.4431 12.6173 79.8105C10.9329 85.2018 10.1328 89.8821 10.9492 93.1856C11.352 94.8156 12.1431 96.0889 13.4053 96.9634C14.676 97.8437 16.4763 98.356 18.9598 98.356C23.9478 98.356 31.0304 96.288 38.8902 92.8209C46.7341 89.3608 55.2964 84.5324 63.2259 79.0671C71.1573 73.6006 78.4387 67.5083 83.7311 61.5262C89.043 55.5221 92.2725 49.7166 92.2725 44.8145C92.2725 24.7079 75.9728 8.4082 55.8661 8.4082C50.8531 8.4082 46.9181 9.5819 43.7256 11.6149C40.5289 13.6505 38.0441 16.5685 35.9672 20.1065C33.8886 23.6473 32.2287 27.7913 30.6733 32.2614C29.896 34.4952 29.1469 36.8045 28.3847 39.157L28.3409 39.2919C27.5934 41.5994 26.8327 43.9472 26.0229 46.2956Z" fill="white" stroke="#BC8A07"/>
<path d="M28.845 34.9275C19.6184 53.3807 0.506165 93.5822 13.687 98.8546C25.1626 98.8546 34.5442 80.1024 48.6162 64.5844C59.5388 52.5395 74.3189 42.177 76.9551 31.6323C76.9551 11.2495 74.9779 10.543 61.7971 10.543C41.4143 10.543 38.0715 16.4743 28.845 34.9275Z" fill="#E2A607"/>
<path d="M9.28439 88.8714C8.75733 91.4385 8.1403 95.3051 12.8838 98.7279C15.5191 99.5835 20.2627 99.8072 20.2627 97.4443C20.2627 95.0814 18.6815 92.3102 16.5733 91.0267C14.465 89.7432 13.5009 88.0157 9.28439 88.8714Z" fill="#131313"/>
<path d="M27.5283 37.5651C20.9379 56.6773 60.4804 53.3821 47.9586 55.3592C54.7935 57.8002 66.9911 44.8186 73.0022 46.7917C83.2201 50.1455 92.7734 57.6477 92.7734 44.8145C92.7734 24.4317 76.2499 7.9082 55.8671 7.9082C35.4843 7.9082 34.1187 18.4529 27.5283 37.5651Z" fill="#E2A607"/>
<path d="M86.2217 39.9096C80.2145 39.2163 73.5464 32.2517 71.7267 30.2321C71.4344 29.9077 71.4046 29.4375 71.6488 29.0755C73.019 27.044 77.6767 20.5064 82.3754 18.1419C90.0161 14.2968 103.227 18.7376 106.939 20.1233C107.484 20.3266 107.712 20.9451 107.433 21.4552C105.227 25.4946 96.0575 41.0448 86.2217 39.9096Z" fill="#E2A607" stroke="#BC8A07"/>
<path d="M89.0367 30.4327L84.2497 27.4862C83.6473 27.1154 83.6098 26.2533 84.1779 25.8317L88.2838 22.784" stroke="black" stroke-linecap="round"/>
<path d="M66.7099 62.3108L69.2199 57.2812C69.5358 56.6482 70.3911 56.5344 70.8616 57.0628L74.2616 60.882" stroke="black" stroke-width="2" stroke-linecap="round"/>
<circle cx="4.4436" cy="4.4436" r="4.4436" transform="matrix(-1 0 0 1 183.893 117.623)" fill="white"/>
<ellipse cx="2.35249" cy="2.09111" rx="2.35249" ry="2.09111" transform="matrix(-1 0 0 1 199.576 119.717)" fill="white"/>
<ellipse cx="3.65944" cy="3.13666" rx="3.65944" ry="3.13666" transform="matrix(-1 0 0 1 192.257 128.078)" fill="white"/>
<path d="M16.0169 193.481C18.3062 191.764 42.0683 182.379 47.1126 180.395C47.7313 180.152 48.3966 180.129 49.0344 180.316L104.75 196.685L106.402 206.834C106.707 208.707 105.218 210.389 103.322 210.313L18.5375 206.947C18.3525 206.939 18.1693 206.915 17.9897 206.87C16.2974 206.443 7.28533 203.957 9.61029 199.888C12.173 195.403 13.4543 195.403 16.0169 193.481Z" fill="#E2A607"/>
<path d="M104.75 196.685L106.402 206.834C106.707 208.707 105.218 210.389 103.322 210.313L18.5375 206.947C18.3525 206.939 18.1693 206.915 17.9897 206.87C16.2974 206.443 7.28533 203.957 9.61029 199.888C12.173 195.403 13.4543 195.403 16.0169 193.481C18.3062 191.764 42.0683 182.379 47.1126 180.395C47.7313 180.152 48.3966 180.129 49.0344 180.316L104.75 196.685ZM104.75 196.685L40.0422 199.888" stroke="#BC8A07"/>
<path d="M47.0894 181.629L48.0504 179.387L108.914 196.044L89.3737 197.326H84.2483V197.005L69.1925 194.122L51.8944 187.395L47.0894 181.629Z" fill="#E2A607"/>
<path d="M115.763 196.286C111.621 196.606 104.762 197.12 104.674 197.018C104.548 196.873 104.68 210.319 104.674 210.459C104.671 210.551 111.126 212.846 115.605 214.427C117.612 215.136 119.693 213.582 119.59 211.456L118.994 199.136C118.912 197.445 117.451 196.155 115.763 196.286Z" fill="black" stroke="black" stroke-linecap="round"/>
<path d="M163.691 178.426C163.691 163.371 178.316 153.174 188.998 149.596L220.07 176.184C221.992 176.824 225.671 177.795 227.438 178.426C231.923 180.028 234.746 181.394 235.767 185.474C236.361 187.847 234.603 191.241 234.603 191.241C231.901 194.279 228.4 197.286 225.196 198.608C215.712 202.519 208.218 204.373 191.881 204.373C175.544 204.373 130.056 211.101 130.056 211.101L132.299 194.443L190.92 190.92C190.92 190.92 163.691 188.673 163.691 178.426Z" fill="#E2A607"/>
<path d="M190.92 190.92C190.92 190.92 163.691 188.673 163.691 178.426C163.691 163.371 178.316 153.174 188.998 149.596L220.07 176.184C221.992 176.824 225.671 177.795 227.438 178.426C231.923 180.028 234.746 181.394 235.767 185.474C236.361 187.847 234.603 191.241 234.603 191.241C231.901 194.279 228.4 197.286 225.196 198.608C215.712 202.519 208.218 204.373 191.881 204.373C175.544 204.373 130.056 211.101 130.056 211.101L132.299 194.443L190.92 190.92ZM190.92 190.92H196.686" stroke="#BC8A07"/>
<path d="M127.693 211.568C131.416 210.764 136.615 209.673 136.784 209.82C137.047 210.05 134.869 194.361 134.862 194.124C134.857 193.962 129.94 194.617 126.814 195.05C125.358 195.252 124.27 196.485 124.242 197.955L124.042 208.57C124.005 210.512 125.794 211.979 127.693 211.568Z" fill="black" stroke="black" stroke-linecap="round"/>
<path d="M220.517 149.723L241.834 165.402L240.035 171.073L237.59 172.938L206.296 181.95L186.435 152.799L191.24 147.994L199.254 145.702L198.393 144.617L200.138 144.129L220.517 149.723Z" fill="#E2A607" stroke="#E2A607"/>
<defs>
<radialGradient id="paint0_radial_3168_669" cx="0" cy="0" r="1" gradientUnits="userSpaceOnUse" gradientTransform="translate(111.255 216.821) rotate(90) scale(21.8213 110.255)">
<stop offset="0.25" stop-color="#494949"/>
<stop offset="1" stop-color="#6C7163" stop-opacity="0"/>
</radialGradient>
</defs>
</svg>
