<svg width="196" height="70" viewBox="0 0 196 70" fill="none" xmlns="http://www.w3.org/2000/svg">
<path fill-rule="evenodd" clip-rule="evenodd" d="M32.4619 0.698844C32.3096 0.710792 31.7739 0.758196 31.2714 0.804211C24.069 1.46398 17.1529 4.49901 11.6972 9.39403C8.6749 12.1057 6.09953 15.4012 4.20944 18.9753C0.224066 26.5114 -0.810956 35.2776 1.29602 43.6499C4.33376 55.7206 13.918 65.3537 25.983 68.4628C28.8329 69.1973 31.4411 69.5191 34.5383 69.5186C37.3216 69.5181 39.5307 69.2824 42.0556 68.7165C54.7279 65.8762 64.7642 56.0254 67.8775 43.372C68.8456 39.4376 69.1093 35.2343 68.6465 31.1181C68.0402 25.7262 66.1422 20.5403 63.0984 15.9589C58.8518 9.56714 52.4882 4.72158 45.2106 2.33826C42.8299 1.55862 40.6343 1.09825 37.8607 0.797097C37.0969 0.714126 33.1766 0.642826 32.4619 0.698844ZM154.129 24.2257L154.115 30.8376L153.785 30.3887C152.376 28.4748 149.835 27.3938 147.055 27.525C142.043 27.7618 138.346 31.6164 137.609 37.3754C137.498 38.2435 137.481 40.2296 137.579 41.0379C138.004 44.5622 139.503 47.3515 141.896 49.0678C142.846 49.7493 144.207 50.3211 145.422 50.5485C146.259 50.7053 148.031 50.6906 148.827 50.5201C151.252 50.0014 153.116 48.7038 154.247 46.7481C154.375 46.5265 154.5 46.3452 154.524 46.3452C154.548 46.3452 154.597 47.0391 154.634 47.8873C154.671 48.7355 154.715 49.5983 154.733 49.8046L154.766 50.1798H156.565H158.364L158.328 49.6101C158.209 47.7495 158.187 45.0664 158.186 32.0211L158.185 17.6137H156.164H154.143L154.129 24.2257ZM24.7097 18.2914C25.3996 18.4025 25.6831 18.4161 27.2845 18.4151C29.035 18.414 29.1386 18.4076 31.0776 18.183C32.1739 18.0559 33.4946 17.923 34.0123 17.8876C37.0422 17.6805 39.9005 18.3096 41.8653 19.6159C42.4142 19.9809 43.2693 20.7965 43.6717 21.3391C44.5193 22.4819 44.9717 23.8755 45.042 25.5607C45.1245 27.5342 44.6201 29.3762 43.6009 30.8239C43.1611 31.4486 42.3399 32.268 41.6776 32.7429C41.03 33.2073 39.8065 33.8247 38.9821 34.1032C38.6395 34.2189 38.3654 34.3274 38.373 34.3444C38.3805 34.3614 40.1656 37.006 42.3396 40.2213L46.2926 46.0673H48.1685H50.0445L50.0297 47.5261L50.0149 48.9849L47.1633 48.9976L44.3116 49.0103L39.6097 41.9259L34.9078 34.8415H32.3974H29.887V40.4544V46.0673H32.3511H34.8152V47.54V49.0127H28.6412H22.4671V47.54V46.0673H24.5713H26.6754V33.6032V21.1391L24.6682 20.9C23.5642 20.7685 22.6173 20.6488 22.564 20.634C22.4751 20.6094 22.4671 20.4944 22.4671 19.2322V17.8572L23.2008 18.0119C23.6044 18.097 24.2833 18.2228 24.7097 18.2914ZM84.3459 18.8161C81.695 19.1004 79.5188 20.0699 77.9476 21.6664C76.8796 22.7515 76.1974 24.0444 75.8635 25.6163C75.7211 26.2865 75.7216 28.0613 75.8644 28.7155C76.1991 30.2497 76.8127 31.3685 77.9475 32.514C79.3923 33.9725 80.8988 34.8449 84.1244 36.0911C86.3358 36.9454 87.8797 37.9231 88.6701 38.9698C89.0065 39.4152 89.3758 40.203 89.4965 40.7323C89.6384 41.3547 89.6652 42.3735 89.5562 43.0018C89.238 44.8354 87.9881 46.2229 86.0772 46.8636C83.6746 47.6692 80.151 47.3023 77.4163 45.962C76.9937 45.7548 76.54 45.517 76.408 45.4333C76.2759 45.3497 76.1602 45.2893 76.1507 45.2992C76.1412 45.309 75.8968 46.0671 75.6074 46.9838L75.0815 48.6506L75.2285 48.7514C75.5126 48.946 76.4333 49.3898 76.9718 49.5917C78.1052 50.0168 79.4705 50.3535 80.8574 50.5501C81.8716 50.6939 84.1594 50.6934 85.1765 50.5493C86.541 50.3558 87.975 49.9273 89.0305 49.3977C90.1609 48.8305 91.3838 47.8028 92.1114 46.8088C93.261 45.2383 93.8233 43.1508 93.6723 41.0139C93.3986 37.1396 91.2338 34.8018 85.9517 32.676C81.6335 30.9382 80.1865 29.7178 79.8544 27.5336C79.7569 26.8915 79.7582 26.5764 79.861 25.9846C80.0128 25.111 80.384 24.3875 81.0148 23.7358C82.1373 22.5759 83.7953 22.0469 86.0347 22.1341C87.8455 22.2046 89.4217 22.589 90.8475 23.3077C91.1305 23.4503 91.3684 23.5592 91.3763 23.5496C91.3842 23.5401 91.6308 22.8072 91.9244 21.921L92.4582 20.3097L92.3335 20.2131C92.0062 19.9596 90.423 19.384 89.4532 19.1658C88.282 18.9024 87.5625 18.8274 86.0347 18.8095C85.2277 18.8001 84.4677 18.803 84.3459 18.8161ZM166.165 19.3133C165.722 19.4328 165.364 19.6494 165.031 20.0008C164.553 20.5033 164.331 21.0692 164.332 21.7795C164.336 23.7094 166.246 24.8463 168.022 23.9756C170.018 22.9973 169.678 19.8764 167.513 19.3105C167.111 19.2055 166.56 19.2066 166.165 19.3133ZM192.609 19.3088C191.621 19.5816 190.846 20.4522 190.676 21.4809C190.496 22.5711 191.117 23.7112 192.164 24.2131C192.592 24.4181 192.61 24.4215 193.264 24.4215C193.898 24.4215 193.945 24.4134 194.308 24.2409C195.726 23.5667 196.276 21.9683 195.556 20.6121C195.348 20.222 194.806 19.6876 194.433 19.5063C193.864 19.2299 193.168 19.1546 192.609 19.3088ZM194.206 19.9316C194.614 20.1419 195.022 20.5686 195.218 20.9916C195.345 21.2647 195.366 21.3835 195.367 21.8373C195.368 22.3162 195.351 22.3998 195.192 22.7376C194.967 23.2131 194.605 23.5766 194.133 23.7988C193.802 23.9545 193.707 23.9736 193.258 23.9739C192.787 23.9743 192.727 23.9608 192.334 23.766C191.855 23.5282 191.549 23.2184 191.314 22.7334C191.181 22.4578 191.163 22.3551 191.161 21.8651C191.16 21.3568 191.174 21.2785 191.331 20.9481C191.533 20.5227 191.875 20.1607 192.264 19.9625C192.69 19.7457 192.779 19.7277 193.347 19.7446C193.808 19.7584 193.913 19.7813 194.206 19.9316ZM191.974 20.6147C191.988 20.7895 192.008 20.811 192.17 20.8266L192.35 20.844V21.8686V22.8932H192.153C191.959 22.8932 191.956 22.8966 191.973 23.1016L191.99 23.31H192.599H193.208V23.1155C193.208 22.9308 193.198 22.9201 193.001 22.9038L192.793 22.8865V22.4731V22.0596H192.95C193.09 22.0596 193.157 22.1332 193.534 22.7015L193.96 23.3435L194.249 23.3267L194.537 23.31L194.554 23.1016C194.571 22.8986 194.567 22.8932 194.385 22.8932C194.213 22.8932 194.173 22.8566 193.889 22.4388L193.581 21.9845L193.754 21.8681C194.101 21.6361 194.221 21.1395 194.013 20.798C193.819 20.4781 193.638 20.4242 192.749 20.4221L191.957 20.4202L191.974 20.6147ZM33.2371 20.8392C32.5422 20.8859 30.9313 21.0294 30.247 21.1056L29.9147 21.1426L29.9006 26.5687L29.8865 31.9947L31.2572 32.0364C34.1908 32.1257 35.96 31.959 37.5788 31.4407C38.9675 30.9961 40.165 30.1873 40.7835 29.2764C41.4827 28.2463 41.7884 26.8841 41.6291 25.5085C41.3319 22.9426 39.7632 21.4025 36.9487 20.9133C36.3485 20.809 34.2954 20.768 33.2371 20.8392ZM193.58 21.0078C193.708 21.1806 193.668 21.4164 193.492 21.5315C193.427 21.5738 193.243 21.6256 193.084 21.6466L192.793 21.6849V21.2583V20.8317L193.133 20.8482C193.424 20.8624 193.489 20.8854 193.58 21.0078ZM101.691 23.2685L99.7671 23.8565V25.9027V27.9488L98.0644 27.9635L96.3617 27.9782V29.5342V31.0903L98.062 31.105L99.7622 31.1197L99.7821 37.9683C99.7999 44.1414 99.8113 44.8763 99.898 45.4191C100.218 47.4248 100.862 48.7241 101.942 49.5456C102.425 49.9132 103.287 50.3097 104.003 50.4946C104.578 50.6428 104.678 50.6517 105.775 50.6512C106.632 50.6508 107.093 50.6246 107.528 50.5515C108.191 50.4401 109.126 50.2011 109.204 50.1232C109.251 50.0752 109.161 47.7982 109.09 47.2583L109.06 47.0321L108.58 47.1418C107.886 47.3005 106.135 47.31 105.692 47.1573C104.597 46.7802 104.005 45.878 103.811 44.2904C103.775 43.9908 103.754 41.5098 103.754 37.4693V31.1191L106.619 31.1047L109.485 31.0903V29.5342V27.9782L106.619 27.9638L103.754 27.9494V25.3101C103.754 23.2333 103.739 22.6719 103.685 22.6757C103.647 22.6783 102.75 22.9451 101.691 23.2685ZM183.906 27.5443C180.484 27.8502 177.697 29.4495 175.896 32.1403C174.944 33.563 174.343 35.194 174.039 37.1756C173.899 38.0899 173.899 40.3926 174.04 41.288C174.536 44.4645 175.935 46.9661 178.137 48.6129C179.496 49.6297 180.878 50.2152 182.715 50.5517C183.469 50.6898 185.505 50.6904 186.319 50.5527C190.531 49.8408 193.633 47.2109 194.887 43.2887C195.802 40.4256 195.75 36.9407 194.752 34.2377C193.332 30.3942 190.157 27.9695 186.014 27.5649C185.447 27.5095 184.408 27.4994 183.906 27.5443ZM113.846 35.3548C113.864 42.5989 113.867 42.7765 113.982 43.4832C114.518 46.7738 115.826 48.8404 118.061 49.9293C119.234 50.5007 120.324 50.7141 121.805 50.6618C122.841 50.6252 123.476 50.5111 124.357 50.2034C124.935 50.0014 125.628 49.6751 126.036 49.4127C126.914 48.8487 127.941 47.8512 128.478 47.0426C128.653 46.7785 128.803 46.5699 128.812 46.579C128.821 46.5881 128.868 47.2207 128.916 47.9848C128.964 48.7488 129.019 49.5553 129.038 49.7768L129.072 50.1798H130.867H132.662L132.628 49.4434C132.609 49.0384 132.578 48.6695 132.559 48.6237C132.539 48.5779 132.51 43.9138 132.494 38.2593L132.465 27.9782H130.443H128.422L128.394 35.3139C128.361 43.5767 128.401 42.8582 127.922 43.8852C127.495 44.8001 126.818 45.6346 126.014 46.2373C125.589 46.5554 124.69 46.9833 124.131 47.1339C123.514 47.2998 122.114 47.3142 121.501 47.1608C119.854 46.7492 118.742 45.489 118.233 43.4595C117.91 42.1706 117.912 42.2402 117.878 34.8137L117.846 27.9782L115.837 27.9636L113.828 27.949L113.846 35.3548ZM164.867 27.9874C164.846 28.0078 164.83 33.0094 164.83 39.1021V50.1798H166.851H168.872V39.0651V27.9504H166.888C165.796 27.9504 164.887 27.9671 164.867 27.9874ZM185.899 30.6835C186.409 30.7622 186.99 30.9556 187.519 31.2227C189.389 32.1677 190.688 34.2132 191.218 37.0471C191.359 37.7984 191.39 39.8024 191.273 40.6387C190.783 44.1714 188.838 46.7415 186.138 47.4263C183.25 48.1587 180.436 46.6922 179.035 43.7253C177.724 40.9479 177.749 37.0999 179.096 34.3094C180.434 31.5352 182.9 30.221 185.899 30.6835ZM149.63 30.8883C150.545 31.1163 151.528 31.6457 152.22 32.2825C153.183 33.1687 153.918 34.6185 154.086 35.9658C154.162 36.5778 154.16 41.4314 154.084 41.9863C153.952 42.9328 153.531 44.0124 152.98 44.8123C152.636 45.3105 151.841 46.0932 151.362 46.4044C149.895 47.3577 148.04 47.6332 146.353 47.1481C143.773 46.4061 142.065 44.0116 141.688 40.6094C141.614 39.9343 141.612 38.4753 141.685 37.8147C141.879 36.063 142.364 34.6293 143.173 33.414C144.101 32.0225 145.459 31.1196 147.083 30.8146C147.697 30.6993 149.026 30.7377 149.63 30.8883Z" fill="white"/>
</svg>
