<svg width="170" height="124" viewBox="0 0 170 124" fill="none" xmlns="http://www.w3.org/2000/svg">
<path fill-rule="evenodd" clip-rule="evenodd" d="M38.5424 0.402212C38.5424 0.623428 37.849 0.804423 37.0015 0.804423C36.154 0.804423 35.4606 0.985419 35.4606 1.20664C35.4606 1.42785 34.9406 1.60885 34.305 1.60885C33.6693 1.60885 33.1493 1.78984 33.1493 2.01106C33.1493 2.23228 32.8026 2.41327 32.3788 2.41327C31.9551 2.41327 31.6084 2.59427 31.6084 2.81548C31.6084 3.0367 31.2617 3.21769 30.8379 3.21769C30.4142 3.21769 30.0675 3.39869 30.0675 3.61991C30.0675 3.84112 29.7208 4.02212 29.297 4.02212C28.8733 4.02212 28.5266 4.20311 28.5266 4.42433C28.5266 4.64555 28.2496 4.82654 27.9106 4.82654C27.572 4.82654 26.8088 5.36953 26.2152 6.03318C25.6216 6.69682 24.942 7.23981 24.7051 7.23981C24.103 7.23981 19.2811 12.3386 19.2811 12.9758C19.2811 13.2625 18.9344 13.7585 18.5107 14.0774C18.0869 14.3964 17.7402 14.9393 17.7402 15.284C17.7402 15.6287 17.3935 16.1717 16.9698 16.4907C16.546 16.8096 16.1993 17.3924 16.1993 17.7862C16.1993 18.1796 16.026 18.5017 15.8141 18.5017C15.6022 18.5017 15.4289 18.8637 15.4289 19.3062C15.4289 19.7486 15.2555 20.1106 15.0436 20.1106C14.8318 20.1106 14.6584 20.6536 14.6584 21.3172C14.6584 21.9809 14.4851 22.5239 14.2732 22.5239C14.0613 22.5239 13.888 23.0668 13.888 23.7305C13.888 24.3941 13.7146 24.9371 13.5027 24.9371C13.2909 24.9371 13.1175 25.8421 13.1175 26.9482C13.1175 28.0543 12.9442 28.9592 12.7323 28.9592C12.4969 28.9592 12.3471 30.8364 12.3471 33.7858C12.3471 36.7352 12.4969 38.6123 12.7323 38.6123C12.9442 38.6123 13.1175 39.5173 13.1175 40.6234C13.1175 41.7295 13.2909 42.6344 13.5027 42.6344C13.7146 42.6344 13.888 43.1774 13.888 43.8411C13.888 44.5047 14.0613 45.0477 14.2732 45.0477C14.4851 45.0477 14.6584 45.7717 14.6584 46.6566C14.6584 47.8628 14.5043 48.2654 14.0424 48.2654C13.7038 48.2654 12.9407 48.8084 12.3471 49.472C11.7534 50.1357 11.0712 50.6787 10.8312 50.6787C10.2641 50.6787 7.72435 53.3305 7.72435 53.9225C7.72435 54.1731 7.2043 54.8854 6.56867 55.5052C5.93305 56.125 5.413 56.9218 5.413 57.2753C5.413 57.6293 5.23964 57.9185 5.02777 57.9185C4.8159 57.9185 4.64254 58.2805 4.64254 58.7229C4.64254 59.1653 4.46919 59.5273 4.25732 59.5273C4.04544 59.5273 3.87209 59.8893 3.87209 60.3318C3.87209 60.7742 3.69874 61.1362 3.48687 61.1362C3.27499 61.1362 3.10164 61.4982 3.10164 61.9406C3.10164 62.383 2.92829 62.745 2.71641 62.745C2.50454 62.745 2.33119 63.469 2.33119 64.3539C2.33119 65.2387 2.15784 65.9627 1.94596 65.9627C1.73178 65.9627 1.56074 67.0354 1.56074 68.376C1.56074 69.7166 1.38969 70.7893 1.17551 70.7893C0.961324 70.7893 0.790283 71.862 0.790283 73.2025C0.790283 74.5431 0.961324 75.6158 1.17551 75.6158C1.38969 75.6158 1.56074 76.6885 1.56074 78.0291C1.56074 79.3696 1.73178 80.4423 1.94596 80.4423C2.15784 80.4423 2.33119 81.1663 2.33119 82.0512C2.33119 82.9361 2.50454 83.66 2.71641 83.66C2.92829 83.66 3.10164 84.022 3.10164 84.4645C3.10164 84.9069 3.27499 85.2689 3.48687 85.2689C3.69874 85.2689 3.87209 85.6309 3.87209 86.0733C3.87209 86.5157 4.04544 86.8777 4.25732 86.8777C4.46919 86.8777 4.64254 87.2397 4.64254 87.6822C4.64254 88.1246 4.8159 88.4866 5.02777 88.4866C5.23964 88.4866 5.413 88.7601 5.413 89.0947C5.413 89.8875 13.3167 98.1397 14.076 98.1397C14.3965 98.1397 14.6584 98.3206 14.6584 98.5419C14.6584 98.7631 15.0051 98.9441 15.4289 98.9441C15.8526 98.9441 16.1993 99.1251 16.1993 99.3463C16.1993 99.5675 16.546 99.7485 16.9698 99.7485C17.3935 99.7485 17.7402 99.9295 17.7402 100.151C17.7402 100.372 18.0869 100.553 18.5107 100.553C18.9344 100.553 19.2811 100.734 19.2811 100.955C19.2811 101.176 19.9745 101.357 20.822 101.357C21.6695 101.357 22.3629 101.538 22.3629 101.76C22.3629 101.981 23.2297 102.162 24.2891 102.162C25.3484 102.162 26.2152 102.343 26.2152 102.564C26.2152 102.794 27.3709 102.966 28.9118 102.966C30.4527 102.966 31.6084 102.794 31.6084 102.564C31.6084 102.343 32.4751 102.162 33.5345 102.162C35.4179 102.162 35.4606 102.189 35.4606 103.368C35.4606 104.032 35.634 104.575 35.8459 104.575C36.0577 104.575 36.2311 104.937 36.2311 105.379C36.2311 105.822 36.4044 106.184 36.6163 106.184C36.8282 106.184 37.0015 106.506 37.0015 106.899C37.0015 107.293 37.3482 107.876 37.772 108.195C38.1957 108.514 38.5424 109.009 38.5424 109.295C38.5424 110.026 45.7261 117.446 46.4346 117.446C46.7551 117.446 47.0174 117.627 47.0174 117.848C47.0174 118.069 47.326 118.25 47.7027 118.25C48.0799 118.25 48.6381 118.612 48.9435 119.055C49.2698 119.527 49.9409 119.859 50.5696 119.859C51.1582 119.859 51.6401 120.04 51.6401 120.261C51.6401 120.483 51.9868 120.664 52.4106 120.664C52.8343 120.664 53.181 120.845 53.181 121.066C53.181 121.287 53.8744 121.468 54.7219 121.468C55.5694 121.468 56.2628 121.649 56.2628 121.87C56.2628 122.094 57.2902 122.272 58.5742 122.272C59.8582 122.272 60.8856 122.451 60.8856 122.675C60.8856 122.898 61.9129 123.077 63.1969 123.077C64.4809 123.077 65.5083 122.898 65.5083 122.675C65.5083 122.445 66.6639 122.272 68.2048 122.272C69.7458 122.272 70.9014 122.1 70.9014 121.87C70.9014 121.649 71.4215 121.468 72.0571 121.468C72.6927 121.468 73.2128 121.287 73.2128 121.066C73.2128 120.845 73.7328 120.664 74.3685 120.664C75.0041 120.664 75.5241 120.483 75.5241 120.261C75.5241 120.04 75.8708 119.859 76.2946 119.859C76.7183 119.859 77.065 119.678 77.065 119.457C77.065 119.236 77.3736 119.055 77.7504 119.055C78.1275 119.055 78.6857 118.693 78.9912 118.25C79.2967 117.808 79.7855 117.446 80.0775 117.446C80.3691 117.446 81.0941 116.903 81.6878 116.239C82.2814 115.576 82.9656 115.033 83.2082 115.033C83.7761 115.033 85.54 113.197 85.54 112.606C85.54 112.357 86.2334 111.458 87.0809 110.608C87.9284 109.758 88.6218 108.777 88.6218 108.427C88.6218 108.078 88.7952 107.793 89.0071 107.793C89.2189 107.793 89.3923 107.431 89.3923 106.988C89.3923 106.546 89.5656 106.184 89.7775 106.184C89.9894 106.184 90.1627 105.9 90.1627 105.552C90.1627 105.204 90.4104 104.661 90.7132 104.345C91.3442 103.686 92.4741 103.576 92.4741 104.173C92.4741 104.394 92.9941 104.575 93.6298 104.575C94.2654 104.575 94.7854 104.756 94.7854 104.977C94.7854 105.198 95.4789 105.379 96.3263 105.379C97.1738 105.379 97.8673 105.56 97.8673 105.782C97.8673 106.029 99.7934 106.184 102.875 106.184C105.957 106.184 107.883 106.029 107.883 105.782C107.883 105.56 108.577 105.379 109.424 105.379C110.272 105.379 110.965 105.198 110.965 104.977C110.965 104.756 111.485 104.575 112.121 104.575C112.756 104.575 113.276 104.394 113.276 104.173C113.276 103.952 113.623 103.771 114.047 103.771C114.47 103.771 114.817 103.59 114.817 103.368C114.817 103.147 115.126 102.966 115.503 102.966C115.88 102.966 116.438 102.604 116.743 102.162C117.049 101.719 117.523 101.357 117.797 101.357C118.398 101.357 124.833 94.7148 124.833 94.0946C124.833 92.7042 125.851 92.5087 133.088 92.5087C137.601 92.5087 140.242 92.3603 140.242 92.1065C140.242 91.8853 140.936 91.7043 141.783 91.7043C142.631 91.7043 143.324 91.5233 143.324 91.3021C143.324 91.0808 143.844 90.8998 144.48 90.8998C145.115 90.8998 145.635 90.7188 145.635 90.4976C145.635 90.2764 146.155 90.0954 146.791 90.0954C147.427 90.0954 147.947 89.9144 147.947 89.6932C147.947 89.472 148.293 89.291 148.717 89.291C149.141 89.291 149.488 89.11 149.488 88.8888C149.488 88.6676 149.796 88.4866 150.173 88.4866C150.55 88.4866 151.108 88.1246 151.414 87.6822C151.719 87.2397 152.239 86.8777 152.569 86.8777C152.899 86.8777 153.42 86.5157 153.725 86.0733C154.031 85.6309 154.504 85.2689 154.778 85.2689C155.427 85.2689 162.585 77.7954 162.585 77.1177C162.585 76.8317 162.932 76.337 163.356 76.018C163.779 75.6991 164.126 75.1163 164.126 74.7225C164.126 74.3291 164.299 74.007 164.511 74.007C164.723 74.007 164.897 73.645 164.897 73.2025C164.897 72.7601 165.07 72.3981 165.282 72.3981C165.494 72.3981 165.667 72.0361 165.667 71.5937C165.667 71.1513 165.84 70.7893 166.052 70.7893C166.264 70.7893 166.438 70.4273 166.438 69.9848C166.438 69.5424 166.611 69.1804 166.823 69.1804C167.035 69.1804 167.208 68.6374 167.208 67.9738C167.208 67.3101 167.381 66.7671 167.593 66.7671C167.805 66.7671 167.978 66.2242 167.978 65.5605C167.978 64.8969 168.152 64.3539 168.364 64.3539C168.576 64.3539 168.749 63.4489 168.749 62.3428C168.749 61.2367 168.922 60.3318 169.134 60.3318C169.373 60.3318 169.519 58.1868 169.519 54.7008C169.519 51.2148 169.373 49.0698 169.134 49.0698C168.922 49.0698 168.749 48.1649 168.749 47.0588C168.749 45.9527 168.576 45.0477 168.364 45.0477C168.152 45.0477 167.978 44.5047 167.978 43.8411C167.978 43.1774 167.805 42.6344 167.593 42.6344C167.381 42.6344 167.208 42.0915 167.208 41.4278C167.208 40.7642 167.035 40.2212 166.823 40.2212C166.611 40.2212 166.438 39.8592 166.438 39.4167C166.438 38.9743 166.264 38.6123 166.052 38.6123C165.84 38.6123 165.667 38.2503 165.667 37.8079C165.667 37.3655 165.494 37.0035 165.282 37.0035C165.07 37.0035 164.897 36.6415 164.897 36.1991C164.897 35.7566 164.723 35.3946 164.511 35.3946C164.299 35.3946 164.126 35.0725 164.126 34.6791C164.126 34.2853 163.779 33.7025 163.356 33.3836C162.932 33.0646 162.585 32.5703 162.585 32.2847C162.585 31.607 154.656 23.3283 154.007 23.3283C153.734 23.3283 153.26 22.9663 152.955 22.5239C152.649 22.0814 152.091 21.7194 151.714 21.7194C151.337 21.7194 151.028 21.5384 151.028 21.3172C151.028 21.096 150.682 20.915 150.258 20.915C149.834 20.915 149.488 20.734 149.488 20.5128C149.488 20.2916 149.141 20.1106 148.717 20.1106C148.293 20.1106 147.947 19.9296 147.947 19.7084C147.947 19.4872 147.427 19.3062 146.791 19.3062C146.155 19.3062 145.635 19.1252 145.635 18.9039C145.635 18.6827 145.289 18.5017 144.865 18.5017C144.441 18.5017 144.094 18.3207 144.094 18.0995C144.094 17.8783 143.401 17.6973 142.553 17.6973C141.706 17.6973 141.013 17.5163 141.013 17.2951C141.013 17.0405 138.188 16.8929 133.308 16.8929C128.428 16.8929 125.604 17.0405 125.604 17.2951C125.604 17.5163 125.083 17.6973 124.448 17.6973C123.812 17.6973 123.292 17.8783 123.292 18.0995C123.292 18.3207 122.772 18.5017 122.136 18.5017C121.501 18.5017 120.981 18.6827 120.981 18.9039C120.981 19.1252 120.287 19.3062 119.44 19.3062C118.285 19.3062 117.899 19.1453 117.899 18.663C117.899 18.3095 117.379 17.5127 116.743 16.8929C116.108 16.2731 115.588 15.5628 115.588 15.315C115.588 14.7278 111.498 10.4575 110.935 10.4575C110.698 10.4575 110.018 9.91452 109.424 9.25087C108.83 8.58722 108.067 8.04423 107.729 8.04423C107.39 8.04423 107.113 7.86324 107.113 7.64202C107.113 7.42081 106.766 7.23981 106.342 7.23981C105.918 7.23981 105.572 7.05882 105.572 6.8376C105.572 6.61638 105.225 6.43539 104.801 6.43539C104.378 6.43539 104.031 6.25439 104.031 6.03318C104.031 5.81196 103.511 5.63096 102.875 5.63096C102.24 5.63096 101.72 5.44997 101.72 5.22875C101.72 5.00754 101.199 4.82654 100.564 4.82654C99.9282 4.82654 99.4082 4.64555 99.4082 4.42433C99.4082 4.17214 96.9685 4.02212 92.8593 4.02212C88.7501 4.02212 86.3105 4.17214 86.3105 4.42433C86.3105 4.64555 85.6171 4.82654 84.7696 4.82654C83.9221 4.82654 83.2287 5.00754 83.2287 5.22875C83.2287 5.44997 82.7086 5.63096 82.073 5.63096C81.4374 5.63096 80.9173 5.81196 80.9173 6.03318C80.9173 6.25439 80.5706 6.43539 80.1469 6.43539C79.7231 6.43539 79.3764 6.61638 79.3764 6.8376C79.3764 7.05882 79.0678 7.23981 78.6911 7.23981C78.3139 7.23981 77.7558 7.6018 77.4503 8.04423C77.1448 8.48667 76.6247 8.84866 76.2946 8.84866C75.9645 8.84866 75.4444 9.21065 75.1389 9.65308C74.8334 10.0955 74.3446 10.4575 74.0526 10.4575C73.761 10.4575 73.036 11.0005 72.4423 11.6641C71.284 12.9589 70.131 13.2557 70.131 12.2586C70.131 11.5133 66.1104 7.23981 65.4089 7.23981C65.1334 7.23981 64.6581 6.87782 64.3526 6.43539C64.0471 5.99295 63.527 5.63096 63.1969 5.63096C62.8668 5.63096 62.3467 5.26897 62.0412 4.82654C61.7357 4.38411 61.1776 4.02212 60.8004 4.02212C60.4237 4.02212 60.1151 3.84112 60.1151 3.61991C60.1151 3.39869 59.7684 3.21769 59.3446 3.21769C58.9209 3.21769 58.5742 3.0367 58.5742 2.81548C58.5742 2.59427 58.2275 2.41327 57.8037 2.41327C57.38 2.41327 57.0333 2.23228 57.0333 2.01106C57.0333 1.78984 56.3399 1.60885 55.4924 1.60885C54.6449 1.60885 53.9515 1.42785 53.9515 1.20664C53.9515 0.985419 53.2581 0.804423 52.4106 0.804423C51.5631 0.804423 50.8697 0.623428 50.8697 0.402212C50.8697 0.150829 48.5583 0 44.7061 0C40.8538 0 38.5424 0.150829 38.5424 0.402212ZM57.8037 54.2986V65.9627H56.4281C53.9392 65.9627 53.9515 66.023 53.9515 53.7238V42.6344H55.8776H57.8037V54.2986ZM101.72 43.6685C101.72 45.0562 100.877 45.8521 99.4082 45.8521C98.0984 45.8521 97.0968 46.624 97.0968 47.6335C97.0968 47.981 96.9234 48.2654 96.7116 48.2654C96.4997 48.2654 96.3263 48.4464 96.3263 48.6676C96.3263 48.8888 97.1931 49.0698 98.2525 49.0698C99.9217 49.0698 100.179 49.1772 100.179 49.8742C100.179 50.3167 100.005 50.6787 99.7934 50.6787C99.5815 50.6787 99.4082 51.0407 99.4082 51.4831C99.4082 52.1801 99.1512 52.2875 97.482 52.2875H95.5559V54.7008C95.5559 56.0414 95.3849 57.1141 95.1707 57.1141C94.9565 57.1141 94.7854 58.1868 94.7854 59.5273C94.7854 60.8679 94.6144 61.9406 94.4002 61.9406C94.1883 61.9406 94.015 62.8456 94.015 63.9517C94.015 65.0577 93.8416 65.9627 93.6298 65.9627C93.4179 65.9627 93.2445 66.6867 93.2445 67.5716C93.2445 68.4564 93.0712 69.1804 92.8593 69.1804C92.6474 69.1804 92.4741 69.4599 92.4741 69.8018C92.4741 70.6067 90.7583 72.3981 89.9874 72.3981C89.66 72.3981 89.3923 72.5791 89.3923 72.8003C89.3923 73.5094 85.1733 73.2794 84.4568 72.5308C83.9887 72.0425 83.9436 71.8141 84.2915 71.693C84.5546 71.6013 84.7696 70.9988 84.7696 70.3537C84.7696 69.4656 84.9491 69.1804 85.508 69.1804C85.9141 69.1804 86.3475 69.4069 86.4711 69.6832C86.6506 70.0854 86.7408 70.0854 86.9203 69.6832C87.0439 69.4069 87.403 69.1804 87.7185 69.1804C88.5987 69.1804 89.3923 68.1451 89.3923 66.9968C89.3923 66.4281 89.5656 65.9627 89.7775 65.9627C89.9894 65.9627 90.1627 65.0577 90.1627 63.9517C90.1627 62.8456 90.3361 61.9406 90.548 61.9406C90.7621 61.9406 90.9332 60.8679 90.9332 59.5273C90.9332 58.1868 91.1042 57.1141 91.3184 57.1141C91.5303 57.1141 91.7036 56.2091 91.7036 55.103C91.7036 53.9969 91.877 53.0919 92.0889 53.0919C92.3007 53.0919 92.4741 52.9109 92.4741 52.6897C92.4741 52.4685 91.7807 52.2875 90.9332 52.2875C90.0857 52.2875 89.3923 52.1065 89.3923 51.8853C89.3923 51.6641 89.5656 51.4831 89.7775 51.4831C89.9894 51.4831 90.1627 50.9401 90.1627 50.2765C90.1627 49.2484 90.3095 49.0698 91.1531 49.0698C92.4171 49.0698 93.2445 48.2059 93.2445 46.8862C93.2445 46.3175 93.4179 45.8521 93.6298 45.8521C93.8416 45.8521 94.015 45.5678 94.015 45.2203C94.015 44.4074 94.9426 43.4389 95.7212 43.4389C96.054 43.4389 96.3263 43.2579 96.3263 43.0367C96.3263 42.807 97.482 42.6344 99.0229 42.6344C101.662 42.6344 101.72 42.6562 101.72 43.6685ZM34.6902 49.472C34.6902 49.6933 34.9625 49.8742 35.2954 49.8742C36.1394 49.8742 37.3455 51.1621 36.7091 51.3838C36.446 51.4755 36.2311 51.897 36.2311 52.3209C36.2311 52.9524 35.9518 53.0919 34.6902 53.0919C33.8427 53.0919 33.1493 52.9109 33.1493 52.6897C33.1493 52.4685 32.2825 52.2875 31.2231 52.2875C29.3398 52.2875 29.297 52.3145 29.297 53.4942C29.297 54.4325 29.4681 54.7008 30.0675 54.7008C30.4912 54.7008 30.8379 54.8818 30.8379 55.103C30.8379 55.3242 31.358 55.5052 31.9936 55.5052C32.6292 55.5052 33.1493 55.6862 33.1493 55.9074C33.1493 56.1286 33.496 56.3096 33.9197 56.3096C34.3435 56.3096 34.6902 56.4906 34.6902 56.7118C34.6902 56.9331 35.0369 57.1141 35.4606 57.1141C35.9741 57.1141 36.2311 57.3823 36.2311 57.9185C36.2311 58.3609 36.4044 58.7229 36.6163 58.7229C36.8282 58.7229 37.0015 59.7244 37.0015 60.9483C37.0015 62.9518 36.8682 63.3134 35.666 64.5683C34.3508 65.9414 34.2807 65.9627 31.0432 65.9627C29.1086 65.9627 27.7561 65.7974 27.7561 65.5605C27.7561 65.3393 27.4094 65.1583 26.9857 65.1583C26.5619 65.1583 26.2152 64.9773 26.2152 64.7561C26.2152 64.5349 25.8685 64.3539 25.4448 64.3539C24.9312 64.3539 24.6743 64.0856 24.6743 63.5494C24.6743 63.107 24.8477 62.745 25.0595 62.745C25.2714 62.745 25.4448 62.383 25.4448 61.9406C25.4448 61.4045 25.7017 61.1362 26.2152 61.1362C26.639 61.1362 26.9857 61.3172 26.9857 61.5384C26.9857 61.7596 27.3324 61.9406 27.7561 61.9406C28.1799 61.9406 28.5266 62.1216 28.5266 62.3428C28.5266 62.5664 29.554 62.745 30.8379 62.745C33.0638 62.745 33.1493 62.7068 33.1493 61.7109C33.1493 60.3913 32.3218 59.5273 31.0579 59.5273C30.5132 59.5273 30.0675 59.3463 30.0675 59.1251C30.0675 58.9039 29.6283 58.7229 29.0917 58.7229C28.4915 58.7229 27.6012 58.1856 26.7803 57.3284C25.6069 56.1037 25.4448 55.6862 25.4448 53.8915C25.4448 52.259 25.6347 51.6504 26.3905 50.8617C26.9105 50.3187 27.6039 49.8742 27.9314 49.8742C28.2588 49.8742 28.5266 49.6933 28.5266 49.472C28.5266 49.2375 29.8105 49.0698 31.6084 49.0698C33.4062 49.0698 34.6902 49.2375 34.6902 49.472ZM48.5583 49.472C48.5583 49.6933 48.8307 49.8742 49.1635 49.8742C49.942 49.8742 50.8697 50.8428 50.8697 51.6556C50.8697 52.0032 51.043 52.2875 51.2549 52.2875C51.4957 52.2875 51.6401 54.7008 51.6401 58.7229V65.1583H50.4844C49.8488 65.1583 49.3288 65.3393 49.3288 65.5605C49.3288 65.8018 47.7879 65.9627 45.4765 65.9627C43.1651 65.9627 41.6242 65.8018 41.6242 65.5605C41.6242 65.3393 41.3565 65.1583 41.0291 65.1583C40.7016 65.1583 40.0082 64.7139 39.4882 64.1709C38.6915 63.3395 38.5424 62.7985 38.5424 60.7388C38.5424 58.4852 38.6468 58.1847 39.878 56.8997C40.6989 56.0426 41.5892 55.5052 42.1894 55.5052C42.726 55.5052 43.1651 55.3242 43.1651 55.103C43.1651 54.8794 44.1926 54.7008 45.4765 54.7008C47.321 54.7008 47.7879 54.5733 47.7879 54.0689C47.7879 52.8571 46.7497 52.2875 44.5408 52.2875C43.3605 52.2875 42.3947 52.4685 42.3947 52.6897C42.3947 53.3003 40.4886 53.1704 39.8634 52.5172C39.5606 52.2014 39.3129 51.4775 39.3129 50.9083C39.3129 50.0275 39.4839 49.8742 40.4686 49.8742C41.1042 49.8742 41.6242 49.6933 41.6242 49.472C41.6242 49.2335 43.0369 49.0698 45.0913 49.0698C47.1457 49.0698 48.5583 49.2335 48.5583 49.472ZM72.2597 50.8693C73.7837 52.4601 73.9832 52.8756 73.9832 54.4554C73.9832 55.4919 74.1855 56.341 74.4648 56.4774C74.85 56.6648 74.85 56.7589 74.4648 56.9463C74.2001 57.0754 73.9832 57.5279 73.9832 57.9519C73.9832 58.6722 73.6539 58.7229 68.9753 58.7229C65.8935 58.7229 63.9674 58.8778 63.9674 59.1251C63.9674 59.3463 64.1407 59.5273 64.3526 59.5273C64.5645 59.5273 64.7378 59.8069 64.7378 60.1487C64.7378 60.4906 65.1635 61.2146 65.6835 61.7576C66.4598 62.5685 67.0106 62.745 68.7654 62.745C69.9403 62.745 70.9014 62.564 70.9014 62.3428C70.9014 62.1216 71.4215 61.9406 72.0571 61.9406C72.9558 61.9406 73.2128 62.1192 73.2128 62.745C73.2128 63.1875 73.3861 63.5494 73.598 63.5494C73.8099 63.5494 73.9832 63.9114 73.9832 64.3539C73.9832 64.89 73.7263 65.1583 73.2128 65.1583C72.789 65.1583 72.4423 65.3393 72.4423 65.5605C72.4423 65.8018 70.9014 65.9627 68.5901 65.9627C66.2787 65.9627 64.7378 65.8018 64.7378 65.5605C64.7378 65.3393 64.472 65.1583 64.1473 65.1583C63.1765 65.1583 60.8856 62.4836 60.8856 61.3506C60.8856 60.7903 60.7122 60.3318 60.5003 60.3318C60.2804 60.3318 60.1151 59.1251 60.1151 57.5163C60.1151 55.9074 60.2804 54.7008 60.5003 54.7008C60.7122 54.7008 60.8856 54.2423 60.8856 53.682C60.8856 52.549 63.1765 49.8742 64.1473 49.8742C64.472 49.8742 64.7378 49.6933 64.7378 49.472C64.7378 49.2396 65.9609 49.0698 67.637 49.0698H70.5366L72.2597 50.8693ZM85.54 49.472C85.54 49.6933 85.8124 49.8742 86.1452 49.8742C86.9892 49.8742 88.1954 51.1621 87.559 51.3838C87.2959 51.4755 87.0809 51.897 87.0809 52.3209C87.0809 52.9524 86.8016 53.0919 85.54 53.0919C84.6925 53.0919 83.9991 52.9109 83.9991 52.6897C83.9991 52.4685 83.1324 52.2875 82.073 52.2875C80.1896 52.2875 80.1469 52.3145 80.1469 53.4942C80.1469 54.4325 80.3179 54.7008 80.9173 54.7008C81.3411 54.7008 81.6878 54.8818 81.6878 55.103C81.6878 55.3242 82.0345 55.5052 82.4582 55.5052C82.882 55.5052 83.2287 55.6862 83.2287 55.9074C83.2287 56.1286 83.6678 56.3096 84.2044 56.3096C84.8046 56.3096 85.6949 56.847 86.5158 57.7041C87.6884 58.928 87.8514 59.3471 87.8514 61.1362C87.8514 62.9252 87.6884 63.3443 86.5158 64.5683C85.2006 65.9414 85.1305 65.9627 81.8931 65.9627C79.9585 65.9627 78.6059 65.7974 78.6059 65.5605C78.6059 65.3393 78.1602 65.1583 77.6155 65.1583C77.0704 65.1583 76.377 64.8997 76.0746 64.5835C75.4432 63.9247 75.3373 62.745 75.9094 62.745C76.1212 62.745 76.2946 62.383 76.2946 61.9406C76.2946 61.4045 76.5515 61.1362 77.065 61.1362C77.4888 61.1362 77.8355 61.3172 77.8355 61.5384C77.8355 61.7596 78.1822 61.9406 78.6059 61.9406C79.0297 61.9406 79.3764 62.1216 79.3764 62.3428C79.3764 62.5664 80.4038 62.745 81.6878 62.745C83.9136 62.745 83.9991 62.7068 83.9991 61.7109C83.9991 60.3913 83.1716 59.5273 81.9077 59.5273C81.363 59.5273 80.9173 59.3463 80.9173 59.1251C80.9173 58.9039 80.4781 58.7229 79.9415 58.7229C79.3413 58.7229 78.4511 58.1856 77.6302 57.3284C76.4579 56.1049 76.2946 55.685 76.2946 53.8984C76.2946 52.1504 76.4718 51.6689 77.5466 50.4937C78.7789 49.1466 78.8513 49.1245 82.1693 49.0976C84.1771 49.0811 85.54 49.2323 85.54 49.472ZM110.58 49.8742C110.885 50.3167 111.443 50.6787 111.821 50.6787C112.249 50.6787 112.506 50.9799 112.506 51.4831C112.506 51.9255 112.679 52.2875 112.891 52.2875C113.103 52.2875 113.276 52.6495 113.276 53.0919C113.276 53.5344 113.45 53.8964 113.662 53.8964C113.89 53.8964 114.047 55.3713 114.047 57.5163C114.047 59.6613 113.89 61.1362 113.662 61.1362C113.45 61.1362 113.276 61.4982 113.276 61.9406C113.276 62.383 113.103 62.745 112.891 62.745C112.679 62.745 112.506 63.107 112.506 63.5494C112.506 64.0526 112.249 64.3539 111.821 64.3539C111.443 64.3539 110.885 64.7159 110.58 65.1583C110.106 65.8441 109.582 65.9627 107.028 65.9627C105.287 65.9627 104.031 65.7942 104.031 65.5605C104.031 65.3393 103.765 65.1583 103.44 65.1583C102.47 65.1583 100.179 62.4836 100.179 61.3506C100.179 60.7903 100.005 60.3318 99.7934 60.3318C99.5734 60.3318 99.4082 59.1251 99.4082 57.5163C99.4082 55.9074 99.5734 54.7008 99.7934 54.7008C100.005 54.7008 100.179 54.2423 100.179 53.682C100.179 52.549 102.47 49.8742 103.44 49.8742C103.765 49.8742 104.031 49.6933 104.031 49.472C104.031 49.2384 105.287 49.0698 107.028 49.0698C109.582 49.0698 110.106 49.1885 110.58 49.8742ZM120.371 49.5726C120.551 49.9748 120.641 49.9748 120.82 49.5726C120.963 49.2536 121.878 49.0698 123.324 49.0698H125.604V50.5061C125.604 52.4311 124.872 53.0919 122.742 53.0919C121.238 53.0919 120.981 53.2094 120.981 53.8964C120.981 54.3388 120.807 54.7008 120.596 54.7008C120.357 54.7008 120.21 56.8458 120.21 60.3318V65.9627H118.284H116.358V57.5163V49.0698H118.252C119.391 49.0698 120.236 49.2705 120.371 49.5726ZM137.931 50.5061C137.931 51.9818 136.798 53.7681 136.485 52.7867C136.293 52.1846 132.538 52.0924 132.538 52.6897C132.538 52.9109 132.265 53.0919 131.932 53.0919C130.935 53.0919 130.226 54.153 130.226 55.644C130.226 56.4158 130.01 57.1527 129.745 57.2818C129.359 57.4692 129.359 57.5633 129.745 57.7508C130.01 57.8799 130.226 58.6167 130.226 59.3886C130.226 60.8796 130.935 61.9406 131.932 61.9406C132.265 61.9406 132.538 62.1216 132.538 62.3428C132.538 62.564 133.231 62.745 134.079 62.745C134.926 62.745 135.619 62.564 135.619 62.3428C135.619 61.7455 136.749 61.8561 137.38 62.5154C137.683 62.8311 137.931 63.4775 137.931 63.9517C137.931 65.5665 137.063 65.9627 133.528 65.9627C131.584 65.9627 130.226 65.7974 130.226 65.5605C130.226 65.3393 129.959 65.1583 129.631 65.1583C128.86 65.1583 127.144 63.3668 127.144 62.562C127.144 62.2201 126.971 61.9406 126.759 61.9406C126.547 61.9406 126.374 61.3976 126.374 60.734C126.374 60.0703 126.201 59.5273 125.989 59.5273C125.777 59.5273 125.604 58.6224 125.604 57.5163C125.604 56.4102 125.777 55.5052 125.989 55.5052C126.201 55.5052 126.374 54.9622 126.374 54.2986C126.374 53.6349 126.547 53.0919 126.759 53.0919C126.971 53.0919 127.144 52.8124 127.144 52.4705C127.144 51.6657 128.86 49.8742 129.631 49.8742C129.959 49.8742 130.226 49.6933 130.226 49.472C130.226 49.2307 131.767 49.0698 134.079 49.0698H137.931V50.5061ZM148.717 49.472C148.717 49.6933 148.985 49.8742 149.312 49.8742C150.083 49.8742 151.799 51.6657 151.799 52.4705C151.799 52.8124 151.972 53.0919 152.184 53.0919C152.404 53.0919 152.569 54.2986 152.569 55.9074V58.7229H147.561C141.86 58.7229 141.57 58.93 143.889 61.3506C145.091 62.6059 145.437 62.745 147.356 62.745C148.528 62.745 149.488 62.564 149.488 62.3428C149.488 62.1216 150.008 61.9406 150.643 61.9406C151.711 61.9406 151.799 62.0492 151.799 63.3769C151.799 65.6438 151.208 65.9627 147.011 65.9627C144.81 65.9627 143.324 65.8006 143.324 65.5605C143.324 65.3393 143.058 65.1583 142.733 65.1583C141.966 65.1583 139.472 62.5536 139.472 61.7528C139.472 61.4137 139.298 61.1362 139.086 61.1362C138.858 61.1362 138.701 59.6613 138.701 57.5163C138.701 55.3713 138.858 53.8964 139.086 53.8964C139.298 53.8964 139.472 53.6188 139.472 53.2798C139.472 52.479 141.966 49.8742 142.733 49.8742C143.058 49.8742 143.324 49.6933 143.324 49.472C143.324 49.2424 144.48 49.0698 146.021 49.0698C147.561 49.0698 148.717 49.2424 148.717 49.472ZM65.6046 53.3031C64.0371 55.0511 64.4142 55.5052 67.4344 55.5052C70.074 55.5052 70.131 55.4835 70.131 54.4711C70.131 53.902 69.8833 53.178 69.5805 52.8623C68.7145 51.9577 66.6008 52.1922 65.6046 53.3031ZM104.898 53.3031C104.421 53.8348 104.031 54.548 104.031 54.8874C104.031 55.2273 103.858 55.5052 103.646 55.5052C103.434 55.5052 103.26 56.4102 103.26 57.5163C103.26 58.6224 103.434 59.5273 103.646 59.5273C103.858 59.5273 104.031 59.8069 104.031 60.1487C104.031 60.4906 104.457 61.2146 104.977 61.7576C106.528 63.3777 109.424 62.8609 109.424 60.9636C109.424 60.6161 109.597 60.3318 109.809 60.3318C110.029 60.3318 110.194 59.1251 110.194 57.5163C110.194 55.9074 110.029 54.7008 109.809 54.7008C109.597 54.7008 109.424 54.4164 109.424 54.0689C109.424 52.1741 106.373 51.6581 104.898 53.3031ZM143.805 52.8892C143.541 53.2034 143.324 53.7395 143.324 54.0806C143.324 54.4217 143.151 54.7008 142.939 54.7008C142.727 54.7008 142.553 54.8818 142.553 55.103C142.553 55.3375 143.837 55.5052 145.635 55.5052C149.09 55.5052 149.499 55.0781 147.771 53.275C146.702 52.158 144.595 51.9529 143.805 52.8892ZM44.7061 58.3207C44.7061 58.5419 44.186 58.7229 43.5504 58.7229C42.4821 58.7229 42.3947 58.8315 42.3947 60.1592C42.3947 62.1819 43.1016 62.745 45.6418 62.745H47.7879V60.734C47.7879 58.9912 47.685 58.7229 47.0174 58.7229C46.5937 58.7229 46.247 58.5419 46.247 58.3207C46.247 58.0995 45.9003 57.9185 45.4765 57.9185C45.0528 57.9185 44.7061 58.0995 44.7061 58.3207Z" fill="white"/>
</svg>
