<svg width="505" height="675" viewBox="0 0 505 675" fill="none" xmlns="http://www.w3.org/2000/svg">
<g filter="url(#filter0_d)">
<path fill-rule="evenodd" clip-rule="evenodd" d="M142.551 488.044C126.442 514.225 192.331 581.526 241.828 611.981C291.326 642.437 351.664 656.103 360.62 619.721C363.119 609.569 345.354 587.202 321.789 557.533C316.095 550.363 310.061 542.767 303.893 534.813L285.033 530.391L296.931 525.748C291.803 519.001 286.636 512.031 281.544 504.875C232.046 474.419 158.661 461.863 142.551 488.044Z" fill="#E4E4E4"/>
<path d="M302.172 627.272L200.18 505.311L190.012 514.592L302.172 627.272Z" fill="#D7D7D7"/>
<path d="M337.782 636.335L235.438 514.696L225.974 523.333L337.782 636.335Z" fill="#D7D7D7"/>
<path d="M250.842 607.311L161.689 498.167L150.276 508.584L250.842 607.311Z" fill="#D7D7D7"/>
<path d="M331.154 597.435L241.393 488.846L231.194 498.154L331.154 597.435Z" fill="#D7D7D7"/>
<path d="M101.957 374.82C91.5868 420.516 100.207 461.423 121.212 466.19C142.216 470.957 164.158 455.426 174.529 409.73C167.612 356.622 168.307 306.917 158.767 300.713C136.428 286.186 112.328 329.125 101.957 374.82Z" fill="#E4E4E4"/>
<path d="M146.613 315.978L125.435 421.548L138.169 423.32L146.613 315.978Z" fill="#D7D7D7"/>
<path d="M160.118 337.613L140.629 431.038L153.364 432.81L160.118 337.613Z" fill="#D7D7D7"/>
<path d="M126.664 330.101L107.175 423.526L119.91 425.298L126.664 330.101Z" fill="#D7D7D7"/>
<path d="M323.707 456.851C324.022 475.975 344.339 483.822 381.314 483.213C418.289 482.605 470.081 462.726 456.761 455.783C367.797 437.226 408.648 436.554 371.673 437.163C334.698 437.771 323.392 437.728 323.707 456.851Z" fill="#E4E4E4"/>
<path d="M434.848 457.498L360.948 461.443L361.742 468.401L434.848 457.498Z" fill="#D7D7D7"/>
<path d="M419.051 468.58L353.537 471.679L354.331 478.636L419.051 468.58Z" fill="#D7D7D7"/>
<path d="M418.6 451.764L353.086 454.863L353.88 461.82L418.6 451.764Z" fill="#D7D7D7"/>
<path d="M316.957 33.7202C419.005 88.1353 353.589 113.724 426.706 140.578C472.796 196.115 440.634 214.867 458.492 200.046C476.35 185.226 496.733 167.663 450.643 112.127C404.553 56.5902 377.452 44.3026 316.957 33.7202Z" fill="#E4E4E4"/>
<path d="M362.194 91.893C372.605 84.4071 372.981 72.876 371.867 68.0461L459.552 149.027L453.89 238.653C449.569 230.57 432.391 212.372 398.25 204.245C364.109 196.118 353.536 179.419 352.517 172.085C368.565 176.485 374.295 174.187 375.154 172.488C367.555 169.248 362.681 169.026 361.194 169.32C368.936 158.576 399.305 151.611 413.522 149.471C373.882 98.8072 378.115 107.975 362.194 91.893Z" fill="#E4E4E4"/>
<path d="M355.593 45.7204L456.209 148.436L463.016 141.294L355.593 45.7204Z" fill="#D7D7D7"/>
<path d="M387.26 94.2924L470.807 181.647L478.522 173.553L387.26 94.2924Z" fill="#D7D7D7"/>
<path d="M384.272 164.02L458.284 178.298L459.646 164.601L384.272 164.02Z" fill="#D7D7D7"/>
<path d="M407.799 184.26L469.344 202.994L471.924 189.43L407.799 184.26Z" fill="#D7D7D7"/>
<path d="M406.217 196.479L467.762 215.213L470.342 201.649L406.217 196.479Z" fill="#D7D7D7"/>
<ellipse rx="181.575" ry="74.711" transform="matrix(-0.883811 0.467843 0.467843 0.883811 306.305 420.767)" fill="#D46C5C"/>
<ellipse rx="102.48" ry="52.2477" transform="matrix(-0.999401 0.0346015 0.0346015 0.999401 154.735 478.973)" fill="#D46C5C"/>
<ellipse rx="102.48" ry="52.2477" transform="matrix(-0.992202 -0.124643 -0.124643 0.992202 111.193 476.915)" fill="#D46C5C"/>
<path d="M113.879 391.134C186.876 348.229 342.992 300.293 411.925 281.688L413.685 346.956L151.236 470.637L27.8525 442.635C50.2079 407.556 94.5185 393.685 113.879 391.134Z" fill="#D46C5C"/>
<path d="M381.741 438.039C452.196 430.124 508.625 336.657 497.501 237.639C486.378 138.62 458.931 134.947 450.433 137.525C426.896 144.668 450.607 187.457 433.919 244.374C418.648 296.459 263.256 393.554 381.741 438.039Z" fill="#D46C5C"/>
<ellipse rx="10.6203" ry="6.0028" transform="matrix(-0.999987 -0.00518813 -0.00518813 0.999987 107.466 503.318)" fill="#606060"/>
<path d="M310.6 297.259C292.19 328.308 264.71 352.028 253.271 360.007C434.169 317.348 485.307 281.035 498.322 271.678C516.408 227.486 500.932 217.345 489.961 195.442C499.361 231.667 488.196 264.172 465.651 277.522C446.188 293.181 411.66 299.834 396.828 301.203C382.661 288.517 364.414 295.898 357.061 301.174C332.644 286.92 315.913 292.625 310.6 297.259Z" fill="#E4E4E4"/>
<path fill-rule="evenodd" clip-rule="evenodd" d="M470.144 274.494C470.19 274.535 470.252 274.557 470.318 274.55L498.058 271.866C498.147 271.802 498.234 271.739 498.32 271.678C498.363 271.573 498.406 271.468 498.448 271.364L470.723 274.047C470.531 274.198 470.338 274.347 470.144 274.494Z" fill="#D7D7D7"/>
<path fill-rule="evenodd" clip-rule="evenodd" d="M485.287 256.105L502.819 255.621L486.803 252.967C486.322 254.035 485.817 255.081 485.287 256.105ZM489.846 244.861L503.117 244.637L490.476 242.686C490.276 243.418 490.066 244.143 489.846 244.861ZM492.32 233.966L502.087 233.696L492.844 232.164C492.723 232.396 492.603 232.628 492.482 232.86C492.43 233.23 492.376 233.598 492.32 233.966Z" fill="#D7D7D7"/>
<path fill-rule="evenodd" clip-rule="evenodd" d="M395.154 319.935L394.988 310.568L393.224 320.601C393.871 320.379 394.515 320.156 395.154 319.935ZM384.42 323.584L384.314 307.952L381.584 324.525C382.536 324.21 383.482 323.897 384.42 323.584ZM373.767 327.072L373.405 306.643L369.577 328.411C370.989 327.963 372.385 327.517 373.767 327.072ZM349.019 334.73L348.62 312.242L344.427 336.089C345.972 335.635 347.503 335.182 349.019 334.73ZM333.754 339.181L333.546 308.548L328.243 340.743C330.099 340.221 331.936 339.7 333.754 339.181ZM318.795 343.367L318.144 306.701L311.341 345.393C313.858 344.715 316.343 344.04 318.795 343.367Z" fill="#D7D7D7"/>
<path fill-rule="evenodd" clip-rule="evenodd" d="M401.381 448.228C401.294 448.053 401.207 447.878 401.12 447.703C398.986 443.399 396.85 439.09 394.961 434.703C392.766 429.604 391.318 423.735 389.867 417.856C386.686 404.964 383.494 392.025 372.389 387.064C361.077 382.011 348.985 386.512 336.665 391.097C328.442 394.158 320.117 397.257 311.855 397.577C299.005 398.075 286.237 395.387 274.194 390.87C267.245 388.264 260.873 382.959 254.598 377.736C244.7 369.495 235.044 361.457 223.747 364.533C213.262 367.388 210.101 378.746 206.843 390.451C204.718 398.087 202.552 405.872 198.284 411.539C194.353 416.759 188.823 420.564 183.33 424.345C176.489 429.053 169.704 433.722 166.132 441.037C159.693 454.225 160.11 470.1 162.633 484.561C163.766 491.058 167.565 496.677 171.348 502.273C175.487 508.398 179.609 514.495 180.202 521.687C180.404 524.142 180.274 526.581 179.91 529.007C182.461 528.613 184.973 528.171 187.442 527.684C225.679 531.753 283.226 517.516 341.258 486.797C363.587 474.977 383.858 461.845 401.381 448.228Z" fill="url(#paint0_linear)"/>
<path fill-rule="evenodd" clip-rule="evenodd" d="M448.834 401.975C446.996 398.65 442.958 396.976 438.996 395.333C437.316 394.636 435.649 393.945 434.17 393.136C432.631 392.294 431.105 391.273 429.569 390.246C425.37 387.436 421.106 384.583 416.356 385.252C412.429 385.805 409.703 388.849 406.932 391.942C404.869 394.245 402.781 396.576 400.155 397.926C397.64 399.218 394.792 399.581 391.952 399.944C388.868 400.337 385.792 400.729 383.159 402.31C377.95 405.436 373.881 410.266 370.841 415.521C367.774 420.821 366.527 426.888 365.451 432.914L365.44 432.976C364.339 439.146 363.217 445.433 364.404 451.585C365.606 457.809 368.117 463.948 372.302 468.713C405.164 447.687 431.669 424.246 448.834 401.975Z" fill="url(#paint1_linear)"/>
<path fill-rule="evenodd" clip-rule="evenodd" d="M458.161 137.606C458.538 138.942 458.854 140.345 459.167 141.739C459.668 143.964 460.163 146.167 460.896 148.047C462.193 151.372 463.011 154.79 463.835 158.231C464.196 159.738 464.557 161.25 464.961 162.759C465.362 164.261 465.667 165.781 465.97 167.296C466.525 170.065 467.077 172.82 468.213 175.426C469.156 177.589 470.994 179.562 472.802 181.502C475.728 184.642 478.574 187.696 477.421 191.337C476.44 194.434 472.797 195.054 469.081 195.685C465.597 196.278 462.051 196.881 460.577 199.547C458.755 202.843 459.66 206.884 460.559 210.894C461.51 215.138 462.452 219.346 460.144 222.596C457.654 226.102 452.87 225.969 448.107 225.837C445.92 225.776 443.739 225.715 441.785 226.007C440.516 226.196 439.253 226.414 437.992 226.636C441.322 206.901 440.454 189.39 439.749 175.172L439.749 175.172L439.749 175.171C438.743 154.866 438.069 141.277 450.434 137.525C452.255 136.972 454.947 136.707 458.161 137.606Z" fill="url(#paint2_linear)"/>
<path fill-rule="evenodd" clip-rule="evenodd" d="M72.7495 404.307C72.6444 406.308 72.8243 408.243 73.7506 410.014C74.9818 412.369 77.4699 413.524 79.9922 414.695C81.9357 415.598 83.8995 416.509 85.3244 417.986C87.1966 419.927 88.4732 422.381 89.7409 424.816C91.4186 428.04 93.0807 431.234 96.0872 433.171C101.301 436.53 108.065 437.224 114.256 436.626C120.541 436.018 127.808 434.653 131.704 429.728C133.941 426.9 133.926 423.158 133.91 419.386C133.896 415.968 133.882 412.526 135.543 409.717C136.926 407.379 139.758 406.207 142.538 405.057C145.753 403.726 148.899 402.424 149.651 399.379C150.509 395.907 148.228 392.879 145.893 389.78C144.335 387.713 142.754 385.614 142.064 383.331C141.403 381.145 141.295 378.881 141.232 376.607C131.234 381.48 122.037 386.339 113.878 391.134C104.348 392.39 88.7746 396.388 72.7495 404.307Z" fill="url(#paint3_linear)"/>
</g>
<defs>
<filter id="filter0_d" x="0.988814" y="0" width="527.461" height="674.011" filterUnits="userSpaceOnUse" color-interpolation-filters="sRGB">
<feFlood flood-opacity="0" result="BackgroundImageFix"/>
<feColorMatrix in="SourceAlpha" type="matrix" values="0 0 0 0 0 0 0 0 0 0 0 0 0 0 0 0 0 0 127 0" result="hardAlpha"/>
<feOffset dx="0.923508" dy="14.7761"/>
<feGaussianBlur stdDeviation="4.61754"/>
<feComposite in2="hardAlpha" operator="out"/>
<feColorMatrix type="matrix" values="0 0 0 0 0.655243 0 0 0 0 0.800967 0 0 0 0 0.941667 0 0 0 1 0"/>
<feBlend mode="normal" in2="BackgroundImageFix" result="effect1_dropShadow"/>
<feBlend mode="normal" in="SourceGraphic" in2="effect1_dropShadow" result="shape"/>
</filter>
<linearGradient id="paint0_linear" x1="337.771" y1="326.922" x2="281.15" y2="529.007" gradientUnits="userSpaceOnUse">
<stop stop-color="white" stop-opacity="0.2"/>
<stop offset="1" stop-color="white"/>
</linearGradient>
<linearGradient id="paint1_linear" x1="406.573" y1="335.695" x2="380.714" y2="469.142" gradientUnits="userSpaceOnUse">
<stop stop-color="#979797" stop-opacity="0.4"/>
<stop offset="1" stop-color="#646464"/>
</linearGradient>
<linearGradient id="paint2_linear" x1="422.273" y1="149.146" x2="522.935" y2="248.884" gradientUnits="userSpaceOnUse">
<stop stop-color="#4B4B4B"/>
<stop offset="1" stop-color="#646464" stop-opacity="0"/>
</linearGradient>
<linearGradient id="paint3_linear" x1="111.05" y1="386.95" x2="172.001" y2="468.218" gradientUnits="userSpaceOnUse">
<stop stop-color="white"/>
<stop offset="1" stop-color="white" stop-opacity="0"/>
</linearGradient>
</defs>
</svg>
