<svg width="197" height="64" viewBox="0 0 197 64" fill="none" xmlns="http://www.w3.org/2000/svg">
<path fill-rule="evenodd" clip-rule="evenodd" d="M5.4897 0.342974C5.4897 0.495119 5.1813 0.619602 4.80441 0.619602C3.85663 0.619602 1.14209 3.38312 1.14209 4.348C1.14209 4.73168 1.01981 5.04566 0.870359 5.04566C0.69102 5.04566 0.598633 14.1744 0.598633 31.8786C0.598633 49.5828 0.69102 58.7116 0.870359 58.7116C1.01981 58.7116 1.14209 59.0256 1.14209 59.4092C1.14209 60.3741 3.85663 63.1376 4.80441 63.1376C5.1813 63.1376 5.4897 63.2621 5.4897 63.4143C5.4897 63.5982 36.6477 63.6909 98.4201 63.6909C160.192 63.6909 191.35 63.5982 191.35 63.4143C191.35 63.2621 191.659 63.1376 192.036 63.1376C192.983 63.1376 195.698 60.3741 195.698 59.4092C195.698 59.0256 195.82 58.7116 195.97 58.7116C196.149 58.7116 196.241 49.5828 196.241 31.8786C196.241 14.1744 196.149 5.04566 195.97 5.04566C195.82 5.04566 195.698 4.73168 195.698 4.348C195.698 3.38312 192.983 0.619602 192.036 0.619602C191.659 0.619602 191.35 0.495119 191.35 0.342974C191.35 0.159016 160.192 0.0663452 98.4201 0.0663452C36.6477 0.0663452 5.4897 0.159016 5.4897 0.342974ZM34.9913 17.0594C35.2967 17.37 35.3796 18.4345 35.3796 22.0387C35.3796 24.5599 35.475 26.6227 35.5913 26.6227C35.7078 26.6227 35.9793 26.3737 36.1948 26.0694C36.4102 25.7651 36.804 25.5162 37.07 25.5162C37.3357 25.5162 37.5534 25.3917 37.5534 25.2395C37.5534 25.0874 37.9202 24.9629 38.3686 24.9629C38.8169 24.9629 39.1838 24.8384 39.1838 24.6863C39.1838 24.5341 39.7951 24.4097 40.5424 24.4097C41.2896 24.4097 41.901 24.5341 41.901 24.6863C41.901 24.8384 42.2678 24.9629 42.7162 24.9629C43.1645 24.9629 43.5314 25.0874 43.5314 25.2395C43.5314 25.3917 43.718 25.5162 43.946 25.5162C44.4854 25.5162 46.7921 27.8645 46.7921 28.4136C46.7921 28.6457 46.9144 28.8357 47.0638 28.8357C47.2133 28.8357 47.3355 29.0847 47.3355 29.389C47.3355 29.6933 47.4578 29.9422 47.6073 29.9422C47.7744 29.9422 47.879 31.3254 47.879 33.5384C47.879 35.7514 47.7744 37.1346 47.6073 37.1346C47.4578 37.1346 47.3355 37.4806 47.3355 37.9033C47.3355 38.3548 47.1111 38.8367 46.7921 39.071C46.4932 39.2903 46.2486 39.6347 46.2486 39.8361C46.2486 40.341 45.0082 41.5606 44.4946 41.5606C44.2637 41.5606 44.0748 41.6851 44.0748 41.8372C44.0748 41.9894 43.8303 42.1139 43.5314 42.1139C43.2325 42.1139 42.9879 42.2384 42.9879 42.3905C42.9879 42.5426 42.6211 42.6671 42.1727 42.6671C41.7244 42.6671 41.3576 42.7916 41.3576 42.9438C41.3576 43.0959 40.8685 43.2204 40.2707 43.2204C39.6729 43.2204 39.1838 43.0959 39.1838 42.9438C39.1838 42.7916 38.8169 42.6671 38.3686 42.6671C37.9202 42.6671 37.5534 42.5426 37.5534 42.3905C37.5534 42.2384 37.358 42.1139 37.1189 42.1139C36.8801 42.1139 36.3418 41.7404 35.923 41.284C35.5043 40.8275 35.0883 40.4541 34.9989 40.4541C34.9092 40.4541 34.8361 40.952 34.8361 41.5606V42.6671H33.2058H31.5754V30.0689C31.5754 20.3842 31.6539 17.3797 31.9151 17.0779C32.3623 16.5609 34.4891 16.5479 34.9913 17.0594ZM72.8778 29.6656V42.6671H71.2474H69.6171V30.0689C69.6171 20.3842 69.6956 17.3797 69.9567 17.0779C70.1575 16.8458 70.8244 16.6809 71.5871 16.6746L72.8778 16.6641V29.6656ZM142.86 19.0029C143.517 19.6716 143.785 21.0901 143.255 21.0901C143.105 21.0901 142.983 21.3391 142.983 21.6434C142.983 22.0121 142.802 22.1966 142.44 22.1966C142.141 22.1966 141.896 22.3211 141.896 22.4733C141.896 22.6254 141.652 22.7499 141.353 22.7499C141.054 22.7499 140.809 22.6254 140.809 22.4733C140.809 22.3211 140.617 22.1966 140.382 22.1966C139.139 22.1966 138.756 20.1465 139.79 19.0223C140.626 18.1144 141.978 18.1056 142.86 19.0029ZM59.2915 24.6863C59.2915 24.8384 59.7227 24.9629 60.2496 24.9629C61.0221 24.9629 61.4436 25.2027 62.4234 26.2005C63.0921 26.881 63.6391 27.6279 63.6391 27.8603C63.6391 28.0924 63.7614 28.2824 63.9108 28.2824C64.0603 28.2824 64.1826 28.6559 64.1826 29.1123C64.1826 29.5688 64.3048 29.9422 64.4543 29.9422C64.6276 29.9422 64.726 32.2474 64.726 36.3047V42.6671H63.0957H61.4653V41.8372C61.4653 40.8721 61.2012 40.7825 60.6501 41.5606C60.4346 41.8649 60.0409 42.1139 59.7749 42.1139C59.5091 42.1139 59.2915 42.2384 59.2915 42.3905C59.2915 42.5426 58.8024 42.6671 58.2046 42.6671C57.6068 42.6671 57.1177 42.7916 57.1177 42.9438C57.1177 43.0959 56.7509 43.2204 56.3025 43.2204C55.8542 43.2204 55.4873 43.0959 55.4873 42.9438C55.4873 42.7916 55.1205 42.6671 54.6721 42.6671C54.2238 42.6671 53.857 42.5426 53.857 42.3905C53.857 42.2384 53.6681 42.1139 53.4371 42.1139C52.8934 42.1139 51.6832 40.8818 51.6832 40.3282C51.6832 40.0931 51.5609 39.9008 51.4114 39.9008C51.253 39.9008 51.1397 38.9788 51.1397 37.6878C51.1397 36.3968 51.253 35.4748 51.4114 35.4748C51.5609 35.4748 51.6832 35.2839 51.6832 35.0507C51.6832 34.5 53.4429 32.7085 53.9839 32.7085C54.2129 32.7085 54.4004 32.584 54.4004 32.4319C54.4004 32.2797 54.7673 32.1552 55.2156 32.1552C55.6639 32.1552 56.0308 32.0308 56.0308 31.8786C56.0308 31.7265 56.6422 31.602 57.3894 31.602C58.1367 31.602 58.748 31.4775 58.748 31.3254C58.748 31.1732 59.2371 31.0487 59.8349 31.0487C60.8988 31.0487 60.9218 31.0277 60.9218 30.0681C60.9218 28.883 59.9224 27.7292 58.8961 27.7292C58.5157 27.7292 58.2046 27.6047 58.2046 27.4526C58.2046 27.3004 57.8378 27.1759 57.3894 27.1759C56.9411 27.1759 56.5742 27.3004 56.5742 27.4526C56.5742 27.6047 56.0851 27.7292 55.4873 27.7292C54.8895 27.7292 54.4004 27.8537 54.4004 28.0058C54.4004 28.158 54.0336 28.2824 53.5852 28.2824C52.9513 28.2824 52.7701 28.1596 52.7701 27.7292C52.7701 27.4249 52.6478 27.1759 52.4983 27.1759C52.0948 27.1759 52.1695 26.3646 52.6149 25.9115C52.8282 25.694 53.3173 25.5162 53.7018 25.5162C54.086 25.5162 54.4004 25.3917 54.4004 25.2395C54.4004 25.0874 54.8895 24.9629 55.4873 24.9629C56.0851 24.9629 56.5742 24.8384 56.5742 24.6863C56.5742 24.5341 57.1856 24.4097 57.9329 24.4097C58.6801 24.4097 59.2915 24.5341 59.2915 24.6863ZM84.8338 24.6863C84.8338 24.8384 85.2704 24.9629 85.8041 24.9629C87.0008 24.9629 87.551 25.4857 87.551 26.6227C87.551 27.101 87.3763 27.67 87.1627 27.8871C86.7176 28.3405 85.9207 28.4166 85.9207 28.0058C85.9207 27.8537 85.4419 27.7292 84.8563 27.7292C84.2707 27.7292 83.7208 27.5737 83.6335 27.3834C83.5069 27.1068 83.4433 27.1068 83.3167 27.3834C83.2295 27.5737 82.854 27.7292 82.482 27.7292C81.4736 27.7292 81.0296 28.3574 81.0296 29.7843C81.0296 30.8642 81.1089 31.0487 81.573 31.0487C81.8719 31.0487 82.1165 31.1732 82.1165 31.3254C82.1165 31.4775 82.361 31.602 82.6599 31.602C82.9588 31.602 83.2034 31.7265 83.2034 31.8786C83.2034 32.0308 83.4479 32.1552 83.7468 32.1552C84.0457 32.1552 84.2903 32.2797 84.2903 32.4319C84.2903 32.584 84.5349 32.7085 84.8338 32.7085C85.1327 32.7085 85.3772 32.833 85.3772 32.9851C85.3772 33.1373 85.5647 33.2618 85.7938 33.2618C86.4785 33.2618 88.0945 35.1013 88.0945 35.8806C88.0945 36.2659 88.2167 36.5813 88.3662 36.5813C88.5156 36.5813 88.6379 36.9548 88.6379 37.4112C88.6379 37.8676 88.5156 38.2411 88.3662 38.2411C88.2167 38.2411 88.0945 38.6145 88.0945 39.071C88.0945 39.5274 87.9722 39.9008 87.8227 39.9008C87.6733 39.9008 87.551 40.0964 87.551 40.3354C87.551 40.8945 86.8967 41.5606 86.3475 41.5606C86.1128 41.5606 85.9207 41.6851 85.9207 41.8372C85.9207 41.9894 85.6761 42.1139 85.3772 42.1139C85.0783 42.1139 84.8338 42.2384 84.8338 42.3905C84.8338 42.5426 84.3446 42.6671 83.7468 42.6671C83.149 42.6671 82.6599 42.7916 82.6599 42.9438C82.6599 43.0959 82.2931 43.2204 81.8448 43.2204C81.3964 43.2204 81.0296 43.0959 81.0296 42.9438C81.0296 42.7916 80.4182 42.6671 79.671 42.6671C78.9237 42.6671 78.3123 42.5426 78.3123 42.3905C78.3123 42.2384 78.0678 42.1139 77.7689 42.1139C77.3159 42.1139 77.2254 41.9294 77.2254 41.0074C77.2254 40.3988 77.3477 39.9008 77.4971 39.9008C77.6466 39.9008 77.7689 39.6519 77.7689 39.3476C77.7689 39.0433 77.8912 38.7943 78.0406 38.7943C78.19 38.7943 78.3123 38.9188 78.3123 39.071C78.3123 39.2231 78.5569 39.3476 78.8558 39.3476C79.1547 39.3476 79.3992 39.4721 79.3992 39.6242C79.3992 40.0815 83.9857 39.9739 84.4455 39.5055C85.0952 38.8441 84.9367 36.9376 84.1667 36.1539C83.7998 35.7805 83.3107 35.4748 83.0798 35.4748C82.8488 35.4748 82.6599 35.3503 82.6599 35.1982C82.6599 35.046 82.2931 34.9215 81.8448 34.9215C81.3964 34.9215 81.0296 34.7971 81.0296 34.6449C81.0296 34.4928 80.8429 34.3683 80.6149 34.3683C79.9141 34.3683 77.7689 31.9757 77.7689 31.1942C77.7689 30.81 77.6466 30.4955 77.4971 30.4955C77.3477 30.4955 77.2254 30.122 77.2254 29.6656C77.2254 29.2092 77.3477 28.8357 77.4971 28.8357C77.6466 28.8357 77.7689 28.5203 77.7689 28.135C77.7689 27.3557 79.3848 25.5162 80.0696 25.5162C80.2986 25.5162 80.4861 25.3917 80.4861 25.2395C80.4861 25.0874 80.853 24.9629 81.3013 24.9629C81.7497 24.9629 82.1165 24.8384 82.1165 24.6863C82.1165 24.5341 82.7279 24.4097 83.4751 24.4097C84.2224 24.4097 84.8338 24.5341 84.8338 24.6863ZM100.05 24.6863C100.05 24.8384 100.417 24.9629 100.866 24.9629C101.314 24.9629 101.681 25.0874 101.681 25.2395C101.681 25.3917 101.87 25.5162 102.101 25.5162C102.644 25.5162 103.855 26.7483 103.855 27.3018C103.855 27.5369 103.977 27.7292 104.126 27.7292C104.276 27.7292 104.398 27.9782 104.398 28.2824C104.398 28.5867 104.52 28.8357 104.67 28.8357C104.843 28.8357 104.941 31.1334 104.941 35.1752C104.941 39.9764 105.023 41.5424 105.279 41.6289C105.524 41.7122 105.492 41.8693 105.162 42.2052C104.544 42.8345 102.224 42.8558 102.224 42.2325C102.224 41.9933 102.036 41.6063 101.806 41.3722C101.43 40.9894 101.339 41.0054 100.891 41.5305C100.618 41.8514 100.195 42.1139 99.9507 42.1139C99.7067 42.1139 99.507 42.2384 99.507 42.3905C99.507 42.5426 99.1401 42.6671 98.6918 42.6671C98.2434 42.6671 97.8766 42.7916 97.8766 42.9438C97.8766 43.0959 97.3875 43.2204 96.7897 43.2204C96.1919 43.2204 95.7028 43.0959 95.7028 42.9438C95.7028 42.7916 95.3938 42.6671 95.0164 42.6671C94.2488 42.6671 91.8986 40.4831 91.8986 39.7697C91.8986 39.5376 91.7764 39.3476 91.6269 39.3476C91.4758 39.3476 91.3552 38.6098 91.3552 37.6878C91.3552 36.7658 91.4758 36.028 91.6269 36.028C91.7764 36.028 91.8986 35.838 91.8986 35.6059C91.8986 35.0568 94.2053 32.7085 94.7447 32.7085C94.9727 32.7085 95.1593 32.584 95.1593 32.4319C95.1593 32.2797 95.4039 32.1552 95.7028 32.1552C96.0017 32.1552 96.2463 32.0308 96.2463 31.8786C96.2463 31.7265 96.8576 31.602 97.6049 31.602C98.3521 31.602 98.9635 31.4775 98.9635 31.3254C98.9635 31.1732 99.5749 31.0487 100.322 31.0487C101.5 31.0487 101.681 30.9749 101.681 30.4955C101.681 30.1912 101.559 29.9422 101.409 29.9422C101.26 29.9422 101.137 29.5688 101.137 29.1123C101.137 28.467 101.017 28.2824 100.594 28.2824C100.295 28.2824 100.05 28.158 100.05 28.0058C100.05 27.8537 99.8059 27.7292 99.507 27.7292C99.2081 27.7292 98.9635 27.6047 98.9635 27.4526C98.9635 27.3004 98.4744 27.1759 97.8766 27.1759C97.2788 27.1759 96.7897 27.3004 96.7897 27.4526C96.7897 27.6047 96.3006 27.7292 95.7028 27.7292C95.105 27.7292 94.6159 27.8537 94.6159 28.0058C94.6159 28.158 94.2491 28.2824 93.8007 28.2824C93.0472 28.2824 92.9855 28.2078 92.9855 27.2946C92.9855 26.2484 93.4809 25.5162 94.189 25.5162C94.4238 25.5162 94.6159 25.3917 94.6159 25.2395C94.6159 25.0874 95.105 24.9629 95.7028 24.9629C96.3006 24.9629 96.7897 24.8384 96.7897 24.6863C96.7897 24.5325 97.5144 24.4097 98.4201 24.4097C99.3257 24.4097 100.05 24.5325 100.05 24.6863ZM119.615 24.6863C119.615 24.8384 119.859 24.9629 120.158 24.9629C120.457 24.9629 120.702 25.0874 120.702 25.2395C120.702 25.3917 120.89 25.5162 121.121 25.5162C121.665 25.5162 122.875 26.7483 122.875 27.3018C122.875 27.9574 123.077 27.8393 124.506 26.3461C125.415 25.3958 126.047 24.9629 126.526 24.9629C126.909 24.9629 127.223 24.8384 127.223 24.6863C127.223 24.5341 127.834 24.4097 128.582 24.4097C129.329 24.4097 129.94 24.5341 129.94 24.6863C129.94 24.8384 130.25 24.9629 130.629 24.9629C131.394 24.9629 133.201 26.608 133.201 27.3051C133.201 27.5383 133.323 27.7292 133.473 27.7292C133.622 27.7292 133.744 27.9782 133.744 28.2824C133.744 28.5867 133.867 28.8357 134.016 28.8357C134.19 28.8357 134.288 31.3254 134.288 35.7514V42.6671H132.658H131.027V36.3047C131.027 32.2474 130.929 29.9422 130.755 29.9422C130.606 29.9422 130.484 29.75 130.484 29.5148C130.484 29.2797 130.184 28.7818 129.817 28.4083C129.269 27.8506 128.881 27.7292 127.643 27.7292C126.814 27.7292 126.136 27.8537 126.136 28.0058C126.136 28.158 125.892 28.2824 125.593 28.2824C125.23 28.2824 125.049 28.467 125.049 28.8357C125.049 29.14 124.927 29.389 124.778 29.389C124.628 29.389 124.506 29.6379 124.506 29.9422C124.506 30.2465 124.383 30.4955 124.234 30.4955C124.061 30.4955 123.962 32.7085 123.962 36.5813V42.6671H122.332H120.702V36.8579C120.702 33.1696 120.602 31.0487 120.43 31.0487C120.28 31.0487 120.158 30.6753 120.158 30.2188C120.158 29.7624 120.036 29.389 119.886 29.389C119.737 29.389 119.615 29.14 119.615 28.8357C119.615 28.467 119.433 28.2824 119.071 28.2824C118.772 28.2824 118.528 28.158 118.528 28.0058C118.528 27.8537 117.916 27.7292 117.169 27.7292C116.422 27.7292 115.811 27.8537 115.811 28.0058C115.811 28.158 115.618 28.2824 115.384 28.2824C114.834 28.2824 114.18 28.9486 114.18 29.5076C114.18 29.7466 114.058 29.9422 113.908 29.9422C113.736 29.9422 113.637 32.1157 113.637 35.9094C113.637 40.7122 113.561 41.954 113.248 42.2718C113.005 42.52 112.296 42.6671 111.346 42.6671H109.833V33.815V24.9629H111.463H113.093V26.0694C113.093 26.678 113.164 27.1759 113.25 27.1759C113.337 27.1759 113.877 26.678 114.452 26.0694C115.141 25.3394 115.735 24.9629 116.197 24.9629C116.582 24.9629 116.897 24.8384 116.897 24.6863C116.897 24.5341 117.509 24.4097 118.256 24.4097C119.003 24.4097 119.615 24.5341 119.615 24.6863ZM156.026 24.6863C156.026 24.8384 156.393 24.9629 156.841 24.9629C157.29 24.9629 157.656 25.0874 157.656 25.2395C157.656 25.3917 157.874 25.5162 158.14 25.5162C158.406 25.5162 158.8 25.7651 159.015 26.0694C159.485 26.7333 159.83 26.7834 159.83 26.1881C159.83 25.4365 160.565 24.9629 161.732 24.9629C162.352 24.9629 163.033 25.1408 163.246 25.3582C163.691 25.8113 163.766 26.6227 163.363 26.6227C163.186 26.6227 163.091 30.68 163.091 38.2411V49.8595H161.849C159.893 49.8595 159.83 49.6999 159.83 44.7615C159.83 42.3924 159.757 40.4541 159.667 40.4541C159.578 40.4541 159.162 40.8275 158.743 41.284C158.325 41.7404 157.786 42.1139 157.547 42.1139C157.308 42.1139 157.113 42.2384 157.113 42.3905C157.113 42.5426 156.746 42.6671 156.298 42.6671C155.849 42.6671 155.483 42.7916 155.483 42.9438C155.483 43.0959 154.993 43.2204 154.396 43.2204C153.798 43.2204 153.309 43.0959 153.309 42.9438C153.309 42.7916 152.942 42.6671 152.494 42.6671C152.045 42.6671 151.678 42.5426 151.678 42.3905C151.678 42.2384 151.492 42.1139 151.264 42.1139C150.724 42.1139 148.418 39.7656 148.418 39.2165C148.418 38.9844 148.295 38.7943 148.146 38.7943C147.997 38.7943 147.874 38.5454 147.874 38.2411C147.874 37.9368 147.752 37.6878 147.603 37.6878C147.453 37.6878 147.331 37.0654 147.331 36.3047C147.331 35.5439 147.208 34.9215 147.059 34.9215C146.91 34.9215 146.787 34.5481 146.787 34.0916C146.787 33.6352 146.91 33.2618 147.059 33.2618C147.208 33.2618 147.331 32.6393 147.331 31.8786C147.331 31.1179 147.453 30.4955 147.603 30.4955C147.752 30.4955 147.874 30.1494 147.874 29.7267C147.874 29.2753 148.099 28.7934 148.418 28.5591C148.717 28.3397 148.961 27.9953 148.961 27.7939C148.961 27.319 150.189 26.0694 150.655 26.0694C150.853 26.0694 151.191 25.8205 151.407 25.5162C151.679 25.1308 152.11 24.9629 152.825 24.9629C153.39 24.9629 153.852 24.8384 153.852 24.6863C153.852 24.5341 154.341 24.4097 154.939 24.4097C155.537 24.4097 156.026 24.5341 156.026 24.6863ZM171.388 25.3687C172.107 26.101 172.33 26.5585 172.33 27.3051C172.33 27.8426 172.207 28.2824 172.058 28.2824C171.908 28.2824 171.786 28.478 171.786 28.717C171.786 29.2761 171.132 29.9422 170.583 29.9422C170.348 29.9422 170.156 30.0667 170.156 30.2188C170.156 30.371 169.789 30.4955 169.341 30.4955C168.892 30.4955 168.525 30.371 168.525 30.2188C168.525 30.0667 168.333 29.9422 168.099 29.9422C167.549 29.9422 166.895 29.2761 166.895 28.717C166.895 28.478 166.773 28.2824 166.623 28.2824C166.474 28.2824 166.352 27.8432 166.352 27.3065C166.352 25.8171 167.74 24.4539 169.282 24.4287C170.26 24.4127 170.596 24.5623 171.388 25.3687ZM142.983 33.815V42.6671H141.353H139.722V33.815V24.9629H141.353H142.983V33.815ZM168.525 25.7928C168.525 25.9449 168.892 26.0694 169.341 26.0694C169.789 26.0694 170.156 25.9449 170.156 25.7928C170.156 25.6406 169.789 25.5162 169.341 25.5162C168.892 25.5162 168.525 25.6406 168.525 25.7928ZM38.0968 28.0058C38.0968 28.158 37.908 28.2824 37.677 28.2824C37.1333 28.2824 35.923 29.5146 35.923 30.0681C35.923 30.3032 35.8008 30.4955 35.6513 30.4955C35.4853 30.4955 35.3796 31.7865 35.3796 33.815C35.3796 35.8435 35.4853 37.1346 35.6513 37.1346C35.8008 37.1346 35.923 37.3268 35.923 37.562C35.923 38.1155 37.1333 39.3476 37.677 39.3476C37.908 39.3476 38.0968 39.4721 38.0968 39.6242C38.0968 39.778 38.8215 39.9008 39.7272 39.9008C40.6329 39.9008 41.3576 39.778 41.3576 39.6242C41.3576 39.4721 41.5464 39.3476 41.7774 39.3476C42.3211 39.3476 43.5314 38.1155 43.5314 37.562C43.5314 37.3268 43.6536 37.1346 43.8031 37.1346C43.9525 37.1346 44.0748 36.8856 44.0748 36.5813C44.0748 36.277 44.1971 36.028 44.3465 36.028C44.505 36.028 44.6183 35.106 44.6183 33.815C44.6183 32.524 44.505 31.602 44.3465 31.602C44.1971 31.602 44.0748 31.2875 44.0748 30.9032C44.0748 30.4443 43.6572 29.7793 42.8591 28.9668C41.6679 27.7538 41.6081 27.7292 39.8701 27.7292C38.8691 27.7292 38.0968 27.8495 38.0968 28.0058ZM152.29 28.9876C151.552 29.7655 151.135 30.4584 151.135 30.9041C151.135 31.2877 151.013 31.602 150.863 31.602C150.705 31.602 150.591 32.524 150.591 33.815C150.591 35.106 150.705 36.028 150.863 36.028C151.013 36.028 151.135 36.3426 151.135 36.7268C151.135 37.1857 151.553 37.8507 152.351 38.6632C153.542 39.8762 153.602 39.9008 155.34 39.9008C156.341 39.9008 157.113 39.7805 157.113 39.6242C157.113 39.4721 157.305 39.3476 157.54 39.3476C158.089 39.3476 158.743 38.6815 158.743 38.1224C158.743 37.8834 158.866 37.6878 159.015 37.6878C159.164 37.6878 159.287 37.4389 159.287 37.1346C159.287 36.8303 159.409 36.5813 159.558 36.5813C159.723 36.5813 159.83 35.3827 159.83 33.5384C159.83 31.6941 159.723 30.4955 159.558 30.4955C159.409 30.4955 159.287 30.3032 159.287 30.0681C159.287 29.5146 158.076 28.2824 157.533 28.2824C157.302 28.2824 157.113 28.158 157.113 28.0058C157.113 27.8468 156.334 27.7378 155.279 27.7491C153.476 27.769 153.425 27.7903 152.29 28.9876ZM169.069 28.5591C169.069 28.7112 169.191 28.8357 169.341 28.8357C169.49 28.8357 169.612 28.7112 169.612 28.5591C169.612 28.4069 169.49 28.2824 169.341 28.2824C169.191 28.2824 169.069 28.4069 169.069 28.5591ZM58.2046 34.0916C58.2046 34.2438 57.8378 34.3683 57.3894 34.3683C56.9411 34.3683 56.5742 34.4928 56.5742 34.6449C56.5742 34.7971 56.3821 34.9215 56.1473 34.9215C55.9123 34.9215 55.5455 35.0994 55.3322 35.3168C55.1186 35.534 54.9439 35.9074 54.9439 36.1467C54.9439 36.3857 54.8216 36.5813 54.6721 36.5813C54.0972 36.5813 54.389 38.5313 55.0675 39.2217C55.6292 39.7938 55.9946 39.9008 57.3861 39.9008C58.9086 39.9008 59.1116 39.8259 59.9798 38.9418C60.8879 38.0173 60.9218 37.908 60.9218 35.8989V33.815H59.5632C58.816 33.815 58.2046 33.9395 58.2046 34.0916ZM98.4201 34.0916C98.4201 34.2438 98.0532 34.3683 97.6049 34.3683C97.1565 34.3683 96.7897 34.4928 96.7897 34.6449C96.7897 34.7971 96.5452 34.9215 96.2463 34.9215C95.884 34.9215 95.7028 35.106 95.7028 35.4748C95.7028 35.7791 95.5805 36.028 95.4311 36.028C94.9993 36.028 95.1006 39.0508 95.5476 39.5055C96.0001 39.9664 99.507 40.0712 99.507 39.6242C99.507 39.4721 99.6991 39.3476 99.9339 39.3476C100.483 39.3476 101.137 38.6815 101.137 38.1224C101.137 37.8834 101.26 37.6878 101.409 37.6878C101.564 37.6878 101.681 36.8579 101.681 35.7514V33.815H100.05C99.1448 33.815 98.4201 33.9378 98.4201 34.0916Z" fill="white"/>
</svg>
