<svg width="129" height="98" viewBox="0 0 129 98" fill="none" xmlns="http://www.w3.org/2000/svg">
<path fill-rule="evenodd" clip-rule="evenodd" d="M81.1627 3.52266C78.5341 6.21761 77.6661 7.67223 78.6866 7.67223C78.9045 7.67223 79.0828 7.49334 79.0828 7.27469C79.0828 7.02225 82.1202 6.87714 87.4023 6.87714C92.6844 6.87714 95.7218 7.02225 95.7218 7.27469C95.7218 7.49334 96.0019 7.67223 96.3442 7.67223C97.9693 7.67223 98.0988 8.41882 98.0988 17.7814C98.0988 25.5347 98.1804 26.7544 98.6994 26.7544C99.0298 26.7544 100.634 25.4155 102.265 23.7792L105.23 20.804V10.6602V0.516418L94.6323 0.547031L84.0349 0.57764L81.1627 3.52266ZM70.8623 13.0637L67.9901 16.0088V26.5497V37.0906H78.4949H88.9996L91.9645 34.1154C93.5952 32.4791 94.9295 30.869 94.9295 30.5375C94.9295 30.0159 93.672 29.9348 85.5914 29.9348C78.0262 29.9348 76.1456 29.827 75.6872 29.3667C75.2285 28.9067 75.1211 27.0196 75.1211 19.428C75.1211 8.3425 75.2617 8.5528 70.8623 13.0637ZM85.4214 12.8403C85.4214 13.059 84.9678 13.2379 84.4132 13.2379C83.3012 13.2379 81.4598 14.838 81.4598 15.804C81.4598 16.1419 81.2815 16.4182 81.0636 16.4182C80.8433 16.4182 80.6674 17.4785 80.6674 18.8035C80.6674 20.1285 80.8433 21.1888 81.0636 21.1888C81.2815 21.1888 81.4598 21.4698 81.4598 21.8133C81.4598 22.6168 82.4137 23.574 83.2144 23.574C83.5567 23.574 83.8368 23.7529 83.8368 23.9716C83.8368 24.1962 84.9635 24.3691 86.4249 24.3691C88.8503 24.3691 89.0999 24.2821 90.3866 22.9908C91.1421 22.2331 91.7601 21.3386 91.7601 21.0031C91.7601 20.668 91.9384 20.3937 92.1563 20.3937C92.3742 20.3937 92.5525 19.6781 92.5525 18.8035C92.5525 17.9289 92.3742 17.2133 92.1563 17.2133C91.9384 17.2133 91.7601 16.8555 91.7601 16.4182C91.7601 15.9809 91.5819 15.6231 91.364 15.6231C91.1461 15.6231 90.9678 15.2654 90.9678 14.8281C90.9678 14.2981 90.7036 14.033 90.1755 14.033C89.7397 14.033 89.3831 13.8541 89.3831 13.6354C89.3831 13.4168 89.0266 13.2379 88.5908 13.2379C88.155 13.2379 87.7985 13.059 87.7985 12.8403C87.7985 12.6217 87.2636 12.4428 86.61 12.4428C85.9563 12.4428 85.4214 12.6217 85.4214 12.8403ZM49.4692 29.7642L44.22 35.0957V60.3434C44.22 76.9103 44.0837 85.5911 43.8239 85.5911C43.1535 85.5911 43.3124 95.4709 43.9938 96.1543C44.4284 96.5908 45.8047 96.7224 49.9363 96.7224H55.3127V93.9396C55.3127 92.409 55.4133 91.1568 55.5366 91.1568C55.6598 91.1568 56.6284 92.0512 57.6897 93.1445C58.7511 94.2377 59.898 95.1322 60.2391 95.1322C60.5802 95.1322 60.8591 95.3111 60.8591 95.5298C60.8591 95.7484 61.2156 95.9273 61.6514 95.9273C62.0872 95.9273 62.4437 96.1062 62.4437 96.3248C62.4437 96.5435 63.1568 96.7224 64.0284 96.7224C64.9 96.7224 65.6131 96.9013 65.6131 97.1199C65.6131 97.3608 67.3297 97.5175 69.9709 97.5175C72.6122 97.5175 74.3288 97.3608 74.3288 97.1199C74.3288 96.9013 75.2201 96.7224 76.3096 96.7224C77.3991 96.7224 78.2904 96.5435 78.2904 96.3248C78.2904 96.1062 78.647 95.9273 79.0828 95.9273C79.5186 95.9273 79.8751 95.7484 79.8751 95.5298C79.8751 95.3111 80.2317 95.1322 80.6674 95.1322C81.1032 95.1322 81.4598 94.9533 81.4598 94.7347C81.4598 94.516 81.8163 94.3371 82.2521 94.3371C82.6879 94.3371 83.0444 94.1582 83.0444 93.9396C83.0444 93.7209 83.315 93.542 83.6462 93.542C84.378 93.542 89.3831 88.5962 89.3831 87.8726C89.3831 87.5892 89.7397 87.099 90.1755 86.7838C90.6406 86.447 90.9678 85.7545 90.9678 85.1057C90.9678 84.4983 91.1461 84.0009 91.364 84.0009C91.5819 84.0009 91.7601 83.6432 91.7601 83.2058C91.7601 82.7685 91.9384 82.4108 92.1563 82.4108C92.3742 82.4108 92.5525 81.6952 92.5525 80.8206C92.5525 79.946 92.7307 79.2304 92.9486 79.2304C93.195 79.2304 93.3448 76.9775 93.3448 73.2672C93.3448 69.5569 93.195 67.304 92.9486 67.304C92.7307 67.304 92.5525 66.5885 92.5525 65.7139C92.5525 64.8393 92.3742 64.1237 92.1563 64.1237C91.9384 64.1237 91.7601 63.587 91.7601 62.931C91.7601 62.2751 91.5819 61.7384 91.364 61.7384C91.1461 61.7384 90.9678 61.42 90.9678 61.0312C90.9678 60.642 90.6112 60.0659 90.1755 59.7507C89.7397 59.4354 89.3831 58.9452 89.3831 58.6618C89.3831 57.9383 84.378 52.9924 83.6462 52.9924C83.315 52.9924 83.0444 52.8135 83.0444 52.5949C83.0444 52.3762 82.6879 52.1973 82.2521 52.1973C81.8163 52.1973 81.4598 52.0184 81.4598 51.7998C81.4598 51.5811 81.1032 51.4022 80.6674 51.4022C80.2317 51.4022 79.8751 51.2233 79.8751 51.0047C79.8751 50.786 79.3403 50.6071 78.6866 50.6071C78.0329 50.6071 77.4981 50.4282 77.4981 50.2096C77.4981 49.9611 75.1211 49.812 71.1594 49.812C67.1977 49.812 64.8207 49.9611 64.8207 50.2096C64.8207 50.4282 64.2859 50.6071 63.6322 50.6071C62.9786 50.6071 62.4437 50.786 62.4437 51.0047C62.4437 51.2233 62.0872 51.4022 61.6514 51.4022C61.2156 51.4022 60.8591 51.5811 60.8591 51.7998C60.8591 52.0184 60.5417 52.1973 60.1543 52.1973C59.7664 52.1973 59.1924 52.5551 58.8782 52.9924C58.5641 53.4297 57.99 53.7875 57.6022 53.7875C57.1616 53.7875 56.8974 54.0853 56.8974 54.5826C56.8974 55.0199 56.7191 55.3777 56.5012 55.3777C56.2437 55.3777 56.1051 49.9444 56.1051 39.8734C56.1051 25.3602 56.0607 24.3711 55.4118 24.4009C55.0303 24.4184 52.3561 26.8319 49.4692 29.7642ZM105.23 43.8489V50.6071H99.2873H93.3448V55.7752V60.9433H99.2873H105.23V78.8328V96.7224H111.172H117.115V78.8328V60.9433H123.057H129V55.7752V50.6071H123.057H117.115V43.8489V37.0906H111.172H105.23V43.8489ZM20.45 49.4145C20.45 49.6331 19.5586 49.812 18.4691 49.812C17.3797 49.812 16.4883 49.9909 16.4883 50.2096C16.4883 50.4282 15.9535 50.6071 15.2998 50.6071C14.6461 50.6071 14.1113 50.786 14.1113 51.0047C14.1113 51.2233 13.7547 51.4022 13.319 51.4022C12.8832 51.4022 12.5266 51.5811 12.5266 51.7998C12.5266 52.0184 12.2093 52.1973 11.8218 52.1973C11.434 52.1973 10.86 52.5551 10.5458 52.9924C10.2316 53.4297 9.74197 53.7875 9.45752 53.7875C8.78443 53.7875 5.39561 57.1881 5.39561 57.8635C5.39561 58.149 5.03906 58.6403 4.60328 58.9556C4.16749 59.2708 3.81094 59.8469 3.81094 60.2361C3.81094 60.6249 3.63267 60.9433 3.41477 60.9433C3.19688 60.9433 3.01861 61.3011 3.01861 61.7384C3.01861 62.1757 2.84033 62.5335 2.62244 62.5335C2.40455 62.5335 2.22627 63.0702 2.22627 63.7261C2.22627 64.3821 2.048 64.9188 1.8301 64.9188C1.61221 64.9188 1.43394 65.8132 1.43394 66.9065C1.43394 67.9997 1.25566 68.8942 1.03777 68.8942C0.795711 68.8942 0.641602 70.7496 0.641602 73.6648C0.641602 76.58 0.795711 78.4353 1.03777 78.4353C1.25566 78.4353 1.43394 79.3298 1.43394 80.423C1.43394 81.5163 1.61221 82.4108 1.8301 82.4108C2.048 82.4108 2.22627 82.7685 2.22627 83.2058C2.22627 83.6432 2.40455 84.0009 2.62244 84.0009C2.84033 84.0009 3.01861 84.4983 3.01861 85.1057C3.01861 85.7545 3.34584 86.447 3.81094 86.7838C4.24673 87.099 4.60328 87.5892 4.60328 87.8726C4.60328 88.5962 9.60846 93.542 10.3402 93.542C10.6714 93.542 10.942 93.7209 10.942 93.9396C10.942 94.1582 11.2985 94.3371 11.7343 94.3371C12.1701 94.3371 12.5266 94.516 12.5266 94.7347C12.5266 94.9533 12.8832 95.1322 13.319 95.1322C13.7547 95.1322 14.1113 95.3111 14.1113 95.5298C14.1113 95.7484 14.4678 95.9273 14.9036 95.9273C15.3394 95.9273 15.696 96.1062 15.696 96.3248C15.696 96.5435 16.4091 96.7224 17.2806 96.7224C18.1522 96.7224 18.8653 96.9013 18.8653 97.1199C18.8653 97.3672 21.1104 97.5175 24.8078 97.5175C28.5053 97.5175 30.7503 97.3672 30.7503 97.1199C30.7503 96.9013 31.4634 96.7224 32.335 96.7224C33.2066 96.7224 33.9197 96.5435 33.9197 96.3248C33.9197 96.1062 34.2762 95.9273 34.712 95.9273C35.1478 95.9273 35.5043 95.7484 35.5043 95.5298C35.5043 95.3111 35.8609 95.1322 36.2967 95.1322C36.7325 95.1322 37.089 94.9533 37.089 94.7347C37.089 94.516 37.3703 94.3371 37.7142 94.3371C38.0584 94.3371 39.0247 93.6215 39.8622 92.7469C40.6997 91.8723 41.6659 91.1568 42.0102 91.1568C42.3541 91.1568 42.6354 90.886 42.6354 90.5553C42.6354 89.7483 35.0052 82.1241 34.8039 82.73C34.7172 82.9916 34.3436 83.2058 33.9739 83.2058C33.6047 83.2058 33.0453 83.5636 32.7312 84.0009C32.417 84.4382 31.843 84.796 31.4551 84.796C31.0677 84.796 30.7503 84.9749 30.7503 85.1936C30.7503 85.4122 29.859 85.5911 28.7695 85.5911C27.68 85.5911 26.7887 85.77 26.7887 85.9887C26.7887 86.2073 25.8973 86.3862 24.8078 86.3862C23.7184 86.3862 22.827 86.2073 22.827 85.9887C22.827 85.77 22.1139 85.5911 21.2423 85.5911C20.3707 85.5911 19.6576 85.4122 19.6576 85.1936C19.6576 84.9749 19.3403 84.796 18.9529 84.796C18.565 84.796 17.991 84.4382 17.6768 84.0009C17.3626 83.5636 16.7886 83.2058 16.4007 83.2058C15.9891 83.2058 15.696 82.9117 15.696 82.4986C15.696 82.1094 15.3394 81.5334 14.9036 81.2181C14.4678 80.9029 14.1113 80.3268 14.1113 79.9376C14.1113 79.5488 13.933 79.2304 13.7151 79.2304C13.4972 79.2304 13.319 78.6937 13.319 78.0378C13.319 77.3818 13.1407 76.8451 12.9228 76.8451C12.6879 76.8451 12.5266 75.3873 12.5266 73.2672C12.5266 71.1471 12.6879 69.6893 12.9228 69.6893C13.1407 69.6893 13.319 69.1526 13.319 68.4967C13.319 67.8407 13.4972 67.304 13.7151 67.304C13.933 67.304 14.1113 67.0317 14.1113 66.699C14.1113 65.9118 18.2703 61.7384 19.0547 61.7384C19.3863 61.7384 19.6576 61.5595 19.6576 61.3409C19.6576 61.1222 20.3707 60.9433 21.2423 60.9433C22.1139 60.9433 22.827 60.7644 22.827 60.5458C22.827 60.3271 23.7184 60.1482 24.8078 60.1482C25.8973 60.1482 26.7887 60.3271 26.7887 60.5458C26.7887 60.7644 27.5018 60.9433 28.3733 60.9433C29.2449 60.9433 29.958 61.1222 29.958 61.3409C29.958 61.5595 30.3145 61.7384 30.7503 61.7384C31.1861 61.7384 31.5427 61.9173 31.5427 62.1359C31.5427 62.3546 31.8338 62.5335 32.1896 62.5335C32.5454 62.5335 33.1578 62.9056 33.5508 63.3604C34.2628 64.1841 34.2766 64.1757 37.2617 61.1802C38.9098 59.5265 40.2584 57.9021 40.2584 57.5705C40.2584 57.233 40.6066 56.9679 41.0507 56.9679C41.5788 56.9679 41.843 56.7027 41.843 56.1728C41.843 55.7136 41.5788 55.3777 41.2179 55.3777C40.8736 55.3777 39.9073 54.6621 39.0699 53.7875C38.2324 52.9129 37.2661 52.1973 36.9218 52.1973C36.578 52.1973 36.2967 52.0184 36.2967 51.7998C36.2967 51.5811 35.9401 51.4022 35.5043 51.4022C35.0686 51.4022 34.712 51.2233 34.712 51.0047C34.712 50.786 34.3555 50.6071 33.9197 50.6071C33.4839 50.6071 33.1273 50.4282 33.1273 50.2096C33.1273 49.9909 32.236 49.812 31.1465 49.812C30.057 49.812 29.1657 49.6331 29.1657 49.4145C29.1657 49.1736 27.4491 49.0169 24.8078 49.0169C22.1666 49.0169 20.45 49.1736 20.45 49.4145ZM73.5364 61.3409C73.5364 61.5595 73.893 61.7384 74.3288 61.7384C74.7645 61.7384 75.1211 61.9173 75.1211 62.1359C75.1211 62.3546 75.3933 62.5335 75.7256 62.5335C76.0584 62.5335 77.1281 63.3337 78.1027 64.3121C79.0776 65.2901 79.8751 66.3634 79.8751 66.6974C79.8751 67.0309 80.0534 67.304 80.2713 67.304C80.4892 67.304 80.6674 67.6618 80.6674 68.0991C80.6674 68.5364 80.8457 68.8942 81.0636 68.8942C81.3037 68.8942 81.4598 70.6168 81.4598 73.2672C81.4598 75.9176 81.3037 77.6402 81.0636 77.6402C80.8457 77.6402 80.6674 77.998 80.6674 78.4353C80.6674 78.8726 80.4892 79.2304 80.2713 79.2304C80.0534 79.2304 79.8751 79.5882 79.8751 80.0255C79.8751 80.4628 79.6968 80.8206 79.4789 80.8206C79.261 80.8206 79.0828 81.0969 79.0828 81.4348C79.0828 82.2303 77.3182 84.0009 76.5255 84.0009C76.1888 84.0009 75.9134 84.1798 75.9134 84.3985C75.9134 84.6171 75.5569 84.796 75.1211 84.796C74.6853 84.796 74.3288 84.9749 74.3288 85.1936C74.3288 85.4122 73.7939 85.5911 73.1403 85.5911C72.4866 85.5911 71.9518 85.77 71.9518 85.9887C71.9518 86.2157 70.7633 86.3862 69.1786 86.3862C67.5939 86.3862 66.4054 86.2157 66.4054 85.9887C66.4054 85.77 65.7315 85.5911 64.9083 85.5911C63.8656 85.5911 63.2377 85.3498 62.8399 84.796C62.5257 84.3587 62.0349 84.0009 61.7489 84.0009C61.0266 84.0009 58.4821 81.3791 58.4821 80.6349C58.4821 80.2998 58.3038 80.0255 58.0859 80.0255C57.868 80.0255 57.6897 79.6677 57.6897 79.2304C57.6897 78.7931 57.5114 78.4353 57.2936 78.4353C57.0515 78.4353 56.8974 76.58 56.8974 73.6648C56.8974 70.7496 57.0515 68.8942 57.2936 68.8942C57.5114 68.8942 57.6897 68.5364 57.6897 68.0991C57.6897 67.6618 57.868 67.304 58.0859 67.304C58.3038 67.304 58.4821 67.0309 58.4821 66.6974C58.4821 66.3634 59.2795 65.2901 60.2545 64.3121C61.2291 63.3337 62.2987 62.5335 62.6315 62.5335C62.9639 62.5335 63.2361 62.3546 63.2361 62.1359C63.2361 61.9173 63.5926 61.7384 64.0284 61.7384C64.4642 61.7384 64.8207 61.5595 64.8207 61.3409C64.8207 61.0999 66.5373 60.9433 69.1786 60.9433C71.8198 60.9433 73.5364 61.0999 73.5364 61.3409Z" fill="white"/>
</svg>
