<svg width="305" height="238" viewBox="0 0 305 238" fill="none" xmlns="http://www.w3.org/2000/svg">
<ellipse opacity="0.2" cx="152.5" cy="23.1347" rx="152.5" ry="23.1347" transform="matrix(-1 0 0 1 305 191.689)" fill="url(#paint0_radial_3168_795)"/>
<path d="M279.978 178.085C272.736 173.532 258.464 167.844 254.133 166.159C253.322 165.844 252.417 165.905 251.651 166.319L234.886 175.367C233.437 176.148 232.889 177.95 233.657 179.406L240.751 192.861C241.347 193.991 242.586 194.621 243.849 194.42C249.352 193.543 264.466 191.05 274.75 188.541C276.863 188.025 279.59 187.161 281.576 186.503C283.072 186.007 283.898 184.419 283.296 182.961C282.561 181.178 281.418 178.99 279.978 178.085Z" fill="#E2A607"/>
<path d="M261.352 184.619C255.738 184.875 248.609 182.006 248.609 182.006M279.978 178.085C272.736 173.532 258.464 167.844 254.133 166.159C253.322 165.844 252.417 165.905 251.651 166.319L234.886 175.367C233.437 176.148 232.889 177.95 233.657 179.406L240.751 192.861C241.347 193.991 242.586 194.621 243.849 194.42C249.352 193.543 264.466 191.05 274.75 188.541C276.863 188.025 279.59 187.161 281.576 186.503C283.072 186.007 283.898 184.419 283.296 182.961C282.561 181.178 281.418 178.99 279.978 178.085Z" stroke="#BC8A07"/>
<path d="M204.364 89.8555L193.715 56.2515C193.071 54.2194 194.693 52.1828 196.817 52.3551L239.226 55.7936C240.658 55.9097 241.807 57.0257 241.967 58.4533C244.894 84.4904 247.394 101.697 250.758 123.732C251.18 129.039 251.537 134.657 251.824 140.771L251.824 140.784C251.837 141.021 252.855 159.869 252.624 173.044C252.595 174.737 252.113 176.425 251.295 178.083C246.063 188.694 227.073 198.056 224.678 199.205C224.515 199.282 224.378 199.365 224.224 199.457L224.212 199.464C217.841 203.28 177.262 201.532 161.594 199.033C161.435 199.008 161.274 198.996 161.113 198.996C144.765 198.992 151.155 198.599 135.55 197.689C125.748 197.689 91.6484 199.42 66.6042 196.382C57.3126 195.255 51.1791 192.568 47.9139 190.802C46.215 189.883 43.6943 188.774 42.4254 187.318C41.4975 186.253 40.3048 184.684 38.7873 182.376C33.6765 174.603 38.0641 164.625 35.1859 151.494C35.1024 151.112 34.9353 150.746 34.7089 150.428C26.2383 138.529 21.618 131.606 21.7194 117.678C21.7211 117.442 21.752 117.202 21.8123 116.974C22.709 113.578 23.4995 112.626 25.4559 113.319C27.2602 113.958 36.4688 119.619 38.4227 120.826C38.6689 120.978 38.885 121.161 39.0773 121.377L43.4594 126.307C44.4506 127.422 46.1106 127.64 47.3554 126.817L60.1177 118.385C69.5115 113.833 75.0953 112.033 85.7141 110.386C97.6756 108.487 104.052 108.929 115.043 111.453C128.915 114.685 136.875 116.06 151.572 117.318C164.402 118.604 171.686 118.152 184.668 114.976C184.821 114.938 184.975 114.887 185.121 114.826C192.617 111.655 196.548 109.274 202.011 103.167C202.157 103.005 202.285 102.824 202.391 102.634C204.704 98.463 206.593 94.6146 204.364 89.8555Z" fill="#E2A607" stroke="#BC8A07" stroke-linecap="round"/>
<path d="M240.093 113.317C241.141 108.21 242.188 100.981 242.983 94.9457C243.203 93.2731 245.72 93.249 245.959 94.9191C247.709 104.066 248.466 113.242 250.492 125.582C251.514 141.661 252.053 170.915 252.089 172.932C252.091 173.011 252.095 173.08 252.097 173.159C252.109 173.597 252.059 175.221 250.896 177.43C247.302 183.312 242.398 191.968 236.519 184.619C227.986 173.954 237.96 123.715 240.093 113.317Z" fill="white" stroke="white" stroke-linecap="round"/>
<path d="M240.652 12.8526C237.857 18.3636 240.043 27.981 240.733 30.6452C240.843 31.0679 241.219 31.3516 241.656 31.3478C244.139 31.3261 252.343 31.046 257.008 28.374C264.593 24.0289 268.248 10.2473 269.149 6.33847C269.28 5.77205 268.888 5.24135 268.309 5.19212C263.664 4.79727 245.228 3.83264 240.652 12.8526Z" fill="#E2A607" stroke="#CF9807"/>
<path d="M257.69 47.2242C259.195 51.5882 261.4 56.6864 263.678 61.953C263.956 62.5955 264.235 63.2406 264.514 63.8871C267.085 69.8454 269.654 75.9358 271.365 81.4113C273.083 86.9109 273.9 91.6874 273.066 95.0601C272.655 96.7246 271.847 98.0258 270.557 98.9194C269.259 99.8189 267.42 100.342 264.885 100.342C259.795 100.342 252.569 98.2315 244.551 94.6947C236.55 91.165 227.815 86.2395 219.726 80.6643C211.635 75.0878 204.207 68.873 198.808 62.7701C193.389 56.6452 190.093 50.7209 190.093 45.7167C190.093 25.2013 206.724 8.57031 227.239 8.57031C232.354 8.57031 236.37 9.76796 239.628 11.8428C242.891 13.9204 245.427 16.8983 247.546 20.5081C249.666 24.1208 251.36 28.3486 252.947 32.9085C253.739 35.1872 254.504 37.5429 255.281 39.9426L255.326 40.0795C256.088 42.4335 256.864 44.8285 257.69 47.2242Z" fill="white" stroke="#BC8A07"/>
<path d="M254.802 35.6313C264.213 54.4545 283.709 95.4621 270.264 100.84C258.558 100.84 248.988 81.712 234.634 65.8828C223.493 53.5964 208.416 43.0261 205.727 32.27C205.727 11.4785 207.744 10.7578 221.189 10.7578C241.98 10.7578 245.39 16.8081 254.802 35.6313Z" fill="#E2A607"/>
<path d="M274.755 90.6573C275.293 93.2758 275.922 97.22 271.083 100.711C268.395 101.584 263.557 101.812 263.557 99.4021C263.557 96.9918 265.17 94.165 267.32 92.8558C269.471 91.5465 270.454 89.7844 274.755 90.6573Z" fill="#131313"/>
<path d="M256.146 38.3199C262.868 57.8153 222.533 54.454 235.306 56.4708C228.334 58.9608 215.892 45.7189 209.76 47.7315C199.337 51.1526 189.592 58.8052 189.592 45.7147C189.592 24.9232 206.447 8.06836 227.239 8.06836C248.03 8.06836 249.423 18.8245 256.146 38.3199Z" fill="#E2A607"/>
<path d="M196.275 40.7083C202.414 39.9998 209.229 32.8708 211.071 30.8255C211.363 30.5009 211.392 30.0304 211.148 29.6683C209.76 27.6093 205 20.9205 200.198 18.5041C192.39 14.5747 178.879 19.1285 175.121 20.5331C174.577 20.7366 174.35 21.356 174.629 21.8663C176.862 25.9589 186.228 41.8679 196.275 40.7083Z" fill="#E2A607" stroke="#BC8A07"/>
<path d="M193.404 31.0418L198.312 28.0208C198.914 27.6499 198.952 26.7878 198.384 26.3662L194.172 23.2397" stroke="black" stroke-linecap="round"/>
<ellipse cx="216.482" cy="62.5202" rx="2.68903" ry="4.7058" fill="black"/>
<circle cx="101.179" cy="124.521" r="4.5327" fill="white"/>
<ellipse cx="80.3816" cy="137.584" rx="2.39967" ry="2.13304" fill="white"/>
<ellipse cx="83.0481" cy="124.254" rx="2.39967" ry="2.13304" fill="white"/>
<ellipse cx="91.8471" cy="133.848" rx="3.73281" ry="3.19955" fill="white"/>
<path d="M267.888 197.364C265.55 195.611 241.255 186.016 236.15 184.009C235.531 183.766 234.866 183.742 234.228 183.93L177.376 200.632L175.679 211.057C175.374 212.93 176.863 214.612 178.759 214.537L265.322 211.099C265.508 211.092 265.69 211.068 265.869 211.023C267.579 210.593 276.798 208.055 274.423 203.9C271.809 199.325 270.502 199.325 267.888 197.364Z" fill="#E2A607"/>
<path d="M177.376 200.632L175.679 211.057C175.374 212.93 176.863 214.612 178.759 214.537L265.322 211.099C265.508 211.092 265.69 211.068 265.869 211.023C267.579 210.593 276.798 208.055 274.423 203.9C271.809 199.325 270.502 199.325 267.888 197.364C265.55 195.611 241.255 186.016 236.15 184.009C235.531 183.766 234.866 183.742 234.228 183.93L177.376 200.632ZM177.376 200.632L243.381 203.9" stroke="#BC8A07"/>
<path d="M236.192 185.274L235.212 182.986L173.127 199.978L193.06 201.285H198.288V200.958L213.646 198.017L231.291 191.155L236.192 185.274Z" fill="#E2A607"/>
<path d="M166.079 200.217C170.297 200.543 177.362 201.073 177.452 200.969C177.581 200.82 177.447 214.536 177.452 214.68C177.456 214.774 170.791 217.143 166.22 218.756C164.212 219.465 162.13 217.912 162.233 215.785L162.848 203.067C162.93 201.376 164.391 200.087 166.079 200.217Z" fill="black" stroke="black" stroke-linecap="round"/>
<path d="M117.252 182.007C117.252 166.649 102.334 156.248 91.4379 152.598L59.7423 179.719C57.7817 180.372 54.0294 181.363 52.2268 182.007C47.6522 183.64 44.7728 185.034 43.7311 189.195C43.1251 191.616 44.9189 195.078 44.9189 195.078C47.675 198.177 51.2462 201.244 54.5141 202.592C64.1877 206.582 71.8324 208.473 88.4971 208.473C105.162 208.473 151.562 215.336 151.562 215.336L149.274 198.344L89.4773 194.75C89.4773 194.75 117.252 192.459 117.252 182.007Z" fill="#E2A607"/>
<path d="M89.4773 194.75C89.4773 194.75 117.252 192.459 117.252 182.007C117.252 166.649 102.334 156.248 91.4379 152.598L59.7423 179.719C57.7817 180.372 54.0294 181.363 52.2268 182.007C47.6522 183.64 44.7728 185.034 43.7311 189.195C43.1251 191.616 44.9189 195.078 44.9189 195.078C47.675 198.177 51.2462 201.244 54.5141 202.592C64.1877 206.582 71.8324 208.473 88.4971 208.473C105.162 208.473 151.562 215.336 151.562 215.336L149.274 198.344L89.4773 194.75ZM89.4773 194.75H83.5957" stroke="#BC8A07"/>
<path d="M154.047 215.83C150.245 215.007 144.872 213.88 144.7 214.03C144.431 214.264 146.653 198.261 146.66 198.019C146.665 197.853 151.733 198.529 154.918 198.971C156.375 199.173 157.464 200.406 157.491 201.876L157.698 212.831C157.735 214.774 155.946 216.24 154.047 215.83Z" fill="black" stroke="black" stroke-linecap="round"/>
<path d="M59.2868 152.73L37.5427 168.724L39.3777 174.509L41.8715 176.412L73.7928 185.604L94.0517 155.869L89.1503 150.967L80.9764 148.629L81.8544 147.523L80.0743 147.025L59.2868 152.73Z" fill="#E2A607" stroke="#E2A607"/>
<defs>
<radialGradient id="paint0_radial_3168_795" cx="0" cy="0" r="1" gradientUnits="userSpaceOnUse" gradientTransform="translate(152.5 23.1347) rotate(90) scale(23.1347 152.5)">
<stop offset="0.25" stop-color="#494949"/>
<stop offset="1" stop-color="#6C7163" stop-opacity="0"/>
</radialGradient>
</defs>
</svg>
