<svg width="269" height="317" viewBox="0 0 269 317" fill="none" xmlns="http://www.w3.org/2000/svg">
<path d="M68.5015 86.218L78.6651 54.1461C79.3091 52.1139 77.6876 50.0773 75.5629 50.2496L35.1499 53.5263C33.718 53.6424 32.5696 54.7577 32.409 56.1853C29.6054 81.1136 27.2085 97.6078 23.9853 118.724C23.5798 123.819 23.2374 129.213 22.9619 135.084L22.2045 165.633C22.1978 165.903 22.2276 166.173 22.2932 166.435L25.2645 178.321C35.0345 211.302 39.3291 229.842 47.2146 262.786C47.2489 262.929 47.2734 263.079 47.2864 263.226C47.8034 269.077 48.2261 273.013 47.8419 277.72C47.6676 279.856 49.5724 281.66 51.6607 281.178L61.1754 278.982C62.7086 278.628 63.7077 277.147 63.4618 275.593C59.4565 250.282 56.5237 235.292 56.477 209.021C57.31 201.126 57.7934 196.66 61.4245 192.335C61.5356 192.202 61.638 192.06 61.7294 191.914C63.1998 189.551 64.5073 189.074 67.5967 190.745C68.0271 190.978 68.3812 191.332 68.6366 191.749C73.8839 200.327 76.9348 206.667 82.2613 219.767C84.444 226.59 86.2863 230.584 91.0222 237.808C91.1858 238.058 91.315 238.336 91.3988 238.623C94.9229 250.665 96.9231 257.7 99.6222 272.23C99.6825 272.555 99.6893 272.892 99.6409 273.219L99.2198 276.062C98.9447 277.919 100.426 279.582 102.296 279.423C106.92 279.03 110.454 278.148 115.265 276.084C116.629 275.5 117.314 273.975 116.896 272.551C109.387 246.99 104.854 231.892 97.775 205.584C97.7043 205.321 97.6684 205.043 97.6715 204.771C97.7802 195.401 98.722 190.321 101.249 188.81C113.074 182.991 120.148 183.823 135.02 187.787C148.706 193.124 155.794 196.552 167.512 207.231C176.75 216.175 181.996 221.264 192.639 233.075C192.937 233.405 193.162 233.804 193.289 234.231L195.743 242.487C195.853 242.858 195.891 243.251 195.853 243.636C194.596 256.361 193.165 262.805 189.258 272.47L186.79 276.789C185.916 278.318 186.541 280.267 188.14 281.003L198.279 285.67C199.888 286.411 201.789 285.595 202.369 283.92C209.812 262.421 213.774 250.181 214.309 238.687C214.325 238.356 214.281 238.023 214.184 237.706C211.76 229.794 209.489 225.685 204.992 218.743C199.525 210.99 197.27 206.716 195.731 199.655C195.679 199.42 195.655 199.178 195.671 198.938C195.73 197.999 195.915 197.621 196.556 197.847C196.816 197.939 197.037 198.121 197.234 198.313C212.091 212.766 219.883 221.714 231.469 239.579C231.639 239.841 231.77 240.136 231.851 240.437C236.042 256.008 238.21 265.263 239.431 279.988C239.567 281.631 240.987 282.874 242.632 282.769L255.932 281.916C257.831 281.794 259.137 279.954 258.643 278.116C253.452 258.793 251.434 246.652 247.701 226.26C247.628 225.862 247.472 225.473 247.248 225.136C237.328 210.157 230.841 200.688 228.992 194.457C228.938 194.273 228.906 194.086 228.89 193.894L227.378 174.995C227.962 163.917 227.947 157.866 230.825 145.386C230.913 145.006 231.079 144.638 231.306 144.32C239.422 132.918 243.85 126.276 243.756 112.929C243.754 112.693 243.723 112.453 243.663 112.225C242.804 108.978 242.045 108.068 240.17 108.732C238.444 109.344 229.65 114.749 227.743 115.926C227.497 116.078 227.281 116.261 227.088 116.478L222.965 121.116C221.974 122.231 220.314 122.448 219.069 121.626L206.911 113.593C197.897 109.225 192.54 107.498 182.35 105.918C170.873 104.096 164.755 104.519 154.208 106.941C140.898 110.042 133.26 111.362 119.158 112.57C106.85 113.803 99.8608 113.37 87.4105 110.324C87.2574 110.287 87.1028 110.235 86.9576 110.174C79.7748 107.135 76.0033 104.85 70.768 99.0008C70.6228 98.8386 70.4946 98.658 70.389 98.4676C68.1723 94.4701 66.3652 90.7801 68.5015 86.218Z" fill="#E2A607" stroke="#BC8A07" stroke-linecap="round"/>
<path d="M34.2188 108.732C33.2136 103.832 32.2085 96.8956 31.4458 91.1048C31.2344 89.4998 28.8192 89.4767 28.5903 91.0793C26.9113 99.8562 26.1842 108.661 24.241 120.501C23.2246 136.486 22.4501 165.529 22.706 166.041C22.9618 166.552 23.9852 161.435 32.1721 151.202C40.359 140.968 36.2655 118.71 34.2188 108.732Z" fill="white" stroke="white" stroke-linecap="round"/>
<path d="M33.6815 12.3319C36.3537 17.5996 34.2822 26.7773 33.6116 29.3748C33.5025 29.7976 33.1274 30.0825 32.6907 30.0784C30.2752 30.0558 22.4461 29.7792 17.9878 27.2252C10.7381 23.0722 7.22956 9.93453 6.34765 6.12546C6.21654 5.55916 6.60492 5.02678 7.18415 4.978C11.7072 4.59709 29.3044 3.70287 33.6815 12.3319Z" fill="#E2A607" stroke="#CF9807"/>
<path d="M17.352 45.3163C15.9078 49.5046 13.7915 54.3973 11.6057 59.4507C11.3391 60.0672 11.0714 60.6861 10.8037 61.3064C8.33691 67.0237 5.87216 72.8668 4.23104 78.1196C2.58242 83.3964 1.80023 87.9748 2.5985 91.2051C2.99224 92.7985 3.7653 94.0424 4.99825 94.8965C6.23959 95.7565 7.99943 96.2577 10.4288 96.2577C15.3087 96.2577 22.2392 94.2343 29.9319 90.8409C37.6086 87.4546 45.9887 82.729 53.7494 77.3801C61.5119 72.0299 68.638 66.0675 73.8174 60.2132C79.0162 54.3369 82.1748 48.6572 82.1748 43.8632C82.1748 24.1892 66.2258 8.24023 46.5518 8.24023C41.6469 8.24023 37.7975 9.38858 34.6747 11.3772C31.5476 13.3685 29.1166 16.2231 27.0844 19.685C25.0504 23.1497 23.426 27.205 21.9037 31.58C21.143 33.7663 20.4097 36.0265 19.6637 38.329L19.6212 38.4603C18.8894 40.719 18.1448 43.0174 17.352 45.3163Z" fill="white" stroke="#BC8A07"/>
<path d="M20.1044 34.1873C11.0736 52.2488 -7.63296 91.5971 5.26812 96.7575C16.5001 96.7575 25.6826 78.4034 39.456 63.2147C50.1467 51.4254 64.6131 41.2829 67.1934 30.962C67.1934 11.0118 65.2581 10.3203 52.3571 10.3203C32.4069 10.3203 29.1351 16.1258 20.1044 34.1873Z" fill="#E2A607"/>
<path d="M0.958806 86.9857C0.442932 89.4983 -0.161005 93.2829 4.48183 96.633C7.06123 97.4705 11.7041 97.6894 11.7041 95.3767C11.7041 93.0639 10.1565 90.3515 8.09298 89.0953C6.02949 87.839 5.0858 86.1482 0.958806 86.9857Z" fill="#131313"/>
<path d="M18.815 36.7696C12.3644 55.4762 51.0677 52.2509 38.8116 54.1861C45.5015 56.5753 57.4402 43.8692 63.3237 45.8004C73.3247 49.083 82.6753 56.426 82.6753 43.8652C82.6753 23.915 66.5025 7.74219 46.5523 7.74219C26.6021 7.74219 25.2655 18.063 18.815 36.7696Z" fill="#E2A607"/>
<path d="M76.263 39.0592C70.3953 38.382 63.8831 31.5913 62.0866 29.5991C61.7941 29.2748 61.7634 28.8048 62.0077 28.4428C63.3591 26.4406 67.9088 20.0632 72.4984 17.7535C79.9617 13.9977 92.8549 18.3188 96.5185 19.6846C97.0632 19.8876 97.293 20.5052 97.0141 21.0153C94.8366 24.998 85.8749 40.1686 76.263 39.0592Z" fill="#E2A607" stroke="#BC8A07"/>
<path d="M79.0181 29.7844L74.3595 26.9169C73.757 26.5461 73.7196 25.684 74.2876 25.2623L78.2812 22.298" stroke="black" stroke-linecap="round"/>
<ellipse cx="2.58021" cy="4.51538" rx="2.58021" ry="4.51538" transform="matrix(-1 0 0 1 59.4536 55.4746)" fill="black"/>
<path d="M172.884 205.185C169.907 209.529 165.533 205.117 164.615 204.103C164.495 203.971 164.371 203.846 164.235 203.732C157.775 198.291 153.782 195.621 146.021 191.881L135.531 187.532C131.049 186.239 128.571 185.634 124.274 184.973L117.878 184.206C113.94 184.199 111.828 184.538 108.156 185.485C104.815 186.534 103.096 187.281 100.225 188.811C97.3551 190.341 60.5217 193.127 63.1286 186.508C65.6334 180.149 104.57 163.15 110.715 160.157C128.125 151.677 144.419 156.551 159.58 168.599C169.647 176.6 180.153 194.578 172.884 205.185Z" fill="white" stroke="white" stroke-linecap="round"/>
<path d="M196.047 293.526C198.02 290.658 201.295 285.939 201.524 285.875C201.853 285.783 186.111 278.159 185.913 278.037C185.797 277.966 181.982 280.717 178.881 282.979C177.07 284.299 177.309 287.063 179.313 288.064L192.224 294.514C193.566 295.184 195.196 294.762 196.047 293.526Z" fill="black" stroke="black" stroke-linecap="round"/>
<path d="M121.832 286.842C120.184 282.159 117.706 275.02 117.855 274.83C118.077 274.548 99.1705 278.843 98.9154 278.877C98.7296 278.902 100.486 285.232 101.456 288.677C101.82 289.966 102.996 290.851 104.335 290.851L118.995 290.851C121.069 290.851 122.521 288.799 121.832 286.842Z" fill="black" stroke="black" stroke-linecap="round"/>
<path d="M65.3509 288.154C64.6684 284.065 63.6556 277.835 63.7905 277.655C63.9916 277.386 47.476 280.536 47.2539 280.555C47.1281 280.566 45.0983 284.124 43.3608 287.209C42.2382 289.202 43.6823 291.658 45.97 291.658L62.3848 291.658C64.2441 291.658 65.657 289.988 65.3509 288.154Z" fill="black" stroke="black" stroke-linecap="round"/>
<circle cx="4.34929" cy="4.34929" r="4.34929" transform="matrix(-1 0 0 1 171.861 115.127)" fill="white"/>
<ellipse cx="2.30256" cy="2.04672" rx="2.30256" ry="2.04672" transform="matrix(-1 0 0 1 189.77 129.967)" fill="white"/>
<ellipse cx="2.30256" cy="2.04672" rx="2.30256" ry="2.04672" transform="matrix(-1 0 0 1 187.211 117.176)" fill="white"/>
<ellipse cx="3.58177" cy="3.07008" rx="3.58177" ry="3.07008" transform="matrix(-1 0 0 1 180.048 125.363)" fill="white"/>
<path d="M262.256 287.234C260.97 283.92 259.321 279.556 259.484 279.401C259.748 279.151 239.948 280.906 239.684 280.906C239.502 280.906 240.323 286.739 240.851 290.367C241.082 291.95 242.519 293.067 244.11 292.907L259.75 291.334C261.733 291.134 262.976 289.093 262.256 287.234Z" fill="black" stroke="black" stroke-linecap="round"/>
<path d="M199.412 199.581C199.383 199.013 196.049 196.263 195.853 196.767C195.656 197.272 196.548 187.982 198.667 182.696C201.935 174.543 210.18 162.996 210.436 162.229C210.691 161.461 210.216 176.945 206.342 185.766C203.863 191.412 199.442 200.15 199.412 199.581Z" fill="white" stroke="white" stroke-linecap="round"/>
<ellipse opacity="0.2" cx="138.041" cy="295.641" rx="130.959" ry="21.3582" fill="url(#paint0_radial_3168_106)"/>
<defs>
<radialGradient id="paint0_radial_3168_106" cx="0" cy="0" r="1" gradientUnits="userSpaceOnUse" gradientTransform="translate(138.041 295.641) rotate(90) scale(21.3582 130.959)">
<stop offset="0.25" stop-color="#494949"/>
<stop offset="1" stop-color="#6C7163" stop-opacity="0"/>
</radialGradient>
</defs>
</svg>
