<svg width="30" height="29" viewBox="0 0 30 29" fill="none" xmlns="http://www.w3.org/2000/svg">
<path d="M5.8035 0C2.88284 0 0.531128 2.35171 0.531128 5.27236V23.6024C0.531128 26.5231 2.88284 28.8748 5.8035 28.8748H15.7383V17.5866H12.7533V13.5224H15.7383V10.0502C15.7383 7.3223 17.5019 4.81758 21.5647 4.81758C23.2096 4.81758 24.426 4.9755 24.426 4.9755L24.3303 8.77074C24.3303 8.77074 23.0898 8.75902 21.7361 8.75902C20.271 8.75902 20.0361 9.43405 20.0361 10.5547V13.5225H24.4467L24.2545 17.5866H20.0361V28.8748H24.1336C27.0543 28.8748 29.406 26.5231 29.406 23.6025V5.27239C29.406 2.35174 27.0543 2.88748e-05 24.1336 2.88748e-05H5.80347L5.8035 0Z" fill="#EBEBEB"/>
</svg>
