<svg width="128" height="50" viewBox="0 0 128 50" fill="none" xmlns="http://www.w3.org/2000/svg">
<path fill-rule="evenodd" clip-rule="evenodd" d="M1.29685 10.0817V19.921H7.333H13.3692V13.6596V7.39823H10.807H8.24494V10.7973V14.1963H7.5067H6.76847V10.0817V5.96706H10.0688H13.3692V3.10471V0.242368H7.333H1.29685V10.0817ZM14.8446 0.465989C14.8441 0.58898 14.8436 4.91604 14.8436 10.0817C14.8436 15.2473 14.8441 19.5744 14.8446 19.6974L14.8456 19.921H17.4077H19.9698V19.6974C19.9698 19.5334 20.0161 19.4737 20.1435 19.4737C20.2593 19.4737 20.3172 19.4141 20.3172 19.2948C20.3172 19.1756 20.2593 19.116 20.1435 19.116C19.971 19.116 19.9698 19.0563 19.9698 10.0817C19.9698 1.10706 19.971 1.0474 20.1435 1.0474C20.2593 1.0474 20.3172 0.987741 20.3172 0.868506C20.3172 0.749272 20.2593 0.68961 20.1435 0.68961C20.0161 0.68961 19.9698 0.629948 19.9698 0.465989V0.242368H17.4077H14.8456L14.8446 0.465989ZM21.4047 0.622524C21.376 0.831564 21.3639 5.24924 21.3777 10.4395L21.4029 19.8763H24.1387H26.8745L26.8996 19.0936L26.9247 18.3109H27.3447C27.5757 18.3109 27.8854 18.3358 28.0327 18.3661L28.3009 18.4214L28.3259 19.1488L28.351 19.8763L30.9383 19.9L33.5257 19.9237L33.5005 17.1568C33.4866 15.635 33.4465 14.3604 33.4116 14.3245C33.3766 14.2885 33.0541 14.2397 32.6951 14.2159L32.0421 14.1728V13.6515V13.1302L32.7587 13.1041L33.4752 13.0782L33.4975 6.66028L33.5197 0.242368H27.4884H21.457L21.4047 0.622524ZM34.9082 10.0828V19.9258L39.2436 19.901C41.6281 19.8874 43.6115 19.8428 43.6513 19.8018C43.691 19.7609 43.7236 18.5734 43.7236 17.1631V14.5988L43.5282 14.5702C43.4026 14.5519 43.3328 14.4799 43.3328 14.3689C43.3328 14.2046 43.2556 14.1963 41.726 14.1963C40.1772 14.1963 40.1193 14.1899 40.1193 14.0174C40.1193 13.918 40.1772 13.8385 40.2496 13.8385C40.3642 13.8385 40.3798 13.0484 40.3798 7.26406C40.3798 1.62184 40.3622 0.68961 40.2556 0.68961C40.1873 0.68961 40.1189 0.598999 40.1037 0.488351L40.0759 0.287093L37.492 0.263389L34.9082 0.239685V10.0828ZM45.1778 6.66028L45.2001 13.0782L48.4787 13.1016L51.7573 13.1251V13.6576V14.19L48.551 14.2155C46.7875 14.2296 45.3121 14.2745 45.2723 14.3154C45.2326 14.3564 45.1887 15.6344 45.1748 17.1554L45.1495 19.921H51.1892H57.229V13.6596V7.39823H53.7983C50.4256 7.39823 50.3677 7.39519 50.3677 7.21933C50.3677 7.11996 50.4256 7.04044 50.498 7.04044C50.5921 7.04044 50.6283 6.94106 50.6283 6.68264C50.6283 6.42423 50.5921 6.32485 50.498 6.32485C50.4256 6.32485 50.3677 6.24533 50.3677 6.14595C50.3677 5.9701 50.4256 5.96706 53.7983 5.96706H57.229V3.10471V0.242368H51.1922H45.1555L45.1778 6.66028ZM68.8923 0.420818C68.8673 0.519479 68.7927 0.600161 68.7266 0.600161C68.625 0.600161 68.6064 2.08688 68.6064 10.2047V19.8092L68.8779 19.8651C69.0272 19.8959 70.2583 19.921 71.6137 19.921H74.0781V12.944V5.96706H74.7724H75.4666L75.4889 12.9217L75.5111 19.8763L77.8995 19.9027C79.2131 19.9173 80.4541 19.9048 80.657 19.8749L81.0262 19.8205V12.8938V5.96706H81.721C82.3578 5.96706 82.4158 5.982 82.4158 6.14595C82.4158 6.24435 82.3596 6.32485 82.2908 6.32485C82.21 6.32485 82.1471 6.45929 82.1127 6.70501C82.0328 7.2764 82.1006 19.7157 82.1841 19.8018C82.2238 19.8427 83.4549 19.8763 84.9199 19.8763H87.5834V10.0817V0.287093L78.2606 0.264283C68.9945 0.241742 68.9375 0.242637 68.8923 0.420818ZM88.9168 0.302299C88.8382 0.323766 88.7507 0.429852 88.7225 0.537906C88.6944 0.645959 88.6709 5.02874 88.6703 10.2775L88.6691 19.8205L89.0382 19.8749C89.2412 19.9048 90.4821 19.9173 91.7957 19.9027L94.1841 19.8763L94.2068 16.4996L94.2296 13.1229H94.9234H95.6171V16.522V19.921H98.0815C99.4369 19.921 100.668 19.8959 100.817 19.8651L101.089 19.8092V10.0817V0.354179L100.817 0.298274C100.516 0.236286 89.1442 0.240043 88.9168 0.302299ZM102.218 10.0817V19.921H104.954H107.689V17.2823V14.6435H108.383H109.076L109.099 17.2599L109.122 19.8763L111.706 19.9L114.29 19.9237V15.3605V10.7973H113.552H112.814V10.0817V9.36609H113.552H114.29V4.80289V0.239685L111.706 0.263389L109.122 0.287093L109.099 2.90345L109.076 5.51982H108.383H107.689V2.88109V0.242368H104.954H102.218V10.0817ZM115.68 10.0817V19.9222L121.738 19.8993L127.795 19.8763L127.818 17.2152C127.841 14.6529 127.835 14.5541 127.677 14.5541C127.585 14.5541 127.492 14.4748 127.466 14.3752C127.422 14.2003 127.348 14.1963 124.156 14.1963C120.949 14.1963 120.891 14.1932 120.891 14.0174C120.891 13.918 120.949 13.8385 121.021 13.8385C121.093 13.8385 121.151 13.759 121.151 13.6596C121.151 13.5602 121.093 13.4807 121.021 13.4807C120.949 13.4807 120.891 13.4015 120.891 13.3049C120.891 13.1334 120.976 13.1283 124.271 13.1036C126.13 13.0896 127.683 13.0447 127.723 13.0038C127.763 12.9628 127.795 11.6949 127.795 10.1862V7.44295L124.343 7.41961C120.963 7.39671 120.891 7.39242 120.891 7.21835C120.891 7.11987 120.949 7.04044 121.021 7.04044C121.093 7.04044 121.151 6.96092 121.151 6.86154C121.151 6.76216 121.093 6.68264 121.021 6.68264C120.927 6.68264 120.891 6.58327 120.891 6.32485V5.96706H124.366H127.841L127.818 3.12707L127.795 0.287093L121.738 0.264104L115.68 0.241116V10.0817ZM28.3075 8.38216V10.7973H27.6127H26.9179V8.38216V5.96706H27.6127H28.3075V8.38216ZM95.6171 6.68264V7.39823H94.9223H94.2275V6.68264V5.96706H94.9223H95.6171V6.68264ZM0.570951 24.2816C0.500601 24.7198 0.500601 48.4864 0.570951 48.9246L0.624798 49.26H11.2093H21.7937V41.1704V33.0809L21.4246 33.0269C21.2216 32.9972 19.16 32.9846 16.8432 32.999L12.6309 33.0252L12.6084 37.5199L12.5859 42.0147H11.3274H10.0688V36.605V31.1952L15.8372 31.171C19.0098 31.1577 21.6382 31.1132 21.6779 31.0723C21.7177 31.0314 21.7613 29.4112 21.7749 27.472L21.7994 23.9462H11.2121H0.624798L0.570951 24.2816ZM24.3124 36.6035V49.2616L28.8938 49.2385L33.4752 49.2153L33.4977 44.7205L33.5202 40.2257H34.7787H36.0373V44.7429V49.26H40.5917H45.146L45.1982 48.8799C45.2269 48.6708 45.2391 42.9852 45.2252 36.2453L45.2001 23.9909L34.7562 23.9682L24.3124 23.9454V36.6035ZM47.7311 24.2813C47.6607 24.7197 47.6607 48.4862 47.7311 48.9246L47.7849 49.26H52.3332H56.8815V40.2257V31.1915H58.1405H59.3994L59.4215 40.2034L59.4437 49.2153L64.0251 49.2385L68.6064 49.2616V40.2265V31.1915H70.0395C71.4146 31.1915 71.4725 31.1987 71.4725 31.3704C71.4725 31.4896 71.4146 31.5493 71.2988 31.5493C71.1263 31.5493 71.1251 31.6089 71.1251 40.2257C71.1251 48.8426 71.1263 48.9022 71.2988 48.9022C71.4146 48.9022 71.4725 48.9619 71.4725 49.0811C71.4725 49.2577 71.5305 49.26 75.9022 49.26H80.332L80.3099 36.6255L80.2879 23.9909L64.0364 23.9683L47.785 23.9457L47.7311 24.2813ZM83.1974 36.6031V49.26H93.6196H104.042V45.6933V42.1265L103.77 42.0706C103.621 42.0398 100.983 42.0147 97.9078 42.0147H92.3168V41.1202V40.2257H98.1792H104.042V36.6031V32.9804H98.1792H92.3168V32.0866V31.1927L98.1575 31.1697L103.998 31.1467L104.021 27.5465L104.044 23.9462H93.6205H83.1974V36.6031ZM106.6 24.0588C106.526 24.2576 106.601 40.0289 106.676 40.1065C106.716 40.1475 109.344 40.1919 112.517 40.2053L118.285 40.2295V41.1221V42.0147H112.694C109.619 42.0147 106.981 42.0399 106.831 42.0708L106.558 42.127L106.581 45.6711L106.604 49.2153L117.048 49.238L127.492 49.2607L127.47 41.1429L127.448 33.0252L121.607 33.0022L115.767 32.9792V32.0853V31.1915H121.58H127.394L127.447 30.8113C127.476 30.6023 127.488 28.9821 127.474 27.211L127.448 23.9909L117.045 23.9682C108.712 23.9499 106.634 23.968 106.6 24.0588ZM36.0373 32.086V32.9804H34.778H33.5186V32.086V31.1915H34.778H36.0373V32.086Z" fill="white"/>
</svg>
