<svg width="149" height="43" viewBox="0 0 149 43" fill="none" xmlns="http://www.w3.org/2000/svg">
<path fill-rule="evenodd" clip-rule="evenodd" d="M2.85548 0.627573C2.85548 0.67518 2.7397 0.71413 2.5982 0.71413C2.45669 0.71413 2.34091 0.753081 2.34091 0.800688C2.34091 0.848294 2.27221 0.887245 2.18834 0.887245C2.10438 0.887245 1.98011 0.965147 1.9121 1.06036C1.84409 1.15557 1.73808 1.23347 1.67651 1.23347C1.52033 1.23347 0.797184 1.97899 0.797184 2.14008C0.797184 2.2127 0.758591 2.27216 0.711421 2.27216C0.664252 2.27216 0.625659 2.35006 0.625659 2.44528C0.625659 2.54049 0.587066 2.61839 0.539896 2.61839C0.492727 2.61839 0.454134 2.69629 0.454134 2.79151C0.454134 2.88672 0.415541 2.96462 0.368371 2.96462C0.321202 2.96462 0.282609 3.12042 0.282609 3.31085C0.282609 3.50128 0.244016 3.65708 0.196846 3.65708C0.139986 3.65708 0.111084 9.60071 0.111084 21.3148C0.111084 33.0288 0.139986 38.9725 0.196846 38.9725C0.244016 38.9725 0.282609 39.1283 0.282609 39.3187C0.282609 39.5091 0.321202 39.6649 0.368371 39.6649C0.415541 39.6649 0.454134 39.7818 0.454134 39.9246C0.454134 40.0674 0.492727 40.1843 0.539896 40.1843C0.587066 40.1843 0.625659 40.2433 0.625659 40.3155C0.625659 40.4865 1.8699 41.7423 2.03937 41.7423C2.11089 41.7423 2.16938 41.7813 2.16938 41.8289C2.16938 41.8765 2.24657 41.9154 2.34091 41.9154C2.43525 41.9154 2.51243 41.9544 2.51243 42.002C2.51243 42.0496 2.66681 42.0885 2.85548 42.0885C3.04416 42.0885 3.19853 42.1275 3.19853 42.1751C3.19853 42.2325 8.45861 42.2617 18.8073 42.2617C29.156 42.2617 34.4161 42.2325 34.4161 42.1751C34.4161 42.1275 34.5319 42.0885 34.6734 42.0885C34.8149 42.0885 34.9307 42.0496 34.9307 42.002C34.9307 41.9544 35.0078 41.9154 35.1022 41.9154C35.1965 41.9154 35.2737 41.8765 35.2737 41.8289C35.2737 41.7813 35.3509 41.7423 35.4452 41.7423C35.5396 41.7423 35.6168 41.7034 35.6168 41.6558C35.6168 41.6082 35.6757 41.5692 35.7476 41.5692C35.9072 41.5692 36.6459 40.8393 36.6459 40.6817C36.6459 40.6196 36.7231 40.5126 36.8174 40.444C36.9181 40.3706 36.989 40.2199 36.989 40.0786C36.989 39.9463 37.0276 39.8381 37.0747 39.8381C37.1219 39.8381 37.1605 39.7212 37.1605 39.5784C37.1605 39.4356 37.1991 39.3187 37.2462 39.3187C37.3031 39.3187 37.332 33.2885 37.332 21.4013C37.332 9.51416 37.3031 3.48397 37.2462 3.48397C37.1991 3.48397 37.1605 3.32816 37.1605 3.13774C37.1605 2.94731 37.1219 2.79151 37.0747 2.79151C37.0276 2.79151 36.989 2.71361 36.989 2.61839C36.989 2.52318 36.9504 2.44528 36.9032 2.44528C36.856 2.44528 36.8174 2.38616 36.8174 2.3138C36.8174 2.14267 35.7451 1.06036 35.5755 1.06036C35.5038 1.06036 35.4452 1.02141 35.4452 0.973802C35.4452 0.926196 35.368 0.887245 35.2737 0.887245C35.1794 0.887245 35.1022 0.848294 35.1022 0.800688C35.1022 0.753081 35.025 0.71413 34.9307 0.71413C34.8363 0.71413 34.7591 0.67518 34.7591 0.627573C34.7591 0.570185 29.3847 0.541016 18.8073 0.541016C8.22996 0.541016 2.85548 0.570185 2.85548 0.627573ZM33.73 2.53183C33.73 2.57944 33.8844 2.61839 34.073 2.61839C34.2617 2.61839 34.4161 2.65734 34.4161 2.70495C34.4161 2.75256 34.4767 2.79151 34.5508 2.79151C34.7241 2.79151 34.9307 2.99994 34.9307 3.17487C34.9307 3.24965 34.9693 3.31085 35.0164 3.31085C35.0636 3.31085 35.1022 3.38875 35.1022 3.48397C35.1022 3.57918 35.1408 3.65708 35.1879 3.65708C35.2448 3.65708 35.2737 9.6446 35.2737 21.4465V39.2359L34.8039 39.7101L34.334 40.1843H18.7663C8.44497 40.1843 3.19853 40.1551 3.19853 40.0977C3.19853 40.0501 3.13893 40.0112 3.06603 40.0112C2.89442 40.0112 2.51243 39.6256 2.51243 39.4524C2.51243 39.3789 2.47384 39.3187 2.42667 39.3187C2.3795 39.3187 2.34091 39.2408 2.34091 39.1456C2.34091 39.0504 2.30232 38.9725 2.25515 38.9725C2.19829 38.9725 2.16938 33.0578 2.16938 21.4013C2.16938 9.74492 2.19829 3.83019 2.25515 3.83019C2.30232 3.83019 2.34091 3.73178 2.34091 3.61155C2.34091 3.46795 2.47273 3.25987 2.72461 3.00565C3.03387 2.69344 3.16689 2.61839 3.41071 2.61839C3.577 2.61839 3.71311 2.57944 3.71311 2.53183C3.71311 2.47445 8.7731 2.44528 18.7215 2.44528C28.67 2.44528 33.73 2.47445 33.73 2.53183ZM9.37343 15.7751C9.37343 24.7193 9.37455 24.7771 9.54496 24.7771C9.6393 24.7771 9.71648 24.7381 9.71648 24.6905C9.71648 24.6429 9.79367 24.604 9.88801 24.604C9.98235 24.604 10.0595 24.565 10.0595 24.5174C10.0595 24.4698 10.1367 24.4308 10.2311 24.4308C10.3254 24.4308 10.4026 24.3919 10.4026 24.3443C10.4026 24.2967 10.4798 24.2577 10.5741 24.2577C10.6684 24.2577 10.7456 24.2188 10.7456 24.1712C10.7456 24.1236 10.8228 24.0846 10.9172 24.0846C11.0115 24.0846 11.0887 24.0457 11.0887 23.9981C11.0887 23.9505 11.2045 23.9115 11.346 23.9115C11.4875 23.9115 11.6033 23.8725 11.6033 23.8249C11.6033 23.7773 11.6804 23.7384 11.7748 23.7384C11.8691 23.7384 11.9463 23.6994 11.9463 23.6518C11.9463 23.6042 12.0235 23.5653 12.1178 23.5653C12.2122 23.5653 12.2894 23.5263 12.2894 23.4787C12.2894 23.4311 12.3665 23.3922 12.4609 23.3922C12.5552 23.3922 12.6324 23.3532 12.6324 23.3056C12.6324 23.258 12.7096 23.219 12.8039 23.219C12.8983 23.219 12.9755 23.1801 12.9755 23.1325C12.9755 23.0849 13.0912 23.0459 13.2327 23.0459C13.3743 23.0459 13.49 23.007 13.49 22.9594C13.49 22.9118 13.6058 22.8728 13.7473 22.8728C13.8888 22.8728 14.0046 22.8339 14.0046 22.7863C14.0046 22.7386 14.0818 22.6997 14.1761 22.6997C14.2705 22.6997 14.3477 22.6607 14.3477 22.6131C14.3477 22.5655 14.4634 22.5266 14.6049 22.5266C14.7465 22.5266 14.8622 22.4876 14.8622 22.44C14.8622 22.3924 14.978 22.3535 15.1195 22.3535C15.261 22.3535 15.3768 22.3145 15.3768 22.2669C15.3768 22.2193 15.5312 22.1804 15.7199 22.1804C15.9085 22.1804 16.0629 22.1414 16.0629 22.0938C16.0629 22.0462 16.2173 22.0072 16.406 22.0072C16.5946 22.0072 16.749 21.9683 16.749 21.9207C16.749 21.8731 16.9034 21.8341 17.0921 21.8341C17.2807 21.8341 17.4351 21.7952 17.4351 21.7476C17.4351 21.7 17.6281 21.661 17.8639 21.661C18.0998 21.661 18.2927 21.6221 18.2927 21.5745C18.2927 21.5263 18.5215 21.4879 18.8073 21.4879C19.0932 21.4879 19.3219 21.4495 19.3219 21.4013C19.3219 21.3471 19.865 21.3148 20.7798 21.3148C21.6947 21.3148 22.2378 21.3471 22.2378 21.4013C22.2378 21.4489 22.3536 21.4879 22.4951 21.4879C22.6366 21.4879 22.7524 21.5268 22.7524 21.5745C22.7524 21.6221 22.812 21.661 22.8849 21.661C22.9578 21.661 23.1122 21.7567 23.2279 21.8735C23.3437 21.9904 23.4385 22.1462 23.4385 22.2197C23.4385 22.2933 23.4771 22.3535 23.5242 22.3535C23.5714 22.3535 23.61 22.4314 23.61 22.5266C23.61 22.6218 23.6486 22.6997 23.6958 22.6997C23.7522 22.6997 23.7815 24.979 23.7815 29.3646V36.0295H25.8398H27.8981V28.9318C27.8981 24.2577 27.8689 21.8341 27.8124 21.8341C27.7652 21.8341 27.7266 21.7173 27.7266 21.5745C27.7266 21.4316 27.688 21.3148 27.6408 21.3148C27.5937 21.3148 27.5551 21.1979 27.5551 21.0551C27.5551 20.9123 27.5165 20.7954 27.4693 20.7954C27.4222 20.7954 27.3836 20.7175 27.3836 20.6223C27.3836 20.5271 27.345 20.4492 27.2978 20.4492C27.2506 20.4492 27.212 20.3799 27.212 20.2952C27.212 20.2105 27.1348 20.0851 27.0405 20.0164C26.9462 19.9478 26.869 19.841 26.869 19.7791C26.869 19.6415 25.9674 18.7181 25.8332 18.7181C25.7804 18.7181 25.6289 18.6012 25.4968 18.4584C25.3646 18.3156 25.2032 18.1987 25.1383 18.1987C25.0733 18.1987 24.9645 18.1208 24.8964 18.0256C24.8238 17.924 24.6744 17.8525 24.5344 17.8525C24.4034 17.8525 24.2961 17.8135 24.2961 17.7659C24.2961 17.7183 24.2189 17.6794 24.1246 17.6794C24.0302 17.6794 23.9531 17.6404 23.9531 17.5928C23.9531 17.5452 23.8373 17.5063 23.6958 17.5063C23.5543 17.5063 23.4385 17.4673 23.4385 17.4197C23.4385 17.3716 23.2098 17.3331 22.9239 17.3331C22.6381 17.3331 22.4093 17.2947 22.4093 17.2466C22.4093 17.193 21.952 17.16 21.2087 17.16C20.4654 17.16 20.008 17.193 20.008 17.2466C20.008 17.2979 19.6935 17.3331 19.2361 17.3331C18.7787 17.3331 18.4643 17.3684 18.4643 17.4197C18.4643 17.4678 18.2355 17.5063 17.9497 17.5063C17.6638 17.5063 17.4351 17.5447 17.4351 17.5928C17.4351 17.6409 17.2064 17.6794 16.9205 17.6794C16.6347 17.6794 16.406 17.7178 16.406 17.7659C16.406 17.8135 16.2516 17.8525 16.0629 17.8525C15.8742 17.8525 15.7199 17.8914 15.7199 17.939C15.7199 17.9867 15.6041 18.0256 15.4626 18.0256C15.3211 18.0256 15.2053 18.0646 15.2053 18.1122C15.2053 18.1598 15.0509 18.1987 14.8622 18.1987C14.6736 18.1987 14.5192 18.2377 14.5192 18.2853C14.5192 18.3329 14.4034 18.3718 14.2619 18.3718C14.1204 18.3718 14.0046 18.4108 14.0046 18.4584C14.0046 18.506 13.8888 18.5449 13.7473 18.5449H13.49V12.659V6.77314H11.4317H9.37343V15.7751ZM23.8887 6.90264C23.8298 6.97024 23.7815 7.16352 23.7815 7.33213C23.7815 7.50075 23.7429 7.63872 23.6958 7.63872C23.6486 7.63872 23.61 7.79452 23.61 7.98495C23.61 8.17537 23.5714 8.33118 23.5242 8.33118C23.4771 8.33118 23.4385 8.44803 23.4385 8.59085C23.4385 8.73367 23.3999 8.85052 23.3527 8.85052C23.3056 8.85052 23.267 8.96737 23.267 9.11019C23.267 9.25301 23.2284 9.36987 23.1812 9.36987C23.134 9.36987 23.0954 9.44777 23.0954 9.54298C23.0954 9.63819 23.0568 9.71609 23.0097 9.71609C22.9625 9.71609 22.9239 9.794 22.9239 9.88921C22.9239 9.98442 22.8853 10.0623 22.8381 10.0623C22.791 10.0623 22.7524 10.1792 22.7524 10.322C22.7524 10.4648 22.7138 10.5817 22.6666 10.5817C22.6195 10.5817 22.5809 10.6596 22.5809 10.7548C22.5809 10.85 22.5423 10.9279 22.4951 10.9279C22.4479 10.9279 22.4093 10.9972 22.4093 11.0819C22.4093 11.1666 22.3321 11.292 22.2378 11.3607C22.1435 11.4293 22.0663 11.5547 22.0663 11.6395C22.0663 11.7241 22.0277 11.7935 21.9805 11.7935C21.9334 11.7935 21.8948 11.8628 21.8948 11.9475C21.8948 12.0322 21.8176 12.1576 21.7232 12.2263C21.6289 12.2949 21.5517 12.4118 21.5517 12.4859C21.5517 12.5601 21.4745 12.677 21.3802 12.7456C21.2858 12.8142 21.2087 12.9311 21.2087 13.0053C21.2087 13.0795 21.1315 13.1963 21.0371 13.2649C20.9428 13.3336 20.8656 13.4201 20.8656 13.4572C20.8656 13.4942 21.7738 13.5246 22.8839 13.5246H24.9022L25.1994 13.2245C25.363 13.0595 25.4968 12.8804 25.4968 12.8265C25.4968 12.7726 25.6126 12.6193 25.7541 12.4859C25.8956 12.3525 26.0114 12.1896 26.0114 12.1241C26.0114 12.0585 26.0885 11.9487 26.1829 11.88C26.2772 11.8114 26.3544 11.686 26.3544 11.6012C26.3544 11.5166 26.393 11.4472 26.4402 11.4472C26.4873 11.4472 26.5259 11.3693 26.5259 11.2741C26.5259 11.1789 26.5645 11.101 26.6117 11.101C26.6589 11.101 26.6975 11.0231 26.6975 10.9279C26.6975 10.8327 26.7361 10.7548 26.7832 10.7548C26.8304 10.7548 26.869 10.6769 26.869 10.5817C26.869 10.4865 26.9076 10.4086 26.9547 10.4086C27.0019 10.4086 27.0405 10.3307 27.0405 10.2354C27.0405 10.1402 27.0791 10.0623 27.1263 10.0623C27.1734 10.0623 27.212 9.98442 27.212 9.88921C27.212 9.794 27.2506 9.71609 27.2978 9.71609C27.345 9.71609 27.3836 9.59924 27.3836 9.45642C27.3836 9.3136 27.4222 9.19675 27.4693 9.19675C27.5165 9.19675 27.5551 9.0799 27.5551 8.93708C27.5551 8.79426 27.5937 8.67741 27.6408 8.67741C27.688 8.67741 27.7266 8.5216 27.7266 8.33118C27.7266 8.14075 27.7652 7.98495 27.8124 7.98495C27.8595 7.98495 27.8981 7.79019 27.8981 7.55216C27.8981 7.31413 27.9367 7.11937 27.9839 7.11937C28.0311 7.11937 28.0697 7.04147 28.0697 6.94626C28.0697 6.77791 28.0136 6.77323 26.0328 6.77643C24.384 6.77912 23.9755 6.80318 23.8887 6.90264ZM105.427 13.7843C105.427 13.8348 105.142 13.8708 104.741 13.8708C104.341 13.8708 104.055 13.9069 104.055 13.9574C104.055 14.005 103.901 14.044 103.712 14.044C103.524 14.044 103.369 14.0829 103.369 14.1305C103.369 14.1781 103.253 14.2171 103.112 14.2171C102.97 14.2171 102.855 14.256 102.855 14.3036C102.855 14.3512 102.777 14.3902 102.683 14.3902C102.589 14.3902 102.512 14.4291 102.512 14.4767C102.512 14.5244 102.396 14.5633 102.254 14.5633C102.113 14.5633 101.997 14.6023 101.997 14.6499C101.997 14.6975 101.928 14.7364 101.844 14.7364C101.76 14.7364 101.636 14.8143 101.568 14.9095C101.5 15.0047 101.395 15.0827 101.334 15.0827C101.189 15.0827 99.7671 16.5176 99.7671 16.6636C99.7671 16.7252 99.6899 16.8317 99.5956 16.9004C99.5012 16.969 99.4241 17.0858 99.4241 17.16C99.4241 17.2342 99.3469 17.3511 99.2525 17.4197C99.1518 17.493 99.081 17.6438 99.081 17.7851C99.081 17.9173 99.0424 18.0256 98.9952 18.0256C98.9481 18.0256 98.9095 18.1035 98.9095 18.1987C98.9095 18.2939 98.8709 18.3718 98.8237 18.3718C98.7766 18.3718 98.738 18.4887 98.738 18.6315C98.738 18.7743 98.6994 18.8912 98.6522 18.8912C98.605 18.8912 98.5664 19.047 98.5664 19.2374C98.5664 19.4278 98.5278 19.5836 98.4807 19.5836C98.4335 19.5836 98.3949 19.7784 98.3949 20.0164C98.3949 20.2545 98.3563 20.4492 98.3092 20.4492C98.2561 20.4492 98.2234 20.9108 98.2234 21.661C98.2234 22.4112 98.2561 22.8728 98.3092 22.8728C98.3581 22.8728 98.3949 23.1325 98.3949 23.4787C98.3949 23.8249 98.4317 24.0846 98.4807 24.0846C98.5278 24.0846 98.5664 24.2404 98.5664 24.4308C98.5664 24.6213 98.605 24.7771 98.6522 24.7771C98.6994 24.7771 98.738 24.8939 98.738 25.0367C98.738 25.1796 98.7766 25.2964 98.8237 25.2964C98.8709 25.2964 98.9095 25.3743 98.9095 25.4695C98.9095 25.5647 98.9481 25.6426 98.9952 25.6426C99.0424 25.6426 99.081 25.7205 99.081 25.8158C99.081 25.911 99.1196 25.9889 99.1668 25.9889C99.2139 25.9889 99.2525 26.0668 99.2525 26.162C99.2525 26.2572 99.2911 26.3351 99.3383 26.3351C99.3855 26.3351 99.4241 26.4044 99.4241 26.4891C99.4241 26.5738 99.5012 26.6993 99.5956 26.7679C99.6899 26.8365 99.7671 26.9431 99.7671 27.0048C99.7671 27.0664 100.056 27.4084 100.409 27.7647C100.762 28.121 101.101 28.4125 101.162 28.4125C101.223 28.4125 101.329 28.4904 101.397 28.5856C101.465 28.6808 101.589 28.7587 101.673 28.7587C101.757 28.7587 101.825 28.7977 101.825 28.8453C101.825 28.8929 101.903 28.9318 101.997 28.9318C102.091 28.9318 102.168 28.9708 102.168 29.0184C102.168 29.066 102.246 29.1049 102.34 29.1049C102.434 29.1049 102.512 29.1439 102.512 29.1915C102.512 29.2391 102.627 29.2781 102.769 29.2781C102.91 29.2781 103.026 29.317 103.026 29.3646C103.026 29.4122 103.18 29.4512 103.369 29.4512C103.558 29.4512 103.712 29.4901 103.712 29.5377C103.712 29.5853 103.867 29.6243 104.055 29.6243C104.244 29.6243 104.398 29.6632 104.398 29.7108C104.398 29.7649 104.913 29.7974 105.77 29.7974C106.628 29.7974 107.143 29.7649 107.143 29.7108C107.143 29.6632 107.297 29.6243 107.486 29.6243C107.674 29.6243 107.829 29.5853 107.829 29.5377C107.829 29.4901 107.983 29.4512 108.172 29.4512C108.361 29.4512 108.515 29.4122 108.515 29.3646C108.515 29.317 108.631 29.2781 108.772 29.2781C108.914 29.2781 109.029 29.2391 109.029 29.1915C109.029 29.1439 109.107 29.1049 109.201 29.1049C109.295 29.1049 109.373 29.066 109.373 29.0184C109.373 28.9708 109.441 28.9318 109.525 28.9318C109.609 28.9318 109.733 28.8539 109.801 28.7587C109.869 28.6635 109.985 28.5856 110.059 28.5856C110.132 28.5856 110.248 28.5077 110.316 28.4125C110.384 28.3173 110.49 28.2394 110.551 28.2394C110.687 28.2394 111.774 27.1559 111.774 27.0206C111.774 26.9674 111.89 26.8147 112.031 26.6813C112.173 26.548 112.288 26.3765 112.288 26.3004C112.288 26.2242 112.327 26.162 112.374 26.162C112.421 26.162 112.46 26.0841 112.46 25.9889C112.46 25.8937 112.499 25.8158 112.546 25.8158C112.593 25.8158 112.631 25.7379 112.631 25.6426C112.631 25.5474 112.67 25.4695 112.717 25.4695C112.764 25.4695 112.803 25.3527 112.803 25.2099C112.803 25.067 112.842 24.9502 112.889 24.9502C112.936 24.9502 112.975 24.7944 112.975 24.604C112.975 24.4135 113.013 24.2577 113.06 24.2577C113.107 24.2577 113.146 24.1019 113.146 23.9115C113.146 23.7211 113.185 23.5653 113.232 23.5653C113.286 23.5653 113.318 22.9594 113.318 21.9207C113.318 20.882 113.286 20.2761 113.232 20.2761C113.184 20.2761 113.146 20.0452 113.146 19.7567C113.146 19.4683 113.108 19.2374 113.06 19.2374C113.013 19.2374 112.975 19.1206 112.975 18.9777C112.975 18.8349 112.936 18.7181 112.889 18.7181C112.842 18.7181 112.803 18.6012 112.803 18.4584C112.803 18.3156 112.764 18.1987 112.717 18.1987C112.67 18.1987 112.631 18.1208 112.631 18.0256C112.631 17.9304 112.593 17.8525 112.546 17.8525C112.499 17.8525 112.46 17.7746 112.46 17.6794C112.46 17.5842 112.421 17.5063 112.374 17.5063C112.327 17.5063 112.288 17.4369 112.288 17.3523C112.288 17.2675 112.211 17.1421 112.117 17.0735C112.023 17.0048 111.945 16.895 111.945 16.8294C111.945 16.7639 111.83 16.601 111.688 16.4676C111.547 16.3342 111.431 16.1805 111.431 16.1259C111.431 15.9975 111.039 15.602 110.912 15.602C110.858 15.602 110.705 15.4851 110.573 15.3423C110.441 15.1995 110.28 15.0827 110.215 15.0827C110.15 15.0827 110.041 15.0047 109.973 14.9095C109.905 14.8143 109.781 14.7364 109.697 14.7364C109.613 14.7364 109.544 14.6975 109.544 14.6499C109.544 14.6023 109.467 14.5633 109.373 14.5633C109.278 14.5633 109.201 14.5244 109.201 14.4767C109.201 14.4291 109.085 14.3902 108.944 14.3902C108.802 14.3902 108.686 14.3512 108.686 14.3036C108.686 14.256 108.571 14.2171 108.429 14.2171C108.288 14.2171 108.172 14.1781 108.172 14.1305C108.172 14.0829 108.056 14.044 107.915 14.044C107.773 14.044 107.657 14.005 107.657 13.9574C107.657 13.9069 107.371 13.8708 106.971 13.8708C106.571 13.8708 106.285 13.8348 106.285 13.7843C106.285 13.7367 106.092 13.6977 105.856 13.6977C105.62 13.6977 105.427 13.7367 105.427 13.7843ZM46.9374 21.9207V29.6243H48.9957H51.054V26.5082V23.3922H53.6269H56.1998V26.5082V29.6243H58.2581H60.3164V21.9207V14.2171H58.2581H56.1998V17.0735V19.9299H53.6269H51.054V17.0735V14.2171H48.9957H46.9374V21.9207ZM65.6336 21.8341V29.4512H71.294H76.9543V27.8066V26.162H73.3523H69.7502V24.7771V23.3922H72.2374H74.7245V21.7476V20.103H72.2374H69.7502V18.8912V17.6794H73.1807H76.6112V15.9482V14.2171H71.1224H65.6336V21.8341ZM81.5855 21.9207V29.6243H83.558H85.5305V27.0647C85.5305 24.9617 85.5524 24.483 85.6531 24.3814C85.8164 24.2165 86.6169 24.2165 86.7802 24.3814C86.8476 24.4494 86.9027 24.5662 86.9027 24.6411C86.9027 24.7159 86.9413 24.7771 86.9885 24.7771C87.0357 24.7771 87.0743 24.855 87.0743 24.9502C87.0743 25.0454 87.1129 25.1233 87.16 25.1233C87.2072 25.1233 87.2458 25.1926 87.2458 25.2773C87.2458 25.362 87.323 25.4874 87.4173 25.5561C87.5117 25.6247 87.5888 25.7502 87.5888 25.8349C87.5888 25.9195 87.6274 25.9889 87.6746 25.9889C87.7218 25.9889 87.7604 26.0668 87.7604 26.162C87.7604 26.2572 87.799 26.3351 87.8461 26.3351C87.8933 26.3351 87.9319 26.4044 87.9319 26.4891C87.9319 26.5738 88.0091 26.6993 88.1034 26.7679C88.1977 26.8365 88.2749 26.962 88.2749 27.0467C88.2749 27.1313 88.3135 27.2007 88.3607 27.2007C88.4079 27.2007 88.4465 27.2786 88.4465 27.3738C88.4465 27.469 88.4851 27.5469 88.5322 27.5469C88.5794 27.5469 88.618 27.6162 88.618 27.7009C88.618 27.7856 88.6952 27.9111 88.7895 27.9797C88.8839 28.0483 88.961 28.1738 88.961 28.2585C88.961 28.3432 88.9996 28.4125 89.0468 28.4125C89.094 28.4125 89.1326 28.4904 89.1326 28.5856C89.1326 28.6808 89.1712 28.7587 89.2183 28.7587C89.2655 28.7587 89.3041 28.828 89.3041 28.9127C89.3041 28.9974 89.3813 29.1229 89.4756 29.1915C89.5699 29.2601 89.6471 29.3856 89.6471 29.4703C89.6471 29.6138 89.793 29.6243 91.7912 29.6243C93.8781 29.6243 93.9353 29.6197 93.9353 29.4512C93.9353 29.356 93.8967 29.2781 93.8495 29.2781C93.8023 29.2781 93.7637 29.2002 93.7637 29.1049C93.7637 29.0097 93.7251 28.9318 93.678 28.9318C93.6308 28.9318 93.5922 28.8625 93.5922 28.7778C93.5922 28.6931 93.515 28.5677 93.4207 28.499C93.3263 28.4304 93.2492 28.305 93.2492 28.2202C93.2492 28.1356 93.2106 28.0663 93.1634 28.0663C93.1162 28.0663 93.0776 27.9884 93.0776 27.8931C93.0776 27.7979 93.039 27.72 92.9919 27.72C92.9447 27.72 92.9061 27.6421 92.9061 27.5469C92.9061 27.4517 92.8675 27.3738 92.8204 27.3738C92.7732 27.3738 92.7346 27.2959 92.7346 27.2007C92.7346 27.1055 92.696 27.0276 92.6488 27.0276C92.6017 27.0276 92.5631 26.9582 92.5631 26.8736C92.5631 26.7888 92.4859 26.6634 92.3915 26.5948C92.2972 26.5261 92.22 26.4007 92.22 26.316C92.22 26.2313 92.1814 26.162 92.1342 26.162C92.0871 26.162 92.0485 26.0841 92.0485 25.9889C92.0485 25.8937 92.0099 25.8158 91.9627 25.8158C91.9156 25.8158 91.877 25.7379 91.877 25.6426C91.877 25.5474 91.8384 25.4695 91.7912 25.4695C91.744 25.4695 91.7054 25.3916 91.7054 25.2964C91.7054 25.2012 91.6668 25.1233 91.6197 25.1233C91.5725 25.1233 91.5339 25.0454 91.5339 24.9502C91.5339 24.855 91.4953 24.7771 91.4482 24.7771C91.401 24.7771 91.3624 24.7077 91.3624 24.6231C91.3624 24.5383 91.2852 24.4129 91.1909 24.3443C91.0965 24.2756 91.0193 24.1534 91.0193 24.0728C91.0193 23.992 90.9715 23.9099 90.9129 23.8901C90.7712 23.8424 91.0397 23.5653 91.2276 23.5653C91.3018 23.5653 91.3624 23.5263 91.3624 23.4787C91.3624 23.4311 91.4396 23.3922 91.5339 23.3922C91.6283 23.3922 91.7054 23.3532 91.7054 23.3056C91.7054 23.258 91.7639 23.219 91.8354 23.219C92.0049 23.219 93.2492 21.9633 93.2492 21.7922C93.2492 21.72 93.2878 21.661 93.3349 21.661C93.3821 21.661 93.4207 21.5831 93.4207 21.4879C93.4207 21.3927 93.4593 21.3148 93.5064 21.3148C93.5536 21.3148 93.5922 21.1979 93.5922 21.0551C93.5922 20.9123 93.6308 20.7954 93.678 20.7954C93.7317 20.7954 93.7637 20.2473 93.7637 19.324C93.7637 18.4007 93.7317 17.8525 93.678 17.8525C93.6308 17.8525 93.5922 17.6967 93.5922 17.5063C93.5922 17.3158 93.5536 17.16 93.5064 17.16C93.4593 17.16 93.4207 17.0821 93.4207 16.9869C93.4207 16.8917 93.3821 16.8138 93.3349 16.8138C93.2878 16.8138 93.2492 16.7359 93.2492 16.6407C93.2492 16.5455 93.2106 16.4676 93.1634 16.4676C93.1162 16.4676 93.0776 16.4083 93.0776 16.3358C93.0776 16.1754 92.1825 15.2558 92.0264 15.2558C91.965 15.2558 91.8592 15.1779 91.7912 15.0827C91.7232 14.9874 91.5989 14.9095 91.515 14.9095C91.4311 14.9095 91.3624 14.8706 91.3624 14.823C91.3624 14.7754 91.2466 14.7364 91.1051 14.7364C90.9636 14.7364 90.8478 14.6975 90.8478 14.6499C90.8478 14.6023 90.732 14.5633 90.5905 14.5633C90.449 14.5633 90.3332 14.5244 90.3332 14.4767C90.3332 14.4286 90.1045 14.3902 89.8187 14.3902C89.5328 14.3902 89.3041 14.3518 89.3041 14.3036C89.3041 14.2472 87.9604 14.2171 85.4448 14.2171H81.5855V21.9207ZM117.949 21.9207V29.6243H120.007H122.065V27.2354V24.8465L122.323 24.604C122.464 24.4706 122.58 24.3173 122.58 24.2634C122.58 24.1174 123.154 23.5653 123.306 23.5653C123.38 23.5653 123.438 23.6406 123.438 23.7384C123.438 23.8336 123.476 23.9115 123.523 23.9115C123.57 23.9115 123.609 23.9894 123.609 24.0846C123.609 24.1798 123.648 24.2577 123.695 24.2577C123.742 24.2577 123.781 24.3271 123.781 24.4117C123.781 24.4965 123.858 24.6219 123.952 24.6905C124.046 24.7592 124.124 24.8846 124.124 24.9693C124.124 25.054 124.162 25.1233 124.209 25.1233C124.257 25.1233 124.295 25.1926 124.295 25.2773C124.295 25.362 124.372 25.4874 124.467 25.5561C124.561 25.6247 124.638 25.7502 124.638 25.8349C124.638 25.9195 124.677 25.9889 124.724 25.9889C124.771 25.9889 124.81 26.0582 124.81 26.1429C124.81 26.2276 124.887 26.353 124.981 26.4217C125.076 26.4903 125.153 26.6157 125.153 26.7005C125.153 26.7851 125.191 26.8545 125.239 26.8545C125.286 26.8545 125.324 26.9238 125.324 27.0084C125.324 27.0932 125.402 27.2186 125.496 27.2872C125.59 27.3559 125.667 27.4813 125.667 27.566C125.667 27.6507 125.706 27.72 125.753 27.72C125.8 27.72 125.839 27.7894 125.839 27.874C125.839 27.9587 125.916 28.0842 126.01 28.1528C126.105 28.2215 126.182 28.3469 126.182 28.4316C126.182 28.5163 126.221 28.5856 126.268 28.5856C126.315 28.5856 126.353 28.6635 126.353 28.7587C126.353 28.8539 126.392 28.9318 126.439 28.9318C126.486 28.9318 126.525 28.992 126.525 29.0656C126.525 29.1391 126.62 29.2949 126.736 29.4118L126.946 29.6243H129.223C130.475 29.6243 131.499 29.5939 131.499 29.5569C131.499 29.5197 131.422 29.4333 131.328 29.3646C131.233 29.296 131.156 29.1706 131.156 29.0858C131.156 29.0012 131.118 28.9318 131.07 28.9318C131.023 28.9318 130.985 28.8625 130.985 28.7778C130.985 28.6931 130.907 28.5677 130.813 28.499C130.719 28.4304 130.642 28.305 130.642 28.2202C130.642 28.1356 130.603 28.0663 130.556 28.0663C130.509 28.0663 130.47 27.9969 130.47 27.9123C130.47 27.8275 130.393 27.7021 130.299 27.6335C130.204 27.5648 130.127 27.4394 130.127 27.3547C130.127 27.27 130.088 27.2007 130.041 27.2007C129.994 27.2007 129.956 27.1313 129.956 27.0467C129.956 26.962 129.878 26.8365 129.784 26.7679C129.69 26.6993 129.612 26.5738 129.612 26.4891C129.612 26.4044 129.574 26.3351 129.527 26.3351C129.48 26.3351 129.441 26.2658 129.441 26.1811C129.441 26.0964 129.364 25.971 129.269 25.9023C129.175 25.8337 129.098 25.7083 129.098 25.6235C129.098 25.5389 129.059 25.4695 129.012 25.4695C128.965 25.4695 128.926 25.4002 128.926 25.3155C128.926 25.2308 128.849 25.1054 128.755 25.0367C128.66 24.9681 128.583 24.8427 128.583 24.7579C128.583 24.6733 128.545 24.604 128.498 24.604C128.45 24.604 128.412 24.5346 128.412 24.45C128.412 24.3652 128.335 24.2398 128.24 24.1712C128.146 24.1025 128.069 23.9771 128.069 23.8924C128.069 23.8077 128.03 23.7384 127.983 23.7384C127.936 23.7384 127.897 23.6691 127.897 23.5844C127.897 23.4997 127.82 23.3742 127.726 23.3056C127.631 23.237 127.554 23.1115 127.554 23.0268C127.554 22.9421 127.516 22.8728 127.468 22.8728C127.421 22.8728 127.383 22.8035 127.383 22.7188C127.383 22.6341 127.305 22.5087 127.211 22.44C127.117 22.3714 127.04 22.246 127.04 22.1612C127.04 22.0766 127.001 22.0072 126.954 22.0072C126.907 22.0072 126.868 21.9379 126.868 21.8533C126.868 21.7685 126.791 21.6431 126.697 21.5745C126.602 21.5058 126.525 21.3804 126.525 21.2957C126.525 21.211 126.486 21.1417 126.439 21.1417C126.392 21.1417 126.353 21.0723 126.353 20.9877C126.353 20.9029 126.276 20.7775 126.182 20.7089C126.07 20.6271 126.01 20.4848 126.01 20.2961C126.01 20.0541 126.106 19.9125 126.611 19.4105C126.941 19.0819 127.211 18.77 127.211 18.7175C127.211 18.6649 127.443 18.3925 127.726 18.1122C128.009 17.8318 128.24 17.5591 128.24 17.5063C128.24 17.4534 128.472 17.1807 128.755 16.9004C129.038 16.62 129.269 16.3476 129.269 16.2951C129.269 16.2425 129.54 15.9307 129.87 15.602C130.2 15.2733 130.47 14.9597 130.47 14.9051C130.47 14.8506 130.586 14.6967 130.727 14.5633C130.869 14.4299 130.985 14.2974 130.985 14.2689C130.985 14.2404 129.904 14.2171 128.583 14.2171C126.44 14.2171 126.182 14.232 126.182 14.3555C126.182 14.4316 126.066 14.603 125.925 14.7364C125.783 14.8698 125.667 15.0256 125.667 15.0827C125.667 15.1397 125.552 15.2955 125.41 15.4289C125.269 15.5623 125.153 15.7181 125.153 15.7751C125.153 15.8322 125.037 15.988 124.896 16.1213C124.754 16.2547 124.638 16.4105 124.638 16.4676C124.638 16.5246 124.522 16.6804 124.381 16.8138C124.239 16.9472 124.124 17.1022 124.124 17.1583C124.124 17.2143 123.969 17.4098 123.781 17.5928C123.592 17.7758 123.438 17.9713 123.438 18.0273C123.438 18.0834 123.322 18.2384 123.18 18.3718C123.039 18.5052 122.923 18.661 122.923 18.7181C122.923 18.7751 122.807 18.9309 122.666 19.0643C122.524 19.1977 122.408 19.3524 122.408 19.4082C122.408 19.5121 122.202 19.7567 122.114 19.7567C122.087 19.7567 122.065 18.5103 122.065 16.9869V14.2171H120.007H117.949V21.9207ZM135.273 18.9777C135.273 22.0938 135.302 23.7384 135.359 23.7384C135.409 23.7384 135.444 24.0558 135.444 24.5174C135.444 24.979 135.479 25.2964 135.53 25.2964C135.577 25.2964 135.616 25.4522 135.616 25.6426C135.616 25.8331 135.654 25.9889 135.702 25.9889C135.749 25.9889 135.787 26.1057 135.787 26.2485C135.787 26.3914 135.826 26.5082 135.873 26.5082C135.92 26.5082 135.959 26.5861 135.959 26.6813C135.959 26.7765 135.997 26.8545 136.045 26.8545C136.092 26.8545 136.13 26.9324 136.13 27.0276C136.13 27.1228 136.169 27.2007 136.216 27.2007C136.263 27.2007 136.302 27.2596 136.302 27.3317C136.302 27.5026 137.718 28.9318 137.887 28.9318C137.959 28.9318 138.017 28.9708 138.017 29.0184C138.017 29.066 138.094 29.1049 138.189 29.1049C138.283 29.1049 138.36 29.1439 138.36 29.1915C138.36 29.2391 138.437 29.2781 138.532 29.2781C138.626 29.2781 138.703 29.317 138.703 29.3646C138.703 29.4122 138.819 29.4512 138.961 29.4512C139.102 29.4512 139.218 29.4901 139.218 29.5377C139.218 29.5853 139.372 29.6243 139.561 29.6243C139.75 29.6243 139.904 29.6632 139.904 29.7108C139.904 29.759 140.133 29.7974 140.419 29.7974C140.704 29.7974 140.933 29.8358 140.933 29.884C140.933 29.9368 141.333 29.9705 141.962 29.9705C142.591 29.9705 142.991 29.9368 142.991 29.884C142.991 29.8358 143.22 29.7974 143.506 29.7974C143.792 29.7974 144.021 29.759 144.021 29.7108C144.021 29.6632 144.136 29.6243 144.278 29.6243C144.419 29.6243 144.535 29.5853 144.535 29.5377C144.535 29.4901 144.651 29.4512 144.792 29.4512C144.934 29.4512 145.05 29.4122 145.05 29.3646C145.05 29.317 145.127 29.2781 145.221 29.2781C145.316 29.2781 145.393 29.2391 145.393 29.1915C145.393 29.1439 145.454 29.1049 145.53 29.1049C145.605 29.1049 145.775 28.9881 145.907 28.8453C146.039 28.7024 146.191 28.5856 146.245 28.5856C146.379 28.5856 146.936 28.0109 146.936 27.8718C146.936 27.8094 147.014 27.7021 147.108 27.6335C147.202 27.5648 147.28 27.4394 147.28 27.3547C147.28 27.27 147.318 27.2007 147.365 27.2007C147.412 27.2007 147.451 27.1228 147.451 27.0276C147.451 26.9324 147.49 26.8545 147.537 26.8545C147.584 26.8545 147.623 26.7765 147.623 26.6813C147.623 26.5861 147.661 26.5082 147.708 26.5082C147.756 26.5082 147.794 26.3914 147.794 26.2485C147.794 26.1057 147.833 25.9889 147.88 25.9889C147.927 25.9889 147.966 25.7941 147.966 25.5561C147.966 25.3181 148.004 25.1233 148.051 25.1233C148.108 25.1233 148.137 23.2479 148.137 19.6702V14.2171H146.165H144.192V19.2374C144.192 22.5266 144.162 24.2577 144.106 24.2577C144.059 24.2577 144.021 24.4525 144.021 24.6905C144.021 24.9285 143.982 25.1233 143.935 25.1233C143.888 25.1233 143.849 25.2012 143.849 25.2964C143.849 25.3916 143.81 25.4695 143.763 25.4695C143.716 25.4695 143.678 25.5297 143.678 25.6033C143.678 25.7765 143.296 26.162 143.124 26.162C143.051 26.162 142.991 26.2009 142.991 26.2485C142.991 26.2962 142.876 26.3351 142.734 26.3351C142.593 26.3351 142.477 26.3741 142.477 26.4217C142.477 26.4711 142.22 26.5082 141.876 26.5082C141.533 26.5082 141.276 26.4711 141.276 26.4217C141.276 26.3741 141.16 26.3351 141.019 26.3351C140.877 26.3351 140.762 26.2962 140.762 26.2485C140.762 26.2009 140.702 26.162 140.63 26.162C140.459 26.162 139.904 25.6014 139.904 25.4291C139.904 25.3561 139.865 25.2964 139.818 25.2964C139.771 25.2964 139.732 25.1796 139.732 25.0367C139.732 24.8939 139.694 24.7771 139.647 24.7771C139.59 24.7771 139.561 22.9594 139.561 19.4971V14.2171H137.417H135.273V18.9777ZM106.457 17.2466C106.457 17.2942 106.611 17.3331 106.8 17.3331C106.988 17.3331 107.143 17.3721 107.143 17.4197C107.143 17.4673 107.201 17.5063 107.273 17.5063C107.443 17.5063 108.343 18.4149 108.343 18.5863C108.343 18.6588 108.382 18.7181 108.429 18.7181C108.476 18.7181 108.515 18.796 108.515 18.8912C108.515 18.9864 108.553 19.0643 108.601 19.0643C108.648 19.0643 108.686 19.1422 108.686 19.2374C108.686 19.3326 108.725 19.4105 108.772 19.4105C108.819 19.4105 108.858 19.5663 108.858 19.7567C108.858 19.9472 108.897 20.103 108.944 20.103C108.993 20.103 109.029 20.3626 109.029 20.7089C109.029 21.0551 109.066 21.3148 109.115 21.3148C109.163 21.3148 109.201 21.5456 109.201 21.8341C109.201 22.1226 109.163 22.3535 109.115 22.3535C109.066 22.3535 109.029 22.6131 109.029 22.9594C109.029 23.3056 108.993 23.5653 108.944 23.5653C108.897 23.5653 108.858 23.6821 108.858 23.8249C108.858 23.9678 108.819 24.0846 108.772 24.0846C108.725 24.0846 108.686 24.2015 108.686 24.3443C108.686 24.4871 108.648 24.604 108.601 24.604C108.553 24.604 108.515 24.6733 108.515 24.7579C108.515 24.8427 108.438 24.9681 108.343 25.0367C108.249 25.1054 108.172 25.2132 108.172 25.2762C108.172 25.4248 107.784 25.8158 107.637 25.8158C107.575 25.8158 107.468 25.8937 107.4 25.9889C107.332 26.0841 107.208 26.162 107.124 26.162C107.04 26.162 106.971 26.2009 106.971 26.2485C106.971 26.2962 106.855 26.3351 106.714 26.3351C106.572 26.3351 106.457 26.3741 106.457 26.4217C106.457 26.473 106.142 26.5082 105.685 26.5082C105.227 26.5082 104.913 26.473 104.913 26.4217C104.913 26.3741 104.797 26.3351 104.656 26.3351C104.514 26.3351 104.398 26.2962 104.398 26.2485C104.398 26.2009 104.33 26.162 104.246 26.162C104.162 26.162 104.037 26.0841 103.969 25.9889C103.901 25.8937 103.795 25.8158 103.732 25.8158C103.585 25.8158 103.198 25.4248 103.198 25.2762C103.198 25.2132 103.12 25.1054 103.026 25.0367C102.932 24.9681 102.855 24.8427 102.855 24.7579C102.855 24.6733 102.816 24.604 102.769 24.604C102.722 24.604 102.683 24.4871 102.683 24.3443C102.683 24.2015 102.644 24.0846 102.597 24.0846C102.55 24.0846 102.512 23.9288 102.512 23.7384C102.512 23.548 102.473 23.3922 102.426 23.3922C102.372 23.3922 102.34 22.7863 102.34 21.7476C102.34 20.7089 102.372 20.103 102.426 20.103C102.473 20.103 102.512 19.9472 102.512 19.7567C102.512 19.5663 102.55 19.4105 102.597 19.4105C102.644 19.4105 102.683 19.3326 102.683 19.2374C102.683 19.1422 102.722 19.0643 102.769 19.0643C102.816 19.0643 102.855 18.995 102.855 18.9103C102.855 18.8256 102.932 18.7001 103.026 18.6315C103.12 18.5629 103.198 18.4556 103.198 18.3931C103.198 18.2455 103.758 17.6794 103.905 17.6794C103.967 17.6794 104.073 17.6015 104.141 17.5063C104.227 17.3857 104.363 17.3331 104.589 17.3331C104.767 17.3331 104.913 17.2942 104.913 17.2466C104.913 17.1953 105.227 17.16 105.685 17.16C106.142 17.16 106.457 17.1953 106.457 17.2466ZM88.7895 17.5928C88.7895 17.6404 88.8667 17.6794 88.961 17.6794C89.0554 17.6794 89.1326 17.7183 89.1326 17.7659C89.1326 17.8135 89.1932 17.8525 89.2673 17.8525C89.4406 17.8525 89.6471 18.0609 89.6471 18.2358C89.6471 18.3106 89.6857 18.3718 89.7329 18.3718C89.7801 18.3718 89.8187 18.4497 89.8187 18.5449C89.8187 18.6402 89.8573 18.7181 89.9044 18.7181C89.9521 18.7181 89.9902 18.9489 89.9902 19.2374C89.9902 19.5259 89.9521 19.7567 89.9044 19.7567C89.8573 19.7567 89.8187 19.8554 89.8187 19.976C89.8187 20.2198 89.3086 20.7954 89.0925 20.7954C89.0202 20.7954 88.961 20.8344 88.961 20.882C88.961 20.9296 88.7681 20.9685 88.5322 20.9685C88.2964 20.9685 88.1034 21.0075 88.1034 21.0551C88.1034 21.1087 87.646 21.1417 86.9027 21.1417H85.7021V19.324V17.5063H87.2458C88.2177 17.5063 88.7895 17.5383 88.7895 17.5928ZM9.54496 31.7882C9.54496 34.0257 9.56726 35.8564 9.59453 35.8564C9.62189 35.8564 9.79247 35.7006 9.97377 35.5102C10.1551 35.3198 10.3465 35.164 10.3992 35.164C10.4518 35.164 10.8393 34.8134 11.2602 34.3849C11.6811 33.9565 12.0672 33.6059 12.1182 33.6059C12.1692 33.6059 12.5164 33.2943 12.8897 32.9135C13.263 32.5326 13.6104 32.221 13.6618 32.221C13.7131 32.221 13.8516 32.1236 13.9695 32.0046L14.1839 31.7882L13.9695 31.5718C13.8516 31.4528 13.7131 31.3554 13.6618 31.3554C13.6104 31.3554 13.263 31.0438 12.8897 30.663C12.5164 30.2821 12.1692 29.9705 12.1182 29.9705C12.0672 29.9705 11.6811 29.62 11.2602 29.1915C10.8393 28.763 10.4518 28.4125 10.3992 28.4125C10.3465 28.4125 10.1551 28.2567 9.97377 28.0663C9.79247 27.8758 9.62189 27.72 9.59453 27.72C9.56726 27.72 9.54496 29.5507 9.54496 31.7882Z" fill="white"/>
</svg>
