<svg width="1440" height="565" viewBox="0 0 1440 565" fill="none" xmlns="http://www.w3.org/2000/svg">
<path fill-rule="evenodd" clip-rule="evenodd" d="M1501.76 188.592C1499.93 183.417 1491.38 183.417 1489.55 188.592L1469.59 244.951C1468.34 248.463 1471.41 252.007 1475.7 252.007C1479.08 252.007 1481.82 254.357 1481.82 257.255V261.1C1461.02 263.816 1440.36 266.741 1419.86 269.872V268.802C1419.86 265.904 1422.6 263.554 1425.98 263.554C1430.27 263.554 1433.33 260.01 1432.09 256.498L1412.13 200.139C1410.3 194.964 1401.75 194.964 1399.91 200.139L1379.96 256.498C1378.71 260.01 1381.78 263.554 1386.07 263.554C1389.45 263.554 1392.19 265.904 1392.19 268.802V274.236C1374.42 277.13 1356.77 280.178 1339.25 283.379V279.129C1339.25 276.231 1341.99 273.882 1345.37 273.882C1349.66 273.882 1352.72 270.337 1351.48 266.825L1331.52 210.466C1329.69 205.291 1321.14 205.291 1319.31 210.466L1299.35 266.825C1298.1 270.337 1301.17 273.882 1305.46 273.882C1308.84 273.882 1311.58 276.231 1311.58 279.129V288.577C1292.99 292.17 1274.55 295.935 1256.25 299.868V299.182C1256.25 296.284 1259 293.935 1262.38 293.935C1266.66 293.935 1269.73 290.391 1268.49 286.879L1248.53 230.52C1246.7 225.345 1238.15 225.345 1236.31 230.52L1216.36 286.879C1215.11 290.391 1218.18 293.935 1222.47 293.935C1225.85 293.935 1228.59 296.284 1228.59 299.182V305.972C1210.7 310.019 1192.97 314.229 1175.39 318.598V315.589C1175.39 312.691 1178.13 310.341 1181.52 310.341C1185.8 310.341 1188.87 306.797 1187.62 303.285L1167.67 246.926C1165.84 241.751 1157.28 241.751 1155.45 246.926L1135.49 303.285C1134.25 306.797 1137.32 310.341 1141.6 310.341C1144.98 310.341 1147.73 312.691 1147.73 315.589V325.639C1129.82 330.305 1112.08 335.137 1094.53 340.131V335.642C1094.53 332.744 1097.27 330.395 1100.65 330.395C1104.94 330.395 1108 326.851 1106.76 323.339L1086.8 266.98C1084.97 261.805 1076.42 261.805 1074.58 266.98L1054.63 323.339C1053.38 326.851 1056.45 330.395 1060.74 330.395C1064.12 330.395 1066.86 332.744 1066.86 335.642V348.179C1048.93 353.512 1031.2 359.015 1013.66 364.686V357.518C1013.66 354.62 1016.4 352.271 1019.79 352.271C1024.07 352.271 1027.14 348.727 1025.9 345.215L1005.94 288.856C1004.11 283.681 995.553 283.681 993.721 288.856L973.764 345.215C972.52 348.727 975.588 352.271 979.873 352.271C983.256 352.271 985.998 354.62 985.998 357.518V373.828C970.946 378.91 956.048 384.116 941.309 389.444V373.926C941.309 371.028 944.052 368.678 947.434 368.678C951.719 368.678 954.787 365.134 953.543 361.622L933.586 305.263C931.754 300.088 923.201 300.088 921.368 305.263L901.411 361.622C900.167 365.134 903.236 368.678 907.52 368.678C910.903 368.678 913.645 371.028 913.645 373.926V399.658C894.931 406.715 876.485 413.971 858.318 421.422V408.561C858.318 405.663 861.061 403.314 864.444 403.314C868.728 403.314 871.796 399.77 870.553 396.258L850.596 339.899C848.763 334.724 840.21 334.724 838.377 339.899L818.42 396.258C817.177 399.77 820.245 403.314 824.529 403.314C827.912 403.314 830.654 405.663 830.654 408.561V433.009C811.161 441.347 792.004 449.913 773.199 458.699V445.022C773.199 442.124 775.941 439.775 779.324 439.775C783.608 439.775 786.677 436.231 785.433 432.719L765.476 376.36C763.643 371.185 755.09 371.185 753.258 376.36L733.3 432.719C732.057 436.231 735.125 439.775 739.41 439.775C742.792 439.775 745.535 442.124 745.535 445.022V471.906C730.396 479.291 715.497 486.821 700.846 494.494V483.305C700.846 480.408 703.588 478.058 706.971 478.058C711.256 478.058 714.324 474.514 713.08 471.002L693.123 414.643C691.29 409.468 682.737 409.468 680.905 414.643L660.948 471.002C659.704 474.514 662.772 478.058 667.057 478.058C670.44 478.058 673.182 480.408 673.182 483.305V509.31C660.205 516.418 647.436 523.64 634.878 530.973V519.764C634.878 516.866 637.62 514.517 641.003 514.517C645.288 514.517 648.356 510.973 647.112 507.461L627.155 451.102C625.323 445.927 616.77 445.927 614.937 451.102L594.98 507.461C593.736 510.973 596.804 514.517 601.089 514.517C604.472 514.517 607.214 516.866 607.214 519.764V547.518C598.396 552.92 589.69 558.378 581.099 563.891H1522V256.137C1517.82 256.624 1513.65 257.119 1509.49 257.623V257.255C1509.49 254.357 1512.23 252.007 1515.61 252.007C1519.9 252.007 1522.96 248.463 1521.72 244.951L1501.76 188.592Z" fill="#A3B18A"/>
<path fill-rule="evenodd" clip-rule="evenodd" d="M30.1531 5.78345C32.8837 -1.92782 45.6282 -1.92782 48.3589 5.78345L78.096 89.7607C79.9493 94.9944 75.3774 100.275 68.9931 100.275C63.9526 100.275 59.8664 103.776 59.8664 108.094V113.824C90.8679 117.871 121.65 122.23 152.2 126.895V125.301C152.2 120.983 148.114 117.482 143.073 117.482C136.689 117.482 132.117 112.201 133.971 106.968L163.708 22.9905C166.438 15.2792 179.183 15.2792 181.914 22.9905L211.651 106.968C213.504 112.201 208.932 117.482 202.548 117.482C197.507 117.482 193.421 120.983 193.421 125.301V133.398C219.901 137.709 246.2 142.252 272.312 147.02V140.69C272.312 136.372 268.225 132.871 263.185 132.871C256.801 132.871 252.229 127.59 254.082 122.356L283.819 38.3791C286.55 30.6679 299.294 30.6679 302.025 38.3791L331.762 122.356C333.615 127.59 329.043 132.871 322.659 132.871C317.619 132.871 313.532 136.372 313.532 140.69V154.767C341.236 160.12 368.72 165.73 395.975 171.591V170.57C395.975 166.252 391.889 162.752 386.848 162.752C380.464 162.752 375.892 157.471 377.745 152.237L407.482 68.26C410.213 60.5487 422.958 60.5487 425.688 68.26L455.425 152.237C457.279 157.471 452.707 162.752 446.322 162.752C441.282 162.752 437.196 166.252 437.196 170.57V180.685C463.85 186.716 490.276 192.989 516.466 199.499V195.017C516.466 190.699 512.38 187.198 507.34 187.198C500.955 187.198 496.384 181.917 498.237 176.684L527.974 92.7063C530.705 84.995 543.449 84.995 546.18 92.7063L575.917 176.684C577.77 181.917 573.198 187.198 566.814 187.198C561.773 187.198 557.687 190.699 557.687 195.017V209.991C584.369 216.943 610.796 224.143 636.958 231.585V224.897C636.958 220.579 632.872 217.078 627.831 217.078C621.447 217.078 616.875 211.797 618.728 206.563L648.466 122.586C651.196 114.875 663.941 114.875 666.671 122.586L696.409 206.563C698.262 211.797 693.69 217.078 687.306 217.078C682.265 217.078 678.179 220.579 678.179 224.897V243.577C704.894 251.522 731.321 259.723 757.45 268.174V257.492C757.45 253.174 753.363 249.674 748.323 249.674C741.939 249.674 737.367 244.393 739.22 239.159L768.957 155.182C771.688 147.471 784.432 147.471 787.163 155.182L816.9 239.159C818.753 244.393 814.181 249.674 807.797 249.674C802.757 249.674 798.67 253.174 798.67 257.492V281.795C821.099 289.367 843.297 297.124 865.258 305.063V281.94C865.258 277.622 861.172 274.121 856.132 274.121C849.747 274.121 845.176 268.84 847.029 263.606L876.766 179.629C879.497 171.918 892.241 171.918 894.972 179.629L924.709 263.606C926.562 268.84 921.99 274.121 915.606 274.121C910.565 274.121 906.479 277.622 906.479 281.94V320.283C934.365 330.798 961.851 341.61 988.921 352.712V333.551C988.921 329.233 984.835 325.732 979.794 325.732C973.41 325.732 968.838 320.451 970.691 315.218L1000.43 231.24C1003.16 223.529 1015.9 223.529 1018.63 231.24L1048.37 315.218C1050.22 320.451 1045.65 325.732 1039.27 325.732C1034.23 325.732 1030.14 329.233 1030.14 333.551V369.978C1059.19 382.403 1087.73 395.166 1115.75 408.258V387.877C1115.75 383.559 1111.67 380.059 1106.63 380.059C1100.24 380.059 1095.67 374.778 1097.52 369.544L1127.26 285.567C1129.99 277.855 1142.74 277.855 1145.47 285.567L1175.2 369.544C1177.06 374.778 1172.49 380.059 1166.1 380.059C1161.06 380.059 1156.97 383.559 1156.97 387.877V427.937C1179.53 438.941 1201.73 450.161 1223.56 461.593V444.92C1223.56 440.602 1219.48 437.102 1214.44 437.102C1208.05 437.102 1203.48 431.821 1205.33 426.587L1235.07 342.61C1237.8 334.898 1250.55 334.898 1253.28 342.61L1283.01 426.587C1284.87 431.821 1280.29 437.102 1273.91 437.102C1268.87 437.102 1264.78 440.602 1264.78 444.92V483.67C1284.12 494.262 1303.15 505.023 1321.86 515.95V499.248C1321.86 494.93 1317.77 491.43 1312.73 491.43C1306.35 491.43 1301.78 486.149 1303.63 480.915L1333.37 396.938C1336.1 389.226 1348.84 389.226 1351.57 396.938L1381.31 480.915C1383.16 486.149 1378.59 491.43 1372.21 491.43C1367.17 491.43 1363.08 494.93 1363.08 499.248V540.603C1376.22 548.652 1389.19 556.785 1401.99 565.001H0V106.43C6.22363 107.155 12.4389 107.892 18.6456 108.643V108.094C18.6456 103.776 14.5594 100.275 9.51883 100.275C3.13455 100.275 -1.43733 94.9944 0.415966 89.7607L30.1531 5.78345Z" fill="#588157"/>
</svg>
