<svg width="58" height="58" viewBox="0 0 58 58" fill="none" xmlns="http://www.w3.org/2000/svg">
<path d="M57.7243 17.5211C57.6924 15.1309 57.2442 12.7645 56.3997 10.5277C55.6675 8.64096 54.549 6.92747 53.1159 5.4967C51.6827 4.06593 49.9664 2.94934 48.0765 2.21828C45.8648 1.38941 43.5282 0.941227 41.1662 0.892812C38.1252 0.757109 37.1611 0.719238 29.4416 0.719238C21.7221 0.719238 20.7327 0.719238 17.7138 0.892812C15.3529 0.941583 13.0175 1.38976 10.8067 2.21828C8.91656 2.94883 7.19995 4.06524 5.76673 5.49607C4.33351 6.92691 3.21524 8.64067 2.48347 10.5277C1.65156 12.7341 1.2036 15.0662 1.15896 17.4233C1.02303 20.4624 0.981934 21.4249 0.981934 29.1316C0.981934 36.8382 0.981934 37.8229 1.15896 40.8399C1.20637 43.2005 1.65209 45.5295 2.48347 47.7418C3.21647 49.6282 4.33557 51.3413 5.76927 52.7715C7.20297 54.2018 8.91974 55.3177 10.8099 56.048C13.0146 56.9102 15.3505 57.3905 17.717 57.4682C20.7611 57.6039 21.7253 57.6449 29.4448 57.6449C37.1643 57.6449 38.1537 57.6449 41.1726 57.4682C43.5344 57.4217 45.8712 56.9746 48.0828 56.1459C49.9722 55.414 51.6881 54.2971 53.1211 52.8664C54.5542 51.4358 55.6729 49.7227 56.4061 47.8364C57.2374 45.6273 57.6832 43.2983 57.7306 40.9346C57.8665 37.8986 57.9076 36.9361 57.9076 29.2263C57.9013 21.5196 57.9013 20.5413 57.7243 17.5211ZM29.4226 43.7054C21.3491 43.7054 14.8087 37.1759 14.8087 29.1158C14.8087 21.0557 21.3491 14.5262 29.4226 14.5262C33.2985 14.5262 37.0156 16.0633 39.7562 18.7994C42.4969 21.5355 44.0366 25.2464 44.0366 29.1158C44.0366 32.9852 42.4969 36.6961 39.7562 39.4322C37.0156 42.1683 33.2985 43.7054 29.4226 43.7054ZM44.6182 17.3886C42.731 17.3886 41.2105 15.8674 41.2105 13.9865C41.2105 13.54 41.2986 13.0978 41.4698 12.6852C41.6409 12.2727 41.8918 11.8978 42.2081 11.5821C42.5244 11.2663 42.8999 11.0158 43.3132 10.8449C43.7264 10.674 44.1693 10.5861 44.6166 10.5861C45.0639 10.5861 45.5068 10.674 45.9201 10.8449C46.3333 11.0158 46.7088 11.2663 47.0251 11.5821C47.3414 11.8978 47.5923 12.2727 47.7635 12.6852C47.9346 13.0978 48.0227 13.54 48.0227 13.9865C48.0227 15.8674 46.4991 17.3886 44.6182 17.3886Z" fill="#EBEBEB"/>
<path d="M29.4235 38.5932C34.6663 38.5932 38.9164 34.3501 38.9164 29.1159C38.9164 23.8818 34.6663 19.6387 29.4235 19.6387C24.1808 19.6387 19.9307 23.8818 19.9307 29.1159C19.9307 34.3501 24.1808 38.5932 29.4235 38.5932Z" fill="#EBEBEB"/>
</svg>
