<svg width="29" height="29" viewBox="0 0 29 29" fill="none" xmlns="http://www.w3.org/2000/svg">
<path d="M5.65839 0C2.54672 0 0 2.54666 0 5.65839V23.2174C0 26.329 2.54666 28.8748 5.65839 28.8748H23.2174C26.3291 28.8748 28.8748 26.3291 28.8748 23.2174V5.65839C28.8748 2.54672 26.3291 0 23.2174 0H5.65839ZM7.08156 4.76493C8.57354 4.76493 9.49254 5.74439 9.5209 7.03187C9.5209 8.29093 8.57348 9.29792 7.0527 9.29792H7.02471C5.56113 9.29792 4.61515 8.29099 4.61515 7.03187C4.61515 5.74442 5.58975 4.76493 7.08153 4.76493H7.08156ZM19.9388 10.7825C22.8082 10.7825 24.9591 12.6579 24.9591 16.6881V24.2118H20.5985V17.1925C20.5985 15.4287 19.9674 14.2253 18.3893 14.2253C17.1846 14.2253 16.4665 15.0364 16.1512 15.8199C16.036 16.1003 16.0077 16.4918 16.0077 16.8839V24.2118H11.6471C11.6471 24.2118 11.7043 12.3214 11.6471 11.0902H16.0086V12.9483C16.5881 12.0543 17.6246 10.7824 19.9388 10.7824V10.7825ZM4.87236 11.0911H9.23301V24.2119H4.87236V11.0911Z" fill="#EBEBEB"/>
</svg>
