<svg width="205" height="85" viewBox="0 0 205 85" fill="none" xmlns="http://www.w3.org/2000/svg">
<path fill-rule="evenodd" clip-rule="evenodd" d="M18.8772 0.456313V0.749663H18.0806H17.284V0.989457C17.284 1.21609 17.2611 1.2321 16.8658 1.28205C16.6358 1.31113 16.1519 1.33527 15.7904 1.33561L15.1332 1.33636V1.57616C15.1332 1.80279 15.1104 1.81879 14.715 1.86875C14.4851 1.89783 14.1086 1.92197 13.8786 1.92231C13.4672 1.92306 13.4604 1.92717 13.4604 2.1745V2.42594H12.6638H11.8673V2.71929V3.01264H11.0309H10.1945V3.25269C10.1945 3.47471 10.1667 3.49675 9.82484 3.54604C9.62163 3.57537 9.26317 3.59934 9.02826 3.59934C8.61157 3.59934 8.60129 3.60513 8.60129 3.83914C8.60129 4.06577 8.57843 4.08177 8.18309 4.13173C7.95312 4.16081 7.46912 4.18495 7.10771 4.18529L6.45053 4.18604V4.42558C6.45053 4.65716 6.43444 4.6668 5.96088 4.71893C5.69163 4.74851 5.31525 4.77274 5.12447 4.77274C4.7923 4.77274 4.77772 4.7833 4.77772 5.02418C4.77772 5.27227 4.77206 5.27562 4.35075 5.27562C4.11584 5.27562 3.75738 5.29959 3.55417 5.32893C3.21228 5.37821 3.18456 5.40025 3.18456 5.62228V5.86232H2.34816H1.51175V6.15567V6.44902H0.993972H0.476196V7.58051V8.712H0.71517H0.954143V9.24372C0.954143 9.53623 0.977483 10.1774 1.00608 10.6686L1.05802 11.5617H1.28488H1.51175L1.51215 12.1693C1.51239 12.5035 1.53572 13.1448 1.564 13.5942L1.61546 14.4114H1.84241H2.06935V15.4473C2.06935 16.0172 2.09214 16.6583 2.12002 16.8721C2.16685 17.2319 2.1878 17.261 2.39882 17.261H2.62696V18.6806V20.1001L2.88585 20.1264L3.14473 20.1526L3.16688 21.3051L3.18902 22.4575H3.41374H3.63845L3.68991 23.2747C3.71819 23.7241 3.74153 24.3464 3.74177 24.6576L3.74217 25.2234H3.98114H4.22011V25.797C4.22011 26.1126 4.24345 26.7726 4.27205 27.2638L4.32399 28.1569H4.55085H4.77772V28.7436V29.3303H5.05652C5.31182 29.3303 5.33532 29.351 5.33532 29.5764C5.33532 29.7928 5.36655 29.8257 5.59421 29.8488C5.82187 29.8719 5.85613 29.9079 5.87803 30.1475C5.90089 30.3968 5.92615 30.4199 6.17675 30.4199C6.43651 30.4199 6.45053 30.4349 6.45053 30.7132C6.45053 30.9926 6.46384 31.0066 6.72934 31.0066C6.98432 31.0066 7.00814 31.0274 7.00814 31.2513C7.00814 31.4907 7.01953 31.4974 7.52591 31.5544C8.02768 31.6109 8.04369 31.6201 8.04369 31.8491C8.04369 32.0546 8.07762 32.0889 8.30258 32.1118C8.53024 32.1349 8.56449 32.1709 8.5864 32.4104C8.60926 32.6598 8.63451 32.6828 8.88512 32.6828C9.14488 32.6828 9.1589 32.6978 9.1589 32.9762C9.1589 33.2555 9.1722 33.2695 9.4377 33.2695C9.69301 33.2695 9.71651 33.2902 9.71651 33.5157C9.71651 33.7321 9.74773 33.765 9.97539 33.7881C10.2134 33.8122 10.2343 33.838 10.2343 34.1077C10.2343 34.3862 10.2191 34.4024 9.93556 34.427C9.66576 34.4506 9.63685 34.4763 9.63685 34.6928C9.63685 34.9259 9.62275 34.9341 9.11907 34.9908C8.61436 35.0476 8.60129 35.0553 8.60129 35.2908V35.5325H8.04369H7.48609V35.8259V36.1192H6.97667H6.46726L6.43389 36.4754C6.41556 36.6714 6.41652 37.3125 6.43612 37.9003L6.47164 38.9689H6.7001H6.92848L6.92888 39.5765C6.92912 39.9107 6.95246 40.552 6.98074 41.0014L7.0322 41.8186H7.25914H7.48609L7.4868 42.8034C7.48712 43.3451 7.51006 43.9862 7.5377 44.2282C7.58518 44.6442 7.60039 44.6683 7.81579 44.6683H8.04369V46.0931V47.5179H8.32249H8.60129V48.9428V50.3676H8.8292C9.04459 50.3676 9.05981 50.3917 9.10728 50.8076C9.13492 51.0497 9.15786 51.5777 9.15818 51.981L9.1589 52.7144H9.39787H9.63685V53.2592V53.804H9.91565C10.1811 53.804 10.1945 53.818 10.1945 54.0973C10.1945 54.3767 10.2078 54.3907 10.4733 54.3907C10.7388 54.3907 10.7521 54.4047 10.7521 54.684C10.7521 54.9634 10.7654 54.9774 11.0309 54.9774C11.2964 54.9774 11.3097 54.9914 11.3097 55.2707C11.3097 55.5501 11.323 55.5641 11.5885 55.5641C11.8451 55.5641 11.8673 55.584 11.8673 55.8155C11.8673 56.0391 11.8938 56.067 12.1062 56.067C12.3263 56.067 12.3452 56.0903 12.3452 56.3603C12.3452 56.6397 12.3585 56.6537 12.624 56.6537C12.8895 56.6537 12.9028 56.6677 12.9028 56.947C12.9028 57.2264 12.9161 57.2404 13.1816 57.2404C13.4471 57.2404 13.4604 57.2544 13.4604 57.5337C13.4604 57.8023 13.4407 57.8271 13.2265 57.8271C13.0208 57.8271 12.9896 57.8599 12.9676 58.0995C12.9448 58.3481 12.9167 58.3741 12.6439 58.3978C12.3741 58.4214 12.3452 58.4471 12.3452 58.6636C12.3452 58.8968 12.3311 58.9049 11.8274 58.9617C11.3257 59.0181 11.3097 59.0273 11.3097 59.2563C11.3097 59.4618 11.2757 59.4961 11.0508 59.519C10.8189 59.5425 10.7891 59.5758 10.7651 59.8386C10.7504 59.9999 10.762 60.3655 10.7908 60.6508C10.8398 61.1348 10.8578 61.1714 11.0566 61.1956L11.2698 61.2215L11.2917 62.6202L11.3135 64.019L11.5705 64.0451L11.8274 64.0712L11.8493 65.4751L11.8711 66.879H12.0992H12.3273L12.385 68.0524L12.4428 69.2258H12.6728H12.9028L12.9035 70.2106C12.9039 70.7523 12.9268 71.3934 12.9544 71.6354C13.0019 72.0514 13.0171 72.0755 13.2325 72.0755H13.4604V72.9136V73.7517H13.7392C14.0047 73.7517 14.018 73.7657 14.018 74.0451C14.018 74.3244 14.0313 74.3384 14.2968 74.3384C14.5623 74.3384 14.5756 74.3524 14.5756 74.6318C14.5756 74.9111 14.5889 74.9251 14.8544 74.9251C15.1199 74.9251 15.1332 74.9391 15.1332 75.2185C15.1332 75.4978 15.1465 75.5118 15.412 75.5118C15.6775 75.5118 15.6908 75.5258 15.6908 75.8052C15.6908 76.0738 15.7105 76.0985 15.9248 76.0985C16.1305 76.0985 16.1617 76.1314 16.1837 76.3709C16.2056 76.6105 16.2398 76.6465 16.4675 76.6696C16.6952 76.6927 16.7264 76.7255 16.7264 76.942C16.7264 77.1674 16.7499 77.1881 17.0052 77.1881C17.2707 77.1881 17.284 77.2021 17.284 77.4815C17.284 77.7608 17.2973 77.7748 17.5628 77.7748C17.8283 77.7748 17.8416 77.7888 17.8416 78.0682C17.8416 78.3382 17.8606 78.3615 18.0806 78.3615C18.3006 78.3615 18.3195 78.3848 18.3195 78.6549C18.3195 78.9342 18.3329 78.9482 18.5984 78.9482C18.8639 78.9482 18.8772 78.9622 18.8772 79.2416C18.8772 79.5209 18.8905 79.5349 19.156 79.5349C19.4215 79.5349 19.4348 79.5489 19.4348 79.8283C19.4348 80.1076 19.4481 80.1216 19.7136 80.1216C19.9791 80.1216 19.9924 80.1356 19.9924 80.415C19.9924 80.685 20.0113 80.7083 20.2313 80.7083C20.4438 80.7083 20.4703 80.7362 20.4703 80.9598C20.4703 81.1913 20.4925 81.2112 20.7491 81.2112C21.0146 81.2112 21.0279 81.2252 21.0279 81.5045C21.0279 81.7839 21.0412 81.7979 21.3067 81.7979C21.5722 81.7979 21.5855 81.8119 21.5855 82.0912C21.5855 82.3687 21.6001 82.3846 21.8551 82.3846H22.1246L22.18 82.9294C22.2343 83.4622 22.2405 83.4742 22.4681 83.4742C22.6809 83.4742 22.7007 83.4992 22.7007 83.7675C22.7007 84.0469 22.714 84.0609 22.9795 84.0609C23.245 84.0609 23.2583 84.0749 23.2583 84.3542V84.6476H24.0549H24.8515V84.3542C24.8515 84.0749 24.8648 84.0609 25.1303 84.0609C25.3853 84.0609 25.4091 84.04 25.4091 83.8161C25.4091 83.5769 25.4208 83.57 25.9225 83.5135C26.4262 83.4567 26.4364 83.4506 26.4602 83.1925C26.4814 82.9633 26.5179 82.926 26.7434 82.9032C26.971 82.88 27.0023 82.8472 27.0023 82.6308C27.0023 82.4053 27.0258 82.3846 27.2811 82.3846C27.5466 82.3846 27.5599 82.3706 27.5599 82.0912C27.5599 81.8119 27.5732 81.7979 27.8387 81.7979C28.0936 81.7979 28.1175 81.777 28.1175 81.5532C28.1175 81.3139 28.1292 81.307 28.6309 81.2505C29.1345 81.1938 29.1447 81.1877 29.1685 80.9295C29.1897 80.7004 29.2262 80.6631 29.4517 80.6402C29.6794 80.617 29.7106 80.5842 29.7106 80.3678C29.7106 80.1423 29.7341 80.1216 29.9894 80.1216C30.254 80.1216 30.2682 80.1069 30.2682 79.8333C30.2682 79.5607 30.2845 79.5436 30.5669 79.519C30.8397 79.4953 30.8678 79.4693 30.8906 79.2206L30.9156 78.9482H31.3885H31.8614V78.6549C31.8614 78.3765 31.8754 78.3615 32.1352 78.3615C32.3858 78.3615 32.411 78.3385 32.4339 78.0891C32.4558 77.8496 32.49 77.8135 32.7177 77.7905C32.9427 77.7676 32.9766 77.7332 32.9766 77.5278C32.9766 77.299 32.9929 77.2896 33.4897 77.2336C33.9946 77.1767 34.0033 77.1715 34.0274 76.9096C34.0497 76.6679 34.0795 76.6409 34.3507 76.6173C34.6209 76.5938 34.6494 76.5683 34.6494 76.3502C34.6494 76.1395 34.682 76.1058 34.9083 76.0829C35.136 76.0598 35.1702 76.0238 35.1921 75.7842C35.215 75.5349 35.2402 75.5118 35.4908 75.5118C35.7506 75.5118 35.7646 75.4968 35.7646 75.2185V74.9251H36.2824H36.8002V74.6318C36.8002 74.3524 36.8135 74.3384 37.079 74.3384C37.3445 74.3384 37.3578 74.3244 37.3578 74.0451C37.3578 73.7678 37.3724 73.7517 37.6269 73.7517H37.8959L37.854 70.0639L37.8122 66.3761H38.0977C38.3616 66.3761 38.3851 66.3967 38.4082 66.6485C38.431 66.8972 38.4591 66.9232 38.7319 66.9469C39.0037 66.9706 39.0306 66.9951 39.0306 67.2193C39.0306 67.4372 39.0582 67.4657 39.2696 67.4657C39.488 67.4657 39.5085 67.4901 39.5085 67.7493V68.0329L40.0263 68.0912C40.5327 68.1483 40.5441 68.1549 40.5441 68.3943C40.5441 68.6182 40.5679 68.6391 40.8229 68.6391C41.0884 68.6391 41.1017 68.6531 41.1017 68.9324C41.1017 69.2108 41.1157 69.2258 41.3755 69.2258C41.6261 69.2258 41.6513 69.2488 41.6742 69.4982L41.6991 69.7706L42.2368 69.7954L42.7745 69.8201V69.523C42.7745 69.2392 42.7871 69.2258 43.0533 69.2258C43.3188 69.2258 43.3321 69.2118 43.3321 68.9324C43.3321 68.6531 43.3454 68.6391 43.6109 68.6391C43.8659 68.6391 43.8897 68.6182 43.8897 68.3943C43.8897 68.1551 43.9014 68.1482 44.4031 68.0917C44.9068 68.035 44.917 68.0288 44.9408 67.7707C44.962 67.5415 44.9985 67.5042 45.224 67.4814C45.4516 67.4582 45.4829 67.4254 45.4829 67.209C45.4829 66.9835 45.5064 66.9628 45.7617 66.9628C46.0272 66.9628 46.0405 66.9488 46.0405 66.6694C46.0405 66.3901 46.0538 66.3761 46.3193 66.3761C46.5743 66.3761 46.5981 66.3552 46.5981 66.1314C46.5981 65.8919 46.6095 65.8853 47.1159 65.8282L47.6336 65.7699V65.4863C47.6336 65.218 47.6488 65.2027 47.9124 65.2027C48.1677 65.2027 48.1912 65.182 48.1912 64.9565C48.1912 64.7401 48.2225 64.7073 48.4501 64.6841C48.6778 64.6611 48.712 64.6251 48.7339 64.3855C48.7568 64.1362 48.7821 64.1131 49.0327 64.1131C49.2924 64.1131 49.3064 64.0981 49.3064 63.8198V63.5264H49.8242H50.342V63.2331C50.342 62.9537 50.3553 62.9397 50.6208 62.9397C50.8863 62.9397 50.8996 62.9257 50.8996 62.6464C50.8996 62.367 50.9129 62.353 51.1784 62.353C51.4337 62.353 51.4572 62.3323 51.4572 62.1069C51.4572 61.8905 51.4884 61.8576 51.7161 61.8345C51.9416 61.8116 51.9781 61.7743 51.9993 61.5451C52.0231 61.287 52.0333 61.2809 52.537 61.2241L53.0504 61.1663V60.6281V60.09H53.3292H53.608V57.5337V54.9774H53.8868C54.1523 54.9774 54.1656 54.9914 54.1656 55.2707C54.1656 55.5501 54.1789 55.5641 54.4444 55.5641C54.6986 55.5641 54.7232 55.5855 54.7232 55.8058C54.7232 56.0413 54.7362 56.049 55.241 56.1058C55.7473 56.1629 55.7587 56.1695 55.7587 56.4089C55.7587 56.6328 55.7825 56.6537 56.0375 56.6537C56.303 56.6537 56.3163 56.6677 56.3163 56.947V57.2404H56.8739H57.4315V56.9956C57.4315 56.7562 57.4429 56.7495 57.9493 56.6925L58.4671 56.6341V56.3506C58.4671 56.0823 58.4822 56.067 58.7459 56.067C59.0026 56.067 59.0247 56.047 59.0247 55.8155C59.0247 55.584 59.0468 55.5641 59.3035 55.5641C59.569 55.5641 59.5823 55.5501 59.5823 55.2707C59.5823 54.9914 59.5956 54.9774 59.8611 54.9774C60.1266 54.9774 60.1399 54.9634 60.1399 54.684V54.3907H60.6577H61.1755V54.0973C61.1755 53.819 61.1895 53.804 61.4492 53.804C61.6999 53.804 61.7251 53.7809 61.748 53.5316C61.7699 53.292 61.8041 53.256 62.0318 53.233C62.2594 53.2098 62.2907 53.177 62.2907 52.9606C62.2907 52.7351 62.3142 52.7144 62.5695 52.7144C62.8331 52.7144 62.8483 52.6991 62.8483 52.4308V52.1472L63.3661 52.0889C63.8724 52.0318 63.8838 52.0252 63.8838 51.7857C63.8838 51.5619 63.9076 51.541 64.1626 51.541C64.4281 51.541 64.4414 51.527 64.4414 51.2477C64.4414 50.9683 64.4547 50.9543 64.7202 50.9543C64.9755 50.9543 64.999 50.9336 64.999 50.7081C64.999 50.4917 65.0303 50.4589 65.2579 50.4357C65.4856 50.4127 65.5198 50.3767 65.5417 50.1371C65.5646 49.8878 65.5899 49.8647 65.8405 49.8647H66.1143V48.9847V48.1046H66.3407H66.5673L66.6193 46.7846C66.6479 46.0586 66.6715 45.1533 66.6716 44.773L66.6719 44.0816H66.9108H67.1498V42.5852C67.1498 41.7622 67.1728 40.857 67.2009 40.5737C67.2505 40.0754 67.2597 40.0585 67.4797 40.0585H67.7074V38.6808V37.3032L67.4485 37.2769C67.2209 37.2539 67.1866 37.2178 67.1647 36.9783L67.1397 36.7059H66.627H66.1143V36.4126C66.1143 36.1262 66.1067 36.1192 65.7956 36.1192C65.4966 36.1192 65.477 36.1041 65.477 35.8745C65.477 35.635 65.4656 35.6284 64.9592 35.5713C64.4601 35.5151 64.4414 35.5046 64.4414 35.2811C64.4414 35.0575 64.4228 35.0471 63.9237 34.9908C63.4233 34.9344 63.4059 34.9246 63.4059 34.6986C63.4059 34.4703 63.3923 34.4632 62.8483 34.4068C62.2968 34.3496 62.2907 34.3462 62.2907 34.1026V33.8562H61.7729H61.2551V33.5629C61.2551 33.2765 61.2476 33.2695 60.9365 33.2695C60.6375 33.2695 60.6179 33.2544 60.6179 33.0248C60.6179 32.7853 60.6065 32.7787 60.1001 32.7216C59.6002 32.6653 59.5823 32.6553 59.5823 32.4301C59.5823 32.2029 59.568 32.1955 59.0247 32.138C58.4814 32.0806 58.4671 32.0732 58.4671 31.846C58.4671 31.6208 58.4493 31.6108 57.9493 31.5544C57.4476 31.4979 57.4315 31.4887 57.4315 31.2598C57.4315 31.0288 57.4192 31.0222 56.8739 30.9646C56.3247 30.9066 56.3163 30.9021 56.3163 30.6628C56.3163 30.4499 56.2874 30.4199 56.0824 30.4199C55.8767 30.4199 55.8455 30.4527 55.8235 30.6922L55.7986 30.9646L55.2609 30.9895L54.7232 31.0142V31.3038C54.7232 31.5788 54.7092 31.5933 54.4444 31.5933C54.1899 31.5933 54.1656 31.6145 54.1656 31.8362C54.1656 32.0755 54.1572 32.08 53.608 32.138C53.0646 32.1955 53.0504 32.2029 53.0504 32.4301C53.0504 32.6553 53.0325 32.6653 52.5326 32.7216C52.0262 32.7787 52.0148 32.7853 52.0148 33.0248C52.0148 33.2487 51.991 33.2695 51.736 33.2695C51.4705 33.2695 51.4572 33.2835 51.4572 33.5629V33.8562H50.8996H50.342V34.1496C50.342 34.4289 50.3287 34.4429 50.0632 34.4429C49.809 34.4429 49.7844 34.4643 49.7844 34.6847C49.7844 34.9202 49.7713 34.9278 49.2666 34.9846C48.7649 35.0412 48.7488 35.0503 48.7488 35.2792C48.7488 35.5103 48.7365 35.5168 48.1912 35.5744C47.642 35.6324 47.6336 35.6369 47.6336 35.8762C47.6336 36.098 47.6093 36.1192 47.3548 36.1192C47.0893 36.1192 47.076 36.1332 47.076 36.4126C47.076 36.6919 47.0627 36.7059 46.7972 36.7059C46.5317 36.7059 46.5184 36.7199 46.5184 36.9993C46.5184 37.2693 46.4995 37.2926 46.2794 37.2926H46.0405V39.5556V41.8186H45.7218C45.4228 41.8186 45.4032 41.8035 45.4032 41.5738C45.4032 41.3344 45.3918 41.3278 44.8854 41.2707C44.3837 41.2142 44.3677 41.2051 44.3677 40.976C44.3677 40.7706 44.3337 40.7362 44.1088 40.7133C43.8811 40.6903 43.8469 40.6542 43.825 40.4147L43.7999 40.1423H43.2873H42.7745V39.8489V39.5556H42.2169H41.6593V39.8489V40.1423H41.1415H40.6237V40.3887C40.6237 40.6129 40.5969 40.6374 40.325 40.6611C40.0533 40.6847 40.0241 40.7113 40.0016 40.9556C39.9771 41.223 39.9748 41.2242 39.4838 41.249C38.9951 41.2735 38.9905 41.2761 38.9665 41.5369C38.9426 41.795 38.9324 41.8011 38.4288 41.8579C37.9271 41.9144 37.9154 41.9213 37.9154 42.1605C37.9154 42.3902 37.8958 42.4053 37.5967 42.4053C37.2958 42.4053 37.2781 42.4193 37.2781 42.6567C37.2781 42.8802 37.2516 42.9082 37.0391 42.9082H36.8002V40.9857V39.0633L36.5413 39.037L36.2824 39.0108L36.2602 37.8584L36.2381 36.7059H35.9615C35.709 36.7059 35.685 36.6846 35.685 36.4612C35.685 36.222 35.6732 36.215 35.1716 36.1585C34.6679 36.1018 34.6577 36.0957 34.6339 35.8375C34.6119 35.5995 34.5811 35.5719 34.3109 35.5484C34.0411 35.5249 34.0121 35.4992 34.0121 35.2827C34.0121 35.0495 33.998 35.0414 33.4944 34.9846C32.9926 34.9281 32.9766 34.919 32.9766 34.6899C32.9766 34.4845 32.9427 34.4501 32.7177 34.4273C32.49 34.4042 32.4558 34.3682 32.4339 34.1286L32.4089 33.8562H31.8962H31.3834V33.5629C31.3834 33.2835 31.3701 33.2695 31.1046 33.2695C30.8391 33.2695 30.8258 33.2555 30.8258 32.9762V32.6828H31.3386H31.8513L31.8763 32.4104L31.9012 32.138L32.4389 32.1132C32.9709 32.0888 32.9766 32.0859 32.9766 31.8506C32.9766 31.6197 32.9918 31.6111 33.4944 31.5544C33.9947 31.498 34.0121 31.4882 34.0121 31.2622C34.0121 31.0339 34.0257 31.0268 34.5697 30.9704C35.1212 30.9133 35.1274 30.9098 35.1274 30.6662C35.1274 30.4414 35.1513 30.4199 35.4011 30.4199C35.6517 30.4199 35.677 30.3968 35.6999 30.1475C35.7218 29.9079 35.756 29.8719 35.9837 29.8488L36.2426 29.8225V27.8582V25.8939H36.0164H35.7903L35.7378 23.3166C35.7089 21.8991 35.6852 18.9384 35.6851 16.7372L35.685 12.7351H35.446H35.207L35.2063 10.3254C35.206 9.00015 35.1832 7.71939 35.1558 7.47935L35.106 7.04285L34.579 7.01837L34.052 6.99381L34.027 6.72142L34.002 6.44902H33.4893H32.9766V6.20269C32.9766 5.95904 32.9705 5.95561 32.419 5.89845C31.878 5.84238 31.8614 5.83383 31.8614 5.61147C31.8614 5.40227 31.829 5.37754 31.4918 5.32893C31.2886 5.29959 30.948 5.27562 30.735 5.27562C30.3609 5.27562 30.3479 5.26741 30.3479 5.03265C30.3479 4.79336 30.3395 4.78883 29.7903 4.73083C29.2476 4.6735 29.2327 4.66571 29.2327 4.43983C29.2327 4.21378 29.2179 4.20615 28.6751 4.14991C28.1236 4.09275 28.1175 4.08932 28.1175 3.84567V3.59934H27.6047H27.092L27.067 3.32695L27.0421 3.05455L26.5092 3.02991L25.9763 3.00518L25.9516 2.73656L25.9269 2.46785L25.3892 2.44304C24.8572 2.41857 24.8515 2.41572 24.8515 2.18045C24.8515 1.94954 24.8363 1.94091 24.3337 1.88425C23.8334 1.82785 23.8159 1.81804 23.8159 1.59199C23.8159 1.36368 23.8024 1.35664 23.2583 1.30023C22.7069 1.24307 22.7007 1.23964 22.7007 0.995994V0.749663H22.1431H21.5855V0.456313V0.162964H20.2313H18.8772V0.456313ZM86.188 24.9603C86.188 25.1869 86.1652 25.2029 85.7698 25.2529C85.5398 25.282 85.038 25.3061 84.6546 25.3064L83.9576 25.3072V25.5489C83.9576 25.7844 83.9445 25.7921 83.4398 25.8489L82.9221 25.9072V40.9871V56.067H83.1499C83.3653 56.067 83.3806 56.091 83.428 56.507C83.4557 56.749 83.4786 57.145 83.4789 57.387L83.4797 57.8271H83.7585C84.0151 57.8271 84.0373 57.847 84.0373 58.0785C84.0373 58.302 84.0638 58.3299 84.2762 58.3299C84.4943 58.3299 84.5152 58.3545 84.5152 58.6116C84.5152 58.8888 84.5218 58.8941 84.9334 58.9462C85.4776 59.0149 87.6067 59.0145 88.5977 58.9455L89.3743 58.8913V58.6525C89.3743 58.4356 89.3997 58.4138 89.6531 58.4138C89.9186 58.4138 89.9319 58.3998 89.9319 58.1204C89.9319 57.8411 89.9452 57.8271 90.2107 57.8271C90.4762 57.8271 90.4895 57.8131 90.4895 57.5337C90.4895 57.2544 90.5028 57.2404 90.7683 57.2404C91.0237 57.2404 91.0471 57.2197 91.0471 56.9942C91.0471 56.7778 91.0159 56.7449 90.7883 56.7218C90.562 56.6989 90.5263 56.662 90.5048 56.4293C90.4808 56.1677 90.4715 56.1621 89.9726 56.1059L89.4648 56.0487L89.4103 55.513C89.3572 54.9918 89.3496 54.9774 89.1261 54.9774C88.9015 54.9774 88.8964 54.9674 88.8964 54.5281C88.8964 54.281 88.8736 53.9038 88.8457 53.69C88.7989 53.3303 88.7779 53.3011 88.5669 53.3011H88.3388V39.0108V24.7205H87.2634H86.188V24.9603ZM176.201 24.9603C176.201 25.1869 176.179 25.2029 175.783 25.2529C175.553 25.282 175.069 25.3061 174.708 25.3064L174.051 25.3072V25.5548C174.051 25.8022 174.05 25.8025 173.513 25.8272L172.975 25.852L172.955 30.4408L172.934 35.0296L172.556 35.0289C172.349 35.0285 171.99 35.0044 171.76 34.9753C171.365 34.9254 171.342 34.9094 171.342 34.6827V34.4429H168.116H164.89V34.6873C164.89 34.9301 164.887 34.9318 164.293 34.9904C163.7 35.0488 163.695 35.0513 163.695 35.2909C163.695 35.5324 163.695 35.5325 163.177 35.5325H162.66V35.8259C162.66 36.1052 162.646 36.1192 162.381 36.1192C162.126 36.1192 162.102 36.1401 162.102 36.364C162.102 36.6034 162.091 36.61 161.584 36.6671L161.066 36.7254V37.009C161.066 37.2763 161.051 37.2926 160.793 37.2926C160.542 37.2926 160.517 37.3157 160.494 37.565C160.472 37.8045 160.438 37.8406 160.21 37.8636C159.973 37.8877 159.951 37.9143 159.951 38.1779C159.951 38.4513 159.937 38.466 159.672 38.466H159.394V39.0108V39.5556H159.115H158.836V40.0951V40.6345L158.577 40.6608L158.318 40.6871L158.295 41.2528C158.271 41.818 158.271 41.8186 158.036 41.8186H157.8L157.8 42.51C157.799 42.8903 157.776 43.3995 157.749 43.6415C157.701 44.0575 157.686 44.0816 157.471 44.0816H157.243V47.2665V50.4514H157.471C157.686 50.4514 157.701 50.4755 157.749 50.8914C157.776 51.1335 157.799 51.6427 157.8 52.0229L157.8 52.7144H158.039H158.278V53.2592V53.804H158.553H158.829L158.852 54.3697L158.876 54.9355L159.135 54.9617C159.372 54.9858 159.394 55.0123 159.394 55.276C159.394 55.5493 159.408 55.5641 159.672 55.5641C159.938 55.5641 159.951 55.5781 159.951 55.8574C159.951 56.1275 159.97 56.1508 160.19 56.1508C160.403 56.1508 160.429 56.1787 160.429 56.4022C160.429 56.6337 160.451 56.6537 160.708 56.6537C160.973 56.6537 160.987 56.6677 160.987 56.947C160.987 57.2264 161 57.2404 161.266 57.2404C161.531 57.2404 161.544 57.2544 161.544 57.5337V57.8271H162.102H162.66V58.1204V58.4138H163.217H163.775V58.6525V58.8913L164.551 58.9455C165.559 59.0157 168.847 59.0159 169.936 58.9458L170.785 58.8912V58.6563C170.785 58.4247 170.792 58.4211 171.322 58.3967L171.86 58.3719L171.885 58.0995L171.91 57.8271H172.423H172.935V58.3719V58.9166H175.644H178.352V41.8186V24.7205H177.277H176.201V24.9603ZM98.1367 25.5502C98.1367 25.7895 98.1283 25.794 97.5791 25.852C97.033 25.9096 97.0215 25.9158 97.0215 26.1485C97.0215 26.3554 96.988 26.3896 96.7626 26.4125L96.5037 26.4387L96.4801 27.0044C96.4569 27.5641 96.4542 27.5702 96.2306 27.5702C96.0108 27.5702 96.0029 27.5855 95.9482 28.1238C95.9172 28.4283 95.9166 28.9375 95.947 29.2553C96.001 29.8213 96.0068 29.8332 96.2294 29.8332C96.4545 29.8332 96.4568 29.8384 96.4801 30.3989L96.5037 30.9646L96.7626 30.9909C96.9889 31.0138 97.0215 31.0475 97.0215 31.2583C97.0215 31.4953 97.0307 31.5002 97.5791 31.5571C98.1272 31.614 98.1367 31.619 98.1367 31.8555V32.0961H99.2121H100.287V31.8544C100.287 31.6191 100.301 31.6113 100.801 31.5549C101.305 31.498 101.314 31.4928 101.338 31.2309C101.36 30.9982 101.396 30.9613 101.622 30.9384L101.881 30.9121V30.3727V29.8332H102.159H102.438V28.7017V27.5702H102.159H101.881V27.0307V26.4912L101.622 26.4649C101.396 26.442 101.36 26.4049 101.338 26.1743C101.314 25.9121 101.31 25.9095 100.761 25.8515C100.217 25.794 100.208 25.7892 100.208 25.5502V25.3072H99.1722H98.1367V25.5502ZM115.98 34.6859C115.98 34.9252 115.972 34.9297 115.422 34.9877C114.873 35.0457 114.865 35.0502 114.865 35.2895V35.5325H114.347H113.829V35.8259C113.829 36.1052 113.816 36.1192 113.55 36.1192C113.285 36.1192 113.272 36.1332 113.272 36.4126C113.272 36.6919 113.258 36.7059 112.993 36.7059C112.727 36.7059 112.714 36.6919 112.714 36.4126C112.714 36.1435 112.695 36.1192 112.479 36.1192C112.244 36.1192 112.243 36.1186 112.22 35.5535L112.196 34.9877L110.026 34.9654L107.855 34.9431V46.9299V58.9166H110.563H113.272V50.0743V41.2319H113.55C113.816 41.2319 113.829 41.2179 113.829 40.9385C113.829 40.6592 113.843 40.6452 114.108 40.6452C114.362 40.6452 114.387 40.6238 114.387 40.4035C114.387 40.1679 114.4 40.1603 114.905 40.1035C115.411 40.0464 115.422 40.0398 115.422 39.8003V39.5556H115.98H116.538V39.2622V38.9689L117.832 38.9698C119.505 38.971 119.708 39.0054 119.739 39.2934C119.763 39.5039 119.788 39.5148 120.297 39.5383L120.83 39.563L120.854 39.8317C120.876 40.0659 120.912 40.1037 121.133 40.1263C121.354 40.1488 121.391 40.1868 121.412 40.4196C121.433 40.6528 121.469 40.6904 121.692 40.7131L121.947 40.739L121.971 41.2998L121.994 41.8605L122.253 41.8867L122.512 41.913V50.4148V58.9166H125.22H127.929V49.8281V40.7396L127.67 40.7133L127.411 40.6871L127.388 39.828L127.366 38.9689H127.09H126.814V38.4241V37.8793H126.575C126.355 37.8793 126.336 37.856 126.336 37.586C126.336 37.3066 126.322 37.2926 126.057 37.2926C125.791 37.2926 125.778 37.2786 125.778 36.9993C125.778 36.7199 125.765 36.7059 125.499 36.7059C125.234 36.7059 125.22 36.6919 125.22 36.4126C125.22 36.1332 125.207 36.1192 124.942 36.1192C124.676 36.1192 124.663 36.1052 124.663 35.8259V35.5325H124.145H123.627V35.2895C123.627 35.0502 123.619 35.0457 123.07 34.9877C122.52 34.9297 122.512 34.9252 122.512 34.6859V34.4429H119.246H115.98V34.6859ZM139.877 34.6827C139.877 34.9094 139.855 34.9254 139.459 34.9753C139.229 35.0044 138.871 35.0285 138.663 35.0289C138.299 35.0296 138.284 35.0392 138.284 35.2703C138.284 35.5068 138.275 35.5118 137.727 35.5686C137.175 35.6258 137.169 35.6292 137.169 35.8729C137.169 36.0985 137.146 36.1192 136.89 36.1192C136.625 36.1192 136.611 36.1332 136.611 36.4126C136.611 36.6919 136.598 36.7059 136.333 36.7059C136.067 36.7059 136.054 36.7199 136.054 36.9993C136.054 37.2786 136.041 37.2926 135.775 37.2926C135.52 37.2926 135.496 37.3133 135.496 37.5388C135.496 37.7552 135.465 37.788 135.237 37.8112C135.01 37.8342 134.975 37.8703 134.954 38.1098C134.932 38.3493 134.9 38.3822 134.695 38.3822C134.48 38.3822 134.461 38.4069 134.461 38.6755C134.461 38.9549 134.447 38.9689 134.182 38.9689H133.903V39.5084V40.0478L133.644 40.0742L133.385 40.1004L133.362 40.6661C133.338 41.2247 133.335 41.2319 133.114 41.2319C132.903 41.2319 132.887 41.2578 132.839 41.6719C132.812 41.914 132.789 42.3099 132.789 42.5519C132.788 42.9795 132.781 42.992 132.561 42.992H132.335L132.283 44.2625C132.216 45.8698 132.216 47.4489 132.283 49.1314L132.335 50.4514H132.561H132.788V51.1521C132.788 51.5376 132.811 52.0279 132.839 52.2417C132.885 52.6014 132.906 52.6306 133.117 52.6306H133.345V53.2173V53.804H133.624C133.89 53.804 133.903 53.818 133.903 54.0973C133.903 54.3656 133.923 54.3907 134.136 54.3907C134.363 54.3907 134.37 54.403 134.423 54.9309C134.477 55.4608 134.483 55.4715 134.728 55.4966C134.946 55.5189 134.982 55.5573 135.003 55.7946C135.025 56.0341 135.057 56.067 135.262 56.067C135.477 56.067 135.496 56.0917 135.496 56.3603C135.496 56.6397 135.51 56.6537 135.775 56.6537C136.041 56.6537 136.054 56.6677 136.054 56.947V57.2404H136.567H137.079L137.104 57.5128C137.127 57.7614 137.155 57.7874 137.428 57.8111C137.696 57.8345 137.727 57.8612 137.727 58.0719C137.727 58.2925 137.752 58.3098 138.145 58.3595C138.375 58.3885 138.733 58.4127 138.941 58.413C139.304 58.4138 139.32 58.4237 139.32 58.6525V58.8912L140.169 58.9458C141.259 59.0161 145.101 59.0158 146.111 58.9455L146.887 58.8913V58.6525C146.887 58.4205 146.899 58.4138 147.305 58.413C147.536 58.4127 147.912 58.3885 148.142 58.3595C148.537 58.3095 148.56 58.2935 148.56 58.0669C148.56 57.8487 148.585 57.8271 148.839 57.8271C149.104 57.8271 149.118 57.8131 149.118 57.5337V57.2404H149.635H150.153V56.947C150.153 56.6677 150.167 56.6537 150.432 56.6537C150.698 56.6537 150.711 56.6397 150.711 56.3603C150.711 56.081 150.724 56.067 150.99 56.067C151.245 56.067 151.268 56.0463 151.268 55.8208C151.268 55.6044 151.3 55.5715 151.527 55.5484C151.764 55.5244 151.788 55.4949 151.811 55.2079C151.833 54.924 151.858 54.8936 152.064 54.8936C152.285 54.8936 152.293 54.8787 152.347 54.3488C152.401 53.82 152.409 53.804 152.628 53.804C152.852 53.804 152.855 53.798 152.878 53.2382L152.901 52.6725L153.16 52.6463L153.419 52.6199V51.7872V50.9543H153.698H153.977V46.6798V42.4053H153.698H153.419V41.5724V40.7396L153.16 40.7133L152.901 40.6871L152.878 40.1213C152.855 39.5616 152.852 39.5556 152.628 39.5556C152.409 39.5556 152.401 39.5396 152.347 39.0108C152.293 38.478 152.286 38.466 152.059 38.466C151.846 38.466 151.826 38.4409 151.826 38.1727C151.826 37.8933 151.813 37.8793 151.547 37.8793C151.282 37.8793 151.268 37.8653 151.268 37.586C151.268 37.3066 151.255 37.2926 150.99 37.2926C150.724 37.2926 150.711 37.2786 150.711 36.9993C150.711 36.7199 150.698 36.7059 150.432 36.7059C150.167 36.7059 150.153 36.6919 150.153 36.4126V36.1192H149.635H149.118V35.8259V35.5325H148.56H148.003V35.2895C148.003 35.0502 147.994 35.0457 147.445 34.9877C146.896 34.9297 146.887 34.9252 146.887 34.6859V34.4429H143.382H139.877V34.6827ZM190.301 34.6827C190.301 34.9094 190.278 34.9254 189.883 34.9753C189.653 35.0044 189.294 35.0285 189.086 35.0289C188.722 35.0296 188.708 35.0388 188.708 35.2726C188.708 35.5119 188.699 35.5164 188.15 35.5744C187.601 35.6324 187.592 35.6369 187.592 35.8762C187.592 36.098 187.568 36.1192 187.314 36.1192C187.048 36.1192 187.035 36.1332 187.035 36.4126V36.7059H186.517H185.999V36.9993C185.999 37.2786 185.986 37.2926 185.72 37.2926C185.455 37.2926 185.442 37.3066 185.442 37.586C185.442 37.8653 185.428 37.8793 185.163 37.8793C184.897 37.8793 184.884 37.8933 184.884 38.1727C184.884 38.4409 184.864 38.466 184.651 38.466C184.424 38.466 184.418 38.478 184.363 39.0108C184.31 39.5379 184.301 39.5556 184.085 39.5556C183.868 39.5556 183.859 39.5733 183.806 40.1004C183.752 40.6264 183.743 40.6452 183.529 40.6452C183.313 40.6452 183.306 40.6602 183.251 41.2319C183.196 41.8079 183.191 41.8186 182.967 41.8186H182.739L182.716 42.6777L182.693 43.5368L182.435 43.563L182.176 43.5893V47.2718V50.9543H182.455H182.733V51.7872V52.6199L182.992 52.6463L183.251 52.6725L183.275 53.2382C183.298 53.798 183.301 53.804 183.524 53.804C183.744 53.804 183.752 53.82 183.806 54.3488C183.86 54.8816 183.866 54.8936 184.094 54.8936C184.307 54.8936 184.326 54.9186 184.326 55.1869C184.326 55.4663 184.34 55.4803 184.605 55.4803C184.871 55.4803 184.884 55.4943 184.884 55.7736C184.884 56.053 184.897 56.067 185.163 56.067C185.428 56.067 185.442 56.081 185.442 56.3603C185.442 56.6397 185.455 56.6537 185.72 56.6537C185.986 56.6537 185.999 56.6677 185.999 56.947V57.2404H186.517H187.035V57.5337V57.8271H187.592H188.15V58.1204V58.4138H188.708H189.265V58.6521V58.8905L190.473 58.9455C191.137 58.9757 192.655 59.0005 193.846 59.0005C195.036 59.0005 196.554 58.9757 197.218 58.9455L198.426 58.8905V58.6521C198.426 58.4198 198.437 58.4138 198.853 58.4138C199.088 58.4138 199.446 58.3898 199.649 58.3605C199.991 58.3112 200.019 58.2891 200.019 58.0671C200.019 57.8429 200.04 57.8271 200.338 57.8271C200.649 57.8271 200.656 57.8201 200.656 57.5337V57.2404H201.174H201.692V56.6537V56.067H201.458C201.226 56.067 201.223 56.0605 201.169 55.4803C201.115 54.9035 201.11 54.8936 200.885 54.8936C200.657 54.8936 200.656 54.8928 200.656 54.3488V53.804H200.378H200.099V53.2592V52.7144H199.541H198.984V52.9606C198.984 53.177 198.952 53.2098 198.725 53.233C198.497 53.256 198.463 53.292 198.441 53.5316L198.416 53.804H197.624H196.833V54.0973V54.3907H194.363H191.894V54.0973V53.804H191.142H190.391L190.366 53.5316C190.343 53.2829 190.315 53.2569 190.042 53.2332C189.772 53.2097 189.743 53.1842 189.743 52.9661C189.743 52.7554 189.711 52.7217 189.484 52.6987C189.257 52.6757 189.222 52.6396 189.201 52.4001C189.179 52.1606 189.147 52.1277 188.942 52.1277C188.727 52.1277 188.708 52.103 188.708 51.8344C188.708 51.555 188.694 51.541 188.429 51.541H188.15V50.661V49.7809H187.922C187.711 49.7809 187.69 49.7517 187.643 49.392C187.615 49.1782 187.592 48.933 187.592 48.8472C187.592 48.6963 187.848 48.6913 195.708 48.6913H203.824L203.88 48.1465C203.934 47.6137 203.94 47.6017 204.168 47.6017H204.4V45.0035V42.4053H204.161C203.932 42.4053 203.922 42.3899 203.922 42.0404C203.922 41.8397 203.899 41.4437 203.871 41.1604C203.822 40.6621 203.812 40.6452 203.592 40.6452C203.365 40.6452 203.365 40.6438 203.365 40.1004V39.5556H203.095H202.826L202.77 39.0108C202.716 38.478 202.71 38.466 202.482 38.466C202.27 38.466 202.249 38.4404 202.249 38.1779C202.249 37.9143 202.228 37.8877 201.991 37.8636C201.763 37.8406 201.729 37.8045 201.707 37.565C201.684 37.3157 201.659 37.2926 201.408 37.2926C201.148 37.2926 201.134 37.2776 201.134 36.9993C201.134 36.7199 201.121 36.7059 200.855 36.7059C200.6 36.7059 200.577 36.685 200.577 36.4612C200.577 36.2217 200.565 36.2151 200.059 36.158L199.541 36.0997V35.8161V35.5325H199.023C198.507 35.5325 198.506 35.5319 198.506 35.293C198.506 35.0614 198.489 35.0518 198.016 34.9996C197.747 34.97 197.37 34.9458 197.18 34.9458C196.847 34.9458 196.833 34.9353 196.833 34.6944V34.4429H193.567H190.301V34.6827ZM93.7555 37.2507V39.5556H95.1097H96.4639V49.2361V58.9166H99.1722H101.881V46.9312V34.9458H97.8181H93.7555V37.2507ZM144.925 39.0222C145.266 39.0715 145.294 39.0935 145.294 39.3155C145.294 39.5551 145.295 39.5556 145.812 39.5556H146.33V39.8489C146.33 40.1283 146.343 40.1423 146.608 40.1423C146.874 40.1423 146.887 40.1563 146.887 40.4356C146.887 40.715 146.901 40.729 147.166 40.729H147.445V41.2738V41.8186H147.724H148.003V42.6986V43.5787H148.235C148.462 43.5787 148.469 43.5916 148.518 44.1025C148.546 44.3907 148.558 45.6635 148.544 46.9312L148.52 49.2361L148.261 49.2624L148.003 49.2887V50.4148V51.541H147.724C147.458 51.541 147.445 51.555 147.445 51.8344C147.445 52.1026 147.425 52.1277 147.212 52.1277C146.985 52.1277 146.978 52.1401 146.925 52.6668L146.87 53.2059L146.361 53.2633C145.865 53.3191 145.852 53.3272 145.852 53.5623C145.852 53.7826 145.827 53.804 145.573 53.804C145.307 53.804 145.294 53.818 145.294 54.0973V54.3907H143.104H140.913V54.0973V53.804H140.395H139.877V53.5106C139.877 53.2313 139.864 53.2173 139.599 53.2173C139.333 53.2173 139.32 53.2033 139.32 52.9239C139.32 52.6557 139.3 52.6306 139.087 52.6306C138.86 52.6306 138.853 52.6186 138.799 52.0858C138.746 51.5599 138.736 51.541 138.522 51.541H138.301L138.243 50.4095L138.185 49.278H137.956H137.727V46.7217V44.1654H137.966C138.201 44.1654 138.205 44.1582 138.205 43.7253C138.206 43.4833 138.229 43.0873 138.256 42.8453C138.303 42.4312 138.32 42.4053 138.531 42.4053C138.752 42.4053 138.755 42.3981 138.778 41.8395L138.802 41.2738L139.061 41.2475C139.298 41.2235 139.32 41.1969 139.32 40.9332C139.32 40.6599 139.334 40.6452 139.599 40.6452C139.854 40.6452 139.877 40.6245 139.877 40.399C139.877 40.1826 139.909 40.1497 140.136 40.1266C140.364 40.1036 140.398 40.0675 140.42 39.828L140.445 39.5556H140.958H141.471V39.2622V38.9689H143.013C143.861 38.9689 144.721 38.9929 144.925 39.0222ZM170.415 39.0222C170.757 39.0715 170.785 39.0935 170.785 39.3155V39.5556H171.342H171.9V39.8489V40.1423H172.418H172.935V46.6745V53.2066L172.677 53.233C172.449 53.256 172.415 53.292 172.393 53.5316C172.368 53.8013 172.364 53.804 171.946 53.804C171.714 53.804 171.357 53.828 171.154 53.8573C170.812 53.9066 170.785 53.9286 170.785 54.1506V54.3907H169.152H167.519V54.1506C167.519 53.9286 167.491 53.9066 167.149 53.8573C166.946 53.828 166.587 53.804 166.352 53.804C165.935 53.804 165.926 53.7989 165.926 53.561C165.926 53.3217 165.917 53.3172 165.368 53.2592L164.81 53.2003V52.9155C164.81 52.6566 164.789 52.6306 164.578 52.6306C164.35 52.6306 164.344 52.6186 164.29 52.0858L164.234 51.541H163.965H163.695V50.9962V50.4514H163.456H163.217V49.5714V48.6913H162.938H162.66V46.9731V45.2549H162.938H163.217V44.1235V42.992H163.448C163.675 42.992 163.68 42.9832 163.735 42.4053C163.79 41.8307 163.796 41.8186 164.017 41.8186C164.213 41.8186 164.246 41.7833 164.268 41.5462C164.29 41.3066 164.324 41.2706 164.551 41.2475C164.788 41.2235 164.81 41.1969 164.81 40.9332C164.81 40.6599 164.825 40.6452 165.089 40.6452C165.343 40.6452 165.368 40.6238 165.368 40.4035C165.368 40.1679 165.381 40.1603 165.886 40.1035C166.392 40.0464 166.403 40.0398 166.403 39.8003C166.403 39.561 166.413 39.5556 166.822 39.5548C167.052 39.5545 167.428 39.5304 167.658 39.5013C168.053 39.4513 168.076 39.4353 168.076 39.2087V38.9689H169.061C169.602 38.9689 170.212 38.9929 170.415 39.0222ZM195.225 39.2832L195.25 39.5556H196.041H196.833V39.8489C196.833 40.1283 196.846 40.1423 197.112 40.1423C197.368 40.1423 197.39 40.1622 197.39 40.3937C197.39 40.6161 197.417 40.6452 197.625 40.6452C197.838 40.6452 197.861 40.6734 197.883 40.9595C197.906 41.2465 197.931 41.276 198.167 41.3C198.42 41.3257 198.426 41.336 198.426 41.7284C198.426 41.9495 198.449 42.3054 198.477 42.5193C198.523 42.879 198.544 42.9082 198.755 42.9082H198.984V43.4949V44.0816H193.567H188.15V43.2434V42.4053H188.429H188.708V41.8658V41.3263L188.967 41.3C189.194 41.277 189.228 41.2409 189.25 41.0014C189.272 40.7618 189.304 40.729 189.509 40.729C189.723 40.729 189.743 40.7038 189.743 40.4407C189.743 40.1681 189.759 40.151 190.042 40.1264C190.315 40.1026 190.343 40.0767 190.366 39.828L190.391 39.5556H191.142H191.894V39.3181C191.894 39.1875 191.919 39.0547 191.949 39.0231C191.979 38.9914 192.723 38.9757 193.602 38.9882L195.2 39.0108L195.225 39.2832Z" fill="white"/>
</svg>
