<svg width="251" height="165" viewBox="0 0 251 165" fill="none" xmlns="http://www.w3.org/2000/svg">
<path fill-rule="evenodd" clip-rule="evenodd" d="M245.929 124.5C246.6 122.936 246.946 121.341 246.946 119.723C246.946 99.2649 191.665 82.6807 123.473 82.6807C55.2811 82.6807 0.000478222 99.2649 0.000478222 119.723C0.000478222 120.287 0.0425166 120.848 0.125705 121.406C0.00757459 123.304 0 125.42 0 127.781C0 148.238 55.2807 164.823 123.473 164.823C191.665 164.823 246.946 148.238 246.946 127.781C246.946 126.63 246.598 125.537 245.929 124.5Z" fill="url(#paint0_radial)"/>
<path d="M250.871 115.304C250.871 135.761 197.686 152.345 132.078 152.345C66.4695 152.345 13.2837 135.761 13.2837 115.304C13.2837 94.8459 13.8311 92.6885 79.4391 92.6885C259.839 83.0707 250.871 94.8459 250.871 115.304Z" fill="url(#paint1_radial)"/>
<ellipse cx="132.078" cy="107.245" rx="118.794" ry="37.0418" fill="url(#paint2_radial)"/>
<path fill-rule="evenodd" clip-rule="evenodd" d="M203.692 144.86V137.009V136.328L203.22 135.837C189.701 121.795 180.2 114.457 172.539 109.978C167.246 106.883 162.772 105.139 158.638 103.527C157.118 102.934 155.645 102.359 154.193 101.742C154.254 101.435 154.479 100.919 155.156 100.109C156.273 98.7736 158.209 97.1786 160.846 95.4232C166.088 91.934 173.693 88.0765 181.819 84.6258C188.639 81.7296 195.769 79.1445 202.095 77.3182C199.897 76.8174 197.642 76.3397 195.334 75.886C190.481 77.5013 185.402 79.4328 180.498 81.5154C172.274 85.0074 164.459 88.959 158.974 92.6101C156.247 94.4248 153.993 96.2328 152.564 97.9411C151.732 98.9366 150.97 100.166 150.81 101.458C132.694 103.346 106.137 106.495 82.5826 110.381C70.422 112.387 59.0282 114.594 49.9986 116.934C45.4855 118.104 41.5295 119.315 38.3493 120.562C35.2184 121.791 32.6578 123.122 31.0957 124.607L30.6542 125.026L30.582 125.631L29.578 134.039C30.5398 134.55 31.5397 135.053 32.5765 135.547C32.7468 135.318 32.8614 135.043 32.8977 134.74L33.8603 126.677C35.0043 125.764 36.9043 124.759 39.5834 123.708C42.5886 122.529 46.4013 121.357 50.8462 120.205C59.7326 117.903 71.0123 115.714 83.1326 113.715C104.157 110.247 127.608 107.364 145.265 105.446C140.753 108.396 135.516 112.311 130.487 116.972C122.682 124.206 115.236 133.365 111.886 143.633L111.802 143.888V144.157V151.565C111.802 151.648 111.808 151.729 111.82 151.809C112.919 151.868 114.023 151.922 115.132 151.971C115.164 151.841 115.181 151.705 115.181 151.565V144.429C118.318 135.039 125.243 126.44 132.784 119.451C140.032 112.734 147.723 107.62 152.823 104.832C154.474 105.537 156.072 106.159 157.676 106.784C161.704 108.352 165.773 109.937 170.834 112.895C178.055 117.117 187.182 124.111 200.313 137.691V145.629C201.454 145.379 202.581 145.123 203.692 144.86Z" fill="white" fill-opacity="0.2"/>
<ellipse cx="123.151" cy="97.3485" rx="103.717" ry="34.9623" fill="url(#paint3_radial)"/>
<path d="M91.0299 75.1988C103.631 72.9621 108.474 79.3872 110.021 88.0989C111.567 96.8107 109.23 104.51 96.6298 106.747C84.0292 108.984 71.2929 105.14 66.7291 95.7834C68.454 86.3179 78.4293 77.4354 91.0299 75.1988Z" fill="url(#paint4_linear)"/>
<path d="M162.884 105.605C150.808 101.371 149.74 93.3952 152.668 85.0458C155.596 76.6963 161.411 71.1345 173.487 75.3694C185.564 79.6042 194.775 89.2032 194.159 99.5955C188.011 106.996 174.961 109.84 162.884 105.605Z" fill="url(#paint5_linear)"/>
<path d="M154.534 94.4021C146.73 87.2383 140.497 89.5647 135.551 94.9524C130.605 100.34 128.819 106.749 136.622 113.913C144.426 121.076 155.023 124.06 162.361 119.565C165.358 112.197 162.337 101.566 154.534 94.4021Z" fill="url(#paint6_linear)"/>
<path d="M154.534 94.4021C146.73 87.2383 140.497 89.5647 135.551 94.9524C130.605 100.34 128.819 106.749 136.622 113.913C144.426 121.076 155.023 124.06 162.361 119.565C165.358 112.197 162.337 101.566 154.534 94.4021Z" fill="white" fill-opacity="0.09"/>
<path d="M108.786 94.4021C116.59 87.2383 122.823 89.5647 127.769 94.9524C132.715 100.34 134.501 106.749 126.697 113.913C118.894 121.076 108.297 124.06 100.959 119.565C97.9616 112.197 100.983 101.566 108.786 94.4021Z" fill="url(#paint7_linear)"/>
<path d="M108.786 94.4021C116.59 87.2383 122.823 89.5647 127.769 94.9524C132.715 100.34 134.501 106.749 126.697 113.913C118.894 121.076 108.297 124.06 100.959 119.565C97.9616 112.197 100.983 101.566 108.786 94.4021Z" fill="white" fill-opacity="0.09"/>
<path d="M138.502 41.5513C142.735 60.8483 133.125 68.719 119.784 71.6453C106.442 74.5716 94.4212 71.4454 90.1886 52.1484C85.956 32.8514 91.093 12.9673 105.242 5.34675C119.949 7.41949 134.27 22.2543 138.502 41.5513Z" fill="url(#paint8_linear)"/>
<path d="M138.502 41.5513C142.735 60.8483 133.125 68.719 119.784 71.6453C106.442 74.5716 94.4212 71.4454 90.1886 52.1484C85.956 32.8514 91.093 12.9673 105.242 5.34675C119.949 7.41949 134.27 22.2543 138.502 41.5513Z" fill="white" fill-opacity="0.09"/>
<path d="M173.01 52.2125C168.722 71.4973 156.692 74.589 143.359 71.6244C130.025 68.6598 120.439 60.7616 124.727 41.4768C129.015 22.192 142.048 6.32079 158.091 5.36781C170.557 13.4417 177.298 32.9277 173.01 52.2125Z" fill="url(#paint9_linear)"/>
<path d="M173.01 52.2125C168.722 71.4973 156.692 74.589 143.359 71.6244C130.025 68.6598 120.439 60.7616 124.727 41.4768C129.015 22.192 142.048 6.32079 158.091 5.36781C170.557 13.4417 177.298 32.9277 173.01 52.2125Z" fill="white" fill-opacity="0.09"/>
<ellipse cx="131.774" cy="51.2088" rx="24.6946" ry="14.0369" fill="url(#paint10_linear)"/>
<path d="M178.641 90.4316C158.485 103.486 147.302 98.807 140.592 88.4466C133.882 78.0862 134.185 65.9679 154.341 52.9134C174.496 39.8589 197.747 34.7894 209.84 43.5954C211.399 57.5753 198.796 77.3771 178.641 90.4316Z" fill="url(#paint11_linear)"/>
<path d="M84.9236 90.4316C105.079 103.486 116.262 98.807 122.972 88.4466C129.683 78.0862 129.379 65.9679 109.224 52.9134C89.0683 39.8589 65.8177 34.7894 53.7243 43.5954C52.1651 57.5753 64.7681 77.3771 84.9236 90.4316Z" fill="url(#paint12_linear)"/>
<path d="M156.542 79.3142C156.542 99.07 145.469 104.699 131.811 104.699C118.152 104.699 107.08 99.07 107.08 79.3142C107.08 59.5585 116.358 41.2367 131.811 36.8245C145.732 42.0001 156.542 59.5585 156.542 79.3142Z" fill="url(#paint13_linear)"/>
<defs>
<radialGradient id="paint0_radial" cx="0" cy="0" r="1" gradientUnits="userSpaceOnUse" gradientTransform="translate(123.473 123.752) rotate(90) scale(41.071 123.473)">
<stop offset="0.848958" stop-color="#A9D2EA"/>
<stop offset="1" stop-color="#A9D2EA" stop-opacity="0"/>
<stop offset="1" stop-color="#A9D2EA" stop-opacity="0"/>
</radialGradient>
<radialGradient id="paint1_radial" cx="0" cy="0" r="1" gradientUnits="userSpaceOnUse" gradientTransform="translate(162.751 102.306) rotate(87.7245) scale(39.2823 88.815)">
<stop offset="0.140625" stop-color="#9FE486"/>
<stop offset="1" stop-color="#89C17B"/>
</radialGradient>
<radialGradient id="paint2_radial" cx="0" cy="0" r="1" gradientUnits="userSpaceOnUse" gradientTransform="translate(162.752 94.2481) rotate(87.7245) scale(39.2823 88.815)">
<stop offset="0.140625" stop-color="#AEF097"/>
<stop offset="1" stop-color="#95C888"/>
</radialGradient>
<radialGradient id="paint3_radial" cx="0" cy="0" r="1" gradientUnits="userSpaceOnUse" gradientTransform="translate(123.151 107.403) rotate(90) scale(24.9078 73.89)">
<stop offset="0.817708" stop-color="#81B075" stop-opacity="0.55"/>
<stop offset="1" stop-color="#96C889" stop-opacity="0"/>
</radialGradient>
<linearGradient id="paint4_linear" x1="94.5781" y1="110.039" x2="83.2919" y2="73.408" gradientUnits="userSpaceOnUse">
<stop stop-color="#E461A3"/>
<stop offset="1" stop-color="#FFF1E9"/>
</linearGradient>
<linearGradient id="paint5_linear" x1="188.186" y1="109.775" x2="186.038" y2="72.3945" gradientUnits="userSpaceOnUse">
<stop stop-color="#E461A3"/>
<stop offset="1" stop-color="#FFF1E9"/>
</linearGradient>
<linearGradient id="paint6_linear" x1="155.861" y1="131.574" x2="134.497" y2="95.6243" gradientUnits="userSpaceOnUse">
<stop stop-color="#E461A3"/>
<stop offset="1" stop-color="#FBDBCA"/>
</linearGradient>
<linearGradient id="paint7_linear" x1="107.459" y1="131.574" x2="128.823" y2="95.6243" gradientUnits="userSpaceOnUse">
<stop stop-color="#E461A3"/>
<stop offset="1" stop-color="#FBDBCA"/>
</linearGradient>
<linearGradient id="paint8_linear" x1="95.7352" y1="-0.0171231" x2="123.562" y2="32.4614" gradientUnits="userSpaceOnUse">
<stop stop-color="#E04191"/>
<stop offset="1" stop-color="#F7E3D8"/>
</linearGradient>
<linearGradient id="paint9_linear" x1="160.421" y1="-0.0170246" x2="141.845" y2="52.7981" gradientUnits="userSpaceOnUse">
<stop stop-color="#EF7BB5"/>
<stop offset="0.0001" stop-color="#E04191"/>
<stop offset="0.729167" stop-color="#F7E3D8"/>
</linearGradient>
<linearGradient id="paint10_linear" x1="131.774" y1="37.1719" x2="131.774" y2="65.2457" gradientUnits="userSpaceOnUse">
<stop stop-color="#FFF1A6"/>
<stop offset="1" stop-color="#F5CB5D"/>
</linearGradient>
<linearGradient id="paint11_linear" x1="213.875" y1="61.3278" x2="138.374" y2="72.8689" gradientUnits="userSpaceOnUse">
<stop stop-color="#F683BD"/>
<stop offset="1" stop-color="#FFF1E9"/>
</linearGradient>
<linearGradient id="paint12_linear" x1="55.3016" y1="66.0225" x2="124.49" y2="74.1722" gradientUnits="userSpaceOnUse">
<stop stop-color="#F683BD"/>
<stop offset="1" stop-color="#FFF1E9"/>
</linearGradient>
<linearGradient id="paint13_linear" x1="131.92" y1="38.6766" x2="130.102" y2="96.2527" gradientUnits="userSpaceOnUse">
<stop stop-color="#F285BC"/>
<stop offset="1" stop-color="#FFF1E9"/>
</linearGradient>
</defs>
</svg>
