<svg width="152" height="35" viewBox="0 0 152 35" fill="none" xmlns="http://www.w3.org/2000/svg">
<path fill-rule="evenodd" clip-rule="evenodd" d="M17.8864 1.0125C17.8864 1.07624 17.7815 1.12839 17.6532 1.12839C17.5249 1.12839 17.42 1.18054 17.42 1.24428C17.42 1.30802 17.3401 1.36018 17.2425 1.36018C17.0116 1.36018 15.7874 2.57681 15.7874 2.80628C15.7874 2.90328 15.7349 2.98267 15.6708 2.98267C15.6066 2.98267 15.5542 3.08697 15.5542 3.21445C15.5542 3.34194 15.5017 3.44624 15.4375 3.44624C15.3734 3.44624 15.3209 3.53907 15.3209 3.65241C15.3209 3.76587 15.216 3.9338 15.0877 4.0257C14.9594 4.1176 14.8545 4.28553 14.8545 4.39899C14.8545 4.51233 14.802 4.60516 14.7379 4.60516C14.6737 4.60516 14.6212 4.70947 14.6212 4.83695C14.6212 4.96443 14.5688 5.06873 14.5046 5.06873C14.4405 5.06873 14.388 5.16156 14.388 5.27491C14.388 5.38837 14.2831 5.55629 14.1548 5.6482C14.0265 5.7401 13.9216 5.90803 13.9216 6.02148C13.9216 6.13483 13.8691 6.22766 13.8049 6.22766C13.7408 6.22766 13.6883 6.33196 13.6883 6.45944C13.6883 6.58692 13.6359 6.69123 13.5717 6.69123C13.5076 6.69123 13.4551 6.78406 13.4551 6.8974C13.4551 7.01086 13.3502 7.17879 13.2219 7.27069C13.0936 7.36259 12.9887 7.53052 12.9887 7.64398C12.9887 7.75732 12.9362 7.85015 12.872 7.85015C12.8079 7.85015 12.7554 7.95445 12.7554 8.08194C12.7554 8.20942 12.7029 8.31372 12.6388 8.31372C12.5747 8.31372 12.5222 8.40655 12.5222 8.5199C12.5222 8.63335 12.4172 8.80128 12.289 8.89318C12.1607 8.98509 12.0557 9.15301 12.0557 9.26647C12.0557 9.37982 12.0033 9.47265 11.9391 9.47265C11.875 9.47265 11.8225 9.57695 11.8225 9.70443C11.8225 9.83191 11.77 9.93622 11.7059 9.93622C11.6418 9.93622 11.5893 10.029 11.5893 10.1424C11.5893 10.2558 11.4843 10.4238 11.3561 10.5157C10.9438 10.811 11.1469 11.5587 11.6393 11.5587C11.7401 11.5587 11.8225 11.6109 11.8225 11.6746C11.8225 11.7383 11.9159 11.7905 12.03 11.7905C12.1441 11.7905 12.3131 11.8948 12.4056 12.0223C12.4981 12.1498 12.667 12.2541 12.7812 12.2541C12.8952 12.2541 12.9887 12.3062 12.9887 12.37C12.9887 12.4337 13.0725 12.4858 13.1751 12.4858C13.2776 12.4858 13.5086 12.6423 13.6883 12.8335C13.868 13.0247 14.0875 13.1812 14.1758 13.1812C14.2642 13.1812 14.4122 13.2855 14.5046 13.413C14.5971 13.5405 14.7428 13.6448 14.8284 13.6448C14.9139 13.6448 15.2931 13.9577 15.6708 14.3401C16.0485 14.7226 16.4141 15.0355 16.4831 15.0355C16.6475 15.0355 17.8864 16.2678 17.8864 16.4312C17.8864 16.5005 18.1488 16.8111 18.4695 17.1215C18.7902 17.432 19.0526 17.7467 19.0526 17.8208C19.0526 17.895 19.21 18.1019 19.4024 18.2805C19.5948 18.4591 19.7523 18.6772 19.7523 18.7649C19.7523 18.8527 19.8572 18.9998 19.9855 19.0917C20.1138 19.1836 20.2187 19.3401 20.2187 19.4394C20.2187 19.5387 20.3237 19.6952 20.4519 19.7871C20.5802 19.879 20.6852 20.0354 20.6852 20.1347C20.6852 20.2341 20.7901 20.3905 20.9184 20.4824C21.0467 20.5743 21.1516 20.7423 21.1516 20.8557C21.1516 20.9691 21.2041 21.0619 21.2682 21.0619C21.3324 21.0619 21.3848 21.1662 21.3848 21.2937C21.3848 21.4212 21.4373 21.5255 21.5015 21.5255C21.5656 21.5255 21.6181 21.6298 21.6181 21.7572C21.6181 21.8847 21.6706 21.989 21.7347 21.989C21.7988 21.989 21.8513 22.0933 21.8513 22.2208C21.8513 22.3483 21.9038 22.4526 21.9679 22.4526C22.0321 22.4526 22.0845 22.5569 22.0845 22.6844C22.0845 22.8119 22.137 22.9162 22.2011 22.9162C22.2653 22.9162 22.3178 23.0726 22.3178 23.2638C22.3178 23.4551 22.3702 23.6115 22.4344 23.6115C22.4985 23.6115 22.551 23.7158 22.551 23.8433C22.551 23.9708 22.6035 24.0751 22.6676 24.0751C22.7317 24.0751 22.7842 24.2315 22.7842 24.4228C22.7842 24.614 22.8367 24.7704 22.9008 24.7704C22.965 24.7704 23.0174 24.9269 23.0174 25.1181C23.0174 25.3093 23.0699 25.4658 23.1341 25.4658C23.1982 25.4658 23.2507 25.6223 23.2507 25.8135C23.2507 26.0047 23.3031 26.1612 23.3673 26.1612C23.4314 26.1612 23.4839 26.3698 23.4839 26.6247C23.4839 26.8797 23.5364 27.0883 23.6005 27.0883C23.6646 27.0883 23.7171 27.2969 23.7171 27.5519C23.7171 27.8068 23.7696 28.0154 23.8337 28.0154C23.8986 28.0154 23.9504 28.3245 23.9504 28.7108C23.9504 29.0971 24.0021 29.4061 24.067 29.4061C24.135 29.4061 24.1836 29.7924 24.1836 30.3333V31.2604H22.4344H20.6852V30.3333C20.6852 29.7924 20.6365 29.4061 20.5686 29.4061C20.5044 29.4061 20.4519 29.1454 20.4519 28.8267C20.4519 28.508 20.3995 28.2472 20.3353 28.2472C20.2712 28.2472 20.2187 28.0386 20.2187 27.7836C20.2187 27.5287 20.1662 27.3201 20.1021 27.3201C20.038 27.3201 19.9855 27.1115 19.9855 26.8565C19.9855 26.6015 19.933 26.3929 19.8689 26.3929C19.8047 26.3929 19.7523 26.2365 19.7523 26.0453C19.7523 25.854 19.6998 25.6976 19.6356 25.6976C19.5715 25.6976 19.519 25.5933 19.519 25.4658C19.519 25.3383 19.4666 25.234 19.4024 25.234C19.3383 25.234 19.2858 25.0776 19.2858 24.8863C19.2858 24.6951 19.2333 24.5387 19.1692 24.5387C19.105 24.5387 19.0526 24.4344 19.0526 24.3069C19.0526 24.1794 19.0001 24.0751 18.936 24.0751C18.8718 24.0751 18.8193 23.9708 18.8193 23.8433C18.8193 23.7158 18.7669 23.6115 18.7027 23.6115C18.6386 23.6115 18.5861 23.5072 18.5861 23.3797C18.5861 23.2523 18.5336 23.148 18.4695 23.148C18.4054 23.148 18.3529 23.0436 18.3529 22.9162C18.3529 22.7887 18.3004 22.6844 18.2363 22.6844C18.1721 22.6844 18.1197 22.5916 18.1197 22.4782C18.1197 22.3648 18.0147 22.1968 17.8864 22.1049C17.7582 22.013 17.6532 21.8566 17.6532 21.7572C17.6532 21.6579 17.5483 21.5015 17.42 21.4096C17.2917 21.3177 17.1868 21.1612 17.1868 21.0619C17.1868 20.9626 17.0818 20.8061 16.9535 20.7142C16.8252 20.6223 16.7203 20.4771 16.7203 20.3913C16.7203 20.3057 16.4579 19.9817 16.1372 19.6712C15.8165 19.3607 15.5542 19.0502 15.5542 18.9812C15.5542 18.8175 14.0809 17.3533 13.9162 17.3533C13.8467 17.3533 13.5343 17.0926 13.2219 16.7739C12.9095 16.4552 12.5834 16.1944 12.4972 16.1944C12.4109 16.1944 12.2648 16.0901 12.1724 15.9626C12.0799 15.8351 11.9225 15.7308 11.8225 15.7308C11.7226 15.7308 11.5651 15.6265 11.4727 15.4991C11.3802 15.3716 11.2228 15.2673 11.1228 15.2673C11.0229 15.2673 10.8655 15.163 10.773 15.0355C10.6805 14.908 10.5115 14.8037 10.3974 14.8037C10.2833 14.8037 10.1899 14.7515 10.1899 14.6878C10.1899 14.6241 10.1042 14.5719 9.99949 14.5719C9.89477 14.5719 9.71309 14.4619 9.59577 14.3275C9.40383 14.1075 9.36453 14.1008 9.20313 14.2612C9.10448 14.3593 9.02378 14.5099 9.02378 14.596C9.02378 14.6821 8.91883 14.8277 8.79056 14.9196C8.66228 15.0115 8.55733 15.1794 8.55733 15.2929C8.55733 15.4062 8.50485 15.4991 8.44071 15.4991C8.37658 15.4991 8.3241 15.6034 8.3241 15.7308C8.3241 15.8583 8.27162 15.9626 8.20749 15.9626C8.14335 15.9626 8.09087 16.0555 8.09087 16.1688C8.09087 16.2823 7.98592 16.4502 7.85765 16.5421C7.72937 16.634 7.62442 16.8019 7.62442 16.9154C7.62442 17.0287 7.57194 17.1215 7.5078 17.1215C7.44367 17.1215 7.39119 17.2258 7.39119 17.3533C7.39119 17.4808 7.33871 17.5851 7.27458 17.5851C7.21044 17.5851 7.15796 17.6779 7.15796 17.7913C7.15796 17.9047 7.05301 18.0727 6.92473 18.1646C6.79646 18.2565 6.69151 18.4244 6.69151 18.5379C6.69151 18.6512 6.63903 18.744 6.57489 18.744C6.51076 18.744 6.45828 18.8483 6.45828 18.9758C6.45828 19.1033 6.4058 19.2076 6.34167 19.2076C6.27753 19.2076 6.22505 19.3004 6.22505 19.4138C6.22505 19.5272 6.1201 19.6952 5.99182 19.7871C5.86355 19.879 5.7586 20.0469 5.7586 20.1604C5.7586 20.2737 5.70612 20.3665 5.64198 20.3665C5.57784 20.3665 5.52537 20.4708 5.52537 20.5983C5.52537 20.7258 5.47289 20.8301 5.40875 20.8301C5.34462 20.8301 5.29214 20.9229 5.29214 21.0363C5.29214 21.1497 5.18719 21.3177 5.05891 21.4096C4.93064 21.5015 4.82569 21.6651 4.82569 21.7731C4.82569 21.8812 4.76062 21.9912 4.68097 22.0177C4.48832 22.0815 4.85344 22.4526 5.10894 22.4526C5.20969 22.4526 5.29214 22.5047 5.29214 22.5685C5.29214 22.6322 5.39709 22.6844 5.52537 22.6844C5.65364 22.6844 5.7586 22.7365 5.7586 22.8003C5.7586 22.864 5.852 22.9162 5.96605 22.9162C6.08022 22.9162 6.24919 23.0205 6.34167 23.148C6.43414 23.2754 6.57746 23.3797 6.66014 23.3797C6.85652 23.3797 9.49024 25.9972 9.49024 26.1923C9.49024 26.2745 9.59519 26.4169 9.72347 26.5088C9.85174 26.6007 9.95669 26.7687 9.95669 26.8821C9.95669 26.9955 10.0092 27.0883 10.0733 27.0883C10.1374 27.0883 10.1899 27.1926 10.1899 27.3201C10.1899 27.4476 10.2424 27.5519 10.3065 27.5519C10.3707 27.5519 10.4231 27.6562 10.4231 27.7836C10.4231 27.9111 10.4756 28.0154 10.5398 28.0154C10.6039 28.0154 10.6564 28.1197 10.6564 28.2472C10.6564 28.3747 10.7089 28.479 10.773 28.479C10.8371 28.479 10.8896 28.6355 10.8896 28.8267C10.8896 29.0179 10.9421 29.1744 11.0062 29.1744C11.0704 29.1744 11.1228 29.3308 11.1228 29.522C11.1228 29.7133 11.1753 29.8697 11.2394 29.8697C11.3036 29.8697 11.3561 30.1305 11.3561 30.4492C11.3561 30.7679 11.4085 31.0286 11.4727 31.0286C11.5368 31.0286 11.5893 31.0808 11.5893 31.1445C11.5893 31.2196 10.1121 31.2604 7.39119 31.2604H3.19309V30.7969C3.19309 30.5419 3.24557 30.3333 3.30971 30.3333C3.37384 30.3333 3.42632 30.229 3.42632 30.1015C3.42632 29.974 3.4788 29.8697 3.54293 29.8697C3.60707 29.8697 3.65955 29.7654 3.65955 29.6379C3.65955 29.5104 3.71202 29.4061 3.77616 29.4061C3.8403 29.4061 3.89278 29.3133 3.89278 29.2C3.89278 29.0865 3.99773 28.9186 4.126 28.8267C4.25428 28.7348 4.35923 28.5668 4.35923 28.4534C4.35923 28.34 4.41171 28.2472 4.47584 28.2472C4.53998 28.2472 4.59246 28.1429 4.59246 28.0154C4.59246 27.888 4.64493 27.7836 4.70907 27.7836C4.77321 27.7836 4.82569 27.6908 4.82569 27.5775C4.82569 27.464 4.93064 27.2961 5.05891 27.2042C5.18719 27.1123 5.29214 26.968 5.29214 26.8836C5.29214 26.6846 4.7654 26.1612 4.56517 26.1612C4.48028 26.1612 4.33509 26.0569 4.24262 25.9294C4.15014 25.8019 3.98117 25.6976 3.867 25.6976C3.75296 25.6976 3.65955 25.6454 3.65955 25.5817C3.65955 25.518 3.50212 25.4658 3.30971 25.4658C3.11729 25.4658 2.95986 25.4136 2.95986 25.3499C2.95986 25.2862 2.90739 25.234 2.84325 25.234C2.77911 25.234 2.72664 25.3268 2.72664 25.4402C2.72664 25.5536 2.62168 25.7216 2.49341 25.8135C2.36513 25.9054 2.26018 26.0733 2.26018 26.1868C2.26018 26.3001 2.20771 26.3929 2.14357 26.3929C2.07943 26.3929 2.02695 26.4972 2.02695 26.6247C2.02695 26.7522 1.97448 26.8565 1.91034 26.8565C1.8462 26.8565 1.79373 26.9493 1.79373 27.0627C1.79373 27.1761 1.68877 27.3441 1.5605 27.436C1.43222 27.5279 1.32727 27.6958 1.32727 27.8093C1.32727 27.9226 1.27479 28.0154 1.21066 28.0154C1.14652 28.0154 1.09404 28.1197 1.09404 28.2472C1.09404 28.3747 1.04157 28.479 0.97743 28.479C0.913292 28.479 0.860816 28.5833 0.860816 28.7108C0.860816 28.8383 0.80834 28.9426 0.744202 28.9426C0.680064 28.9426 0.627588 29.0469 0.627588 29.1744C0.627588 29.3018 0.575112 29.4061 0.510974 29.4061C0.446837 29.4061 0.39436 29.5104 0.39436 29.6379C0.39436 29.7654 0.341884 29.8697 0.277747 29.8697C0.209761 29.8697 0.161133 30.256 0.161133 30.7969C0.161133 31.3377 0.209761 31.724 0.277747 31.724C0.341884 31.724 0.39436 31.869 0.39436 32.0461C0.39436 32.2352 0.490683 32.4371 0.627588 32.5352C0.755863 32.6271 0.860816 32.7714 0.860816 32.8558C0.860816 33.0548 1.38756 33.5783 1.58779 33.5783C1.67268 33.5783 1.81787 33.6826 1.91034 33.8101C2.00911 33.9461 2.21225 34.0418 2.40257 34.0418C2.58075 34.0418 2.72664 34.094 2.72664 34.1577C2.72664 34.2335 4.78685 34.2736 8.67394 34.2736H14.6212V33.1147C14.6212 32.4193 14.5746 31.9558 14.5046 31.9558C14.4366 31.9558 14.388 31.5695 14.388 31.0286C14.388 30.4878 14.3394 30.1015 14.2714 30.1015C14.2073 30.1015 14.1548 29.8929 14.1548 29.6379C14.1548 29.383 14.1023 29.1744 14.0382 29.1744C13.974 29.1744 13.9216 28.9658 13.9216 28.7108C13.9216 28.4558 13.8691 28.2472 13.8049 28.2472C13.7408 28.2472 13.6883 28.1429 13.6883 28.0154C13.6883 27.888 13.6359 27.7836 13.5717 27.7836C13.5076 27.7836 13.4551 27.6272 13.4551 27.436C13.4551 27.2447 13.4026 27.0883 13.3385 27.0883C13.2744 27.0883 13.2219 26.984 13.2219 26.8565C13.2219 26.729 13.1694 26.6247 13.1053 26.6247C13.0411 26.6247 12.9887 26.5204 12.9887 26.3929C12.9887 26.2655 12.9362 26.1612 12.872 26.1612C12.8079 26.1612 12.7554 26.0569 12.7554 25.9294C12.7554 25.8019 12.7029 25.6976 12.6388 25.6976C12.5747 25.6976 12.5222 25.6048 12.5222 25.4914C12.5222 25.378 12.4172 25.21 12.289 25.1181C12.1607 25.0262 12.0557 24.8792 12.0557 24.7913C12.0557 24.7036 11.8983 24.4855 11.7059 24.3069C11.5135 24.1283 11.3561 23.9241 11.3561 23.8533C11.3561 23.6871 9.18389 21.5255 9.0169 21.5255C8.80233 21.5255 8.4785 21.1459 8.64584 21.0905C8.72548 21.0641 8.79056 20.9426 8.79056 20.8205C8.79056 20.6983 8.84303 20.5983 8.90717 20.5983C8.97131 20.5983 9.02378 20.494 9.02378 20.3665C9.02378 20.2391 9.07626 20.1347 9.1404 20.1347C9.20453 20.1347 9.25701 20.0419 9.25701 19.9286C9.25701 19.8151 9.36196 19.6472 9.49024 19.5553C9.61851 19.4634 9.72347 19.2955 9.72347 19.182C9.72347 19.0687 9.77594 18.9758 9.84008 18.9758C9.90422 18.9758 9.95669 18.8939 9.95669 18.7938C9.95669 18.5799 10.2307 18.2805 10.4263 18.2805C10.5014 18.2805 10.7099 18.4369 10.8896 18.6281C11.0693 18.8194 11.2747 18.9758 11.3459 18.9758C11.5149 18.9758 13.9216 21.3676 13.9216 21.5355C13.9216 21.6064 14.079 21.8104 14.2714 21.989C14.4638 22.1676 14.6212 22.3857 14.6212 22.4735C14.6212 22.5613 14.7262 22.7084 14.8545 22.8003C14.9827 22.8922 15.0877 23.0486 15.0877 23.148C15.0877 23.2473 15.1927 23.4037 15.3209 23.4956C15.4492 23.5875 15.5542 23.7555 15.5542 23.8689C15.5542 23.9823 15.6066 24.0751 15.6708 24.0751C15.7349 24.0751 15.7874 24.1794 15.7874 24.3069C15.7874 24.4344 15.8399 24.5387 15.904 24.5387C15.9681 24.5387 16.0206 24.643 16.0206 24.7704C16.0206 24.8979 16.0731 25.0022 16.1372 25.0022C16.2014 25.0022 16.2538 25.1065 16.2538 25.234C16.2538 25.3615 16.3063 25.4658 16.3705 25.4658C16.4346 25.4658 16.4871 25.5701 16.4871 25.6976C16.4871 25.8251 16.5395 25.9294 16.6037 25.9294C16.6678 25.9294 16.7203 26.0858 16.7203 26.277C16.7203 26.4683 16.7728 26.6247 16.8369 26.6247C16.901 26.6247 16.9535 26.7812 16.9535 26.9724C16.9535 27.1636 17.006 27.3201 17.0701 27.3201C17.1343 27.3201 17.1868 27.4765 17.1868 27.6678C17.1868 27.859 17.2392 28.0154 17.3034 28.0154C17.3675 28.0154 17.42 28.224 17.42 28.479C17.42 28.734 17.4725 28.9426 17.5366 28.9426C17.6014 28.9426 17.6532 29.2517 17.6532 29.6379C17.6532 30.0242 17.705 30.3333 17.7698 30.3333C17.8429 30.3333 17.8864 31.0672 17.8864 32.3035V34.2736H22.551H27.2155V32.3035C27.2155 31.0672 27.172 30.3333 27.0989 30.3333C27.0309 30.3333 26.9823 29.947 26.9823 29.4061C26.9823 28.8653 26.9337 28.479 26.8657 28.479C26.8016 28.479 26.7491 28.2182 26.7491 27.8995C26.7491 27.5808 26.6966 27.3201 26.6325 27.3201C26.5683 27.3201 26.5159 27.0593 26.5159 26.7406C26.5159 26.4219 26.4634 26.1612 26.3992 26.1612C26.3351 26.1612 26.2826 26.0047 26.2826 25.8135C26.2826 25.6223 26.2302 25.4658 26.166 25.4658C26.1019 25.4658 26.0494 25.2572 26.0494 25.0022C26.0494 24.7473 25.9969 24.5387 25.9328 24.5387C25.8686 24.5387 25.8162 24.3822 25.8162 24.191C25.8162 23.9998 25.7637 23.8433 25.6996 23.8433C25.6354 23.8433 25.5829 23.739 25.5829 23.6115C25.5829 23.484 25.5305 23.3797 25.4663 23.3797C25.4022 23.3797 25.3497 23.2233 25.3497 23.0321C25.3497 22.8408 25.2972 22.6844 25.2331 22.6844C25.169 22.6844 25.1165 22.5801 25.1165 22.4526C25.1165 22.3251 25.064 22.2208 24.9999 22.2208C24.9357 22.2208 24.8833 22.0644 24.8833 21.8731C24.8833 21.6819 24.8308 21.5255 24.7666 21.5255C24.7025 21.5255 24.65 21.4212 24.65 21.2937C24.65 21.1662 24.5976 21.0619 24.5334 21.0619C24.4693 21.0619 24.4168 20.9576 24.4168 20.8301C24.4168 20.7026 24.3643 20.5983 24.3002 20.5983C24.2361 20.5983 24.1836 20.494 24.1836 20.3665C24.1836 20.2391 24.1311 20.1347 24.067 20.1347C24.0028 20.1347 23.9504 20.0304 23.9504 19.903C23.9504 19.7755 23.8979 19.6712 23.8337 19.6712C23.7696 19.6712 23.7171 19.5784 23.7171 19.465C23.7171 19.3515 23.6122 19.1836 23.4839 19.0917C23.3556 18.9998 23.2507 18.8434 23.2507 18.744C23.2507 18.6447 23.1457 18.4883 23.0174 18.3964C22.8892 18.3045 22.7842 18.148 22.7842 18.0487C22.7842 17.9494 22.6793 17.7929 22.551 17.701C22.4227 17.6091 22.3178 17.4527 22.3178 17.3533C22.3178 17.254 22.2128 17.0976 22.0845 17.0057C21.9563 16.9138 21.8513 16.7678 21.8513 16.6813C21.8513 16.5947 21.6414 16.3235 21.3848 16.0785C21.1283 15.8335 20.9184 15.5765 20.9184 15.5072C20.9184 15.3413 17.3432 11.7905 17.1761 11.7905C17.1051 11.7905 16.9 11.634 16.7203 11.4428C16.5406 11.2516 16.3307 11.0951 16.2538 11.0951C16.177 11.0951 15.9671 10.9387 15.7874 10.7475C15.6077 10.5562 15.3767 10.3998 15.2742 10.3998C15.1447 10.3998 15.0877 10.2934 15.0877 10.0521C15.0877 9.86089 15.1402 9.70443 15.2043 9.70443C15.2685 9.70443 15.3209 9.60013 15.3209 9.47265C15.3209 9.34516 15.3734 9.24086 15.4375 9.24086C15.5017 9.24086 15.5542 9.14803 15.5542 9.03469C15.5542 8.92123 15.6591 8.7533 15.7874 8.6614C15.9157 8.5695 16.0206 8.40157 16.0206 8.28811C16.0206 8.17477 16.0731 8.08194 16.1372 8.08194C16.2014 8.08194 16.2538 7.97763 16.2538 7.85015C16.2538 7.72267 16.3063 7.61837 16.3705 7.61837C16.4346 7.61837 16.4871 7.52554 16.4871 7.41219C16.4871 7.29874 16.592 7.13081 16.7203 7.03891C16.8486 6.947 16.9535 6.77908 16.9535 6.66562C16.9535 6.55227 17.006 6.45944 17.0701 6.45944C17.1343 6.45944 17.1868 6.35514 17.1868 6.22766C17.1868 6.10018 17.2392 5.99587 17.3034 5.99587C17.3675 5.99587 17.42 5.90304 17.42 5.7897C17.42 5.67624 17.5249 5.50831 17.6532 5.41641C17.7815 5.32451 17.8864 5.15658 17.8864 5.04312C17.8864 4.92978 17.9389 4.83695 18.003 4.83695C18.0672 4.83695 18.1197 4.73265 18.1197 4.60516C18.1197 4.47768 18.1721 4.37338 18.2363 4.37338C18.3004 4.37338 18.3529 4.26908 18.3529 4.14159C18.3529 3.95304 18.4307 3.90981 18.7693 3.90981C19.1965 3.90981 19.519 4.11969 19.519 4.39748C19.519 4.48359 19.624 4.62915 19.7523 4.72106C19.8805 4.81296 19.9855 4.98089 19.9855 5.09435C19.9855 5.20769 20.038 5.30052 20.1021 5.30052C20.1662 5.30052 20.2187 5.39335 20.2187 5.50669C20.2187 5.62015 20.3237 5.78808 20.4519 5.87998C20.5802 5.97188 20.6852 6.13981 20.6852 6.25327C20.6852 6.36661 20.7376 6.45944 20.8018 6.45944C20.8659 6.45944 20.9184 6.56375 20.9184 6.69123C20.9184 6.81871 20.9709 6.92301 21.035 6.92301C21.0991 6.92301 21.1516 7.01584 21.1516 7.12919C21.1516 7.24264 21.2566 7.41057 21.3848 7.50247C21.5131 7.59438 21.6181 7.7623 21.6181 7.87576C21.6181 7.98911 21.6706 8.08194 21.7347 8.08194C21.7988 8.08194 21.8513 8.18624 21.8513 8.31372C21.8513 8.4412 21.9038 8.54551 21.9679 8.54551C22.0321 8.54551 22.0845 8.63834 22.0845 8.75168C22.0845 8.86514 22.1895 9.03307 22.3178 9.12497C22.446 9.21687 22.551 9.3848 22.551 9.49826C22.551 9.6116 22.6035 9.70443 22.6676 9.70443C22.7317 9.70443 22.7842 9.80873 22.7842 9.93622C22.7842 10.0637 22.8367 10.168 22.9008 10.168C22.965 10.168 23.0174 10.2608 23.0174 10.3742C23.0174 10.4876 23.1224 10.6556 23.2507 10.7475C23.3789 10.8394 23.4839 11.0073 23.4839 11.1208C23.4839 11.2341 23.5364 11.3269 23.6005 11.3269C23.6646 11.3269 23.7171 11.4312 23.7171 11.5587C23.7171 11.6862 23.7696 11.7905 23.8337 11.7905C23.8979 11.7905 23.9504 11.8833 23.9504 11.9967C23.9504 12.1101 24.0553 12.2781 24.1836 12.37C24.3119 12.4619 24.4168 12.6298 24.4168 12.7432C24.4168 12.8566 24.4693 12.9494 24.5334 12.9494C24.5976 12.9494 24.65 13.0537 24.65 13.1812C24.65 13.3087 24.7025 13.413 24.7666 13.413C24.8308 13.413 24.8833 13.5058 24.8833 13.6192C24.8833 13.7326 24.9882 13.9005 25.1165 13.9925C25.2448 14.0844 25.3497 14.2523 25.3497 14.3657C25.3497 14.4791 25.4022 14.5719 25.4663 14.5719C25.5305 14.5719 25.5829 14.6762 25.5829 14.8037C25.5829 14.9312 25.6354 15.0355 25.6996 15.0355C25.7637 15.0355 25.8162 15.1283 25.8162 15.2417C25.8162 15.3551 25.9211 15.523 26.0494 15.6149C26.1777 15.7068 26.2826 15.8748 26.2826 15.9882C26.2826 16.1016 26.3351 16.1944 26.3992 16.1944C26.4634 16.1944 26.5159 16.2987 26.5159 16.4262C26.5159 16.5537 26.5683 16.658 26.6325 16.658C26.6966 16.658 26.7491 16.7508 26.7491 16.8641C26.7491 16.9776 26.854 17.1455 26.9823 17.2374C27.1106 17.3293 27.2155 17.4973 27.2155 17.6107C27.2155 17.7241 27.268 17.8169 27.3322 17.8169C27.3963 17.8169 27.4488 17.9097 27.4488 18.0231C27.4488 18.1365 27.5537 18.3045 27.682 18.3964C27.8103 18.4883 27.9152 18.6562 27.9152 18.7697C27.9152 18.883 27.9677 18.9758 28.0318 18.9758C28.096 18.9758 28.1484 19.0801 28.1484 19.2076C28.1484 19.3351 28.2009 19.4394 28.2651 19.4394C28.3292 19.4394 28.3817 19.5322 28.3817 19.6456C28.3817 19.759 28.4866 19.927 28.6149 20.0189C28.7432 20.1108 28.8481 20.2787 28.8481 20.3921C28.8481 20.5055 28.9006 20.5983 28.9647 20.5983C29.0289 20.5983 29.0814 20.7026 29.0814 20.8301C29.0814 20.9576 29.1338 21.0619 29.198 21.0619C29.2621 21.0619 29.3146 21.1547 29.3146 21.2681C29.3146 21.3815 29.4195 21.5494 29.5478 21.6413C29.6761 21.7333 29.781 21.9012 29.781 22.0146C29.781 22.128 29.8335 22.2208 29.8977 22.2208C29.9618 22.2208 30.0143 22.3251 30.0143 22.4526C30.0143 22.5801 30.0667 22.6844 30.1309 22.6844C30.195 22.6844 30.2475 22.7772 30.2475 22.8906C30.2475 23.004 30.3525 23.1719 30.4807 23.2638C30.609 23.3557 30.714 23.5237 30.714 23.6371C30.714 23.7505 30.7664 23.8433 30.8306 23.8433C30.8947 23.8433 30.9472 23.9476 30.9472 24.0751C30.9472 24.2026 30.9997 24.3069 31.0638 24.3069C31.1279 24.3069 31.1804 24.3997 31.1804 24.513C31.1804 24.6265 31.2854 24.7944 31.4136 24.8863C31.5419 24.9782 31.6469 25.1462 31.6469 25.2596C31.6469 25.373 31.6993 25.4658 31.7635 25.4658C31.8276 25.4658 31.8801 25.5701 31.8801 25.6976C31.8801 25.8251 31.9326 25.9294 31.9967 25.9294C32.0608 25.9294 32.1133 26.0222 32.1133 26.1355C32.1133 26.249 32.2183 26.4169 32.3465 26.5088C32.4748 26.6007 32.5798 26.7687 32.5798 26.8821C32.5798 26.9955 32.6323 27.0883 32.6964 27.0883C32.7605 27.0883 32.813 27.1926 32.813 27.3201C32.813 27.4476 32.8655 27.5519 32.9296 27.5519C32.9938 27.5519 33.0462 27.6447 33.0462 27.758C33.0462 27.8715 33.1512 28.0394 33.2795 28.1313C33.4077 28.2232 33.5127 28.3912 33.5127 28.5046C33.5127 28.618 33.5652 28.7108 33.6293 28.7108C33.6934 28.7108 33.7459 28.8151 33.7459 28.9426C33.7459 29.0701 33.7984 29.1744 33.8625 29.1744C33.9267 29.1744 33.9791 29.2672 33.9791 29.3805C33.9791 29.494 34.0841 29.6619 34.2124 29.7538C34.3406 29.8457 34.4456 30.0137 34.4456 30.1271C34.4456 30.2405 34.4981 30.3333 34.5622 30.3333C34.6263 30.3333 34.6788 30.5419 34.6788 30.7969V31.2604H32.7464C31.0968 31.2604 30.7854 31.2887 30.6193 31.454C30.4776 31.5947 30.4639 31.6605 30.5692 31.6954C30.7501 31.7553 30.7775 34.0418 30.5973 34.0418C30.5332 34.0418 30.4807 34.094 30.4807 34.1577C30.4807 34.2311 31.3359 34.2736 32.813 34.2736C34.2901 34.2736 35.1453 34.2311 35.1453 34.1577C35.1453 34.094 35.2502 34.0418 35.3785 34.0418C35.5068 34.0418 35.6117 33.9897 35.6117 33.9259C35.6117 33.8622 35.7167 33.8101 35.845 33.8101C35.9732 33.8101 36.0782 33.7579 36.0782 33.6942C36.0782 33.6304 36.1606 33.5783 36.2614 33.5783C36.4862 33.5783 36.7779 33.3028 36.7779 33.0906C36.7779 33.0045 36.8828 32.8589 37.0111 32.767C37.1394 32.6751 37.2443 32.5072 37.2443 32.3937C37.2443 32.2804 37.2968 32.1876 37.3609 32.1876C37.4251 32.1876 37.4776 32.0311 37.4776 31.8399C37.4776 31.6487 37.53 31.4922 37.5942 31.4922C37.659 31.4922 37.7108 31.1831 37.7108 30.7969C37.7108 30.4106 37.659 30.1015 37.5942 30.1015C37.53 30.1015 37.4776 29.945 37.4776 29.7538C37.4776 29.5626 37.4251 29.4061 37.3609 29.4061C37.2968 29.4061 37.2443 29.3018 37.2443 29.1744C37.2443 29.0469 37.1919 28.9426 37.1277 28.9426C37.0636 28.9426 37.0111 28.8497 37.0111 28.7364C37.0111 28.6229 36.9061 28.455 36.7779 28.3631C36.6496 28.2712 36.5446 28.1033 36.5446 27.9898C36.5446 27.8765 36.4922 27.7836 36.428 27.7836C36.3639 27.7836 36.3114 27.6793 36.3114 27.5519C36.3114 27.4244 36.2589 27.3201 36.1948 27.3201C36.1307 27.3201 36.0782 27.2273 36.0782 27.1139C36.0782 27.0004 35.9732 26.8325 35.845 26.7406C35.7167 26.6487 35.6117 26.4808 35.6117 26.3673C35.6117 26.254 35.5593 26.1612 35.4951 26.1612C35.431 26.1612 35.3785 26.0569 35.3785 25.9294C35.3785 25.8019 35.326 25.6976 35.2619 25.6976C35.1978 25.6976 35.1453 25.6048 35.1453 25.4914C35.1453 25.378 35.0403 25.21 34.9121 25.1181C34.7838 25.0262 34.6788 24.8583 34.6788 24.7448C34.6788 24.6315 34.6263 24.5387 34.5622 24.5387C34.4981 24.5387 34.4456 24.4344 34.4456 24.3069C34.4456 24.1794 34.3931 24.0751 34.329 24.0751C34.2648 24.0751 34.2124 23.9823 34.2124 23.8689C34.2124 23.7555 34.1074 23.5875 33.9791 23.4956C33.8509 23.4037 33.7459 23.2358 33.7459 23.1223C33.7459 23.009 33.6934 22.9162 33.6293 22.9162C33.5652 22.9162 33.5127 22.8119 33.5127 22.6844C33.5127 22.5569 33.4602 22.4526 33.3961 22.4526C33.3319 22.4526 33.2795 22.3598 33.2795 22.2464C33.2795 22.133 33.1745 21.965 33.0462 21.8731C32.918 21.7812 32.813 21.6133 32.813 21.4998C32.813 21.3865 32.7605 21.2937 32.6964 21.2937C32.6323 21.2937 32.5798 21.1894 32.5798 21.0619C32.5798 20.9344 32.5273 20.8301 32.4632 20.8301C32.399 20.8301 32.3465 20.7373 32.3465 20.6239C32.3465 20.5105 32.2416 20.3425 32.1133 20.2506C31.985 20.1587 31.8801 19.9908 31.8801 19.8774C31.8801 19.764 31.8276 19.6712 31.7635 19.6712C31.6993 19.6712 31.6469 19.5669 31.6469 19.4394C31.6469 19.3119 31.5944 19.2076 31.5303 19.2076C31.4661 19.2076 31.4136 19.1148 31.4136 19.0014C31.4136 18.888 31.3087 18.7201 31.1804 18.6281C31.0521 18.5362 30.9472 18.3683 30.9472 18.2549C30.9472 18.1415 30.8947 18.0487 30.8306 18.0487C30.7664 18.0487 30.714 17.9559 30.714 17.8425C30.714 17.7291 30.609 17.5611 30.4807 17.4692C30.3525 17.3773 30.2475 17.2094 30.2475 17.0959C30.2475 16.9826 30.195 16.8898 30.1309 16.8898C30.0667 16.8898 30.0143 16.7855 30.0143 16.658C30.0143 16.5305 29.9618 16.4262 29.8977 16.4262C29.8335 16.4262 29.781 16.3334 29.781 16.22C29.781 16.1066 29.6761 15.9386 29.5478 15.8467C29.4195 15.7548 29.3146 15.5869 29.3146 15.4734C29.3146 15.3601 29.2621 15.2673 29.198 15.2673C29.1338 15.2673 29.0814 15.163 29.0814 15.0355C29.0814 14.908 29.0289 14.8037 28.9647 14.8037C28.9006 14.8037 28.8481 14.7109 28.8481 14.5975C28.8481 14.4841 28.7432 14.3161 28.6149 14.2242C28.4866 14.1323 28.3817 13.9644 28.3817 13.8509C28.3817 13.7376 28.3292 13.6448 28.2651 13.6448C28.2009 13.6448 28.1484 13.5405 28.1484 13.413C28.1484 13.2855 28.096 13.1812 28.0318 13.1812C27.9677 13.1812 27.9152 13.0884 27.9152 12.975C27.9152 12.8616 27.8103 12.6936 27.682 12.6017C27.5537 12.5098 27.4488 12.3419 27.4488 12.2285C27.4488 12.1151 27.3963 12.0223 27.3322 12.0223C27.268 12.0223 27.2155 11.918 27.2155 11.7905C27.2155 11.663 27.1631 11.5587 27.0989 11.5587C27.0348 11.5587 26.9823 11.4659 26.9823 11.3525C26.9823 11.2391 26.8774 11.0711 26.7491 10.9792C26.6208 10.8873 26.5159 10.7194 26.5159 10.606C26.5159 10.4926 26.4634 10.3998 26.3992 10.3998C26.3351 10.3998 26.2826 10.2955 26.2826 10.168C26.2826 10.0405 26.2302 9.93622 26.166 9.93622C26.1019 9.93622 26.0494 9.84338 26.0494 9.73004C26.0494 9.61658 25.9444 9.44866 25.8162 9.35675C25.6879 9.26485 25.5829 9.09692 25.5829 8.98347C25.5829 8.87012 25.5305 8.77729 25.4663 8.77729C25.4022 8.77729 25.3497 8.67299 25.3497 8.54551C25.3497 8.41803 25.2972 8.31372 25.2331 8.31372C25.169 8.31372 25.1165 8.22089 25.1165 8.10755C25.1165 7.99409 25.0115 7.82616 24.8833 7.73426C24.755 7.64236 24.65 7.47443 24.65 7.36097C24.65 7.24763 24.5976 7.1548 24.5334 7.1548C24.4693 7.1548 24.4168 7.05049 24.4168 6.92301C24.4168 6.79553 24.3643 6.69123 24.3002 6.69123C24.2361 6.69123 24.1836 6.5984 24.1836 6.48505C24.1836 6.3716 24.0786 6.20367 23.9504 6.11177C23.8221 6.01986 23.7171 5.85194 23.7171 5.73848C23.7171 5.62513 23.6646 5.5323 23.6005 5.5323C23.5364 5.5323 23.4839 5.43947 23.4839 5.32613C23.4839 5.21267 23.3789 5.04474 23.2507 4.95284C23.1224 4.86094 23.0174 4.69301 23.0174 4.57955C23.0174 4.46621 22.965 4.37338 22.9008 4.37338C22.8367 4.37338 22.7842 4.26908 22.7842 4.14159C22.7842 4.01411 22.7317 3.90981 22.6676 3.90981C22.6035 3.90981 22.551 3.81698 22.551 3.70364C22.551 3.59018 22.446 3.42225 22.3178 3.33035C22.1895 3.23844 22.0845 3.07052 22.0845 2.95706C22.0845 2.84372 22.0321 2.75089 21.9679 2.75089C21.9038 2.75089 21.8513 2.67127 21.8513 2.57403C21.8513 2.34399 20.8614 1.36018 20.6299 1.36018C20.5321 1.36018 20.4519 1.30802 20.4519 1.24428C20.4519 1.18054 20.2945 1.12839 20.1021 1.12839C19.9097 1.12839 19.7523 1.07624 19.7523 1.0125C19.7523 0.944934 19.3636 0.896606 18.8193 0.896606C18.2751 0.896606 17.8864 0.944934 17.8864 1.0125ZM51.0048 7.73426C51.0048 7.798 50.7949 7.85015 50.5383 7.85015C50.2818 7.85015 50.0718 7.9023 50.0718 7.96604C50.0718 8.02979 49.9144 8.08194 49.722 8.08194C49.5296 8.08194 49.3722 8.13409 49.3722 8.19783C49.3722 8.26157 49.2672 8.31372 49.1389 8.31372C49.0107 8.31372 48.9057 8.36587 48.9057 8.42961C48.9057 8.49335 48.8123 8.54551 48.6983 8.54551C48.5841 8.54551 48.4151 8.64981 48.3226 8.77729C48.2302 8.90477 48.0857 9.00908 48.0015 9.00908C47.8025 9.00908 47.0399 9.76701 47.0399 9.96473C47.0399 10.0484 46.9349 10.192 46.8067 10.2839C46.6784 10.3758 46.5734 10.5437 46.5734 10.6572C46.5734 10.7705 46.521 10.8634 46.4568 10.8634C46.3927 10.8634 46.3402 10.9677 46.3402 11.0951C46.3402 11.2226 46.2877 11.3269 46.2236 11.3269C46.1595 11.3269 46.107 11.5877 46.107 11.9064C46.107 12.2251 46.0545 12.4858 45.9904 12.4858C45.9255 12.4858 45.8737 12.7949 45.8737 13.1812C45.8737 13.5675 45.9255 13.8766 45.9904 13.8766C46.0545 13.8766 46.107 14.1373 46.107 14.456C46.107 14.7747 46.1595 15.0355 46.2236 15.0355C46.2877 15.0355 46.3402 15.1398 46.3402 15.2673C46.3402 15.3947 46.3927 15.4991 46.4568 15.4991C46.521 15.4991 46.5734 15.5782 46.5734 15.6751C46.5734 15.9042 48.0316 17.3533 48.2621 17.3533C48.3596 17.3533 48.4393 17.4055 48.4393 17.4692C48.4393 17.533 48.5442 17.5851 48.6725 17.5851C48.8008 17.5851 48.9057 17.6373 48.9057 17.701C48.9057 17.7647 49.0107 17.8169 49.1389 17.8169C49.2672 17.8169 49.3722 17.8691 49.3722 17.9328C49.3722 17.9965 49.5296 18.0487 49.722 18.0487C49.9144 18.0487 50.0718 18.1008 50.0718 18.1646C50.0718 18.2283 50.2293 18.2805 50.4217 18.2805C50.6141 18.2805 50.7715 18.3326 50.7715 18.3964C50.7715 18.4601 50.9814 18.5123 51.238 18.5123C51.4945 18.5123 51.7044 18.5644 51.7044 18.6281C51.7044 18.6919 51.8619 18.744 52.0543 18.744C52.2467 18.744 52.4041 18.7962 52.4041 18.8599C52.4041 18.9237 52.614 18.9758 52.8706 18.9758C53.1271 18.9758 53.337 19.028 53.337 19.0917C53.337 19.1555 53.5469 19.2076 53.8035 19.2076C54.06 19.2076 54.2699 19.2598 54.2699 19.3235C54.2699 19.3872 54.4274 19.4394 54.6198 19.4394C54.8122 19.4394 54.9696 19.4915 54.9696 19.5553C54.9696 19.619 55.0746 19.6712 55.2029 19.6712C55.3311 19.6712 55.4361 19.7233 55.4361 19.7871C55.4361 19.8508 55.5295 19.903 55.6435 19.903C55.7577 19.903 55.9267 20.0073 56.0192 20.1347C56.1116 20.2622 56.2806 20.3665 56.3948 20.3665C56.5159 20.3665 56.6022 20.4523 56.6022 20.5727C56.6022 20.6862 56.7072 20.8541 56.8354 20.946C57.0382 21.0912 57.0687 21.246 57.0687 22.1305C57.0687 22.7316 57.021 23.148 56.9521 23.148C56.8879 23.148 56.8354 23.2276 56.8354 23.3248C56.8354 23.5548 55.8455 24.5387 55.614 24.5387C55.5162 24.5387 55.4361 24.5908 55.4361 24.6546C55.4361 24.7183 55.2787 24.7704 55.0862 24.7704C54.8938 24.7704 54.7364 24.8226 54.7364 24.8863C54.7364 24.9581 54.1145 25.0022 53.1038 25.0022C52.0931 25.0022 51.4712 24.9581 51.4712 24.8863C51.4712 24.8226 51.2613 24.7704 51.0048 24.7704C50.7482 24.7704 50.5383 24.7183 50.5383 24.6546C50.5383 24.5908 50.3809 24.5387 50.1885 24.5387C49.996 24.5387 49.8386 24.4865 49.8386 24.4228C49.8386 24.359 49.7337 24.3069 49.6054 24.3069C49.4771 24.3069 49.3722 24.2547 49.3722 24.191C49.3722 24.1272 49.2788 24.0751 49.1647 24.0751C49.0505 24.0751 48.8816 23.9708 48.7891 23.8433C48.6966 23.7158 48.5392 23.6115 48.4393 23.6115C48.3393 23.6115 48.1819 23.5072 48.0894 23.3797C47.9969 23.2523 47.8395 23.148 47.7396 23.148C47.6396 23.148 47.4822 23.0436 47.3897 22.9162C47.2973 22.7887 47.1521 22.6844 47.0672 22.6844C46.8791 22.6844 46.3402 23.2027 46.3402 23.3836C46.3402 23.4552 46.1303 23.7142 45.8737 23.9592C45.6172 24.2042 45.4073 24.4625 45.4073 24.5334C45.4073 24.7137 46.183 25.4658 46.3689 25.4658C46.4531 25.4658 46.5976 25.5701 46.69 25.6976C46.7825 25.8251 46.9515 25.9294 47.0657 25.9294C47.1797 25.9294 47.2731 25.9815 47.2731 26.0453C47.2731 26.109 47.3781 26.1612 47.5063 26.1612C47.6346 26.1612 47.7396 26.2133 47.7396 26.277C47.7396 26.3408 47.8445 26.3929 47.9728 26.3929C48.1011 26.3929 48.206 26.4451 48.206 26.5088C48.206 26.5726 48.311 26.6247 48.4393 26.6247C48.5675 26.6247 48.6725 26.6769 48.6725 26.7406C48.6725 26.8044 48.8299 26.8565 49.0223 26.8565C49.2147 26.8565 49.3722 26.9087 49.3722 26.9724C49.3722 27.0361 49.5821 27.0883 49.8386 27.0883C50.0952 27.0883 50.3051 27.1404 50.3051 27.2042C50.3051 27.2679 50.5675 27.3201 50.8881 27.3201C51.2088 27.3201 51.4712 27.3722 51.4712 27.436C51.4712 27.5081 52.1321 27.5519 53.2204 27.5519C54.3088 27.5519 54.9696 27.5081 54.9696 27.436C54.9696 27.3722 55.1795 27.3201 55.4361 27.3201C55.6926 27.3201 55.9025 27.2679 55.9025 27.2042C55.9025 27.1404 56.06 27.0883 56.2524 27.0883C56.4448 27.0883 56.6022 27.0361 56.6022 26.9724C56.6022 26.9087 56.7072 26.8565 56.8354 26.8565C56.9637 26.8565 57.0687 26.8044 57.0687 26.7406C57.0687 26.6769 57.1621 26.6247 57.2761 26.6247C57.3903 26.6247 57.5593 26.5204 57.6517 26.3929C57.7442 26.2655 57.8887 26.1612 57.9729 26.1612C58.1718 26.1612 58.9345 25.4032 58.9345 25.2055C58.9345 25.1218 59.0395 24.9782 59.1677 24.8863C59.296 24.7944 59.401 24.6265 59.401 24.513C59.401 24.3997 59.4534 24.3069 59.5176 24.3069C59.5817 24.3069 59.6342 24.2026 59.6342 24.0751C59.6342 23.9476 59.6867 23.8433 59.7508 23.8433C59.8149 23.8433 59.8674 23.5825 59.8674 23.2638C59.8674 22.9451 59.9199 22.6844 59.984 22.6844C60.0506 22.6844 60.1006 22.3367 60.1006 21.8731C60.1006 21.4096 60.0506 21.0619 59.984 21.0619C59.9199 21.0619 59.8674 20.8533 59.8674 20.5983C59.8674 20.3434 59.8149 20.1347 59.7508 20.1347C59.6867 20.1347 59.6342 19.9898 59.6342 19.8127C59.6342 19.6235 59.5379 19.4217 59.401 19.3235C59.2727 19.2316 59.1677 19.088 59.1677 19.0043C59.1677 18.8066 58.4051 18.0487 58.2061 18.0487C58.1219 18.0487 57.9774 17.9444 57.885 17.8169C57.7925 17.6894 57.6235 17.5851 57.5094 17.5851C57.3953 17.5851 57.3019 17.533 57.3019 17.4692C57.3019 17.4055 57.197 17.3533 57.0687 17.3533C56.9404 17.3533 56.8354 17.3012 56.8354 17.2374C56.8354 17.1737 56.678 17.1215 56.4856 17.1215C56.2932 17.1215 56.1358 17.0694 56.1358 17.0057C56.1358 16.9419 56.0308 16.8898 55.9025 16.8898C55.7743 16.8898 55.6693 16.8376 55.6693 16.7739C55.6693 16.7101 55.4594 16.658 55.2029 16.658C54.9463 16.658 54.7364 16.6058 54.7364 16.5421C54.7364 16.4783 54.579 16.4262 54.3866 16.4262C54.1941 16.4262 54.0367 16.374 54.0367 16.3103C54.0367 16.2466 53.8268 16.1944 53.5703 16.1944C53.3137 16.1944 53.1038 16.1423 53.1038 16.0785C53.1038 16.0148 52.8939 15.9626 52.6374 15.9626C52.3808 15.9626 52.1709 15.9105 52.1709 15.8467C52.1709 15.783 52.0135 15.7308 51.8211 15.7308C51.6286 15.7308 51.4712 15.6787 51.4712 15.6149C51.4712 15.5512 51.3138 15.4991 51.1214 15.4991C50.929 15.4991 50.7715 15.4469 50.7715 15.3832C50.7715 15.3194 50.6781 15.2673 50.5641 15.2673C50.4499 15.2673 50.2809 15.163 50.1885 15.0355C50.096 14.908 49.9508 14.8037 49.8659 14.8037C49.6531 14.8037 49.1389 14.2746 49.1389 14.0556C49.1389 13.9571 49.0865 13.8766 49.0223 13.8766C48.9543 13.8766 48.9057 13.4903 48.9057 12.9494C48.9057 12.4085 48.9543 12.0223 49.0223 12.0223C49.0865 12.0223 49.1389 11.918 49.1389 11.7905C49.1389 11.663 49.1914 11.5587 49.2556 11.5587C49.3197 11.5587 49.3722 11.4768 49.3722 11.3766C49.3722 11.1532 49.6494 10.8634 49.8629 10.8634C49.9495 10.8634 50.096 10.7591 50.1885 10.6316C50.2872 10.4955 50.4904 10.3998 50.6807 10.3998C50.8589 10.3998 51.0048 10.3476 51.0048 10.2839C51.0048 10.2126 51.5878 10.168 52.5207 10.168C53.4536 10.168 54.0367 10.2126 54.0367 10.2839C54.0367 10.3476 54.2466 10.3998 54.5032 10.3998C54.7597 10.3998 54.9696 10.4519 54.9696 10.5157C54.9696 10.5794 55.0746 10.6316 55.2029 10.6316C55.3311 10.6316 55.4361 10.6837 55.4361 10.7475C55.4361 10.8112 55.5935 10.8634 55.7859 10.8634C55.9783 10.8634 56.1358 10.9155 56.1358 10.9792C56.1358 11.043 56.2292 11.0951 56.3432 11.0951C56.4574 11.0951 56.6264 11.1994 56.7188 11.3269C56.8113 11.4544 56.9687 11.5587 57.0687 11.5587C57.1686 11.5587 57.326 11.663 57.4185 11.7905C57.6285 12.0801 58.0016 12.0964 58.0016 11.8161C58.0016 11.7026 58.1065 11.5347 58.2348 11.4428C58.3631 11.3509 58.468 11.1945 58.468 11.0951C58.468 10.9958 58.573 10.8394 58.7013 10.7475C58.8295 10.6556 58.9345 10.4876 58.9345 10.3742C58.9345 10.2608 58.987 10.168 59.0511 10.168C59.2649 10.168 59.1712 9.81337 58.8814 9.52538C58.724 9.36892 58.5141 9.24086 58.415 9.24086C58.3159 9.24086 58.2348 9.18871 58.2348 9.12497C58.2348 9.06123 58.1299 9.00908 58.0016 9.00908C57.8733 9.00908 57.7684 8.95692 57.7684 8.89318C57.7684 8.82944 57.6634 8.77729 57.5351 8.77729C57.4069 8.77729 57.3019 8.72514 57.3019 8.6614C57.3019 8.59766 57.197 8.54551 57.0687 8.54551C56.9404 8.54551 56.8354 8.49335 56.8354 8.42961C56.8354 8.36587 56.7305 8.31372 56.6022 8.31372C56.4739 8.31372 56.369 8.26157 56.369 8.19783C56.369 8.13409 56.1591 8.08194 55.9025 8.08194C55.646 8.08194 55.4361 8.02979 55.4361 7.96604C55.4361 7.9023 55.1737 7.85015 54.853 7.85015C54.5323 7.85015 54.2699 7.798 54.2699 7.73426C54.2699 7.66252 53.648 7.61837 52.6374 7.61837C51.6267 7.61837 51.0048 7.66252 51.0048 7.73426ZM62.6661 17.5851V27.3201H69.8962H77.1263V26.0453V24.7704H71.4122H65.6981V21.7572V18.744H70.7125H75.7269V17.4692V16.1944H70.7125H65.6981V13.2971V10.3998H71.2956H76.893V9.12497V7.85015H69.7796H62.6661V17.5851ZM79.925 17.5851V27.3201H81.3243H82.7237V20.0189C82.7237 16.0032 82.7523 12.7176 82.7873 12.7176C82.9063 12.7176 83.4234 13.286 83.4234 13.4168C83.4234 13.4884 83.6333 13.7475 83.8899 13.9925C84.1464 14.2374 84.3563 14.4992 84.3563 14.5742C84.3563 14.6493 84.5137 14.8569 84.7062 15.0355C84.8986 15.2141 85.056 15.4216 85.056 15.4967C85.056 15.5717 85.2659 15.8335 85.5224 16.0785C85.779 16.3235 85.9889 16.5853 85.9889 16.6603C85.9889 16.7354 86.1463 16.943 86.3387 17.1215C86.5312 17.3001 86.6886 17.5087 86.6886 17.5851C86.6886 17.6615 86.846 17.8701 87.0384 18.0487C87.2308 18.2273 87.3883 18.4348 87.3883 18.5099C87.3883 18.5849 87.5982 18.8467 87.8547 19.0917C88.1113 19.3367 88.3212 19.5985 88.3212 19.6735C88.3212 19.7486 88.4786 19.9562 88.671 20.1347C88.8634 20.3133 89.0209 20.5219 89.0209 20.5983C89.0209 20.6747 89.1783 20.8833 89.3707 21.0619C89.5631 21.2405 89.7206 21.448 89.7206 21.5231C89.7206 21.5981 89.9305 21.8599 90.187 22.1049C90.4436 22.3499 90.6535 22.6117 90.6535 22.6867C90.6535 22.7618 90.8109 22.9694 91.0033 23.148C91.1957 23.3265 91.3531 23.5351 91.3531 23.6115C91.3531 23.6879 91.5106 23.8965 91.703 24.0751C91.8954 24.2537 92.0528 24.4612 92.0528 24.5363C92.0528 24.6113 92.2627 24.8731 92.5193 25.1181C92.7758 25.3631 92.9857 25.6249 92.9857 25.6999C92.9857 25.775 93.1432 25.9826 93.3356 26.1612C93.528 26.3397 93.6854 26.5456 93.6854 26.6186C93.6854 26.6915 93.8143 26.8791 93.9717 27.0356C94.2393 27.3017 94.3374 27.3201 95.4877 27.3201H96.7174V17.5851V7.85015H95.318H93.9186V15.0355C93.9186 18.9874 93.8901 22.2208 93.8551 22.2208C93.7349 22.2208 93.219 21.6518 93.219 21.5193C93.219 21.4463 93.0615 21.2405 92.8691 21.0619C92.6767 20.8833 92.5193 20.6747 92.5193 20.5983C92.5193 20.5219 92.3618 20.3133 92.1694 20.1347C91.977 19.9562 91.8196 19.7486 91.8196 19.6735C91.8196 19.5985 91.6097 19.3367 91.3531 19.0917C91.0966 18.8467 90.8867 18.5849 90.8867 18.5099C90.8867 18.4348 90.7293 18.2273 90.5368 18.0487C90.3444 17.8701 90.187 17.6615 90.187 17.5851C90.187 17.5087 90.0296 17.3001 89.8372 17.1215C89.6447 16.943 89.4873 16.7354 89.4873 16.6603C89.4873 16.5853 89.2774 16.3235 89.0209 16.0785C88.7643 15.8335 88.5544 15.5717 88.5544 15.4967C88.5544 15.4216 88.397 15.2141 88.2046 15.0355C88.0122 14.8569 87.8547 14.6483 87.8547 14.5719C87.8547 14.4955 87.6973 14.2869 87.5049 14.1083C87.3125 13.9298 87.155 13.7222 87.155 13.6471C87.155 13.5721 86.9451 13.3103 86.6886 13.0653C86.432 12.8203 86.2221 12.5585 86.2221 12.4835C86.2221 12.4084 86.0647 12.2009 85.8723 12.0223C85.6799 11.8437 85.5224 11.6361 85.5224 11.561C85.5224 11.486 85.3125 11.2242 85.056 10.9792C84.7994 10.7343 84.5895 10.4724 84.5895 10.3975C84.5895 10.3224 84.4321 10.1148 84.2397 9.93622C84.0473 9.75763 83.8899 9.54902 83.8899 9.47265C83.8899 9.39627 83.7324 9.18767 83.54 9.00908C83.3476 8.83049 83.1902 8.62466 83.1902 8.55165C83.1902 8.47875 83.0613 8.29112 82.9039 8.13467C82.6331 7.86545 82.5453 7.85015 81.2713 7.85015H79.925V17.5851ZM99.0497 9.24086V10.6316H102.198H105.347V18.9758V27.3201H106.746H108.146V18.9758V10.6316H111.244C113.774 10.6316 114.373 10.6012 114.509 10.466C114.633 10.3435 114.676 9.98257 114.676 9.07525V7.85015H106.863H99.0497V9.24086ZM116.921 8.02353C116.807 8.15228 116.775 10.2331 116.775 17.5885C116.775 25.581 116.8 27.0138 116.942 27.1545C117.067 27.2789 117.443 27.3201 118.458 27.3201H119.807V23.8433V20.3665H122.203C124.591 20.3665 124.6 20.3675 124.885 20.651C125.042 20.8075 125.171 20.9951 125.171 21.068C125.171 21.141 125.329 21.3469 125.521 21.5255C125.713 21.704 125.871 21.9222 125.871 22.0099C125.871 22.0977 125.976 22.2448 126.104 22.3367C126.232 22.4286 126.337 22.5851 126.337 22.6844C126.337 22.7837 126.442 22.9402 126.571 23.0321C126.699 23.124 126.804 23.271 126.804 23.3589C126.804 23.4466 126.961 23.6647 127.154 23.8433C127.346 24.0219 127.503 24.24 127.503 24.3277C127.503 24.4156 127.608 24.5627 127.737 24.6546C127.865 24.7465 127.97 24.9029 127.97 25.0022C127.97 25.1016 128.075 25.258 128.203 25.3499C128.331 25.4418 128.436 25.5889 128.436 25.6767C128.436 25.7645 128.594 25.9826 128.786 26.1612C128.979 26.3397 129.136 26.5456 129.136 26.6186C129.136 26.6915 129.265 26.8791 129.422 27.0356C129.698 27.3097 129.766 27.3201 131.288 27.3201C132.263 27.3201 132.868 27.2757 132.868 27.2042C132.868 27.1404 132.815 27.0883 132.751 27.0883C132.687 27.0883 132.634 26.9955 132.634 26.8821C132.634 26.7687 132.529 26.6007 132.401 26.5088C132.273 26.4169 132.168 26.2605 132.168 26.1612C132.168 26.0618 132.063 25.9054 131.935 25.8135C131.806 25.7216 131.702 25.5745 131.702 25.4867C131.702 25.3989 131.544 25.1808 131.352 25.0022C131.159 24.8236 131.002 24.6055 131.002 24.5178C131.002 24.43 130.897 24.2829 130.769 24.191C130.64 24.0991 130.535 23.952 130.535 23.8642C130.535 23.7764 130.378 23.5583 130.186 23.3797C129.993 23.2011 129.836 22.983 129.836 22.8953C129.836 22.8075 129.731 22.6604 129.602 22.5685C129.474 22.4766 129.369 22.3295 129.369 22.2417C129.369 22.1539 129.212 21.9358 129.019 21.7572C128.827 21.5787 128.67 21.3605 128.67 21.2728C128.67 21.185 128.565 21.0379 128.436 20.946C128.308 20.8541 128.203 20.6976 128.203 20.5983C128.203 20.499 128.098 20.3425 127.97 20.2506C127.842 20.1587 127.737 19.9908 127.737 19.8774C127.737 19.7141 127.834 19.6712 128.203 19.6712C128.46 19.6712 128.67 19.619 128.67 19.5553C128.67 19.4915 128.775 19.4394 128.903 19.4394C129.031 19.4394 129.136 19.3872 129.136 19.3235C129.136 19.2598 129.241 19.2076 129.369 19.2076C129.498 19.2076 129.602 19.1555 129.602 19.0917C129.602 19.028 129.696 18.9758 129.81 18.9758C129.924 18.9758 130.093 18.8715 130.186 18.744C130.278 18.6166 130.423 18.5123 130.507 18.5123C130.706 18.5123 131.468 17.7543 131.468 17.5566C131.468 17.4729 131.573 17.3293 131.702 17.2374C131.83 17.1455 131.935 16.9776 131.935 16.8641C131.935 16.7508 131.987 16.658 132.051 16.658C132.115 16.658 132.168 16.5537 132.168 16.4262C132.168 16.2987 132.22 16.1944 132.285 16.1944C132.349 16.1944 132.401 15.9858 132.401 15.7308C132.401 15.4759 132.454 15.2673 132.518 15.2673C132.588 15.2673 132.634 14.7651 132.634 13.9925C132.634 13.2198 132.588 12.7176 132.518 12.7176C132.454 12.7176 132.401 12.509 132.401 12.2541C132.401 11.9991 132.349 11.7905 132.285 11.7905C132.22 11.7905 132.168 11.6862 132.168 11.5587C132.168 11.4312 132.115 11.3269 132.051 11.3269C131.987 11.3269 131.935 11.2226 131.935 11.0951C131.935 10.9677 131.882 10.8634 131.818 10.8634C131.754 10.8634 131.702 10.7842 131.702 10.6873C131.702 10.4582 130.243 9.00908 130.013 9.00908C129.915 9.00908 129.836 8.95692 129.836 8.89318C129.836 8.82944 129.731 8.77729 129.602 8.77729C129.474 8.77729 129.369 8.72514 129.369 8.6614C129.369 8.59766 129.264 8.54551 129.136 8.54551C129.008 8.54551 128.903 8.49335 128.903 8.42961C128.903 8.36587 128.693 8.31372 128.436 8.31372C128.18 8.31372 127.97 8.26157 127.97 8.19783C127.97 8.13409 127.707 8.08194 127.387 8.08194C127.066 8.08194 126.804 8.02979 126.804 7.96604C126.804 7.8906 125.106 7.85166 121.935 7.85456C117.88 7.85826 117.042 7.88643 116.921 8.02353ZM133.101 8.05633C133.101 8.16978 133.206 8.33771 133.334 8.42961C133.462 8.52152 133.567 8.67797 133.567 8.77729C133.567 8.87661 133.672 9.03307 133.801 9.12497C133.929 9.21687 134.034 9.37333 134.034 9.47265C134.034 9.57197 134.139 9.72842 134.267 9.82032C134.395 9.91223 134.5 10.0687 134.5 10.168C134.5 10.2673 134.605 10.4238 134.733 10.5157C134.862 10.6076 134.967 10.764 134.967 10.8634C134.967 10.9627 135.072 11.1191 135.2 11.211C135.328 11.3029 135.433 11.4594 135.433 11.5587C135.433 11.658 135.538 11.8145 135.666 11.9064C135.795 11.9983 135.9 12.1662 135.9 12.2797C135.9 12.393 135.952 12.4858 136.016 12.4858C136.08 12.4858 136.133 12.5787 136.133 12.692C136.133 12.8055 136.238 12.9734 136.366 13.0653C136.494 13.1572 136.599 13.3137 136.599 13.413C136.599 13.5123 136.704 13.6688 136.833 13.7607C136.961 13.8526 137.066 14.009 137.066 14.1083C137.066 14.2077 137.171 14.3641 137.299 14.456C137.427 14.5479 137.532 14.7044 137.532 14.8037C137.532 14.903 137.637 15.0595 137.765 15.1514C137.894 15.2433 137.999 15.3997 137.999 15.4991C137.999 15.5984 138.104 15.7548 138.232 15.8467C138.36 15.9386 138.465 16.0951 138.465 16.1944C138.465 16.2937 138.57 16.4502 138.698 16.5421C138.827 16.634 138.932 16.8019 138.932 16.9154C138.932 17.0287 138.984 17.1215 139.048 17.1215C139.112 17.1215 139.165 17.2144 139.165 17.3277C139.165 17.4412 139.27 17.6091 139.398 17.701C139.526 17.7929 139.631 17.9494 139.631 18.0487C139.631 18.148 139.736 18.3045 139.864 18.3964C139.993 18.4883 140.098 18.6447 140.098 18.744C140.098 18.8434 140.203 18.9998 140.331 19.0917C140.459 19.1836 140.564 19.3515 140.564 19.465C140.564 19.5784 140.617 19.6712 140.681 19.6712C140.756 19.6712 140.797 21.0233 140.797 23.4956V27.3201H142.197H143.596V23.3797C143.596 20.8301 143.637 19.4394 143.713 19.4394C143.777 19.4394 143.829 19.3466 143.829 19.2332C143.829 19.1198 143.934 18.9518 144.063 18.8599C144.191 18.768 144.296 18.6116 144.296 18.5123C144.296 18.4129 144.401 18.2565 144.529 18.1646C144.657 18.0727 144.762 17.9162 144.762 17.8169C144.762 17.7176 144.867 17.5611 144.995 17.4692C145.124 17.3773 145.229 17.2209 145.229 17.1215C145.229 17.0222 145.334 16.8658 145.462 16.7739C145.59 16.682 145.695 16.5255 145.695 16.4262C145.695 16.3269 145.8 16.1704 145.928 16.0785C146.057 15.9866 146.162 15.8187 146.162 15.7052C146.162 15.5919 146.214 15.4991 146.278 15.4991C146.342 15.4991 146.395 15.4062 146.395 15.2929C146.395 15.1794 146.5 15.0115 146.628 14.9196C146.756 14.8277 146.861 14.6712 146.861 14.5719C146.861 14.4726 146.966 14.3161 147.095 14.2242C147.223 14.1323 147.328 13.9759 147.328 13.8766C147.328 13.7772 147.433 13.6208 147.561 13.5289C147.689 13.437 147.794 13.2805 147.794 13.1812C147.794 13.0819 147.899 12.9254 148.027 12.8335C148.156 12.7416 148.261 12.5852 148.261 12.4858C148.261 12.3865 148.366 12.2301 148.494 12.1382C148.622 12.0463 148.727 11.8898 148.727 11.7905C148.727 11.6912 148.832 11.5347 148.96 11.4428C149.089 11.3509 149.194 11.1945 149.194 11.0951C149.194 10.9958 149.299 10.8394 149.427 10.7475C149.555 10.6556 149.66 10.4991 149.66 10.3998C149.66 10.3005 149.765 10.144 149.893 10.0521C150.022 9.96021 150.127 9.80375 150.127 9.70443C150.127 9.60511 150.231 9.44866 150.36 9.35675C150.488 9.26485 150.593 9.1084 150.593 9.00908C150.593 8.90976 150.698 8.7533 150.826 8.6614C150.954 8.5695 151.059 8.40157 151.059 8.28811C151.059 8.17477 151.112 8.08194 151.176 8.08194C151.24 8.08194 151.293 8.02979 151.293 7.96604C151.293 7.89454 150.688 7.85015 149.713 7.85015C148.191 7.85015 148.123 7.86058 147.847 8.13467C147.69 8.29112 147.561 8.49973 147.561 8.59824C147.561 8.69675 147.509 8.77729 147.444 8.77729C147.38 8.77729 147.328 8.87012 147.328 8.98347C147.328 9.09692 147.223 9.26485 147.095 9.35675C146.966 9.44866 146.861 9.60511 146.861 9.70443C146.861 9.80375 146.756 9.96021 146.628 10.0521C146.5 10.144 146.395 10.3005 146.395 10.3998C146.395 10.4991 146.29 10.6556 146.162 10.7475C146.033 10.8394 145.928 11.0073 145.928 11.1208C145.928 11.2341 145.876 11.3269 145.812 11.3269C145.748 11.3269 145.695 11.4198 145.695 11.5331C145.695 11.6466 145.59 11.8145 145.462 11.9064C145.334 11.9983 145.229 12.1547 145.229 12.2541C145.229 12.3534 145.124 12.5098 144.995 12.6017C144.867 12.6936 144.762 12.8501 144.762 12.9494C144.762 13.0487 144.657 13.2052 144.529 13.2971C144.401 13.389 144.296 13.5569 144.296 13.6704C144.296 13.7837 144.243 13.8766 144.179 13.8766C144.115 13.8766 144.063 13.9694 144.063 14.0827C144.063 14.1962 143.958 14.3641 143.829 14.456C143.701 14.5479 143.596 14.7044 143.596 14.8037C143.596 14.903 143.491 15.0595 143.363 15.1514C143.235 15.2433 143.13 15.3997 143.13 15.4991C143.13 15.5984 143.025 15.7548 142.896 15.8467C142.768 15.9386 142.663 16.1066 142.663 16.22C142.663 16.3334 142.611 16.4262 142.547 16.4262C142.482 16.4262 142.43 16.5305 142.43 16.658C142.43 16.8125 142.352 16.8898 142.197 16.8898C142.051 16.8898 141.964 16.8125 141.964 16.6836C141.964 16.5701 141.859 16.4022 141.73 16.3103C141.602 16.2184 141.497 16.0505 141.497 15.937C141.497 15.8237 141.445 15.7308 141.38 15.7308C141.316 15.7308 141.264 15.638 141.264 15.5247C141.264 15.4112 141.159 15.2433 141.031 15.1514C140.902 15.0595 140.797 14.903 140.797 14.8037C140.797 14.7044 140.692 14.5479 140.564 14.456C140.436 14.3641 140.331 14.2077 140.331 14.1083C140.331 14.009 140.226 13.8526 140.098 13.7607C139.969 13.6688 139.864 13.5008 139.864 13.3874C139.864 13.274 139.812 13.1812 139.748 13.1812C139.684 13.1812 139.631 13.0884 139.631 12.975C139.631 12.8616 139.526 12.6936 139.398 12.6017C139.27 12.5098 139.165 12.3534 139.165 12.2541C139.165 12.1547 139.06 11.9983 138.932 11.9064C138.803 11.8145 138.698 11.6466 138.698 11.5331C138.698 11.4198 138.646 11.3269 138.582 11.3269C138.518 11.3269 138.465 11.2341 138.465 11.1208C138.465 11.0073 138.36 10.8394 138.232 10.7475C138.104 10.6556 137.999 10.4991 137.999 10.3998C137.999 10.3005 137.894 10.144 137.765 10.0521C137.637 9.96021 137.532 9.79228 137.532 9.67882C137.532 9.56548 137.48 9.47265 137.416 9.47265C137.351 9.47265 137.299 9.37982 137.299 9.26647C137.299 9.15301 137.194 8.98509 137.066 8.89318C136.937 8.80128 136.833 8.65699 136.833 8.57262C136.833 8.48814 136.704 8.29112 136.546 8.13467C136.271 7.86058 136.202 7.85015 134.68 7.85015C133.244 7.85015 133.101 7.86881 133.101 8.05633ZM126.104 10.5157C126.104 10.5794 126.366 10.6316 126.687 10.6316C127.008 10.6316 127.27 10.6837 127.27 10.7475C127.27 10.8112 127.375 10.8634 127.503 10.8634C127.632 10.8634 127.737 10.9155 127.737 10.9792C127.737 11.043 127.817 11.0951 127.914 11.0951C128.219 11.0951 129.369 12.3294 129.369 12.6571C129.369 12.8179 129.422 12.9494 129.486 12.9494C129.556 12.9494 129.602 13.413 129.602 14.1083C129.602 14.8037 129.556 15.2673 129.486 15.2673C129.422 15.2673 129.369 15.3716 129.369 15.4991C129.369 15.6265 129.317 15.7308 129.253 15.7308C129.188 15.7308 129.136 15.8105 129.136 15.9077C129.136 16.1377 128.146 17.1215 127.915 17.1215C127.817 17.1215 127.737 17.1737 127.737 17.2374C127.737 17.3012 127.632 17.3533 127.503 17.3533C127.375 17.3533 127.27 17.4055 127.27 17.4692C127.27 17.533 127.06 17.5851 126.804 17.5851C126.547 17.5851 126.337 17.6373 126.337 17.701C126.337 17.7755 125.171 17.8169 123.072 17.8169H119.807V14.1083V10.3998H122.955C124.977 10.3998 126.104 10.4413 126.104 10.5157Z" fill="white"/>
</svg>
